<svg width="286" height="288" xmlns="http://www.w3.org/2000/svg" xmlns:xlink="http://www.w3.org/1999/xlink"><defs><path d="M1.761 13.29L.394 8c1.26-3.64 4.462-6.545 8.21-7.444a11.158 11.158 0 012.601-.304c2.97 0 5.948 1.146 8.092 3.21 1.077 1.035 1.977 2.466 1.977 3.906 0 .329-.046.658-.148.982-.55 1.754-2.533 2.676-4.39 2.676a5.74 5.74 0 01-.338-.01c-1.946-.121-3.747-1.013-5.58-1.68-1.144-.415-2.382-.742-3.587-.742-.726 0-1.44.12-2.114.41-1.722.742-2.836 2.484-3.356 4.286z" id="a"/></defs><g fill="none" fill-rule="evenodd"><path d="M46.258 230.72v-20.257c11.113 0 20.257 9.144 20.257 20.257 0 11.113-9.144 20.258-20.257 20.258-10.936 0-20-8.856-20.253-19.79l20.253-.468" fill="#D4D5CF"/><path d="M41.319 225.26l-20.257.457c0-5.275 2.06-10.805 5.739-14.585 3.679-3.78 8.93-5.978 14.204-6.123l.314 20.25M258.349 33.52l15.185-2.32c1.273 8.33-4.535 16.232-12.865 17.505-8.33 1.273-16.232-4.534-17.505-12.865-1.273-8.33 4.535-16.231 12.865-17.504a15.35 15.35 0 014.007-.084l-1.687 15.268" fill="#F1F0EC"/><path d="M263.276 18.3l-1.843 11.772 11.553-2.17s-1.698-6.597-9.71-9.601M25.465 58.554h8.411V24.952h-8.411zm12.371 0h8.411V32.282h-8.411zm12.56 0h8.412v-20.27h-8.412zm11.627 0h8.412V46.516h-8.412z" fill="#D4D5CF"/><path d="M198.679 146.921c-.08-4.955-4.157-8.921-9.088-8.842-4.932.08-8.88 4.176-8.801 9.13.08 4.955 4.156 8.921 9.088 8.842 4.932-.08 8.88-4.176 8.8-9.13zm-27.651.446c-.166-10.363 8.091-18.929 18.406-19.095 10.315-.167 18.842 8.129 19.007 18.491.166 10.363-8.09 18.929-18.406 19.095-10.315.166-18.841-8.129-19.007-18.491z" fill="#F1F0EC"/><path d="M171.028 147.367c-.166-10.363 8.091-18.929 18.406-19.095l.157 9.807c-4.932.08-8.88 4.176-8.801 9.13.08 4.955 4.156 8.92 9.088 8.842l.157 9.807c-10.315.166-18.841-8.129-19.007-18.491" fill="#D4D5CF"/><path d="M187.754 126.764c12.068-.195 21.695 9.17 21.888 21.294l-11.42.184c-.093-5.797-4.504-9.446-10.274-9.353l-.194-12.125" fill="#E4E4DE"/><path d="M271.268 271.133c0 .087-56.3.157-125.735.157-69.458 0-125.747-.07-125.747-.157s56.289-.157 125.747-.157c69.434 0 125.735.07 125.735.157" fill="#132529"/><path d="M167.384 118.628l-2.649 3.773-.718 3.018 2.694 3.866 5.117-3.14 4.46-4.378a.81.81 0 00.084-1.06l-.728-.987.093-.21a1.346 1.346 0 00-.454-1.654l-.647-.454 2.433-3.098c.344-.438.359-1.05.037-1.505l-6.209 4.67-2.662-.055-.851 1.214" fill="#B67E6D"/><path d="M175.749 119.61c.025.032-.28.329-.845.722-.29.191-.611.422-1.052.617-.22.09-.499.151-.78.08-.274-.053-.57-.292-.625-.616-.065-.31.038-.61.18-.833.142-.228.313-.4.46-.566l.815-.876c.47-.492.778-.783.81-.754.032.028-.217.37-.645.899-.246.295-.5.6-.764.92-.288.335-.641.715-.553 1.147.038.2.197.335.396.386.199.053.407.017.603-.054.39-.154.747-.375 1.038-.535.583-.34.934-.573.962-.537" fill="#AC6150"/><path d="M176.434 121.453c.028.031-.274.333-.788.798-.261.23-.547.517-.98.75-.395.239-1.168.301-1.506-.325-.146-.316-.033-.648.098-.87.136-.235.295-.415.445-.593.307-.349.62-.628.897-.84.558-.424.961-.588.98-.555.024.04-.336.27-.84.724a7.89 7.89 0 00-.819.857c-.138.172-.29.359-.398.555-.111.196-.166.416-.081.591.078.176.287.29.493.318.206.032.414-.028.605-.118.38-.185.7-.463.97-.666.542-.416.895-.658.924-.626m-7.297 2.228c-.038-.039.437-.327.803-1.091.186-.379.28-.873.27-1.445-.014-.556-.093-1.226-.477-1.725l-.237-.309.381.062c.327.053.68.048 1.031-.011.5-.084.97-.273 1.331-.552.367-.277.59-.66.64-1.045l.133.15a78.796 78.796 0 01-2.195-.096c-.53-.033-.833-.065-.832-.094 0-.03.305-.05.836-.064.53-.014 1.288-.02 2.194-.017h.147l-.014.15c-.043.462-.311.934-.723 1.251-.408.323-.921.53-1.466.622a3.385 3.385 0 01-1.134.006l.144-.246c.46.62.505 1.329.509 1.919-.006.596-.136 1.143-.36 1.533-.215.395-.47.655-.659.807-.19.153-.313.208-.322.195" fill="#AC6150"/><path d="M142.797 96.779c.035-.011-.166-.276-.109-.804.03-.26.126-.573.32-.89.191-.32.486-.636.82-.984.337-.344.71-.757.98-1.28.272-.52.46-1.13.51-1.79a4.534 4.534 0 00-.315-2.033c-.259-.669-.645-1.293-1.025-1.923-.383-.628-.735-1.249-.952-1.89-.221-.64-.274-1.294-.146-1.9.259-1.217.92-2.202 1.232-3.135.347-.927.336-1.775.167-2.301a2.06 2.06 0 00-.266-.576c-.083-.12-.139-.172-.146-.166-.029.017.172.255.29.773.124.514.102 1.305-.259 2.19-.323.895-1.01 1.858-1.308 3.157-.148.647-.095 1.38.137 2.057.226.682.59 1.326.975 1.957.383.632.76 1.24 1.007 1.872a4.3 4.3 0 01.313 1.898 4.426 4.426 0 01-.451 1.688c-.245.497-.581.89-.909 1.247-.324.358-.62.698-.81 1.049-.192.35-.276.69-.288.97-.012.281.048.497.11.629.06.134.118.19.123.185m-17.09-4.873c-.352 1.074-1.436 1.835-2.564 1.902-1.128.066-2.249-.516-2.93-1.418-.68-.902-.935-2.09-.793-3.21.064-.507.206-1.019.119-1.523-.124-.714-.68-1.279-.899-1.97-.394-1.245.454-2.631 1.627-3.204 1.173-.573 2.562-.494 3.837-.214" fill="#132529"/><path d="M143.19 76.265c1.223 1.1.867 2.653.385 3.718-.482 1.066-1.072 2.15-1.019 3.32.055 1.194.772 2.242 1.164 3.372a6.42 6.42 0 01-.096 4.426c-.418 1.056-1.113 1.984-1.537 3.038-.425 1.054-.53 2.356.178 3.244-.631-.065-1.179-.51-1.491-1.063-.313-.552-.418-1.198-.44-1.832-.086-2.407.935-4.807.512-7.178-.246-1.378-.972-2.674-.959-4.074.014-1.405.765-2.677 1.288-3.981.522-1.305.784-2.91-.072-4.023" fill="#132529"/><path d="M140.087 71.866c1.429.103 2.877.767 3.633 1.983.757 1.217.621 3.007-.505 3.893-1.062.835-2.643.669-3.819.004-.868-.49-1.61-1.243-1.967-2.173-.357-.931-.291-2.043.28-2.86.572-.816 1.672-1.263 2.623-.964" fill="#132529"/><path d="M141.237 71.656c-.723-1.69-2.33-2.908-4.094-3.427-1.763-.52-3.666-.4-5.45.04-1.786.442-3.477 1.192-5.156 1.94-1.223.543-2.473 1.104-3.44 2.029-.956.916-1.576 2.137-1.962 3.404-.727 2.38-.667 4.09.466 6.305.494.965.2 2.092.648 3.078.449.986 2.336 2.083 1.822 3.037" fill="#132529"/><path d="M137.386 101.513c.068-4.849.063-6.67.065-6.642 0 0 4.167-.701 5.018-6.141.424-2.706.278-7.14.041-10.765-.213-3.262-2.383-7.26-5.633-6.91l-10.147 2.589a1.913 1.913 0 00-1.706 1.943v25.922" fill="#B67E6D"/><path d="M141.292 81.678c.014.368-.287.683-.672.705-.383.021-.706-.259-.72-.628-.014-.368.287-.683.67-.705a.668.668 0 01.722.628m.261-1.757c-.085.092-.615-.298-1.366-.295-.75-.006-1.3.38-1.381.29-.04-.041.048-.206.287-.381a1.918 1.918 0 011.106-.344 1.84 1.84 0 011.087.349c.232.176.31.34.267.381m-7.367 1.757c.015.367-.286.683-.67.705-.384.021-.707-.259-.72-.628-.015-.368.286-.683.67-.705a.666.666 0 01.72.628m-.01-1.248c-.086.091-.616-.298-1.366-.295-.75-.007-1.3.38-1.381.289-.04-.041.046-.205.287-.38a1.915 1.915 0 011.105-.344c.468.002.862.173 1.088.349.23.176.31.34.267.382m2.736 5.559c-.003-.042.464-.124 1.219-.222.192-.02.373-.059.405-.19.045-.138-.036-.345-.13-.567-.18-.464-.37-.95-.569-1.458-.792-2.077-1.366-3.784-1.282-3.815.084-.031.794 1.626 1.586 3.703l.546 1.466c.073.218.198.465.1.752a.48.48 0 01-.314.281c-.123.038-.23.04-.325.046-.76.043-1.233.047-1.236.005" fill="#132529"/><path d="M137.45 94.871s-3.658.244-7.287-1.927c0 0 1.846 3.736 7.288 3.215v-1.288" fill="#AC6150"/><path d="M134.505 78.233c-.074.204-.823.109-1.703.217-.883.09-1.592.35-1.71.167-.052-.088.072-.28.358-.478.284-.198.738-.386 1.266-.447.529-.059 1.013.024 1.334.154.324.13.487.29.455.387m6.768-.131c-.132.171-.65-.005-1.27-.012-.623-.028-1.15.117-1.27-.06-.054-.087.029-.258.258-.42.227-.161.605-.294 1.033-.281.427.012.798.166 1.014.34.22.175.293.35.235.433" fill="#132529"/><path d="M136.594 87.717a1.264 1.264 0 00-1.132-.466c-.304.034-.61.18-.794.428-.184.248-.222.6-.053.835.189.265.583.325.918.23.334-.096.62-.317.893-.536a.763.763 0 00.199-.208c.047-.083.057-.191-.001-.26" fill="#AC6150"/><path d="M134.828 86.518c.113-.007.116.753.768 1.29.65.54 1.46.454 1.466.56.01.047-.18.148-.522.157a1.888 1.888 0 01-1.224-.423 1.65 1.65 0 01-.596-1.082c-.029-.318.055-.506.108-.502m6.582-13.412c-.259 1.72-2.978 2.002-4.688 1.672-1.123 1.47-3.037 2.293-4.876 2.1-.25-.027-.513-.068-.745.03-.245.104-.4.343-.559.556a4.857 4.857 0 01-2.959 1.848c-.23 1.72-1.615 3.223-3.31 3.592 0 0-.558-.277-.362-2.475.198-2.198-.041-6.77-.041-6.77l5.954-2.704 7.12-1.328s4.905.566 4.466 3.479" fill="#132529"/><path d="M121.702 82.194c.048.006-.022-.602.37-1.53a3.857 3.857 0 013.163-2.312l.094-.01.024-.094c.217-.865.627-1.812 1.408-2.494.752-.668 1.98-1 2.978-.502l.165.081.062-.18c.022-.062.045-.13.07-.197.563-1.568 2.088-2.574 3.502-2.714.36-.034.7-.016 1.053.029.349.038.722.071 1.075-.05.355-.123.6-.384.805-.61.204-.237.392-.444.61-.602a3.005 3.005 0 012.457-.474c.6.152.877.386.895.357.006-.01-.06-.066-.196-.167-.142-.086-.356-.22-.666-.31a3.068 3.068 0 00-2.623.41c-.504.318-.801.951-1.368 1.144-.568.182-1.294-.115-2.071-.022-1.525.137-3.158 1.196-3.777 2.9l-.074.216.227-.098c-1.161-.57-2.504-.18-3.327.558-.844.75-1.258 1.759-1.47 2.663l.118-.104a4.078 4.078 0 00-2.219.989 3.894 3.894 0 00-1.061 1.534 3.721 3.721 0 00-.25 1.168c-.01.275.014.42.026.42" fill="#334F55"/><path d="M131.1 76.442c-.005.018.15.082.448.147.296.066.74.114 1.288.072 1.077-.07 2.647-.622 3.707-1.997l-.197.048.179.08a4.103 4.103 0 002.436.226 3.922 3.922 0 001.778-.908c.428-.381.683-.774.828-1.053.144-.283.185-.453.168-.46-.053-.034-.3.647-1.143 1.34a3.88 3.88 0 01-1.69.79 3.937 3.937 0 01-2.252-.23l-.165-.075-.12-.054-.078.102c-.985 1.284-2.447 1.846-3.475 1.968-1.05.138-1.702-.058-1.712.004" fill="#334F55"/><path d="M134.162 73.225c.013.095.8.027 1.724.244.928.207 1.606.61 1.659.53.054-.062-.589-.619-1.587-.843-.997-.233-1.818-.01-1.796.069m2.06-.178c.07.058.348-.173.7-.425.348-.255.654-.448.62-.533-.028-.081-.421-.01-.81.273-.389.281-.579.633-.51.685m-8.452 3.163c.033.087.722-.136 1.588-.107.868.017 1.542.277 1.58.19.046-.07-.624-.49-1.571-.51-.947-.03-1.64.354-1.598.426m-1.506 2.912c-.004.082 1.027.126 2.207-.293 1.185-.411 1.962-1.089 1.908-1.151-.055-.078-.882.456-2.014.847-1.128.402-2.108.502-2.101.597m-3.715 2.081c.072.063.575-.502 1.418-.792.837-.308 1.583-.187 1.6-.281.037-.076-.768-.362-1.708-.022-.944.33-1.387 1.06-1.31 1.095m.109-7.812c.026.01.086-.182.279-.472.194-.286.552-.653 1.096-.958 1.087-.606 2.828-1.044 4.747-1.066 1.929-.023 3.658.347 4.888.648 1.233.31 1.988.544 2.004.498.006-.021-.173-.106-.507-.234a19.679 19.679 0 00-1.437-.484c-1.225-.359-2.976-.773-4.952-.75-1.971.025-3.745.504-4.86 1.192-.558.346-.916.765-1.086 1.089-.17.328-.188.534-.172.537" fill="#334F55"/><path d="M122.214 76.337c.06.022.19-.668.837-1.532.63-.863 1.848-1.828 3.428-2.281 1.586-.45 3.114-.395 4.195-.323 1.088.08 1.763.172 1.77.122.007-.038-.653-.209-1.748-.348-1.086-.13-2.653-.227-4.305.24-1.656.474-2.915 1.52-3.525 2.458a4.27 4.27 0 00-.57 1.188c-.085.3-.1.473-.082.476m20.372 2.274c.007.029.496-.135 1.006-.751.502-.59.973-1.721.655-2.937-.336-1.211-1.312-1.952-2.042-2.21-.75-.278-1.256-.173-1.247-.145-.004.059.484.043 1.16.354.662.293 1.52 1.003 1.819 2.085.284 1.084-.101 2.129-.526 2.716-.428.608-.858.84-.825.888" fill="#334F55"/><path d="M120.392 87.15c.027-.05-.538-.31-1.347-.848-.396-.275-.843-.653-1.163-1.188-.325-.528-.46-1.237-.201-1.905a2.549 2.549 0 011.318-1.432 2.929 2.929 0 011.622-.196c.954.158 1.439.586 1.469.532.011-.015-.093-.132-.325-.294a3.168 3.168 0 00-1.103-.461 3.02 3.02 0 00-1.78.147 2.781 2.781 0 00-1.504 1.594c-.298.758-.125 1.604.25 2.17.37.581.866.962 1.292 1.223.431.262.801.422 1.058.528.257.105.404.15.414.13m-.252.046c-.02-.007-.102.164-.223.482a11.77 11.77 0 00-.433 1.38c-.144.595-.273 1.328-.222 2.153.05.815.285 1.74.876 2.516.593.772 1.48 1.236 2.326 1.297a2.383 2.383 0 002.012-.815c.42-.482.561-1.009.56-1.357.003-.353-.084-.534-.097-.529-.029.005.013.193-.027.52-.036.322-.201.792-.604 1.212a2.178 2.178 0 01-1.82.674c-.754-.068-1.558-.498-2.096-1.198-.54-.709-.77-1.567-.834-2.342-.065-.78.035-1.493.148-2.082.244-1.178.487-1.895.435-1.911" fill="#132529"/><path d="M127.667 79.333c.731 1.274.317 2.889-.283 4.23-.6 1.34-1.389 2.678-1.362 4.146.043 2.46 2.358 4.507 2.192 6.961-.099 1.46-1.186 2.802-2.594 3.2 1.117-.846 1.127-2.559.608-3.86-.518-1.303-2.863-4.679-3.25-6.025-1.305-4.523-.888-5.081.623-6.783" fill="#132529"/><path d="M123.433 82.848c-.001.038.33.094.853-.012a3.557 3.557 0 001.806-.999 3.557 3.557 0 00.94-1.838c.09-.527.023-.855-.015-.852-.05-.001-.066.32-.206.801a4.015 4.015 0 01-.95 1.666 4.015 4.015 0 01-1.633 1.002c-.477.155-.797.182-.795.232" fill="#334F55"/><path d="M126.11 96.381c.007.008.06-.03.157-.114.095-.084.224-.222.362-.421a3.137 3.137 0 00.512-1.969 2.979 2.979 0 00-.435-1.368c-.277-.446-.684-.822-1.09-1.204-.411-.381-.806-.794-1.07-1.322a3.96 3.96 0 01-.426-1.75 3.765 3.765 0 01.404-1.753c.263-.532.613-1.001.945-1.452.689-.89 1.223-1.788 1.522-2.597.307-.808.39-1.516.384-1.996-.008-.482-.08-.741-.095-.738-.068-.008.153 1.087-.5 2.65-.32.779-.849 1.625-1.547 2.503-.34.447-.707.924-.99 1.489a4.035 4.035 0 00-.445 1.897c.008.674.175 1.328.468 1.891.29.572.731 1.021 1.147 1.394.416.379.807.731 1.069 1.133.258.398.394.835.432 1.242a3.167 3.167 0 01-.39 1.883c-.236.403-.436.58-.415.602" fill="#334F55"/><path d="M122.888 82.706c-.014-.013-.137.085-.32.303a3.7 3.7 0 00-.6 1.046c-.383.946-.493 2.444.053 3.92.552 1.47 1.482 2.56 2.172 3.28.702.722 1.189 1.107 1.216 1.079.035-.035-.397-.48-1.048-1.231-.64-.751-1.513-1.836-2.038-3.24-.518-1.4-.45-2.815-.14-3.733.303-.934.756-1.386.705-1.424" fill="#334F55"/><path d="M118.64 126.428l-.236 1.136-1.448.096 1.71-5.716.01 4.134c0 .118-.011.235-.035.35m45.462-3.958l-4.557 2.16-5.747 3.091c-2.382-6.976-2.278-14.406-3.13-17.223-2.68-8.858-7.642-9.63-7.642-9.63l-.007.074a1.696 1.696 0 00-.468-.24l-4.188-1.302-.13-2.274-14.148.33-.117 2.857-4.457.745c-2.78.466-5.27 2.155-6.505 4.689-.088.18-.17.364-.247.551-2.913 7.153-9.299 22.88-9.79 24.547-1.717 5.821 4.464 10.93 9.87 9.743.382-.084 1.557-.543 3.125-1.194-.007 1.426.538 2.826 1.637 3.808.516.461 1.062.76 1.544.76l25.941.146c.698.012 1.438-.593 2.033-1.248 1.05.515 2.387.55 3.768.271h.004l.013-.003c2.24-.457 4.582-1.721 5.13-2.263l13.153-12.378-5.085-6.017" fill="#2472FF"/><path d="M125.358 127.102c-.184.02-.37.038-.627.063l-1.767.157-5.996.493-.234.019.075-.224a61.86 61.86 0 00.556-1.744c.815-2.712 1.503-5.188 2.059-6.963.276-.888.512-1.604.69-2.093.177-.49.292-.754.311-.748.022.008-.053.286-.194.785l-.594 2.118c-.5 1.79-1.152 4.272-1.97 6.993a53.502 53.502 0 01-.564 1.753l-.159-.205c2.393-.177 4.498-.312 6.006-.386 1.501-.073 2.434-.093 2.408-.018m2.906 6.528c.01.02-.212.147-.62.36l-1.73.886c-1.466.74-3.45 1.835-5.692 2.968-2.243 1.14-4.404 1.913-5.996 2.334a27.42 27.42 0 01-1.9.444c-.451.088-.703.127-.708.105-.012-.052.978-.288 2.545-.763a37.171 37.171 0 005.918-2.402c2.232-1.128 4.241-2.196 5.734-2.886.745-.35 1.352-.622 1.777-.798.424-.178.663-.267.672-.248m16.266-8.225c-.052-.031.484-.794 1.003-2.181.514-1.376.959-3.423.663-5.661-.142-1.116-.41-2.165-.641-3.123-.235-.956-.43-1.83-.537-2.573a10.19 10.19 0 01-.119-1.774c.019-.42.056-.649.075-.648.057.002-.014.928.264 2.386.132.728.347 1.585.599 2.539.246.953.526 2.01.672 3.154.303 2.3-.19 4.402-.768 5.781a9.888 9.888 0 01-.819 1.579c-.228.353-.377.531-.392.52m.132.439c.067.012-.524 1.054-.36 2.857.075.892.344 1.932.808 3.027.455 1.1 1.088 2.254 1.67 3.518.58 1.264 1.014 2.55 1.113 3.774.118 1.22-.148 2.346-.59 3.157-.438.822-1.015 1.345-1.456 1.607a2.602 2.602 0 01-.531.261c-.128.044-.196.061-.2.051-.012-.027.256-.124.663-.414.406-.284.932-.808 1.324-1.606.4-.792.63-1.857.502-3.03-.112-1.174-.538-2.421-1.11-3.668-.576-1.25-1.206-2.415-1.653-3.54-.458-1.12-.714-2.201-.762-3.121-.053-.92.084-1.667.249-2.152a3.41 3.41 0 01.222-.547c.063-.119.1-.179.11-.174m.073-23.406c.08-.013.297 1.003.249 2.274-.044 1.272-.333 2.27-.413 2.25-.09-.018.056-1.02.098-2.262.048-1.24-.025-2.25.066-2.262m7.145 33.29c-.037.008-.177-.446-.256-1.206a9.813 9.813 0 01.175-2.975 9.86 9.86 0 011.054-2.788c.383-.662.697-1.018.727-.996.09.05-1.01 1.605-1.474 3.85-.491 2.238-.124 4.106-.226 4.115m-30.967-28.767c-.06.003-.063-.389-.325-.931-.26-.537-.785-1.215-1.536-1.76-.738-.563-1.528-.895-2.114-1.002a4.285 4.285 0 00-.399-.037c-.114.015-.218.015-.299.03-.154.05-.253.071-.265.054-.012-.018.065-.077.227-.17.085-.036.195-.056.323-.09a3.02 3.02 0 01.44-.009c.646.058 1.5.38 2.276.972.79.573 1.326 1.322 1.553 1.925.227.612.145 1.027.119 1.019" fill="#132529"/><path d="M121.843 127.414l1.12-.092.393-.035.063.059-1.576.068" fill="#A93B44"/><path d="M118.411 127.4l.224-4.8.032-.114.01 3.592c0 .118-.012.235-.036.35l-.202.97-.028.002" fill="#A2A5A2"/><path d="M118.439 127.398l.202-.97a1.71 1.71 0 00.035-.35l-.009-3.592c.372-1.334.695-2.533.97-3.52l.132-.472a28.93 28.93 0 00.702 7.387 5.884 5.884 0 012.678 1.23l-.2.009c-1.184.059-2.738.154-4.51.278" fill="#195AD0"/><path d="M118.404 127.564l.007-.164.028-.002c1.772-.124 3.326-.22 4.51-.278l.2-.01c.07.058.14.117.207.177l-.392.035-1.12.092-3.44.15m.231-4.964l.031-.656.873-3.038.232-.456-.002.044-.132.471c-.275.988-.598 2.187-.97 3.521-.01.038-.02.076-.032.114" fill="#051317"/><path d="M138.19 99.813c.01-.01.135.208.033.607-.085.394-.498.905-1.173 1.15-1.324.448-3.216.803-5.335.794a18.318 18.318 0 01-5.326-.816c-.659-.21-1.18-.414-1.532-.572-.351-.16-.54-.258-.532-.279.02-.049.808.276 2.125.637 1.318.352 3.183.712 5.266.715 2.077.012 3.966-.31 5.256-.687.638-.207 1.017-.63 1.134-.98.128-.347.054-.566.085-.569" fill="#132529"/><path d="M113.931 118.9c-.08.032-.462-.725-.852-1.69-.389-.966-.64-1.775-.559-1.807.08-.033.462.723.852 1.689.39.965.64 1.774.56 1.807m-2.892 8.112c.026.084-.872.435-2.004.785-1.132.35-2.071.567-2.097.485-.025-.083.871-.435 2.004-.785 1.132-.351 2.071-.568 2.097-.485m-.683 8.277c-.087-.003-.134-.814-.104-1.81.029-.998.123-1.805.21-1.802.087.002.134.813.104 1.81-.029.998-.123 1.804-.21 1.802m10.047-2.441c-.066.06-.66-.503-1.41-1.17-.749-.67-1.375-1.197-1.323-1.27.049-.07.769.351 1.532 1.035.765.68 1.265 1.35 1.201 1.405m7.086-4.237c.062.06-.321.569-.858 1.137-.537.568-1.023.98-1.087.92-.063-.06.321-.568.858-1.136.537-.569 1.023-.98 1.086-.921m-9.908-20.45c.047.073-.62.584-1.488 1.14-.869.557-1.612.948-1.658.875-.047-.073.62-.584 1.488-1.14.869-.557 1.61-.948 1.658-.876m8.035-1.877c-.085.026-.408-.784-.824-1.77-.413-.987-.765-1.784-.686-1.826.073-.041.557.701.976 1.704.423 1.002.615 1.867.534 1.892m.744 10.066c-.04.075-.898-.31-1.85-.964-.955-.652-1.622-1.314-1.567-1.379.058-.068.806.478 1.745 1.12.936.643 1.715 1.145 1.672 1.223m5.772 4.905c.04.077-.981.696-2.282 1.385-1.3.687-2.388 1.183-2.429 1.106-.04-.077.981-.697 2.282-1.385 1.3-.688 2.388-1.183 2.429-1.106m2.703-5.876c-.084.02-.328-.707-.544-1.624-.216-.917-.322-1.676-.238-1.696.085-.02.329.707.545 1.624.216.917.322 1.676.237 1.696m7.315 5.573c-.078.04-.53-.695-1.013-1.64-.482-.946-.809-1.745-.731-1.783.077-.04.53.694 1.012 1.64.481.945.81 1.743.732 1.783m-1.034-16.003c.05.071-.609.63-1.473 1.247-.864.619-1.606 1.062-1.656.992-.05-.071.608-.63 1.473-1.248.864-.617 1.605-1.061 1.656-.99m-6.832.458c-.078.038-.36-.39-.631-.956s-.426-1.055-.348-1.092c.078-.038.361.39.632.956.27.566.426 1.055.347 1.092m-4.117-6.044c.004.087-.474.18-1.067.206-.593.027-1.076-.022-1.08-.109-.005-.087.473-.179 1.066-.205.593-.027 1.077.02 1.08.108m4.784.098c-.069-.053.137-.445.46-.876.324-.432.643-.739.712-.687.07.053-.136.445-.46.876-.323.431-.642.738-.711.686m13.199 12.396c-.086.01-.252-.834-.368-1.884-.118-1.05-.142-1.91-.056-1.92.086-.009.252.835.368 1.885.118 1.05.143 1.91.056 1.92m1.55 7.51c-.059.062-.653-.418-1.235-1.151-.584-.731-.92-1.418-.847-1.461.077-.047.522.55 1.094 1.265.568.715 1.05 1.284.988 1.347m-2.164 7.717c-.077-.042.254-.797.739-1.687.483-.89.938-1.578 1.014-1.537.077.042-.254.797-.738 1.687s-.939 1.578-1.015 1.537m2.604 11.21c-.082.03-.488-.859-.906-1.986-.417-1.128-.69-2.066-.61-2.096.082-.03.488.859.906 1.986.418 1.127.69 2.066.61 2.096m7.845-4.07c-.037.08-.722-.164-1.53-.542-.81-.378-1.434-.748-1.397-.826.036-.08.722.164 1.53.542.809.378 1.434.748 1.397.826m4.407-4.207c-.084 0-.128-.871.087-1.917.211-1.047.592-1.83.67-1.799.084.032-.157.845-.362 1.862-.209 1.016-.304 1.858-.395 1.854m-25.954-2.723c-.079-.037.208-.81.64-1.726.432-.916.845-1.629.925-1.591.078.036-.208.809-.64 1.726-.433.915-.846 1.628-.925 1.59m-12.519 14.341c-.07.051-.586-.541-1.152-1.323-.567-.782-.968-1.457-.898-1.508.07-.051.587.542 1.153 1.324.566.781.967 1.456.897 1.507m5.933-1.57c-.08-.032.182-.889.586-1.913.405-1.024.799-1.829.88-1.797.08.032-.182.888-.587 1.913-.404 1.024-.798 1.828-.879 1.797m9.585 1.679c-.025.079-.921-.151-1.908-.707-.99-.553-1.653-1.199-1.599-1.26.058-.072.791.449 1.753.985.958.541 1.785.896 1.754.982m3.918-6.165c-.078.031-.479-.815-.731-1.936-.256-1.12-.258-2.056-.174-2.061.09-.008.23.897.481 1.992.246 1.096.508 1.973.424 2.005" fill="#FAF9F6"/><path d="M116.068 140.476l-.003-.002-.004-.033a.716.716 0 00.007.035" fill="#A2A5A2"/><path d="M118.753 141.114c-.937 0-1.866-.192-2.685-.638a.716.716 0 01-.007-.035l-.087-.781c0-.004.003-.01.01-.019a33.083 33.083 0 004.238-1.797c2.243-1.133 4.226-2.228 5.691-2.968l1.731-.887c.408-.212.63-.339.62-.359-.001-.002-.003-.002-.008-.002-.046 0-.278.088-.664.25-.425.176-1.032.448-1.777.798-1.493.69-3.502 1.758-5.734 2.886a38.383 38.383 0 01-3.097 1.405c3.245-1.976 13.658-7.492 21.67-8.144a.78.78 0 01.04-.001c.402 0 1.466.4 1.802.514.881.3 1.193 1.418 1.075 2.341-.294 2.294-2.386 4.035-4.625 4.61-.82.21-1.658.293-2.5.293-1.226 0-2.463-.178-3.68-.405.385-.984.63-1.79.551-1.822h-.005c-.09 0-.468.774-.86 1.762a69.53 69.53 0 01-.378-.075c-.692-.138-1.4-.286-2.1-.286-.276 0-.55.023-.821.078-.869.175-1.636.662-2.392 1.123-.6.365-1.21.72-1.839 1.034-.503-.683-.947-1.19-1.042-1.19-.005 0-.008 0-.01.003-.066.047.27.624.767 1.326a11.01 11.01 0 01-2.066.758 7.575 7.575 0 01-1.818.228" fill="#195AD0"/><path d="M115.984 139.641c.061-.076.414-.317 1-.674.974-.39 2.023-.858 3.097-1.405 2.232-1.128 4.241-2.196 5.734-2.886.745-.35 1.352-.622 1.777-.798.386-.162.618-.25.664-.25.005 0 .007 0 .008.002.01.02-.212.147-.62.36l-1.73.886c-1.466.74-3.45 1.835-5.692 2.968a33.083 33.083 0 01-4.238 1.797" fill="#051317"/><path d="M122.637 140.128c-.497-.702-.833-1.279-.768-1.326a.017.017 0 01.01-.003c.096 0 .54.507 1.043 1.19-.095.048-.19.094-.285.139m8.13-1.953l-.315-.06c.392-.988.77-1.763.86-1.763h.005c.079.032-.166.84-.55 1.823" fill="#A0A29F"/><path fill="#B67E6D" d="M159.556 249.513l2.44 18.932-8.578.545-4.404-18.164 10.542-1.313"/><path d="M152.616 265.319s6.556 3.43 8.95-.636l.999 1.678 5.122 12.219c.333.791.07 1.748-.68 2.165a1.658 1.658 0 01-1.785-.096c-2.776-2.006-12.956-9.432-13.028-10.618l-.387-3.118c-.08-.647.24-1.278.81-1.594" fill="#2472FF"/><path d="M166.151 280.974c-.346 0-.69-.108-.977-.317-7.235-5.274-10.583-8.011-11.98-9.367h.002c2.647 2.536 9.773 7.732 12.026 9.359a1.646 1.646 0 001.503.222c-.185.07-.38.103-.574.103" fill="#FFFFFE"/><path d="M153.195 271.29a14.187 14.187 0 01.001 0h-.001" fill="#97A19F"/><path d="M152.832 270.928c-.213-.21-.404-.39-.532-.639.106.17.287.386.532.64m-.642-.934a1.87 1.87 0 01-.051-.367l-.096-.68.019.016.128 1.031" fill="#FFFFFE"/><path d="M166.186 280.96c-.341 0-.678-.105-.964-.311-2.253-1.627-9.379-6.823-12.026-9.359a14.579 14.579 0 01-.246-.243c-.04-.042-.079-.08-.118-.119a4.27 4.27 0 01-.532-.639 1.356 1.356 0 01-.11-.294l-.128-1.031 14.664 11.907a1.68 1.68 0 01-.54.09" fill="#A8BBEE"/><path d="M153.223 268.47a.85.85 0 01-.368-.08c-.444-.214-.726-.914-.474-1.339.17-.286.554-.482.901-.482a.69.69 0 01.448.147c.384.25.561.792.37 1.212-.15.333-.516.543-.877.543" fill="#FFFFFE"/><path d="M162.077 274.375c.097.032.341-.86 1.232-1.445.874-.612 1.791-.51 1.798-.612.009-.041-.212-.137-.595-.138-.38-.003-.915.126-1.403.455-.485.332-.803.782-.94 1.136-.141.356-.133.596-.092.604m1.444 1.988c.087.06.528-.535 1.324-.89.79-.37 1.527-.317 1.539-.42.035-.09-.785-.32-1.687.098-.906.409-1.265 1.18-1.176 1.212m-3.957-4.444c.087.066.762-.851 1.952-1.51 1.18-.677 2.314-.78 2.302-.888.015-.09-1.209-.145-2.477.578-1.275.71-1.86 1.786-1.777 1.82m-.809-3.821c.057.09.891-.405 2.038-.608 1.145-.219 2.1-.054 2.121-.159.034-.084-.954-.423-2.185-.19-1.232.22-2.034.89-1.974.957" fill="#132529"/><path d="M161.446 267.366c.02-.006-.014-.225-.172-.589a4.267 4.267 0 00-.967-1.37c-.261-.23-.556-.54-1.052-.6a.667.667 0 00-.667.377c-.115.258-.09.53-.013.775.34.97 1.49 1.637 2.635 1.413a2.722 2.722 0 002.09-2.192c.022-.25 0-.54-.206-.76-.204-.223-.55-.223-.759-.113-.434.22-.635.578-.839.862a4.755 4.755 0 00-.652 1.543c-.086.387-.081.607-.06.61.067.022.138-.884.92-2.01.203-.268.431-.595.75-.734.154-.07.313-.052.414.058.1.105.132.309.105.508-.14.811-.864 1.688-1.833 1.88-.962.198-1.973-.39-2.254-1.168-.065-.188-.078-.395-.014-.542a.36.36 0 01.365-.213c.34.022.647.278.9.492 1.023.915 1.246 1.81 1.309 1.773" fill="#132529"/><path fill="#B67E6D" d="M133.213 248.68l.243 19.4-10.478-.404-1.551-18.767 11.786-.229"/><path d="M122.797 265.335s-11.623 4.333-11.75 6.48l22.48-.04.02-5.879-.825.191c-3.308.764-6.77.502-9.925-.752" fill="#2472FF"/><path d="M130.737 268.711a.743.743 0 01-.182-.022c-.437-.11-.817-.686-.668-1.112.117-.335.513-.613.87-.613.098 0 .191.02.277.066.39.153.647.607.553 1.019-.087.379-.466.662-.85.662m-19.69 3.104a.743.743 0 01.123-.53h.1c-.136.187-.214.365-.223.53l22.48-.04.003-.485h.003l-.005.485-22.481.04m.398-.834c.107-.09.217-.161.306-.213a4.564 4.564 0 00-.224.213h-.082m22.086-.005l.003-1.025h.013l-.01 1.025h-.006" fill="#FFFFFE"/><path d="M133.533 271.29h-.003v-.314h.006l-.003.314m-22.264-.005h-.099c.075-.117.174-.218.275-.304h.082c-.1.104-.187.205-.258.304" fill="#97A19F"/><path d="M111.047 271.815c.01-.165.087-.343.222-.53.071-.099.158-.2.258-.304.068-.07.143-.14.224-.213.107-.062.182-.095.182-.095l21.6-.722-.002 1.025-.003.8-22.481.039" fill="#A8BBEE"/><path d="M122.433 265.221c.003.11.553.16 1.093.511.55.338.83.813.93.769.101-.021-.063-.677-.725-1.092-.659-.42-1.322-.288-1.298-.188m-2.357.979c-.024.107.452.293.825.756.387.453.482.955.591.95.104.017.179-.626-.297-1.193-.47-.572-1.116-.617-1.119-.513m-1.334 2.825c.1.023.252-.525-.031-1.126-.279-.603-.797-.84-.843-.747-.062.09.272.412.496.909.237.49.27.954.378.964" fill="#132529"/><path d="M122.676 265.158c0 .045.434.112 1.127-.008.344-.06.75-.174 1.177-.364.212-.096.43-.21.646-.344.103-.067.226-.135.34-.265.12-.116.19-.407.049-.585a.606.606 0 00-.482-.25c-.165-.005-.3.028-.422.059a3.95 3.95 0 00-1.737.925c-.52.483-.698.894-.66.915.05.036.303-.308.833-.707a4.474 4.474 0 011.003-.568c.2-.08.417-.15.647-.2.237-.063.44-.066.501.04.022.041.025.057-.024.126a1.117 1.117 0 01-.25.194c-.198.13-.398.244-.594.341a6.205 6.205 0 01-1.087.42c-.644.18-1.068.21-1.067.27" fill="#132529"/><path d="M122.82 265.314c.04.017.256-.376.295-1.087a3.676 3.676 0 00-.443-1.916c-.133-.222-.294-.519-.72-.567-.223-.008-.407.166-.47.315-.074.152-.088.282-.114.413a2.585 2.585 0 00.483 1.92c.44.582.899.712.908.675.037-.055-.347-.266-.684-.826a2.591 2.591 0 01-.358-1.057 2.335 2.335 0 01.02-.65c.035-.24.124-.432.214-.408.111-.002.302.178.393.368a3.7 3.7 0 01.28.61c.143.406.204.795.221 1.123.032.66-.085 1.071-.025 1.087m30.782-99.272c-.466-10.48-8.515-21.934-8.515-21.934l-12.39-1.036-.003-.044-.263.021-14.243 1.16s-6.273 13.682-4.642 29.984c1.63 16.302 7.142 76.285 7.142 76.285h13.065l.286-86.794 13.229 89.733h13.075s-6.276-76.895-6.741-87.375" fill="#132529"/><path fill="#334F55" d="M119.1 248.994l1.822 8.846 13.31-.045.803-8.146-15.935-.655m27.287 2.826l2.913 9.966 12.388-1.727-.645-11.206-14.656 2.966m-11.816-88.214c-.001.01-.067.01-.195-.006a1.376 1.376 0 01-.515-.228c-.41-.287-.796-.93-.984-1.776-.305-1.688-.59-4.013-.87-6.596-.272-2.583-.47-4.924-.59-6.62a79.696 79.696 0 01-.123-2.01c-.02-.476-.02-.74 0-.741.022-.002.063.259.121.73l.22 2.001.68 6.607c.278 2.574.532 4.917.777 6.584.154.819.488 1.435.843 1.726.36.293.646.296.636.33m-1.108-18.594c-.005-.014.1-.076.312-.106a1.37 1.37 0 01.887.19c.333.203.673.584.77 1.117.049.261.015.57-.14.834-.15.266-.41.46-.696.573-.572.225-1.261.09-1.616-.348-.358-.427-.37-.959-.274-1.329.096-.382.3-.642.464-.778.168-.136.286-.167.293-.153.042.039-.418.278-.543.977-.06.33-.015.775.276 1.095.274.325.819.43 1.289.246.484-.172.745-.64.664-1.072a1.496 1.496 0 00-.606-.978c-.583-.392-1.084-.198-1.08-.268m-6.703-18.391l-1.263-6.149a.79.79 0 01.777-.95l15.917.074a.79.79 0 01.781.882l-1.643 14.089a1.097 1.097 0 01-1.099.97l-10.38-.08a1.098 1.098 0 01-1.055-.828l-2.034-8.008"/><path d="M125.358 123.383c.691 0 1.315.422 1.563 1.067.261.68.642 1.473 1.066 1.704.782.426 2.132.766 2.842.419.71-.348 3.552-2.906 4.05-2.622.497.285.923.924.426 1.492-.497.568-3.127 2.274-2.629 2.842.497.569 6.04-1.933 6.892-1.712.853.22 1.35.744.853 1.086-.498.342-4.264 1.763-4.476 2.26 0 0 5.683-1.491 5.896-1.136.214.355.569.924 0 1.137-.568.212-5.47 1.492-5.896 1.705-.427.213-1.896.64-2.192.64-.155 0-1.268.371-2.29.725a5.013 5.013 0 01-3.534-.094l-.576-.235a2.256 2.256 0 01-1.4-2.224l.115-1.939-.62-1.599-.09-3.516" fill="#B67E6D"/><path d="M134.91 121.891a.578.578 0 11-1.157 0 .578.578 0 011.157 0" fill="#FAF9F6"/><path d="M9.844 190.248s.08-.069.244-.193l.736-.548 2.869-2.107 10.78-7.857 37.38-27.129-.053.173c-3.04-8.424-4.912-18.149-4.91-28.296-.035-3.222.197-6.402.507-9.522.39-3.111.845-6.173 1.546-9.13 1.337-5.924 3.242-11.501 5.615-16.553a84.374 84.374 0 0117.008-24.098c6.021-5.921 11.675-9.843 15.719-12.253l2.718-1.558c.791-.444 1.487-.77 2.037-1.058l1.26-.635c.285-.142.435-.207.435-.207s-.14.084-.42.236l-1.245.662c-.545.297-1.236.632-2.022 1.084l-2.7 1.581c-4.018 2.439-9.64 6.38-15.626 12.306a84.595 84.595 0 00-16.9 24.062c-2.358 5.037-4.25 10.596-5.578 16.499-.696 2.946-1.149 5.997-1.536 9.097-.308 3.11-.538 6.276-.504 9.487-.001 10.11 1.858 19.798 4.877 28.194l.038.107-.09.065c-15.164 10.947-28.197 20.359-37.447 27.038l-10.83 7.786-2.898 2.067-.75.528c-.17.117-.26.172-.26.172" fill="#2472FF"/><path d="M79.385 32.38s-.114.066-.342.18l-1.015.5c-.45.22-1.004.488-1.656.805-.656.314-1.377.747-2.208 1.193-3.302 1.825-7.952 4.758-13.049 9.195-2.511 2.252-5.204 4.8-7.788 7.815a91.734 91.734 0 00-7.617 10.113c-4.894 7.467-9.008 16.49-11.847 26.393-2.851 9.911-4.162 19.709-4.617 28.62-.445 8.922-.12 16.986.57 23.703.7 6.72 1.937 12.071 3.08 15.67a64.127 64.127 0 001.434 4.105l.418 1.053c.092.237.131.363.131.363s-.059-.117-.161-.35l-.447-1.042a56.415 56.415 0 01-1.49-4.093c-1.183-3.593-2.456-8.95-3.187-15.682-.719-6.728-1.068-14.8-.639-23.741.441-8.93 1.747-18.754 4.605-28.693 2.847-9.93 6.984-18.983 11.906-26.464a91.195 91.195 0 017.665-10.127c2.6-3.017 5.31-5.563 7.838-7.811 5.13-4.428 9.81-7.34 13.135-9.134.839-.44 1.565-.864 2.226-1.17l1.67-.778 1.03-.472c.233-.105.355-.151.355-.151M99.002 7.179a.468.468 0 01.078.102l.207.311.789 1.225 2.932 4.635 10.202 16.286-.16-.063c5.213-1.439 11.116-2.606 17.386-3.262 6.1-.643 11.96-.742 17.265-.454 5.307.28 10.057.937 14.003 1.682l1.445.266 1.363.297 2.495.552c1.543.404 2.878.728 3.957 1.039l2.474.75.641.202c.144.047.217.074.215.08a1.258 1.258 0 01-.225-.05l-.65-.172-2.487-.692c-1.083-.292-2.42-.598-3.965-.985l-2.496-.528-1.363-.286-1.444-.254a108.952 108.952 0 00-13.98-1.61 110.988 110.988 0 00-17.215.476 110.044 110.044 0 00-17.343 3.227l-.105.03-.056-.093-10.105-16.346-2.863-4.678-.75-1.248-.188-.325a.538.538 0 01-.057-.114" fill="#2472FF"/><path d="M252.538 88.191a.863.863 0 01-.066-.17l-.162-.51-.595-1.969c-.254-.855-.55-1.906-.981-3.1l-.657-1.92-.359-1.048-.426-1.086c-.586-1.483-1.188-3.124-1.984-4.823-.39-.852-.755-1.752-1.2-2.645l-1.382-2.752a97.116 97.116 0 00-7.207-11.65c-2.876-3.927-5.934-7.422-8.856-10.46l-2.173-2.184c-.71-.702-1.437-1.344-2.12-1.987-1.354-1.298-2.703-2.409-3.91-3.453l-.884-.761-.867-.691-1.586-1.267c-.98-.805-1.86-1.45-2.576-1.985l-1.64-1.24c-.173-.135-.312-.243-.42-.329a.712.712 0 01-.139-.12.85.85 0 01.156.094l.441.304 1.676 1.193c.725.52 1.619 1.15 2.61 1.944a2387.22 2387.22 0 002.478 1.933l.895.754c1.217 1.035 2.577 2.139 3.943 3.432.688.64 1.42 1.28 2.136 1.98l2.188 2.181c2.942 3.035 6.016 6.536 8.902 10.477a94.78 94.78 0 017.21 11.701l1.374 2.767c.443.899.804 1.802 1.19 2.66.787 1.708 1.379 3.357 1.954 4.849l.417 1.092.348 1.055c.225.682.436 1.327.636 1.931.415 1.2.695 2.258.93 3.12l.539 1.985.132.519c.028.117.04.178.035.18m-22.723 167.882a1.25 1.25 0 01-.094-.17l-.256-.51-.968-1.992-3.586-7.485-12.323-25.94-.053-.11.098-.074A117.4 117.4 0 00225.78 208.2c.712-.692 1.377-1.421 2.038-2.145l1.975-2.15 1.862-2.194c.615-.728 1.238-1.437 1.802-2.185 1.147-1.479 2.311-2.903 3.338-4.383l1.562-2.168c.5-.725.97-1.457 1.449-2.172 3.8-5.737 6.706-11.23 8.876-15.956 1.116-2.353 1.97-4.547 2.754-6.46.734-1.933 1.326-3.612 1.819-4.982l1.024-3.193.274-.828c.063-.186.104-.28.104-.28s-.02.1-.074.29l-.243.836-.97 3.214c-.474 1.377-1.051 3.065-1.77 5.006-.77 1.922-1.61 4.126-2.715 6.49a116.631 116.631 0 01-8.837 16.023c-.478.718-.948 1.453-1.447 2.18l-1.562 2.177c-1.028 1.486-2.193 2.915-3.341 4.399-.564.75-1.19 1.462-1.804 2.192l-1.866 2.2-1.98 2.157c-.662.727-1.329 1.458-2.043 2.152a116.275 116.275 0 01-13.192 11.612l.046-.183 12.221 25.988 3.507 7.522c.4.868.71 1.542.924 2.013l.233.521c.051.119.075.18.071.181M9.844 190.248s.08-.069.244-.193l.736-.548 2.869-2.107 10.78-7.857L61.76 152.48c-3.017-8.4-4.873-18.084-4.872-28.189a56.82 56.82 0 01-.003-.641c0-3.003.221-5.967.51-8.88.39-3.112.846-6.174 1.547-9.13 1.337-5.925 3.242-11.502 5.615-16.554a84.374 84.374 0 0117.008-24.098c6.021-5.921 11.675-9.843 15.719-12.253l2.718-1.558c.791-.444 1.487-.77 2.037-1.058l1.26-.635c.285-.142.435-.207.435-.207s-.14.084-.42.236l-1.245.662c-.545.297-1.236.632-2.022 1.084l-2.7 1.581c-4.018 2.439-9.64 6.38-15.626 12.306a84.595 84.595 0 00-16.9 24.062c-2.358 5.037-4.25 10.596-5.578 16.499-.696 2.946-1.149 5.997-1.536 9.097-.288 2.902-.507 5.856-.507 8.848 0 .212 0 .426.003.639-.001 10.11 1.858 19.798 4.877 28.194l.038.107-.09.065c-15.164 10.947-28.197 20.359-37.447 27.038l-10.83 7.786-2.898 2.067-.75.528c-.17.117-.26.172-.26.172" fill="#2472FF"/><path d="M34.88 162.088s-.06-.117-.162-.35l-.447-1.042a56.415 56.415 0 01-1.49-4.093c-1.183-3.593-2.456-8.95-3.187-15.682a150.804 150.804 0 01-.826-15.972c0-2.504.06-5.098.187-7.769.441-8.93 1.747-18.754 4.605-28.693 2.847-9.93 6.984-18.983 11.906-26.464a91.195 91.195 0 017.665-10.127c2.6-3.017 5.31-5.563 7.838-7.811 5.13-4.428 9.81-7.34 13.135-9.134.839-.44 1.565-.864 2.226-1.17l1.67-.778 1.03-.472c.233-.105.355-.151.355-.151s-.114.066-.342.18l-1.015.5c-.45.22-1.004.488-1.656.805-.656.314-1.377.747-2.208 1.193-3.302 1.825-7.952 4.758-13.049 9.195a127.66 127.66 0 00-2.308 2.117c-1.813 1.71-3.673 3.59-5.48 5.698a91.974 91.974 0 00-7.617 10.113c-4.894 7.467-9.008 16.49-11.847 26.393-2.851 9.911-4.162 19.709-4.617 28.62a163.6 163.6 0 00-.204 8.147c0 5.713.301 10.95.773 15.556.701 6.72 1.938 12.071 3.082 15.67a64.127 64.127 0 001.433 4.105l.418 1.053c.092.237.131.363.131.363M174.29 30.827c-.017 0-.091-.017-.22-.05l-.65-.172-2.488-.692c-1.083-.292-2.42-.598-3.965-.985l-2.496-.528-1.363-.286-1.444-.254a108.952 108.952 0 00-13.98-1.61c-1.774-.092-3.61-.14-5.497-.14-3.74 0-7.675.19-11.718.616a110.044 110.044 0 00-17.343 3.227l-.105.03-.056-.093-10.105-16.346-2.863-4.678-.75-1.248-.188-.325a.673.673 0 01-.057-.113c.005 0 .031.034.078.102l.207.311.789 1.225 2.932 4.635 10.145 16.194a108.367 108.367 0 0117.283-3.233c3.978-.42 7.855-.607 11.541-.607 1.967 0 3.878.053 5.724.153 5.307.28 10.057.937 14.003 1.682l1.445.266 1.363.297 2.495.552c1.543.404 2.878.728 3.957 1.039l2.474.75.641.202c.142.046.215.073.215.078v.001l-.004.001" fill="#2472FF"/><path d="M252.537 88.191a.933.933 0 01-.065-.17l-.162-.51-.595-1.969c-.254-.855-.55-1.906-.981-3.1l-.657-1.92-.359-1.048-.426-1.086c-.586-1.483-1.188-3.124-1.984-4.823-.39-.852-.755-1.752-1.2-2.645l-1.382-2.752a97.116 97.116 0 00-7.207-11.65c-2.876-3.927-5.934-7.422-8.856-10.46l-2.173-2.184c-.71-.702-1.437-1.344-2.12-1.987-1.354-1.298-2.703-2.409-3.91-3.453l-.884-.761-.867-.691-1.586-1.267c-.98-.805-1.86-1.45-2.576-1.985l-1.64-1.24c-.173-.135-.312-.243-.42-.329a.885.885 0 01-.139-.12h.002c.008 0 .06.032.154.094l.441.304 1.676 1.193c.725.52 1.619 1.15 2.61 1.944a2387.22 2387.22 0 002.478 1.933l.895.754c1.217 1.035 2.577 2.139 3.943 3.432.688.64 1.42 1.28 2.136 1.98l2.188 2.181c2.942 3.035 6.016 6.536 8.902 10.477a94.78 94.78 0 017.21 11.701l1.374 2.767c.443.899.804 1.802 1.19 2.66.787 1.708 1.379 3.357 1.954 4.849l.417 1.092.348 1.055c.225.682.436 1.327.636 1.931.415 1.2.695 2.258.93 3.12l.539 1.985.132.519a1.37 1.37 0 01.035.18" fill="#CED1F7"/><path d="M229.815 256.074c-.004 0-.036-.057-.094-.17l-.256-.51-.968-1.992-3.586-7.485-10.673-22.466c.094.004.188.008.283.008h.035l10.524 22.378 3.507 7.522c.4.868.71 1.542.924 2.013l.233.521c.047.11.072.17.072.18l-.001.001m-7.975-43.596l-.328-.122a115.344 115.344 0 004.268-4.156c.712-.692 1.377-1.421 2.038-2.145l1.975-2.15 1.862-2.194c.615-.728 1.238-1.437 1.802-2.185 1.147-1.479 2.311-2.903 3.338-4.383l1.562-2.168c.5-.725.97-1.457 1.449-2.172 3.8-5.737 6.706-11.23 8.876-15.956 1.116-2.353 1.97-4.547 2.754-6.46.734-1.933 1.326-3.612 1.819-4.982l1.024-3.193.274-.828c.063-.186.104-.28.104-.28s-.02.1-.074.29l-.243.836-.97 3.214c-.474 1.377-1.051 3.065-1.77 5.006-.77 1.922-1.61 4.126-2.715 6.49a116.631 116.631 0 01-8.837 16.023c-.478.718-.948 1.453-1.447 2.18l-1.562 2.177c-1.028 1.486-2.193 2.915-3.341 4.399-.564.75-1.19 1.462-1.804 2.192l-1.866 2.2-1.98 2.157c-.662.727-1.329 1.458-2.043 2.152a114.3 114.3 0 01-4.165 4.058" fill="#CED5F7"/><path d="M192.93 80.092a2.596 2.596 0 11-5.192 0 2.596 2.596 0 015.191 0M177.23 30.878a2.596 2.596 0 11-5.192 0 2.596 2.596 0 015.191 0m77.663 57.416a2.596 2.596 0 11-5.192 0 2.596 2.596 0 015.192 0M120.671 209.657a2.596 2.596 0 11-5.191 0 2.596 2.596 0 015.191 0M87.5 207.776a2.596 2.596 0 11-5.193 0 2.596 2.596 0 015.192 0m142.316-54.635a2.596 2.596 0 11-5.191 0 2.596 2.596 0 015.191 0M35.171 89.637a2.596 2.596 0 11-5.191 0 2.596 2.596 0 015.191 0m145.689 20.748a2.595 2.595 0 11-5.19 0 2.595 2.595 0 015.19 0m52.784-1.054a2.595 2.595 0 11-5.19 0 2.595 2.595 0 015.19 0m-170.32-9.888a2.596 2.596 0 11-5.192 0 2.596 2.596 0 015.192 0m2.029-34.376a2.596 2.596 0 11-5.192 0 2.596 2.596 0 015.192 0m-29.176 98.318a1.298 1.298 0 11-2.595 0 1.298 1.298 0 012.595 0m21.956-37.648a1.298 1.298 0 11-2.596 0 1.298 1.298 0 012.596 0m25.178 45.509a1.298 1.298 0 11-2.596 0 1.298 1.298 0 012.596 0m-13.252-46.108a1.298 1.298 0 11-2.595 0 1.298 1.298 0 012.595 0m18.555-29.203a1.298 1.298 0 11-2.595 0 1.298 1.298 0 012.595 0m-44.826 29.802a1.298 1.298 0 11-2.596 0 1.298 1.298 0 012.596 0m173.009 51.203a1.298 1.298 0 11-2.596 0 1.298 1.298 0 012.596 0m-9.053-6.799a1.298 1.298 0 11-2.595 0 1.298 1.298 0 012.595 0m18.766 12.924a1.297 1.297 0 11-2.595.001 1.297 1.297 0 012.595-.001m-51.12 1.218a1.298 1.298 0 11-2.595-.001 1.298 1.298 0 012.596 0m8.209 19.958a1.297 1.297 0 11-2.593.002 1.297 1.297 0 012.593-.002m-14.387-6.035a1.298 1.298 0 11-2.595 0 1.298 1.298 0 012.595 0M85.21 81.39a1.298 1.298 0 11-2.595 0 1.298 1.298 0 012.595 0m30.68-15.085a1.298 1.298 0 11-2.596 0 1.298 1.298 0 012.596 0m37.977-3.57a1.298 1.298 0 11-2.595 0 1.298 1.298 0 012.595 0m59.748-31.133a1.298 1.298 0 11-2.596 0 1.298 1.298 0 012.596 0m-99.77-2.112a1.298 1.298 0 11-2.596 0 1.298 1.298 0 012.596 0" fill="#2472FF"/><path d="M99.002 172.39a1.076 1.076 0 01-.153-.148l-.427-.455-1.62-1.774c-.345-.39-.752-.806-1.153-1.297l-1.298-1.607c-.46-.58-.975-1.186-1.478-1.858l-1.55-2.166c-2.121-3.063-4.49-6.854-6.48-11.381-2.018-4.508-3.636-9.742-4.52-15.376-.264-1.403-.353-2.812-.52-4.19l-.127-2.063-.059-1.02-.013-1.013-.018-1.998.072-1.958c.014-.647.058-1.285.116-1.915l.159-1.868c.542-4.912 1.54-9.267 2.671-12.824a60.86 60.86 0 013.213-8.228c.455-.939.832-1.656 1.104-2.133.134-.24.242-.42.316-.54a.958.958 0 01.12-.176c.005.004-.028.067-.092.192l-.288.554a52.78 52.78 0 00-1.049 2.156 64.92 64.92 0 00-3.111 8.241c-1.1 3.554-2.071 7.896-2.595 12.788l-.152 1.86a26.983 26.983 0 00-.111 1.907l-.068 1.948c.007.657.015 1.32.021 1.989.006.334.01.67.015 1.007l.06 1.015.127 2.052c.168 1.37.258 2.773.52 4.169.88 5.604 2.48 10.813 4.474 15.307 1.967 4.513 4.307 8.3 6.399 11.371l1.526 2.173c.496.676 1.003 1.283 1.456 1.868l1.274 1.62c.394.497.793.917 1.13 1.314l1.575 1.81.404.477c.09.108.134.166.13.17m-56.55-43.424a.74.74 0 01-.01-.175l.004-.516.04-1.98.039-1.433c.022-.523.067-1.09.105-1.7.088-1.22.148-2.612.332-4.14l.254-2.404c.091-.835.235-1.698.358-2.594.229-1.797.598-3.697.96-5.7a126.32 126.32 0 013.28-12.828 126.23 126.23 0 014.727-12.371c.861-1.845 1.656-3.61 2.507-5.209.417-.803.798-1.59 1.205-2.326l1.18-2.108c.732-1.355 1.487-2.526 2.119-3.573.321-.52.612-1.009.895-1.45l.796-1.19 1.11-1.642.295-.422a.752.752 0 01.11-.138.706.706 0 01-.084.156l-.268.44-1.06 1.672-.772 1.205-.872 1.46c-.617 1.054-1.356 2.231-2.075 3.59l-1.16 2.115c-.4.736-.775 1.526-1.186 2.33-.839 1.6-1.623 3.364-2.474 5.209a130.81 130.81 0 00-4.692 12.348 130.622 130.622 0 00-3.296 12.788c-.37 1.997-.747 3.89-.987 5.682-.127.894-.277 1.754-.375 2.586l-.274 2.396c-.197 1.524-.273 2.913-.378 4.13l-.13 1.696-.066 1.43-.1 1.977-.034.514a.757.757 0 01-.023.175m123.841-74.812c-.004.01-.162-.032-.457-.12l-1.291-.402a32.025 32.025 0 00-2.047-.607c-.805-.215-1.711-.495-2.738-.712l-1.602-.37c-.557-.126-1.146-.22-1.75-.337-1.207-.25-2.513-.415-3.884-.612a73.809 73.809 0 00-8.986-.534c-3.197.037-6.235.3-8.979.671-1.367.218-2.671.404-3.874.672-.603.127-1.19.229-1.745.363l-1.596.395c-1.023.233-1.925.527-2.726.753-.803.222-1.484.447-2.038.64l-1.284.42c-.295.094-.451.138-.456.128-.003-.01.146-.074.434-.187l1.266-.477a27.44 27.44 0 012.026-.692c.798-.243 1.699-.553 2.72-.8l1.598-.416c.557-.142 1.144-.25 1.748-.383 1.205-.28 2.513-.476 3.885-.703a70.802 70.802 0 019.019-.699 70.715 70.715 0 019.025.56c1.376.207 2.686.383 3.895.644.606.124 1.195.224 1.754.357l1.603.39c1.026.232 1.932.528 2.734.76a27.35 27.35 0 012.037.66l1.272.458c.29.108.44.17.437.18M189.882 81.7c-.009.007-.113-.105-.304-.324l-.822-.966-.588-.702c-.22-.252-.476-.512-.741-.8-.538-.565-1.12-1.24-1.846-1.905-.355-.34-.726-.698-1.112-1.07-.389-.37-.826-.719-1.259-1.1-.857-.778-1.851-1.512-2.879-2.307a54.865 54.865 0 00-7.186-4.432 54.832 54.832 0 00-7.83-3.162c-1.25-.357-2.43-.722-3.564-.952-.564-.123-1.105-.267-1.633-.361l-1.521-.262c-.966-.19-1.854-.259-2.63-.357-.388-.043-.749-.095-1.082-.123l-.914-.058-1.265-.09c-.29-.024-.442-.041-.44-.052 0-.011.152-.014.442-.011l1.27.03.919.03c.335.02.698.063 1.088.098.78.083 1.674.136 2.646.313l1.532.243c.532.088 1.077.227 1.645.345 1.143.22 2.332.578 3.592.93a53.005 53.005 0 017.887 3.158 53.07 53.07 0 017.217 4.48c1.03.806 2.022 1.553 2.877 2.342.432.388.867.744 1.253 1.12.383.38.751.743 1.104 1.09.719.678 1.292 1.367 1.82 1.946.26.294.509.561.724.82l.569.721.777 1.005c.175.232.263.356.254.364m12.941-16.436a.646.646 0 01-.13-.109l-.355-.339-1.345-1.325-.967-.962c-.36-.344-.772-.698-1.202-1.089-.872-.77-1.825-1.692-2.985-2.59-.57-.46-1.165-.943-1.786-1.446-.623-.5-1.312-.967-2.003-1.48-1.369-1.048-2.928-2.025-4.547-3.086a86.992 86.992 0 00-11.154-5.815c-4.122-1.727-8.187-3.02-11.935-3.982-1.888-.427-3.676-.869-5.38-1.126-.848-.14-1.664-.31-2.456-.41l-2.281-.279c-1.451-.21-2.777-.255-3.937-.347-.58-.038-1.12-.088-1.618-.11-.496-.008-.952-.017-1.363-.025l-1.888-.047-.49-.02a.661.661 0 01-.168-.017.66.66 0 01.167-.015l.49-.011 1.89-.012 1.367-.002c.499.012 1.04.053 1.623.083 1.164.075 2.494.105 3.95.302l2.291.259c.797.094 1.615.26 2.468.394 1.711.247 3.507.68 5.404 1.102a84.87 84.87 0 0111.99 3.973 84.805 84.805 0 0111.184 5.86c1.621 1.07 3.181 2.06 4.547 3.119.69.52 1.377.994 1.999 1.5l1.778 1.468c1.154.91 2.1 1.847 2.963 2.631.425.398.831.76 1.187 1.11l.949.983 1.304 1.369.334.36a.731.731 0 01.105.13m41.987 59.732a.621.621 0 01-.016-.162l-.016-.473-.031-1.818-.015-1.314-.073-1.56c-.063-1.12-.09-2.398-.238-3.801l-.194-2.207c-.07-.766-.192-1.559-.29-2.382-.181-1.65-.499-3.394-.805-5.233a108.179 108.179 0 00-2.901-11.774 108.369 108.369 0 00-4.324-11.331c-.798-1.687-1.53-3.301-2.322-4.76-.388-.733-.74-1.454-1.119-2.124l-1.097-1.923c-.678-1.238-1.383-2.303-1.97-3.259l-.829-1.324-.736-1.088-1.01-1.512-.257-.398a.581.581 0 01-.078-.142s2.174 2.75 5.072 7.61l1.118 1.918c.386.67.744 1.389 1.137 2.121.805 1.457 1.548 3.073 2.354 4.76a104.603 104.603 0 014.361 11.358 104.639 104.639 0 012.887 11.816c.299 1.846.607 3.597.777 5.252.093.827.21 1.622.274 2.391l.174 2.214c.388 5.645.167 9.145.167 9.145m-13.326-15.665s.02.097.047.29l.11.86c.077.756.262 1.867.352 3.31.274 2.879.444 7.07.254 12.24-.089 2.584-.326 5.409-.656 8.433-.403 3.014-.855 6.237-1.605 9.576-.17.839-.354 1.684-.577 2.532l-.649 2.577c-.502 1.719-.986 3.483-1.607 5.24-1.201 3.52-2.618 7.122-4.458 10.622-1.825 3.506-3.886 6.776-6.045 9.81-2.16 3.037-4.48 5.787-6.763 8.334-4.625 5.045-9.269 9.133-13.403 12.24-4.133 3.112-7.682 5.35-10.213 6.748-1.241.743-2.263 1.215-2.93 1.58-.33.167-.586.298-.771.393-.175.087-.268.124-.268.124s.083-.056.253-.153l.756-.421c.658-.382 1.669-.871 2.9-1.63 2.507-1.428 6.031-3.69 10.137-6.818 4.109-3.123 8.724-7.217 13.324-12.26 2.27-2.543 4.578-5.288 6.727-8.317 2.148-3.025 4.199-6.285 6.016-9.775 1.832-3.483 3.244-7.07 4.446-10.577.621-1.748 1.106-3.507 1.609-5.22l.651-2.568c.225-.843.41-1.687.58-2.523.757-3.327 1.218-6.54 1.63-9.545.341-3.016.591-5.833.694-8.413.217-5.157.082-9.341-.154-12.22-.07-1.443-.237-2.554-.293-3.312a299.1 299.1 0 00-.079-.862c-.015-.195-.015-.295-.015-.295" fill="#2472FF"/><path d="M203.975 83.268c.004-.004.06.057.164.18l.46.547c.389.492 1.012 1.18 1.716 2.144 1.459 1.888 3.433 4.736 5.502 8.472 1.046 1.861 2.056 3.974 3.072 6.27.95 2.323 1.942 4.823 2.724 7.538.81 2.705 1.527 5.588 2.018 8.623.498 3.03.873 6.2.944 9.462a75.215 75.215 0 01-.344 9.505 73.51 73.51 0 01-1.504 8.73c-1.344 5.492-3.203 10.26-5.127 14.071-1.916 3.818-3.78 6.738-5.163 8.682-.666.99-1.258 1.705-1.628 2.212l-.435.566c-.1.126-.153.19-.158.186-.004-.003.04-.072.132-.205l.41-.585c.353-.519.929-1.245 1.578-2.244 1.349-1.961 3.18-4.893 5.064-8.71 1.894-3.811 3.722-8.57 5.045-14.04a74.065 74.065 0 001.478-8.695c.302-3.047.426-6.219.337-9.464-.07-3.246-.442-6.401-.933-9.42-.484-3.022-1.193-5.895-1.991-8.59-.773-2.707-1.75-5.2-2.688-7.52-1.001-2.292-1.996-4.402-3.027-6.265-2.038-3.738-3.978-6.598-5.404-8.505-.688-.973-1.294-1.673-1.668-2.178l-.434-.567a1.334 1.334 0 01-.14-.2m-25.71 140.917s-.108.033-.324.08l-.957.2c-.844.172-2.085.44-3.698.705a133.402 133.402 0 01-13.737 1.678c-5.83.423-12.81.543-20.522-.041a135.39 135.39 0 01-12.044-1.43c-4.15-.686-8.426-1.546-12.73-2.73-4.303-1.191-8.44-2.62-12.264-4.388-3.839-1.735-7.389-3.733-10.636-5.834-3.249-2.105-6.178-4.336-8.836-6.514-2.666-2.174-5.024-4.347-7.13-6.374-4.2-4.069-7.355-7.6-9.497-10.066a127.59 127.59 0 01-2.433-2.87l-.621-.756a4.916 4.916 0 01-.203-.265s.081.08.228.244l.644.736c.564.65 1.388 1.614 2.477 2.83 2.17 2.44 5.346 5.945 9.56 9.987 2.112 2.013 4.474 4.172 7.14 6.332 2.66 2.165 5.587 4.382 8.829 6.472 3.241 2.088 6.78 4.073 10.605 5.797 3.81 1.756 7.931 3.178 12.22 4.365 4.29 1.18 8.557 2.041 12.697 2.73a136.44 136.44 0 0012.016 1.444c7.694.6 14.662.503 20.485.109a141.614 141.614 0 0013.732-1.577c1.614-.246 2.858-.495 3.705-.645l.964-.17a5.14 5.14 0 01.33-.049" fill="#2472FF"/><path d="M144.818 213.977s-3.16.246-8.26-.1l-2-.157c-.695-.058-1.413-.168-2.16-.255-1.495-.157-3.074-.452-4.74-.736a85.95 85.95 0 01-10.63-2.782 86.048 86.048 0 01-10.141-4.234c-1.497-.784-2.932-1.507-4.216-2.29-.647-.382-1.284-.73-1.872-1.105l-1.686-1.088c-4.265-2.818-6.628-4.929-6.628-4.929a.515.515 0 01.125.077l.348.25 1.316.98.946.716c.351.255.744.516 1.159.806.837.569 1.764 1.254 2.856 1.914l1.691 1.066c.59.37 1.228.71 1.875 1.088 1.286.77 2.72 1.481 4.215 2.255a88.957 88.957 0 0010.113 4.196 88.8 88.8 0 0010.584 2.794c1.659.292 3.23.595 4.72.763.742.092 1.457.208 2.15.272l1.991.177c1.268.138 2.421.155 3.432.21.505.021.976.052 1.41.062l1.186.005 1.642.018.428.012c.097.005.146.01.146.015m-20.595-16.028c-.002.01-.183-.015-.527-.073l-1.5-.268-1.084-.2c-.394-.084-.817-.196-1.274-.305-.912-.233-1.962-.453-3.088-.824l-1.779-.543c-.617-.192-1.242-.442-1.899-.675-1.32-.448-2.68-1.054-4.123-1.666a69.29 69.29 0 01-8.934-4.892 69.39 69.39 0 01-8.04-6.257c-1.134-1.082-2.231-2.09-3.166-3.124-.474-.511-.953-.985-1.374-1.475l-1.205-1.417c-.787-.886-1.407-1.763-1.981-2.507-.282-.376-.553-.72-.787-1.048l-.614-.915-.841-1.271c-.19-.292-.285-.449-.275-.455.009-.005.121.14.327.42l.89 1.235.635.897c.24.322.517.66.805 1.03.586.732 1.216 1.596 2.011 2.47l1.216 1.399c.424.483.905.952 1.382 1.456.939 1.022 2.038 2.02 3.172 3.09a71.416 71.416 0 008.018 6.209 71.621 71.621 0 008.88 4.891c1.433.616 2.784 1.229 4.095 1.685.652.237 1.272.492 1.886.69l1.765.56c1.118.383 2.161.618 3.066.865.454.118.874.238 1.265.33l1.075.227 1.488.326c.339.077.517.123.515.135m23.29 43.534a.875.875 0 01-.194.03c-.146.013-.336.03-.573.053l-2.21.176-1.599.12c-.585.03-1.221.033-1.905.052-1.368.019-2.926.103-4.647.018l-2.702-.078c-.94-.033-1.913-.139-2.923-.21-2.025-.116-4.167-.426-6.427-.715-4.502-.693-9.412-1.727-14.45-3.238-5.028-1.556-9.68-3.436-13.806-5.37-2.036-1.02-3.988-1.957-5.734-2.99-.877-.504-1.745-.96-2.543-1.456l-2.287-1.44c-1.477-.89-2.723-1.829-3.847-2.607-.557-.397-1.084-.754-1.553-1.106l-1.26-.99-1.736-1.378-.446-.365a.926.926 0 01-.146-.132.894.894 0 01.166.108l.466.34 1.77 1.33 1.275.966c.474.344 1.004.694 1.565 1.083 1.132.763 2.385 1.687 3.865 2.562l2.293 1.42c.8.49 1.667.939 2.546 1.437 1.745 1.02 3.697 1.946 5.731 2.956 4.12 1.914 8.762 3.78 13.772 5.33 5.023 1.507 9.916 2.545 14.402 3.253 2.252.295 4.388.615 6.405.742 1.007.076 1.977.188 2.914.227l2.696.099c1.716.099 3.271.03 4.637.028.683-.01 1.318-.005 1.903-.027l1.597-.092c.945-.05 1.685-.088 2.212-.117.24-.008.43-.016.576-.022a.94.94 0 01.197.003M60.729 99.443c-.032.081-5.779-2.048-12.835-4.755-7.06-2.709-12.754-4.97-12.723-5.05.03-.082 5.777 2.047 12.836 4.756 7.056 2.707 12.752 4.968 12.722 5.05m23.588-18.637a.921.921 0 01-.123.152l-.38.425c-.325.381-.862.89-1.456 1.633-1.253 1.428-2.928 3.622-4.687 6.525a56.35 56.35 0 00-4.93 10.832c-1.433 4.253-2.535 9.09-3.147 14.234-.448 3.88-.624 7.664-.454 11.118l.008.161h-.158l-18.975-.057-5.49-.043-1.465-.024a77.27 77.27 0 00-.378-.013.52.52 0 01-.128-.013.52.52 0 01.128-.014l.378-.012 1.465-.024 5.49-.045 18.975-.056-.15.162c-.181-3.49-.008-7.277.442-11.176.614-5.167 1.73-10.023 3.184-14.29a55.347 55.347 0 015.015-10.854c1.79-2.903 3.5-5.084 4.785-6.49.61-.733 1.162-1.23 1.502-1.598.168-.167.3-.3.403-.404a.905.905 0 01.146-.13" fill="#2472FF"/><path d="M98.155 173.26c.016.015-.162.243-.499.641-.335.4-.834.965-1.461 1.654a110.101 110.101 0 01-5.09 5.211 110.08 110.08 0 01-5.42 4.87c-.714.598-1.3 1.073-1.713 1.391-.412.32-.647.488-.66.471-.015-.017.193-.217.581-.565.436-.387.988-.878 1.647-1.466a196.704 196.704 0 005.347-4.928 197.058 197.058 0 005.146-5.136l1.533-1.585c.363-.372.573-.572.589-.557m-5.217 21.645c.074.046-3.42 5.787-7.805 12.82-4.386 7.036-8 12.701-8.074 12.655-.074-.046 3.42-5.785 7.807-12.821 4.384-7.034 7.999-12.7 8.072-12.654m29.22 4.185c.02.009-.09.333-.306.912l-.927 2.448a390.266 390.266 0 00-2.985 8.099 387.454 387.454 0 00-2.786 8.169c-.334 1.009-.61 1.845-.823 2.484-.197.586-.316.907-.338.9-.02-.005.059-.338.22-.935s.41-1.457.729-2.516a184.42 184.42 0 012.702-8.208 184.788 184.788 0 013.074-8.075c.42-1.023.769-1.846 1.02-2.412.251-.565.4-.874.42-.866m53.448 25.617c-.01.002-.048-.088-.11-.263l-.255-.769-.88-2.844a917.788 917.788 0 01-2.792-9.421 901.254 901.254 0 01-2.703-9.448c-.32-1.175-.586-2.144-.785-2.872l-.198-.785c-.041-.18-.058-.276-.047-.279.01-.002.047.088.109.263l.255.77.88 2.845c.73 2.406 1.72 5.736 2.792 9.42a921.616 921.616 0 012.702 9.443l.785 2.873.198.786c.042.18.059.277.049.28m6.166-21.063c-.081.03-1.866-4.455-3.987-10.018-2.12-5.566-3.773-10.101-3.693-10.132.082-.032 1.867 4.454 3.988 10.02 2.12 5.563 3.774 10.1 3.692 10.13m43.483-20.827c-.01.019-.307-.11-.838-.363-.531-.249-1.29-.63-2.22-1.117a83.364 83.364 0 01-7.064-4.175 83.547 83.547 0 01-6.606-4.866 60.697 60.697 0 01-1.897-1.607c-.439-.39-.675-.613-.66-.63.013-.016.276.175.738.536l1.958 1.526a112.594 112.594 0 006.642 4.779 112.989 112.989 0 006.994 4.242c.878.486 1.608.891 2.17 1.204.514.285.793.451.783.47m28.115-23.152c-.022.084-6.254-1.385-13.919-3.283-7.667-1.897-13.865-3.503-13.844-3.587.02-.084 6.252 1.385 13.92 3.282 7.665 1.897 13.863 3.503 13.843 3.588m-7.228-34.313c0 .088-5.444.222-12.159.302-6.718.079-12.162.073-12.163-.014-.001-.087 5.442-.222 12.16-.3 6.715-.08 12.16-.075 12.162.012m-15.093-16.088c.001.087-11.814.364-26.388.62-14.578.255-26.394.39-26.396.304-.001-.087 11.812-.364 26.39-.62 14.574-.255 26.392-.39 26.394-.304m21.489-21.072c.003.01-.086.051-.26.119l-.763.283-2.821 1.003c-2.382.845-5.665 2.03-9.266 3.409a401.754 401.754 0 00-9.174 3.654l-2.768 1.138-.758.3c-.174.065-.268.094-.273.084-.004-.01.08-.058.248-.142l.733-.354c.64-.302 1.573-.723 2.731-1.231a216.244 216.244 0 019.148-3.744 215.422 215.422 0 019.306-3.325c1.201-.396 2.178-.706 2.855-.908l.782-.227c.18-.049.277-.069.28-.059m-46.334-23.006c.058.065-3.449 3.247-7.83 7.106-4.384 3.86-7.982 6.935-8.04 6.869-.058-.065 3.448-3.246 7.831-7.106 4.382-3.859 7.982-6.935 8.039-6.87m5.561-33.292c.07.05-3.472 5.145-7.911 11.378-4.441 6.235-8.097 11.247-8.168 11.197-.071-.05 3.47-5.144 7.911-11.38 4.44-6.232 8.096-11.245 8.168-11.195m-67.395 7.439c-.01 0-.014-.103-.01-.298l.031-.849.136-3.121c.105-2.635.184-6.277.1-10.3-.088-4.023-.322-7.66-.538-10.288l-.27-3.112-.067-.847c-.012-.194-.013-.297-.002-.298.01-.002.033.099.065.29l.126.841c.106.731.234 1.793.37 3.106a129.548 129.548 0 01.439 20.619 82.64 82.64 0 01-.237 3.119l-.09.846c-.025.192-.042.294-.053.292M114.426 66.22c-.018.012-.19-.217-.485-.64a58.79 58.79 0 01-1.21-1.821 109.305 109.305 0 01-3.683-6.202 109.064 109.064 0 01-3.269-6.431 58.943 58.943 0 01-.89-1.996c-.2-.477-.301-.744-.282-.753.02-.01.159.241.392.7l.98 1.952c.828 1.647 1.99 3.912 3.345 6.376a194.669 194.669 0 003.596 6.236l1.124 1.872c.263.444.4.695.382.707m72.348 36.007a1.468 1.468 0 01-.012-.205l-.014-.577c-.006-.525-.017-1.256-.03-2.186-.014-1.901-.036-4.605-.063-7.927l.119.12c-5.462.009-12.688.023-20.596.038-.142.14.19-.192.155-.157v2.851l-.002 2.777-.007 5.266-.148-.148 14.768.072 4.274.04 1.148.018c.263.006.402.012.408.018.006.006-.122.012-.373.018l-1.12.018-4.239.04-14.866.072h-.147v-.148a47532.52 47532.52 0 01-.01-8.043v-2.851c-.035.034.298-.3.159-.158l20.596.039h.12l-.001.118-.064 8-.03 2.16a211 211 0 00-.012.554.792.792 0 01-.013.181" fill="#2472FF"/><path d="M183.152 95.134c0 .088-3.2.158-7.145.158-3.949 0-7.147-.07-7.147-.158 0-.087 3.198-.157 7.147-.157 3.945 0 7.145.07 7.145.157m0 2.348c0 .087-3.2.158-7.145.158-3.949 0-7.147-.071-7.147-.158 0-.087 3.198-.158 7.147-.158 3.945 0 7.145.07 7.145.158m-4.887 4.508c.087 0 .158 1.317.158 2.94 0 1.624-.071 2.941-.158 2.941-.087 0-.157-1.317-.157-2.94 0-1.624.07-2.94.157-2.94m83.707 47.949a1.31 1.31 0 01-.013-.205l-.013-.577-.03-2.186-.064-7.927.119.119-20.596.039c-.142.14.19-.192.156-.156v1.432l-.001 1.417-.002 2.778-.007 5.266-.147-.147 14.767.071 4.274.04 1.148.018c.263.006.402.012.409.018.006.006-.123.012-.374.018l-1.12.018-4.239.041-14.865.07-.148.002v-.149l-.008-5.266-.001-2.778v-2.849c-.036.033.297-.3.158-.16l20.596.04h.12v.118c-.027 3.352-.05 6.082-.064 8l-.03 2.16-.013.554a.881.881 0 01-.012.181" fill="#2472FF"/><path d="M258.349 142.847c0 .088-3.2.158-7.145.158-3.948 0-7.147-.07-7.147-.158 0-.086 3.199-.157 7.147-.157 3.945 0 7.145.07 7.145.157m0 2.348c0 .087-3.2.158-7.145.158-3.948 0-7.147-.07-7.147-.158 0-.087 3.199-.158 7.147-.158 3.945 0 7.145.07 7.145.158" fill="#2472FF"/><path fill="#FFFFFE" d="M245.995 58.237h20.598V47.343h-20.598z"/><path d="M266.593 58.237a1.41 1.41 0 01-.013-.205l-.013-.577c-.007-.525-.016-1.256-.03-2.185-.014-1.902-.036-4.606-.063-7.927l.119.118-20.597.039c-.142.14.19-.192.156-.156v2.85l-.002 2.777-.008 5.266-.147-.147 14.767.071 4.274.04 1.149.018c.263.006.402.012.408.018.006.006-.122.013-.373.018-.277.005-.649.01-1.12.019l-4.24.04-14.865.071h-.148v-.148a47801.362 47801.362 0 01-.01-8.043v-2.85l.16-.16 20.596.04h.12l-.002.119-.062 8-.03 2.158-.013.556a.888.888 0 01-.013.18" fill="#2472FF"/><path d="M262.97 51.145c0 .087-3.199.157-7.145.157-3.948 0-7.146-.07-7.146-.157s3.198-.158 7.146-.158c3.946 0 7.146.07 7.146.158m-.001 2.347c0 .087-3.199.157-7.145.157-3.948 0-7.146-.07-7.146-.157s3.198-.158 7.146-.158c3.946 0 7.146.071 7.146.158m-10.531 4.696c.086 0 .157 6.433.157 14.365 0 7.936-.07 14.366-.158 14.366-.086 0-.157-6.43-.157-14.366 0-7.932.07-14.365.157-14.365M27.758 86.427a1.665 1.665 0 01-.013-.205l-.012-.577-.03-2.186-.064-7.927.119.118-20.597.039c-.142.14.19-.192.157-.156v1.432l-.001 1.418-.002 2.777-.007 5.267-.148-.149 14.767.072 4.274.04 1.149.018a3.6 3.6 0 01.408.019c.006.006-.122.012-.373.017l-1.118.019-4.241.04-14.866.071h-.147v-.147l-.008-5.267c0-.911 0-1.838-.002-2.777v-2.85c-.035.033.298-.3.158-.159l20.597.04h.12v.118c-.028 3.352-.05 6.081-.064 8l-.03 2.159-.013.555a.888.888 0 01-.013.18" fill="#2472FF"/><path d="M24.136 79.334c0 .087-3.2.157-7.146.157-3.947 0-7.146-.07-7.146-.157s3.199-.158 7.146-.158c3.946 0 7.146.071 7.146.158m0 2.347c0 .087-3.2.158-7.146.158-3.947 0-7.146-.071-7.146-.158 0-.087 3.199-.157 7.146-.157 3.946 0 7.146.07 7.146.157" fill="#2472FF"/><path fill="#FFFFFE" d="M44.205 212.521h20.599v-10.895H44.205z"/><path d="M64.804 212.521a1.4 1.4 0 01-.013-.205l-.013-.577-.03-2.185-.063-7.928.118.119-20.596.039c-.142.14.19-.192.156-.156v2.85l-.003 2.777-.007 5.266-.148-.148 14.768.072 4.274.04 1.149.018c.262.006.402.012.408.018.006.006-.122.012-.374.018-.276.004-.648.01-1.118.019l-4.241.04-14.866.071h-.147v-.148l-.007-5.266c-.002-.911-.002-1.838-.002-2.777v-2.85c-.036.032.297-.3.158-.159 7.908.015 15.135.029 20.596.038h.12v.12l-.064 8-.03 2.159-.013.555a.86.86 0 01-.012.18" fill="#2472FF"/><path d="M61.181 205.429c0 .086-3.2.157-7.146.157-3.947 0-7.146-.07-7.146-.157s3.199-.158 7.146-.158 7.146.07 7.146.158m0 2.347c0 .087-3.2.157-7.146.157-3.947 0-7.146-.07-7.146-.157s3.199-.157 7.146-.157 7.146.07 7.146.157M187.968 19.423a1.43 1.43 0 01-.014-.205c-.002-.15-.007-.34-.012-.577l-.03-2.186-.063-7.927.119.119c-5.462.01-12.69.023-20.597.039-.142.14.19-.192.156-.156v1.43l-.001 1.418-.002 2.778-.007 5.266-.148-.148c5.988.03 11.112.054 14.767.071l4.275.04 1.148.02c.263.005.403.011.409.017.006.006-.122.012-.374.018l-1.118.018-4.241.04-14.866.072h-.147v-.148l-.008-5.266-.001-2.778V8.53c-.036.032.297-.3.158-.16l20.597.04h.119v.118c-.027 3.352-.05 6.081-.064 8l-.03 2.16-.013.554a.86.86 0 01-.012.18" fill="#2472FF"/><path d="M184.345 12.33c0 .087-3.2.158-7.146.158-3.947 0-7.146-.07-7.146-.158 0-.087 3.2-.157 7.146-.157 3.947 0 7.146.07 7.146.157m0 2.347c0 .087-3.2.158-7.146.158-3.947 0-7.146-.07-7.146-.158 0-.086 3.2-.157 7.146-.157 3.947 0 7.146.07 7.146.157M32.575 88.86c0 .02-.252.041-.708.06l-1.93.05a380.5 380.5 0 01-6.37.046c-2.605 0-4.951-.018-6.578-.05l-.11-.002.003-.105.05-1.785c.017-.418.037-.647.057-.647.021 0 .041.229.06.647.012.484.029 1.079.048 1.785l-.108-.107c1.627-.03 3.973-.05 6.578-.05 2.487 0 4.74.017 6.37.046l1.93.05c.456.019.708.04.708.061M168.903 52.96c-.01-.004.019-.122.082-.342l.293-.957 1.074-3.517a183.589 183.589 0 003.098-11.725c.51-2.225.953-4.36 1.325-6.307l-.002.031-.15-7.718c-.005-.915-.011-1.656-.015-2.21 0-.514.01-.791.026-.792.016 0 .04.276.068.789l.1 2.209.262 7.714v.016l-.002.015a148.428 148.428 0 01-1.305 6.323 145.424 145.424 0 01-3.192 11.72 106.89 106.89 0 01-1.171 3.491l-.349.939c-.083.213-.131.324-.142.32M83.311 207.776c0 .087-3.906.157-8.723.157-4.819 0-8.724-.07-8.724-.157s3.905-.157 8.724-.157c4.817 0 8.723.07 8.723.157" fill="#2472FF"/><path d="M259.148 232.575c.52-1.803 1.634-3.544 3.356-4.287 1.792-.772 3.868-.332 5.7.334 1.834.666 3.635 1.558 5.581 1.678 1.948.12 4.145-.804 4.728-2.665.548-1.75-.506-3.617-1.828-4.888-2.776-2.672-6.948-3.806-10.695-2.906-3.747.899-6.949 3.803-8.21 7.444l1.368 5.29" fill="#E0565F"/><g transform="translate(257.387 219.285)"><mask id="b" fill="#fff"><use xlink:href="#a"/></mask><path fill="#0946B4" mask="url(#b)" d="M.394 13.29h20.88V.252H.394z"/></g><path d="M243.722 240.396c-2.857-2.714-2.714-7.438-1.288-11.111 1.424-3.674 4.534-6.495 8.008-8.353 6.735-3.604 15.152-3.878 22.106-.717-3.417.113-6.72 2.053-8.483 4.981-1.566 2.6-1.914 5.755-3.207 8.501a13.528 13.528 0 01-7.234 6.762 13.534 13.534 0 01-9.902-.063m-1.373-16.304c-3.163-3.734-3.584-9.727-3.118-14.598.466-4.87 1.594-9.773.826-14.604-.455-2.863-1.566-5.597-1.94-8.471-.376-2.875.156-6.125 2.383-7.98 2.56-2.133 6.591-1.63 9.254.373 2.662 2.002 4.206 5.147 5.333 8.282 2.477 6.888 3.386 14.526 1.352 21.558-2.035 7.03-6.81 13.318-13.816 15.44" fill="#2472FF"/><path d="M240.83 254.724c-.008 0-.012-.149-.01-.43.002-.283 0-.7.023-1.234a52.3 52.3 0 01.383-4.522 60.54 60.54 0 011.215-6.622c.59-2.47 1.596-5.103 3.021-7.666 1.43-2.564 3.174-4.777 4.938-6.6a31.444 31.444 0 015.177-4.306c.79-.546 1.554-.96 2.212-1.345a56.1 56.1 0 011.746-.877l1.137-.479c.261-.107.4-.159.404-.15.004.009-.129.076-.383.199l-1.115.522c-.474.246-1.053.549-1.718.913-.648.395-1.401.818-2.18 1.37a32.248 32.248 0 00-5.106 4.32c-1.741 1.819-3.465 4.019-4.883 6.561-2.908 5.087-3.704 10.435-4.282 14.185a63.958 63.958 0 00-.464 4.502l-.073 1.23c-.018.281-.032.429-.041.429" fill="#132529"/><path d="M213.55 209.364c-5.851 3.531-5.833 6.744-4.856 9.777.978 3.034 4.57 5.141 7.547 4.005 1.683-.642 2.902-2.105 3.943-3.575 1.042-1.47 2.02-3.043 3.48-4.1 1.46-1.055 3.575-1.46 5.041-.413l-15.154-5.694" fill="#E0565F"/><path d="M214.52 223.459c-2.513 0-5.032-1.854-5.826-4.318-.285-.886-.489-1.786-.488-2.706.001-2.23 1.201-4.571 5.345-7.071l13.6 5.11a3.98 3.98 0 00-.466-.026c-1.056 0-2.155.396-3.021 1.024-1.46 1.056-2.438 2.63-3.48 4.1-1.04 1.47-2.26 2.932-3.943 3.574a4.812 4.812 0 01-1.72.313m14.184-8.4l-1.554-.585a3.302 3.302 0 011.554.584" fill="#0946B4"/><path d="M209.17 213.235c1.53-2.114 5.31-2.726 7.697-1.672 2.386 1.055 4.135 3.148 5.7 5.236 1.565 2.088 3.088 4.294 5.256 5.747 2.167 1.453 5.196 1.979 7.356.515 1.419-.961 2.241-2.633 2.499-4.327.257-1.695.009-3.425-.344-5.102-.516-2.454-1.36-5.018-3.323-6.577-2.189-1.738-5.226-1.82-8.02-1.728-3.205.104-6.458.344-9.466 1.456-3.009 1.111-6.078 3.51-7.355 6.452" fill="#2472FF"/><path d="M235.967 250.037a.516.516 0 01-.015-.128l-.02-.378c-.012-.353-.03-.838-.05-1.452l-.154-5.342a341.762 341.762 0 00-.325-7.916c-.167-2.975-.388-6.25-.84-9.655-.229-1.701-.498-3.365-.97-4.904a25.49 25.49 0 00-1.792-4.292 24.76 24.76 0 00-2.263-3.55 23.158 23.158 0 00-2.47-2.713 18.172 18.172 0 00-4.38-2.985c-.286-.13-.535-.26-.76-.35l-.57-.223-.35-.14a.486.486 0 01-.118-.058.487.487 0 01.125.031l.36.118.582.2c.229.083.483.205.773.329 1.152.516 2.77 1.427 4.462 2.942a22.77 22.77 0 012.517 2.716 24.449 24.449 0 012.304 3.571c.7 1.325 1.341 2.767 1.826 4.327.482 1.567.753 3.237.984 4.945.453 3.42.666 6.698.82 9.679.15 2.98.222 5.667.27 7.924.046 2.256.064 4.082.07 5.344 0 .614 0 1.1.002 1.453l-.007.378a.458.458 0 01-.011.13m2.107 2.644s-.328-.87-.642-2.514c-.305-1.641-.534-4.075-.268-7.06.25-2.984 1.013-6.485 2.23-10.243 1.2-3.765 2.831-7.791 4.224-12.118.69-2.166 1.278-4.308 1.68-6.412a57.04 57.04 0 00.83-6.118c.328-3.926.282-7.483.187-10.462-.101-2.98-.26-5.39-.359-7.055l-.113-1.918-.023-.5a.829.829 0 010-.17.75.75 0 01.026.169l.05.498.162 1.914c.13 1.664.316 4.073.442 7.056.118 2.981.185 6.546-.132 10.488a56.398 56.398 0 01-.818 6.147c-.402 2.116-.99 4.27-1.683 6.442-1.397 4.342-3.034 8.363-4.244 12.113-1.225 3.743-2.002 7.221-2.275 10.186-.288 2.965-.088 5.386.184 7.026.144.82.275 1.454.392 1.877l.117.485c.026.11.036.167.033.169" fill="#132529"/><path fill="#334F55" d="M252.58 255.326h-27.476l-.627-5.289h28.104v5.289"/><path fill="#334F55" d="M228.053 254.724l3.435 15.865h14.93l3.214-15.865h-21.58"/><path d="M252.58 255.326c0 .072-6.04.114-13.491.093-7.452-.021-13.492-.097-13.491-.169 0-.072 6.04-.114 13.492-.093 7.45.02 13.49.096 13.49.169" fill="#334F55"/><path d="M247.865 263.156c-.035.054-.81-.746-2.42-1.386a8.542 8.542 0 00-2.943-.59c-1.136-.038-2.37.233-3.617.663-1.253.423-2.423.916-3.56 1.188a8.5 8.5 0 01-3.079.092c-.87-.136-1.546-.394-1.978-.626a3.794 3.794 0 01-.477-.303c-.103-.078-.154-.122-.149-.13.015-.02.235.137.671.342a6.952 6.952 0 001.96.534c.85.11 1.892.107 2.997-.145 1.1-.275 2.27-.773 3.531-1.2 1.259-.434 2.536-.709 3.708-.658a8.417 8.417 0 013.005.661 7.762 7.762 0 011.791 1.044c.194.15.336.277.427.369.093.089.139.139.133.145" fill="#132529"/><path d="M247.656 264.216c-.036.054-.783-.722-2.324-1.369a7.887 7.887 0 00-2.837-.584c-1.098-.03-2.293.218-3.5.63-1.21.404-2.346.874-3.431 1.165-1.084.296-2.106.4-2.957.332a5.012 5.012 0 01-1.94-.518 3.5 3.5 0 01-.461-.293c-.1-.075-.15-.118-.144-.125.015-.022.227.132.65.326a5.326 5.326 0 001.906.426c.828.043 1.823-.077 2.881-.38 1.063-.299 2.19-.772 3.413-1.182 1.22-.415 2.457-.667 3.589-.622a7.766 7.766 0 014.619 1.693c.185.147.32.27.409.36.09.085.133.134.127.141" fill="#FFFFFE"/><path d="M248.137 262.105c-.033.05-.84-.76-2.485-1.465a9.148 9.148 0 00-3.016-.725c-1.17-.082-2.446.217-3.733.658-1.295.434-2.496.96-3.687 1.204a9.41 9.41 0 01-3.178.006c-.894-.156-1.593-.41-2.042-.647a3.772 3.772 0 01-.495-.307c-.107-.08-.16-.125-.155-.132.015-.022.242.141.695.347.453.204 1.145.427 2.026.556.878.118 1.954.162 3.103-.06 1.14-.244 2.347-.777 3.65-1.215 1.297-.445 2.618-.749 3.83-.65a8.971 8.971 0 013.077.796c.828.37 1.434.795 1.832 1.104.2.156.346.285.44.38.097.092.144.143.138.15" fill="#FFFFFE"/><path d="M252.823 255.348c0 .073-6.18.132-13.803.132-7.625 0-13.805-.059-13.805-.132 0-.072 6.18-.13 13.805-.13 7.623 0 13.803.058 13.803.13" fill="#132529"/></g></svg>