<svg width="457" height="272" xmlns="http://www.w3.org/2000/svg"><g fill="none" fill-rule="evenodd"><path fill="#E4E4DE" d="M338.877 150.393h81.315V4.317h-81.315z"/><path fill="#FAF9F6" d="M342.127 146.04h73.979V8.554h-73.979z"/><path fill="#F1F0EC" d="M416.106 10.173l-73.979 94.103V8.553h73.979v1.62"/><path fill="#E4E4DE" d="M342.127 49.568h75.585v-1.464h-75.585zm0 32.742h75.585v-1.464h-75.585zm0 32.74h75.585v-1.463h-75.585z"/><path fill="#E4E4DE" d="M377.247 149.94h3.738V48.836h-3.738zM356.372 48.836h1.693V8.553h-1.693zm14.604 0h1.693V8.553h-1.693zm14.604 0h1.693V8.553h-1.693zm14.604 0h1.693V8.553h-1.693z"/><path fill="#F1F0EC" d="M335.439 151.297h3.438V1.84h-3.438z"/><g fill="#D4D5CF"><path d="M423.632 151.71l-3.44-1.317V1.839h3.44v149.87"/><path d="M335.439 4.317h88.193V.33h-88.193z"/></g><path fill="#D4D5CF" d="M332.999 155.914h92.961v-3.713H333z"/><path d="M420.192 150.393l5.768 1.808H333l5.878-1.808h81.315m19.136 59.074c3.288-1.696 7.159-1.917 10.81-1.314 1.96.325 4.004.911 5.339 2.384 1.334 1.473 1.587 4.065.055 5.331-.912.753-2.184.868-3.367.854-2.857-.033-6.028-.536-8.311 1.183-1.302.98-2.17 2.612-3.726 3.094-1.524.472-3.243-.427-4.05-1.802-.808-1.375-.835-3.094-.459-4.643 0 0 .397-3.379 3.709-5.087m-7.532-14.541c2.01 2.872 5.917 1.92 7.728.168 1.813-1.752 2.578-4.293 3.275-6.715 1.593-5.535 3.2-11.341 2.014-16.977-.354-1.685-.983-3.365-2.168-4.616-1.184-1.25-3.004-1.993-4.669-1.553-1.97.52-3.195 2.45-4.08 4.286a40.473 40.473 0 00-3.999 17.367c-.01 2.797.32 5.73 1.899 8.04m-5.521 4.12c2.182-2.59 2.597-6.37 1.625-9.614-.971-3.247-3.166-6.007-5.694-8.262a30.664 30.664 0 00-10.198-6.016c-1.475-.518-3.03-.928-4.586-.779-1.555.148-3.123.944-3.848 2.328-1.073 2.047-.044 4.53 1.069 6.556a77.784 77.784 0 006.697 10.199c2.007 2.587 4.307 5.14 7.367 6.31 3.06 1.17 6.238 1.033 7.86-1.09" fill="#E4E4DE"/><path d="M431.66 238.24c.037.002.099-.464.182-1.305l.346-3.56c.166-1.5.386-3.282.802-5.223.414-1.937 1.064-4.036 1.898-6.165.863-2.116 1.917-4.04 3.148-5.577 1.222-1.546 2.643-2.664 3.979-3.309a11.15 11.15 0 013.352-1.044c.833-.085 1.298-.15 1.298-.187.001-.038-.466-.044-1.321-.02-.847.056-2.09.27-3.495.908-1.408.625-2.916 1.76-4.198 3.338-1.292 1.57-2.384 3.536-3.263 5.69-.849 2.165-1.488 4.286-1.884 6.265-.395 1.975-.577 3.777-.695 5.288a70.493 70.493 0 00-.176 3.584c-.02.846-.01 1.314.028 1.316" fill="#D4D5CF"/><path d="M431.905 235.5c.019-.001.03-.21.036-.606l-.005-1.73a188.89 188.89 0 01.077-6.362c.133-5.37.596-11.15 1.488-19.297.846-7.661 1.981-16.577 3.18-22.374.256-1.318.514-2.505.758-3.543.232-1.042.43-1.94.622-2.665l.404-1.683c.087-.387.124-.592.106-.598-.018-.005-.09.19-.21.568l-.503 1.66c-.223.719-.451 1.61-.712 2.647a78.934 78.934 0 00-.838 3.535c-1.186 5.253-2.44 12.594-3.342 20.76-.895 8.165-1.298 15.6-1.333 20.982-.032 2.692.025 4.871.093 6.375l.107 1.73c.03.395.054.602.072.601" fill="#D4D5CF"/><path d="M431.941 221.162c.038-.002.032-.643-.012-1.808a50.031 50.031 0 00-.554-4.9c-.347-2.053-.832-4.49-1.593-7.139-.33-1.211-1.107-4.112-2.986-8.447-2.476-5.874-5.84-10.676-8.766-13.65-.687-.79-1.451-1.36-2.062-1.918-.317-.267-.597-.534-.882-.746l-.8-.551c-.963-.659-1.502-1.007-1.522-.975-.086.117 2.157 1.438 4.99 4.452 2.822 3.008 6.093 7.777 8.548 13.602a66.77 66.77 0 013.002 8.37c.783 2.622 1.303 5.035 1.696 7.067.373 2.037.59 3.7.72 4.851.107 1.153.185 1.793.221 1.792m-13.858 25.292l1.436 19.684h25.287l1.437-19.684h-28.16m-2.443 0h33.62v-7.758h-33.62z" fill="#D4D5CF"/><path fill="#E4E4DE" d="M415.64 267.535h33.064v-2.15H415.64z"/><path fill="#D4D5CF" d="M418.77 271.32l-1.55-3.785h30.28l-1.807 3.785H418.77"/><path d="M445.773 252.887c.006.005-.034.066-.117.181l-.378.501-1.473 1.886-.066.084-.063-.088-3.62-5.006h.209l-3.563 5.045-.111.159-.126-.15-4.226-5.027.244-.003-.232.292-3.779 4.737-.126.158-.116-.165-3.565-5.044.207.01-4.39 5.002-.077.09-.06-.1c-.578-.973-1.04-1.748-1.375-2.31l-.352-.615c-.078-.14-.115-.215-.108-.22.007-.004.057.063.148.196l.39.591c.35.552.835 1.313 1.443 2.268l-.137-.012 4.319-5.062.11-.128.097.138 3.597 5.02-.242-.006 3.77-4.744.232-.292.12-.15.124.148 4.214 5.036-.237.01 3.599-5.02.106-.147.102.147 3.542 5.06-.128-.004 1.532-1.837.41-.475c.095-.106.147-.159.152-.154m.822-6.562c0 .087-6.336.157-14.15.157-7.817 0-14.151-.07-14.151-.157s6.334-.158 14.15-.158c7.815 0 14.15.07 14.15.158m1.278 21.422c0 .087-6.885.157-15.378.157-8.496 0-15.38-.07-15.38-.157s6.884-.157 15.38-.157c8.493 0 15.378.07 15.378.157" fill="#F1F0EC"/><path d="M19.912 127.9s-5.152-.37-4.677 11.187c.474 11.558 1.653 17.714 1.653 17.714s-.152 2.562-2.136 2.06c-1.985-.503-5.719-2.997-7.563-1.133-1.912 1.933-1.232 4.9 1.304 8.393 2.537 3.492 7.814 11.35 8.288 12.061.467.7.653 2.011-.753 1.885-1.408-.126-10.904-3.345-12.162 1.253-1.258 4.597 7.408 13.167 8.338 14.123.93.955.98 1.558.602 2.135-.376.578-3.467-.804-6.205-1.61-2.739-.805-6.055-1.257-6.558 1.456-.503 2.714 3.313 10.655 17.608 19l6.876 3.433 6.509-4.152c13.388-9.733 16.39-18.016 15.619-20.665-.773-2.65-4.026-1.867-6.671-.792-2.645 1.075-5.58 2.759-6.013 2.222-.433-.538-.444-1.142.385-2.186.83-1.043 8.595-10.436 6.884-14.885-1.712-4.449-10.839-.297-12.226-.03-1.387.266-1.332-1.057-.939-1.8.401-.756 4.866-9.101 7.04-12.83 2.175-3.73 2.555-6.75.459-8.481-2.021-1.67-5.487 1.184-7.412 1.883-1.924.699-2.33-1.836-2.33-1.836s.556-6.243-.127-17.79c-.685-11.547-5.898-10.615-5.898-10.615" fill="#E4E4DE"/><path d="M20.32 138.251s.013.082.027.242l.054.71.186 2.729c.158 2.37.36 5.801.594 10.043.472 8.482 1.023 20.205 1.588 33.154.566 12.952 1.087 24.678 1.511 33.16l.511 10.048.136 2.731.029.71c.005.161 0 .244 0 .244s-.014-.082-.027-.241l-.055-.71-.185-2.729c-.157-2.37-.36-5.801-.595-10.042-.47-8.483-1.022-20.206-1.588-33.16-.565-12.948-1.087-24.672-1.51-33.156l-.512-10.047-.135-2.732-.03-.71c-.004-.16 0-.244 0-.244" fill="#D4D5CF"/><path d="M12.272 161.427c.012-.013.164.114.428.357.264.24.635.599 1.09 1.047.908.9 2.128 2.174 3.449 3.605l3.363 3.68 1.023 1.11c.243.262.371.413.359.426-.013.013-.166-.113-.43-.353a34.097 34.097 0 01-1.087-1.054c-.899-.908-2.102-2.198-3.422-3.63l-3.389-3.654a339.29 339.29 0 00-1.03-1.105c-.24-.264-.367-.416-.354-.429m10.394 9.998c-.052-.051 2.463-2.685 5.617-5.882 3.154-3.198 5.752-5.748 5.804-5.697.052.051-2.463 2.684-5.617 5.882-3.154 3.198-5.752 5.748-5.804 5.697m-.029 19.927c-.007-.016.163-.124.48-.305l1.345-.755a126.81 126.81 0 004.39-2.563 123.902 123.902 0 004.277-2.75l1.283-.856c.305-.2.478-.304.489-.29.01.016-.143.147-.43.373-.285.226-.706.545-1.235.926a67.328 67.328 0 01-4.246 2.821 68.595 68.595 0 01-4.44 2.504c-.581.296-1.054.53-1.386.681-.332.153-.518.23-.527.214m-11.392-6.973c.01-.016.179.064.476.223s.724.395 1.247.693a247.95 247.95 0 014.062 2.37c1.58.94 3.001 1.803 4.024 2.439.512.317.923.579 1.204.764.281.186.432.296.423.311-.01.016-.178-.064-.476-.223a56.261 56.261 0 01-1.246-.693 248.818 248.818 0 01-4.064-2.372c-1.578-.938-3-1.8-4.023-2.437a57.087 57.087 0 01-1.203-.764c-.282-.186-.433-.296-.424-.311m-2.259 17.588c.008-.015.223.09.605.294l1.6.882a403.69 403.69 0 015.23 2.998 426.88 426.88 0 015.192 3.066l1.559.955c.365.23.562.366.553.382-.01.015-.224-.09-.605-.293l-1.6-.883a400.866 400.866 0 01-5.231-2.999 405.937 405.937 0 01-5.191-3.065l-1.559-.955c-.365-.23-.563-.366-.553-.382m14.444 8.272c-.009-.016.205-.157.598-.4l1.672-1.018c1.41-.86 3.355-2.053 5.465-3.43a204.114 204.114 0 005.349-3.611l1.607-1.117c.38-.26.597-.4.608-.385.01.015-.185.18-.548.468-.362.287-.893.694-1.559 1.185a109.74 109.74 0 01-5.313 3.68 110.319 110.319 0 01-5.515 3.37 61.31 61.31 0 01-1.715.947c-.41.216-.64.327-.649.311m10.335 11.868H14.741l6.21 47.002h6.605l6.21-47.002" fill="#D4D5CF"/><path d="M15.728 227.885c-.007.004.02.066.102.167.08.1.23.23.459.328.45.197 1.243.213 2.01-.246.768-.424 1.437-1.257 2.465-1.625 1.022-.39 2.287-.32 3.5.07 1.226.38 2.291 1 3.257 1.579.967.576 1.854 1.089 2.649 1.42.79.346 1.477.505 1.954.566.239.031.425.04.552.037.127 0 .192-.005.193-.016.01-.063-1.077-.052-2.61-.787-.768-.35-1.63-.876-2.59-1.465-.956-.59-2.047-1.238-3.313-1.63-1.252-.403-2.598-.476-3.693-.04-.547.208-1.006.536-1.39.859-.388.321-.736.624-1.088.844-.696.45-1.427.468-1.853.321-.439-.152-.58-.409-.604-.382m.695 8.656c.025.017.15-.193.448-.503a4.232 4.232 0 011.519-.965c.714-.273 1.631-.436 2.645-.398 1.02.035 2.13.259 3.311.451 1.178.198 2.347.287 3.39.14a9.346 9.346 0 002.667-.76 8.504 8.504 0 001.603-.954c.352-.266.52-.445.509-.458-.036-.05-.771.606-2.2 1.21-.713.295-1.6.564-2.613.679-1.013.126-2.135.033-3.307-.163-1.171-.19-2.3-.41-3.35-.43-1.054-.025-2.003.167-2.737.48a3.998 3.998 0 00-1.527 1.086 2.712 2.712 0 00-.288.422c-.055.102-.08.158-.07.163m15.187 4.635c.007-.014-.168-.133-.524-.272a5.604 5.604 0 00-1.577-.338c-.681-.055-1.497-.011-2.383.136-.888.144-1.838.389-2.837.6-.998.212-1.961.353-2.834.321-.871-.03-1.647-.221-2.248-.487-1.224-.537-1.661-1.32-1.707-1.27-.011.007.075.204.322.497.246.293.673.667 1.292.972.618.304 1.421.525 2.33.574.908.049 1.899-.09 2.909-.303 1.01-.214 1.953-.466 2.821-.622.868-.16 1.66-.224 2.323-.2 1.335.045 2.094.449 2.113.392m-13.506 6.518c.008.051.678-.423 1.847-.186.572.103 1.212.393 1.932.721.717.334 1.581.62 2.508.691 1.87.18 3.532-.424 4.551-1.055.522-.31.887-.643 1.133-.87.231-.247.35-.389.335-.404-.041-.045-.542.517-1.578 1.085-1.018.563-2.623 1.107-4.413.935-1.8-.102-3.184-1.177-4.432-1.319-.609-.09-1.118-.004-1.435.124-.322.126-.458.268-.448.278m1.059 9.022c0 .036.638.032 1.587-.315.956-.32 2.139-1.053 3.522-1.602.693-.264 1.388-.427 2.02-.423a3.724 3.724 0 011.626.371c.875.435 1.128 1.053 1.176 1.014.013-.006-.025-.162-.181-.401-.153-.239-.445-.551-.89-.807a3.724 3.724 0 00-1.725-.463c-.683-.02-1.418.146-2.137.419-1.432.571-2.578 1.325-3.492 1.688-.902.39-1.513.47-1.506.52m.933 4.197c-.01.039.445.203 1.204.39.759.189 1.823.39 3.011.508 1.19.116 2.273.126 3.053.089.781-.038 1.26-.11 1.258-.15-.006-.093-1.928-.01-4.28-.248-2.352-.225-4.223-.68-4.246-.589" fill="#F1F0EC"/><path d="M453.625 270.403c0 .098-101.555.177-226.801.177C101.534 270.58 0 270.5 0 270.403c0-.098 101.534-.177 226.824-.177 125.246 0 226.801.08 226.801.177" fill="#132529"/><path fill="#334F55" d="M91.623 261.948h4.973v-59.592h-4.973zm37.21-59.592H57.697a7.721 7.721 0 017.721-7.721h55.694a7.721 7.721 0 017.721 7.721"/><path d="M98.473 202.51c0 .1-1.954.182-4.364.182s-4.363-.081-4.363-.183c0-.1 1.953-.182 4.363-.182s4.364.081 4.364.182" fill="#132529"/><path d="M115.865 267.347h-.703c0-11.67-9.494-21.164-21.164-21.164-11.669 0-21.163 9.494-21.163 21.164h-.703c0-12.058 9.809-21.867 21.866-21.867 12.058 0 21.867 9.809 21.867 21.867" fill="#334F55"/><path d="M75.762 266.95a3.278 3.278 0 11-6.556 0 3.278 3.278 0 016.556 0" fill="#132529"/><path d="M118.933 267.1a3.278 3.278 0 11-6.557 0 3.278 3.278 0 016.557 0m-3.279-5.152c0 .102-9.515.183-21.25.183-11.74 0-21.253-.081-21.253-.183 0-.101 9.513-.183 21.253-.183 11.735 0 21.25.082 21.25.183M56.076 143.362v43.867c0 5.753 4.663 10.418 10.416 10.418h33.803l-4.592-54.285a4.642 4.642 0 00-4.642-4.643H60.718a4.642 4.642 0 00-4.642 4.643" fill="#334F55"/><path d="M68.023 194.635c-.01.008-.141-.133-.375-.415-.24-.277-.575-.704-.976-1.274a20.463 20.463 0 01-2.636-5.277 20.696 20.696 0 01-.907-3.985c-.2-1.464-.17-3.042-.176-4.68l-.014-10.699.052-19.437.057-5.89.032-1.601c.012-.366.024-.558.036-.558.012 0 .025.192.036.558l.033 1.601.056 5.89.052 19.437-.014 10.699c-.002 1.648-.042 3.203.142 4.644.162 1.444.48 2.766.853 3.944a21.502 21.502 0 002.512 5.276c.382.58.697 1.017.918 1.308.215.295.329.452.32.46" fill="#132529"/><path d="M86.43 194.504c0 .024-.383.05-1.074.076l-2.928.077c-2.473.05-5.888.094-9.66.12-1.883.014-3.678.025-5.32.036-1.634.011-3.098.074-4.281.388a7.026 7.026 0 00-2.589 1.233c-.547.412-.792.713-.822.684-.01-.008.049-.085.168-.224.117-.143.3-.341.567-.567.523-.457 1.396-1.03 2.61-1.367 1.209-.355 2.71-.445 4.34-.474 1.63-.041 3.433-.043 5.32-.062a800.48 800.48 0 019.666-.017l2.929.036c.691.015 1.074.036 1.073.06" fill="#132529"/><path d="M161.764 120.387l-3.297 3.385-6.605-7.035 2.196-3.76c.118-.48.238-1.015.354-1.624a6.515 6.515 0 00.04-2.159c-.127-.867-.342-2.013-.65-2.604-.38-.731.301-1.55.961-1.221.66.329 1.755 2.316 1.911 4.973.155 2.656 2.537-.728 3.427-1.945.888-1.218 3.814-4.85 4.397-4.864.856-.02 1.04.916.124 2.11-.928 1.21-3.416 4.976-2.764 5.43l.026-.002a3.216 3.216 0 013.266 1.83c.566 1.201 1.183 2.893.6 3.627-1.097 1.382-3.986 3.86-3.986 3.86" fill="#B67E6D"/><path fill="#B67E6D" d="M151.862 116.737l-23.712 19.522 9.524 13.298 20.793-25.785-6.605-7.035"/><path d="M164.1 111.644c.034.034-.421.538-1.183 1.324l-1.352 1.367-.807.8c-.294.263-.641.604-1.184.595a.836.836 0 01-.65-.38 1.116 1.116 0 01-.171-.68c.04-.473.314-.815.554-1.091.496-.542.97-.991 1.385-1.355.832-.722 1.408-1.09 1.434-1.054.033.042-.485.478-1.264 1.238-.387.38-.841.847-1.308 1.385-.224.263-.436.57-.455.897-.022.329.175.679.498.686.319.02.652-.241.921-.493l.82-.782 1.404-1.312c.807-.74 1.323-1.18 1.358-1.145" fill="#AC6150"/><path d="M164.95 113.363c.034.035-.402.52-1.133 1.277l-1.299 1.316c-.253.245-.489.505-.796.769a1.93 1.93 0 01-.537.33.932.932 0 01-.711.005c-.494-.233-.612-.79-.507-1.207.112-.424.383-.726.618-.985.48-.513.94-.946 1.34-1.292.802-.693 1.357-1.045 1.384-1.009.032.042-.465.463-1.215 1.193-.373.366-.81.81-1.267 1.327-.223.255-.446.53-.523.85-.077.297.04.686.31.797.275.126.618-.055.889-.278.27-.226.535-.501.787-.734l1.352-1.261c.777-.711 1.274-1.133 1.308-1.098" fill="#AC6150"/><path d="M165.899 114.987c.034.035-.383.502-1.084 1.228l-1.245 1.264c-.237.229-.471.501-.806.719a1.297 1.297 0 01-.594.22.84.84 0 01-.657-.234c-.343-.352-.356-.869-.19-1.242.16-.376.422-.645.65-.888a17.04 17.04 0 011.292-1.233c.773-.66 1.305-.997 1.332-.961.032.041-.443.447-1.163 1.146-.36.35-.779.776-1.221 1.269-.22.246-.448.5-.569.8-.127.282-.089.647.118.857.204.208.542.157.816-.027.28-.175.518-.432.765-.66l1.297-1.208c.746-.682 1.225-1.085 1.259-1.05m-7.528 4.103c-.051-.021.082-.39.16-1 .08-.605.073-1.47-.234-2.346a5.195 5.195 0 00-1.28-1.98c-.44-.428-.775-.632-.747-.681.018-.037.403.091.913.494a4.59 4.59 0 011.449 2.05c.33.948.295 1.882.145 2.507-.147.632-.369.973-.406.955" fill="#AC6150"/><path d="M111.487 138.827l3.536 35.519-43.633.952.237-28.594-3.154-24.658c2.07-11.536 18.241-12.33 18.241-12.33l12.692-.206s5.97-.79 12.486 2.77c0 0 12.884 7.014 12.766 24.832l-13.17 1.715" fill="#2472FF"/><path d="M71.794 116.037c-3.808 3.64-7.496 10.947-6.128 25.576l20.291-.837-.523-20.015a6.76 6.76 0 00-2.617-5.167c-3.294-2.552-8.012-2.436-11.023.443" fill="#2472FF"/><path d="M114.261 169.264c.006.01-.116.106-.364.27-.253.156-.641.37-1.179.554-1.067.38-2.755.576-4.749.183-2.002-.36-4.213-1.354-6.757-2.029a22.73 22.73 0 00-8.505-.529c-3.034.354-5.747 1.472-8.216 2.437-2.467.979-4.784 1.72-6.81 1.9-2.02.206-3.673-.088-4.737-.463a7.967 7.967 0 01-1.186-.534c-.256-.15-.387-.234-.38-.245.017-.036.547.305 1.608.647 1.062.33 2.686.579 4.67.346 1.988-.208 4.259-.961 6.716-1.955 2.452-.977 5.205-2.125 8.29-2.484a22.666 22.666 0 018.632.565c1.296.337 2.48.788 3.594 1.173 1.112.39 2.156.721 3.13.926 1.95.417 3.6.262 4.658-.07 1.066-.33 1.565-.728 1.585-.692" fill="#FAF9F6"/><path fill="#BEBFBB" d="M114.122 165.3l-.062-.631h.01l.052.63"/><path fill="#253D41" d="M71.443 169.011v-.013.013"/><path d="M81.418 172.437c-1.213 0-2.427-.134-3.61-.398 1.994-.2 4.267-.93 6.683-1.89 2.47-.964 5.182-2.082 8.216-2.436a22.028 22.028 0 011.534-.143c-2.05.774-3.802 2.194-5.755 3.2-2.18 1.121-4.622 1.667-7.068 1.667m-4.343-.58c-1.975-.538-3.844-1.446-5.458-2.707-.145-.113-.034-.02-.174-.139v-.013l.107-5.447 8.227-.214v1.332h34.283l.062.63.14 1.631c-1.56.784-3.384 1.05-5.238 1.05-1.621 0-3.267-.204-4.775-.444-1.933-.308-3.921-.652-5.87-.652a12.7 12.7 0 00-2.841.296h-.02c-.937 0-1.892.058-2.855.182-3.086.36-5.839 1.507-8.291 2.484-2.457.994-4.728 1.747-6.717 1.955-.197.023-.39.042-.58.056" fill="#2472FF"/><path d="M77.808 172.039c-.246-.055-.49-.116-.733-.182.19-.014.383-.033.58-.056 1.989-.208 4.26-.961 6.717-1.955 2.452-.977 5.205-2.125 8.29-2.484a22.289 22.289 0 012.856-.182h.02a10.074 10.074 0 00-1.297.39c-.508.03-1.02.077-1.534.143-3.034.354-5.747 1.472-8.216 2.437-2.416.958-4.689 1.69-6.683 1.889" fill="#BABBB7"/><path d="M114.337 267.896l-.104-4.245-11.348.392.063 6.626.701.046c3.12.18 15.876.692 17.963.064 2.328-.701-7.275-2.883-7.275-2.883" fill="#2472FF"/><path d="M102.96 270.508l-.043-3.171c.22-.027.421-.04.61-.04.938 0 1.528.315 2.157.807.72.563 1.164 1.455 1.34 2.357l-4.057-.045-.007.092" fill="#1D64E3"/><path d="M113.824 271.064c-3.847-.016-8.174-.151-10.876-.395l.701.046a286.1 286.1 0 0010.175.349m7.69-.258l.098-.027c.206-.062.319-.136.353-.22h.044a.162.162 0 01-.037.102c-.04.054-.2.102-.459.145" fill="#FFFFFE"/><path d="M122.009 270.56h-.044c.019-.047.013-.097-.017-.15a.25.25 0 01.061.15" fill="#828D8C"/><path d="M114.571 271.065l-.747-.001a286.1 286.1 0 01-10.175-.349l-.701-.046.012-.16 4.088.08-.023-.128 11 .123s.345-1.428 1.003-1.454l.033.01a33 33 0 01.684.216c.771.259 1.927.692 2.203 1.054.03.053.036.103.017.15-.034.083-.147.157-.353.22l-.099.026c-1.058.175-3.783.259-6.942.259" fill="#1D64E3"/><path d="M107.048 270.588l-4.089-.08.008-.092 4.058.045.023.127" fill="#F4C5C4"/><path d="M102.789 270.41c0 .004.067.011.194.021l.559.035 2.055.093a199.17 199.17 0 0013.572.046l2.055-.08c.207-.013.39-.023.559-.032.127-.009.194-.016.193-.02a1.08 1.08 0 00-.195-.008l-.559.006-2.056.036c-1.735.031-4.134.06-6.784.052a333.38 333.38 0 01-6.783-.096l-2.055-.05-.56-.01c-.127 0-.195.002-.195.006" fill="#132529"/><path d="M118.021 270.759c.042.005.076-.485.387-.98.303-.5.726-.75.702-.785-.007-.034-.493.177-.819.714-.331.53-.304 1.06-.27 1.051m-3.331-1.701c.031.02.192-.173.357-.433.165-.26.274-.486.242-.506-.032-.022-.192.172-.357.432-.166.26-.274.486-.243.507m-.913-.486c.025.028.204-.091.399-.265.195-.175.332-.34.307-.367-.025-.029-.204.09-.4.265-.194.174-.332.339-.306.367m-.577-1.07c0 .039.264.073.59.078.326.003.591-.023.591-.06 0-.039-.263-.073-.59-.078-.325-.004-.59.023-.591.06m-.197-.752c-.013.034.275.164.658.193.383.03.687-.054.68-.09-.006-.038-.305-.017-.67-.047-.364-.026-.655-.094-.668-.056" fill="#132529"/><path d="M115.076 268.072c-.002.016.278.05.726-.002a4.22 4.22 0 00.774-.169c.142-.05.29-.088.443-.18a.395.395 0 00.181-.226c.03-.11-.028-.231-.11-.291-.693-.361-1.39.027-1.648.386a1.309 1.309 0 00-.238.484c-.03.124-.028.195-.02.196.026.009.05-.286.332-.62.14-.162.35-.322.623-.401.256-.075.621-.095.865.061.115.086.07.222-.058.298-.12.077-.275.123-.41.173a5.107 5.107 0 01-.748.193c-.436.076-.712.076-.712.098" fill="#132529"/><path d="M115.264 268.109c.01.008.118-.177.085-.504a1.204 1.204 0 00-.197-.532c-.128-.161-.293-.384-.605-.372-.168.022-.25.213-.224.336a.8.8 0 00.122.324c.108.182.23.33.342.44.228.224.408.31.416.296.012-.018-.145-.13-.345-.361a2.573 2.573 0 01-.302-.437c-.1-.154-.168-.43.015-.462.182-.018.367.164.478.31a1.2 1.2 0 01.204.472c.055.296-.013.485.011.49m-12.236-.793c.002.025.324-.03.835.032.505.057 1.21.267 1.82.756.611.49.969 1.13 1.135 1.612.172.485.187.811.213.808.008-.001.013-.082.001-.228a3.02 3.02 0 00-.122-.61 3.494 3.494 0 00-1.14-1.69 3.5 3.5 0 00-1.898-.745 2.95 2.95 0 00-.621.015c-.146.02-.224.041-.223.05m5.446 2.174c-.005.035.731.159 1.65.167.919.013 1.658-.091 1.654-.127-.004-.04-.742.003-1.652-.01-.91-.01-1.648-.07-1.652-.03" fill="#132529"/><path d="M106.257 269.481c-.027.027.06.157.136.326.077.169.115.32.154.318.037 0 .06-.18-.03-.374-.087-.196-.235-.298-.26-.27m-.832-1.042c-.027.026.046.145.163.264.116.119.232.193.26.167.027-.027-.046-.145-.163-.264-.116-.118-.233-.194-.26-.167m-1.194-.478c.008.04.158.038.324.097.168.055.286.148.315.122.03-.021-.064-.182-.27-.252-.206-.071-.38-.002-.369.033m-.85-.226c-.014.035.051.094.145.13.094.037.18.038.194.003.015-.035-.05-.094-.144-.13-.094-.038-.181-.038-.195-.003" fill="#132529"/><path fill="#A2A5A2" d="M102.91 266.691l-.025-.93h.016l.009.93"/><path fill="#1E3337" d="M114.296 266.224l-.012-.464h.034v.463l-.022.001"/><path fill="#A93B44" d="M102.91 266.703v-.012l-.009-.93h11.383l.012.463-11.385.479"/><path d="M151.542 267.292l-.106-4.345-11.614.402.064 6.781.718.048c3.193.183 16.248.707 18.384.065 2.382-.718-7.446-2.951-7.446-2.951" fill="#2472FF"/><path d="M139.898 269.965l-.044-3.246c.224-.027.43-.04.623-.04.962 0 1.565.322 2.209.825.738.576 1.192 1.49 1.373 2.413l-4.154-.045-.007.093" fill="#1D64E3"/><path d="M141.307 270.239c-.51-.034-.986-.07-1.42-.109l.717.048c.309.017.71.038 1.185.06h-.482m17.708-.004c.311-.099.398-.225.317-.37.07.092.085.179.025.258-.03.04-.127.077-.281.112h-.06m-1.844-1.416" fill="#FFFFFE"/><path d="M150.997 270.533c-3.313-.013-6.969-.114-9.69-.294h.482c2.146.103 5.795.243 9.208.294m7.891-.263l.1-.027.027-.009h.06a3.479 3.479 0 01-.187.036" fill="#828D8C"/><path d="M151.786 270.535c-.26 0-.524 0-.79-.002a301.644 301.644 0 01-9.207-.294c-.475-.023-.876-.044-1.185-.061l-.718-.048.012-.165 4.184.082-.023-.13 11.258.125s.353-1.46 1.027-1.488c.284.087.563.175.828.264.786.267 1.887.69 2.16 1.046.081.145-.006.271-.317.37l-.027.009-.1.027c-1.082.179-3.87.265-7.102.265" fill="#1D64E3"/><path d="M144.082 270.047l-4.184-.082.007-.093 4.154.045.023.13" fill="#F4C5C4"/><path d="M139.724 269.864c-.001.005.068.012.198.022l.571.036 2.104.096a205.818 205.818 0 0013.89.045l2.104-.081.572-.033a1.09 1.09 0 00.198-.02 1.05 1.05 0 00-.2-.008l-.571.006-2.105.037a351.42 351.42 0 01-6.943.054c-2.712-.01-5.166-.056-6.942-.1l-2.104-.05a47.65 47.65 0 00-.572-.01.96.96 0 00-.2.006" fill="#132529"/><path d="M155.313 270.222c.043.005.077-.497.396-1.003.31-.512.743-.768.719-.804-.008-.035-.505.182-.839.73-.34.544-.31 1.085-.276 1.077m-3.41-1.741c.033.02.197-.178.367-.444.169-.265.28-.497.247-.518-.032-.021-.196.177-.366.443-.17.266-.28.498-.248.519m-.936-.498c.026.029.21-.092.41-.271.2-.179.34-.348.315-.376-.027-.03-.21.092-.41.271-.2.178-.34.346-.315.376m-.589-1.093c0 .038.27.073.604.077.334.005.604-.023.605-.062 0-.038-.27-.073-.604-.078-.334-.005-.604.023-.605.062m-.202-.771c-.013.035.281.168.674.198.392.031.703-.055.695-.091-.006-.04-.312-.019-.684-.05-.373-.026-.672-.095-.685-.057" fill="#132529"/><path d="M152.298 267.472c0 .016.285.052.744-.003.23-.027.5-.08.792-.172.145-.052.297-.09.454-.186a.4.4 0 00.184-.23c.031-.112-.028-.237-.111-.298-.71-.37-1.423.028-1.688.395a1.33 1.33 0 00-.244.495c-.03.127-.028.2-.02.2.027.011.051-.29.34-.632.144-.167.36-.33.637-.412.263-.076.637-.096.886.063.118.088.072.226-.06.305-.123.078-.281.126-.418.177a5.047 5.047 0 01-.767.197c-.445.078-.729.078-.729.1" fill="#132529"/><path d="M152.49 267.51c.012.008.122-.182.088-.517a1.228 1.228 0 00-.202-.544c-.13-.165-.299-.393-.618-.38-.172.021-.257.218-.23.343.013.13.072.242.126.332.11.187.234.337.35.451.232.229.416.316.424.303.014-.02-.147-.135-.352-.37a2.658 2.658 0 01-.31-.448c-.102-.157-.17-.44.015-.473.187-.017.376.168.49.317.116.161.18.335.209.484.056.303-.014.496.01.501m-12.522-.811c.003.026.332-.03.855.033a3.731 3.731 0 011.863.773c.625.502.99 1.157 1.161 1.65.176.497.192.83.218.827.009 0 .013-.084.001-.234a3.057 3.057 0 00-.124-.624 3.582 3.582 0 00-1.169-1.729 3.583 3.583 0 00-1.94-.763 3.043 3.043 0 00-.637.015c-.15.021-.23.043-.228.052m5.574 2.224c-.006.037.748.162 1.688.172.94.013 1.697-.095 1.693-.13-.004-.042-.76.003-1.69-.01-.932-.01-1.687-.072-1.691-.032" fill="#132529"/><path d="M143.273 268.913c-.028.029.061.161.138.334.08.173.12.327.159.325.037 0 .06-.183-.03-.382-.09-.2-.242-.304-.267-.277m-.852-1.066c-.027.027.047.148.166.27.12.121.239.199.267.172.027-.028-.047-.149-.166-.27-.12-.122-.239-.199-.267-.172m-1.221-.489c.007.04.161.038.331.099.171.056.292.152.322.125.032-.022-.065-.186-.276-.258-.212-.072-.39-.001-.378.034m-.869-.231c-.015.035.051.095.148.133.095.038.185.04.198.002.015-.036-.051-.095-.148-.133-.096-.037-.184-.038-.198-.002" fill="#132529"/><path d="M139.847 266.07l-.025-.965h.017l.008.965m11.653-.49l-.012-.475h.035v.474l-.023.001" fill="#A2A5A2"/><path fill="#A93B44" d="M139.847 266.07l-.008-.965h11.65l.01.475-11.652.49"/><path d="M141.82 174.762l-46.355-.582 9.69 21.796 26.587.203a3.36 3.36 0 013.332 3.217l2.855 66.664 17.932-1.358-1.812-76.312a14.075 14.075 0 00-12.23-13.628" fill="#132529"/><path d="M97.77 197.754l1.968 68.85 22.238-1.585s-1.226-64.936-2.89-82.765c-1.138-12.204-47.696-6.956-47.696-6.956-.675 24.292 26.38 22.456 26.38 22.456" fill="#132529"/><path d="M97.504 192.37c.1-.005.262 1.38.359 3.093.097 1.714.094 3.107-.006 3.113-.102.006-.263-1.378-.36-3.092-.097-1.713-.094-3.107.007-3.113m-.811-18.065c0-.013.137-.018.397-.017l1.134.025c.984.03 2.409.077 4.168.175 1.759.102 3.855.255 6.167.599 2.304.373 4.854 1.057 7.146 2.565.57.38 1.082.834 1.534 1.333a5.25 5.25 0 011 1.717c.41 1.224.604 2.448.737 3.609.25 2.33.244 4.433.257 6.193l.002 4.17.011 1.132c0 .26-.005.396-.018.397-.012 0-.031-.135-.056-.393a22.98 22.98 0 01-.079-1.132c-.054-.985-.085-2.411-.12-4.17-.045-1.758-.067-3.857-.333-6.158-.14-1.147-.339-2.35-.74-3.53-.389-1.166-1.313-2.128-2.401-2.864-2.213-1.46-4.729-2.152-6.992-2.535-2.291-.36-4.38-.54-6.132-.674l-4.159-.292-1.13-.092c-.259-.026-.394-.046-.393-.058" fill="#334F55"/><path d="M65.666 141.613c0 .012.123.017.355.016l1.013-.02 3.727-.138a1329.018 1329.018 0 0014.747-.715l.162-.008v-.162l-.057-10.64c-.022-1.3-.04-2.363-.052-3.152l-.03-.85c-.01-.194-.021-.295-.032-.295-.01 0-.021.101-.031.295l-.03.85-.052 3.153-.057 10.639.161-.17-2.459.126c-4.797.248-9.14.492-12.282.686l-3.72.247-1.012.085c-.231.023-.352.04-.351.053m9.417-28.785c.011.072.909-.219 2.367-.073 1.438.127 3.448.823 5.019 2.405 1.568 1.59 2.296 3.565 2.577 4.987.291 1.438.232 2.364.297 2.363.02 0 .055-.228.07-.644a9.384 9.384 0 00-.128-1.763c-.226-1.463-.938-3.527-2.572-5.184-1.642-1.654-3.753-2.338-5.243-2.407-.751-.042-1.36.027-1.768.12-.409.092-.624.177-.62.196m36.421 10.235c-.047 0-.09.726-.119 1.919-.03 1.19-.038 2.858-.002 4.684.038 1.732.073 3.298.1 4.582.01.73.016 1.258.021 1.78l.021-2.019.1-4.586c.036-1.754.028-3.327 0-4.483-.03-1.152-.073-1.877-.121-1.877" fill="#132529"/><path d="M68.023 141.629l.488 20.003c.252 4.682 4.638 8.023 9.218 7.024l30.24-8.365 2.273-11.174-28.282 5.428-.36-13.596-13.577.68" fill="#B67E6D"/><path d="M78.762 159.427c-.042.006-.136-.358-.098-.956.037-.595.243-1.43.753-2.204a4.656 4.656 0 011.727-1.56c.536-.273.906-.329.918-.288.056.093-1.389.575-2.349 2.043-.969 1.461-.843 2.979-.95 2.965" fill="#AC6150"/><path d="M85.154 128.202c.012.003.004.086-.023.243-.02.16-.083.386-.173.678a5.88 5.88 0 01-1.375 2.169c-.76.776-1.918 1.529-3.378 1.744-1.462.218-3.056-.174-4.604-.7-1.556-.52-3.027-1.056-4.423-1.126-1.392-.095-2.626.335-3.526.87a6.545 6.545 0 00-1.863 1.654c-.359.474-.51.772-.539.757-.01-.005.018-.084.084-.23a4.5 4.5 0 01.343-.608 6.152 6.152 0 011.844-1.785c.916-.584 2.208-1.065 3.673-.984 1.464.057 2.973.6 4.519 1.117 1.54.523 3.068.9 4.447.711 1.375-.183 2.495-.874 3.247-1.6a6.209 6.209 0 001.422-2.038c.225-.551.291-.879.325-.872m-1.9-12.388c.017.015-.1.18-.35.451a8.472 8.472 0 01-1.162 1.032c-1.044.79-2.724 1.65-4.74 1.897-2.017.248-3.856-.178-5.06-.692a8.492 8.492 0 01-1.378-.72c-.306-.202-.46-.334-.448-.352.032-.055.707.398 1.917.838 1.2.443 2.981.814 4.926.575a10.766 10.766 0 004.638-1.751c1.069-.72 1.613-1.323 1.657-1.278m37.806 7.431c-.04.034-.282-.481-1.068-1.04-.764-.563-2.132-1.09-3.848-.97-1.72.097-3.621 1.005-5.536 2.24-.968.61-1.965 1.298-3.069 1.909-1.1.606-2.313 1.161-3.653 1.395-1.339.252-2.708.066-3.897-.372-1.2-.428-2.26-1.04-3.247-1.63-1.95-1.202-3.757-2.251-5.464-2.516-1.697-.287-3.105.165-3.9.673-.81.523-1.078 1.022-1.11.991-.01-.006.058-.122.208-.333.162-.2.418-.49.826-.772.799-.563 2.248-1.072 4.015-.806 1.774.243 3.638 1.3 5.592 2.482.987.58 2.034 1.175 3.195 1.584 1.156.418 2.441.59 3.72.349 1.282-.222 2.463-.756 3.547-1.35 1.087-.595 2.084-1.273 3.064-1.88 1.937-1.228 3.902-2.145 5.694-2.214 1.777-.091 3.183.494 3.946 1.109.394.3.634.605.787.81.14.218.208.334.198.341m-9.555-10.715c.021.032-.496.407-1.43.836-.932.429-2.3.873-3.865 1.045-1.566.168-2.998.029-4-.19-1.006-.218-1.59-.473-1.577-.51.02-.118 2.463.702 5.538.347 3.08-.314 5.29-1.641 5.334-1.529m-5.604 30.261c-.024.025-.271-.24-.817-.565-.54-.326-1.42-.66-2.553-.718-1.133-.07-2.48.181-3.878.75-1.407.546-2.861 1.382-4.506 2.05-3.285 1.351-6.613 1.604-8.893 1.134-1.143-.219-2.03-.558-2.609-.847-.295-.133-.504-.278-.653-.361-.144-.089-.218-.14-.212-.15.034-.083 1.255.743 3.518 1.111 2.242.397 5.486.112 8.717-1.216 1.613-.654 3.079-1.484 4.52-2.025 1.43-.564 2.843-.802 4.012-.695 1.173.092 2.077.478 2.61.851.273.182.461.354.579.477.118.126.174.194.165.203" fill="#FAF9F6"/><path d="M94.957 118.342c4.03 0 7.28-3.291 7.235-7.32-.027-2.515-.07-4.69-.07-4.69s5.816-.54 6.243-6.295c.426-5.755.244-19.042.244-19.042a20.056 20.056 0 00-20.27 1.288l-.893.604.275 28.29a7.236 7.236 0 007.236 7.165" fill="#B67E6D"/><path d="M102.137 106.25s-3.658.071-7.376-2.598c0 0 1.518 4.255 7.297 4.09l.079-1.493" fill="#AC6150"/><path d="M88.932 89.25c-.106-.04-3.644-.5-3.31 3.677.334 4.178 4.443 2.459 4.44 2.338-.002-.12-1.13-6.014-1.13-6.014" fill="#B67E6D"/><path d="M88.665 93.902c-.02-.012-.068.056-.187.123a.734.734 0 01-.543.055c-.454-.127-.882-.798-.962-1.549a2.42 2.42 0 01.12-1.058c.103-.316.284-.545.503-.603a.372.372 0 01.445.166c.065.112.046.198.068.202.013.01.084-.077.037-.247a.462.462 0 00-.185-.248.549.549 0 00-.412-.074c-.32.048-.586.368-.708.709a2.48 2.48 0 00-.159 1.184c.094.84.588 1.592 1.206 1.719.3.053.538-.055.657-.164.12-.114.135-.209.12-.215" fill="#AC6150"/><path d="M108.648 81.988c1.422-.35 1.934-2.48 1.881-3.943-.052-1.465-1.063-2.81-2.395-3.42-1.333-.609-2.925-.525-4.265.07-.404-2.128-2.487-3.804-4.652-3.744-2.165.06-4.152 1.85-4.438 3.996-.139-1.111-1.397-1.733-2.515-1.8-1.116-.067-2.313.262-3.038 1.113-.725.851-.797 2.279.027 3.034-1.246-.14-2.56.119-3.574.856-1.014.737-1.683 1.981-1.59 3.232.094 1.25 1.023 2.433 2.25 2.688.422.088.527-.195.754.17.127.204.172.967.165 1.207-.04 1.38-.043 2.565.235 3.941.73-.367 1.654.161 2.009.898.353.737.295 1.596.227 2.41.355.533 1.25.376 1.636-.134.387-.511.411-1.2.419-1.84l.085-6.664a2.251 2.251 0 002.144 0 2.251 2.251 0 001.135-1.82 4.464 4.464 0 003.582 1.195 4.466 4.466 0 003.19-2.021c.687.545 1.384 1.096 2.185 1.453.801.358 1.732.507 2.561.22.83-.285 1.995-.22 1.982-1.097m-1.558 8.22c.015.426-.334.791-.779.815-.444.024-.817-.301-.831-.728-.015-.426.333-.791.777-.815.445-.024.818.302.833.728m.176-.908c-.1.106-.711-.346-1.58-.344-.868-.01-1.506.436-1.6.33-.047-.048.055-.237.333-.44.273-.2.74-.396 1.28-.394.542.003.997.202 1.259.406.266.205.358.395.308.442m-8.684 1.112c.015.426-.334.791-.778.815-.444.024-.818-.302-.833-.728-.015-.426.334-.791.778-.815.445-.024.818.302.833.728" fill="#132529"/><path d="M98.726 89.463c-.1.105-.712-.348-1.58-.346-.868-.01-1.505.438-1.6.33-.045-.046.055-.236.334-.438.273-.202.74-.397 1.28-.395.542.003.997.202 1.258.406.267.205.358.396.308.443m3.154 6.442c-.004-.05.535-.143 1.41-.254.222-.023.432-.067.47-.218.052-.16-.041-.4-.148-.658-.21-.537-.427-1.1-.657-1.69-.91-2.404-1.57-4.382-1.472-4.418.097-.036.913 1.885 1.825 4.29l.628 1.699c.084.252.228.538.115.87a.554.554 0 01-.365.325c-.142.043-.266.046-.376.052-.88.048-1.428.052-1.43.002m-2.557.601c.141-.008.143.935.95 1.604.806.672 1.81.565 1.818.697.014.06-.224.184-.648.196a2.35 2.35 0 01-1.518-.53c-.492-.41-.703-.958-.735-1.345-.037-.394.068-.627.133-.622m-.373-10.448c-.085.236-.952.125-1.971.248-1.022.102-1.844.4-1.979.188-.06-.101.082-.323.416-.552.329-.229.854-.446 1.466-.514.612-.066 1.172.03 1.543.182.374.15.563.336.526.448m7.995.728c-.152.198-.75-.007-1.47-.017-.72-.035-1.33.133-1.47-.074-.061-.1.035-.298.301-.485.263-.185.701-.338 1.196-.323.494.016.923.195 1.173.397.255.203.338.406.27.502" fill="#132529"/><path d="M83.713 80.774c.026-.008.002.258.27.619.264.36.86.714 1.69.905.828.187 1.896.395 3.072.12.58-.141 1.179-.424 1.656-.896.464-.453.85-1.178.626-1.86-.1-.33-.426-.564-.777-.6a.618.618 0 00-.704.584c-.057.767.59 1.522 1.36 1.868.789.37 1.751.385 2.612.023.863-.351 1.63-1.007 2.219-1.799.28-.395.506-.859.521-1.33.016-.467-.268-.912-.732-1.03-.45-.131-.998-.016-1.313.343-.328.356-.452.894-.37 1.397.16 1.033 1.165 1.78 2.209 2.054 1.062.293 2.25.146 3.266-.361 1.018-.501 1.846-1.376 2.205-2.408.172-.508.176-1.073-.119-1.484-.275-.426-.82-.613-1.235-.36a1.294 1.294 0 00-.618 1.233c.036.496.294.966.616 1.357a4.292 4.292 0 002.567 1.46c1.932.329 3.98-.845 4.467-2.511.254-.818-.202-1.743-.94-1.975-.747-.237-1.502.412-1.632 1.104-.16.713.089 1.448.489 1.972.407.534.97.887 1.534 1.068.566.178 1.143.182 1.63.036.493-.134.89-.411 1.198-.695.61-.593.853-1.248.933-1.682.084-.442.052-.684.073-.684 0 0 .06.239-.002.696-.06.45-.287 1.134-.907 1.769-.315.304-.725.604-1.247.758-.516.165-1.13.17-1.737-.01a3.336 3.336 0 01-1.653-1.119c-.439-.564-.726-1.35-.555-2.165a1.79 1.79 0 01.669-1.054c.343-.265.834-.398 1.286-.255.91.274 1.425 1.375 1.145 2.309-.249.94-.966 1.703-1.824 2.2-.865.497-1.929.735-2.979.56a4.612 4.612 0 01-2.774-1.566c-.353-.426-.651-.946-.7-1.546-.061-.6.24-1.244.79-1.561.275-.16.632-.209.945-.109.314.097.57.313.749.57.377.528.358 1.23.167 1.794-.398 1.143-1.292 2.076-2.383 2.614-1.088.544-2.361.703-3.516.385a3.993 3.993 0 01-1.573-.816c-.448-.387-.799-.925-.886-1.524-.094-.588.045-1.231.46-1.684.422-.464 1.093-.6 1.661-.434.287.084.557.26.729.518.176.247.243.555.24.843-.024.583-.285 1.084-.59 1.514-.63.838-1.433 1.52-2.367 1.898-.928.385-1.996.366-2.853-.047a2.92 2.92 0 01-1.089-.87c-.268-.37-.473-.818-.418-1.296a.945.945 0 01.329-.63.911.911 0 01.672-.184c.45.047.862.36.988.78.258.844-.206 1.619-.703 2.104a3.77 3.77 0 01-1.768.927c-1.238.268-2.32.029-3.152-.179-.845-.217-1.455-.604-1.714-.997a1.242 1.242 0 01-.204-.483.59.59 0 01-.009-.178" fill="#334F55"/><path fill="#D4D5CF" d="M92.454 160.291h52.747l8.697-33.685h-44.01l-6.967 31.492-10.467.247v1.946"/><path fill="#334F55" d="M356.302 260.477h4.974v-59.59h-4.974z"/><path d="M323.597 203.582h71.137a7.721 7.721 0 00-7.722-7.72h-55.694a7.721 7.721 0 00-7.721 7.72" fill="#132529"/><path d="M353.957 203.736c0 .1 1.954.182 4.364.182s4.364-.081 4.364-.182c0-.102-1.954-.183-4.364-.183s-4.364.081-4.364.183" fill="#132529"/><path d="M337.032 265.877h.704c0-11.67 9.494-21.164 21.164-21.164 11.67 0 21.164 9.494 21.164 21.164h.703c0-12.058-9.81-21.868-21.867-21.868-12.058 0-21.868 9.81-21.868 21.868" fill="#334F55"/><path d="M377.137 266.963a3.278 3.278 0 106.557 0 3.278 3.278 0 00-6.557 0" fill="#132529"/><path d="M333.942 266.51a3.28 3.28 0 106.558 0 3.28 3.28 0 00-6.558 0m3.302-6.033c0 .102 9.515.184 21.25.184 11.74 0 21.253-.082 21.253-.184 0-.1-9.513-.183-21.252-.183-11.736 0-21.251.083-21.251.183" fill="#334F55"/><path d="M396.823 141.892v43.867c0 5.753-4.664 10.418-10.417 10.418h-33.803l4.591-54.285a4.643 4.643 0 014.644-4.644h30.342a4.642 4.642 0 014.643 4.644" fill="#132529"/><path d="M384.875 195.862c-.005-.004.021-.048.077-.13.069-.097.15-.216.248-.358.225-.31.544-.778.93-1.393a23.069 23.069 0 002.519-5.588c.372-1.24.678-2.633.837-4.148.18-1.513.134-3.145.133-4.872l-.014-11.212.052-20.375.056-6.174.033-1.678c.012-.384.024-.586.036-.586.012 0 .025.202.036.586l.033 1.678.056 6.174.053 20.375-.015 11.212c-.009 1.718.028 3.37-.168 4.905a22.396 22.396 0 01-.89 4.189 22.02 22.02 0 01-2.64 5.589 18.172 18.172 0 01-.99 1.361c-.238.301-.372.453-.382.445" fill="#334F55"/><path d="M366.469 195.885c0-.024.381-.044 1.074-.061l2.928-.036a800.48 800.48 0 019.667.017c1.887.019 3.689.02 5.32.063 1.63.03 3.131.118 4.34.474 1.214.336 2.086.91 2.609 1.367.267.226.45.425.567.567.12.138.178.215.169.223-.03.03-.276-.272-.823-.684a7.059 7.059 0 00-2.588-1.232c-1.183-.314-2.647-.377-4.281-.389l-5.321-.035a785.15 785.15 0 01-9.66-.12l-2.927-.077c-.692-.027-1.074-.053-1.074-.077" fill="#334F55"/><path d="M383.037 152.064c-.795-6.574-1.853-12.178-1.853-12.178h-14.25s1.77 8.34 1.376 10.274c-.345 1.684-27.958 2.8-35.153 2.913-.196-.147-.432-.114-.685-.08-.298.039-.62.078-.919-.183a5.77 5.77 0 01-1.225-1.51c-.39-.69-.875-1.631-.984-2.23-.135-.74-1.077-.93-1.366-.313-.287.617.037 2.667 1.404 4.65 1.367 1.981-2.217.952-3.53.6-1.312-.35-5.422-1.242-5.847-.913-.622.481-.232 1.255 1.087 1.575 1.335.322 5.208 1.562 4.995 2.265-.21.691-6.868-1.19-6.868-1.19s-1.36-.639-1.632.164c-.492 1.449 6.729 2.913 7.42 3.036.48.085.275.856-.236.737-.525-.123-6.599-2.035-7.113-.566-.394 1.128 5.93 1.262 6.976 2.378.525.558-.682.405-2.058.25-1.364-.152-2.896-.305-3.062.24-.124.406 2.302.595 5.79 1.085 3.261.46 9.327.418 10.78.384 8.088.443 36.678 1.034 42.781.602 7.116-.502 4.446-9.733 4.172-11.99" fill="#F1AD92"/><path d="M298.061 117.961s-3.924-4-4.685-4.159c-.76-.16-8.111-3.846-8.111-3.846s-.874 1.008.215 1.871c1.09.864 3.66 2.423 3.66 2.423l-1.816 3.548s1.743 5.818 2.059 5.699c.316-.118.61-1.142.61-1.142l-.541-1.834 3.558 2.97 1.546-.178 3.505-5.352" fill="#EEA091"/><path d="M295.036 116.043c-.028.051-.998-.425-2.476-1.205l.03.013-1.938-.521.215-.147c-.046.54.148 1.126.518 1.63.543.733 1.296 1.267 1.98 1.646l.128.072-.048.129c-.4 1.06-.265 2.064-.081 2.713.187.659.4 1.008.367 1.029-.026.02-.303-.3-.554-.97a4.28 4.28 0 01-.036-2.883l.08.2c-.743-.39-1.52-.924-2.123-1.729-.407-.549-.637-1.237-.57-1.87l.022-.205.194.058 1.924.572.018.006.013.006c1.446.836 2.366 1.404 2.337 1.456" fill="#E98773"/><path d="M288.468 117.897a20.961 20.961 0 001.525 4.458 3.44 3.44 0 00.694-1.422" fill="#EEA091"/><path d="M290.686 120.933c.048-.002.04.705-.575 1.52l-.143.19-.114-.223a15.14 15.14 0 01-.641-1.437c-.638-1.646-.837-3.07-.745-3.086.1-.021.45 1.345 1.076 2.959.202.528.409 1.018.588 1.433l-.257-.033c.601-.692.734-1.35.811-1.323" fill="#E98773"/><path d="M290.77 115.22c.039-.014.34.543.7 1.512.174.486.352 1.083.422 1.776.065.69.01 1.483-.317 2.239a3.35 3.35 0 01-.511.832l-.177.21-.115-.247a17.881 17.881 0 01-1.142-3.188c-.206-.826-.265-1.336-.225-1.345.098-.025.528 1.981 1.683 4.383l-.292-.037c.18-.217.334-.471.454-.75.593-1.398.256-2.847-.018-3.796-.293-.97-.514-1.569-.462-1.588" fill="#E98773"/><path fill="#EEA091" d="M298.061 117.961l27.871 18.869-8.135 10.165-23.24-23.682 3.504-5.352"/><path d="M327.665 266.72l-.14-6.852 12.832-.345.311 10.02-.794.074c-3.535.29-17.997 1.234-20.383.58-2.662-.73 8.174-3.478 8.174-3.478" fill="#2472FF"/><path fill="#FFFFFE" d="M340.554 265.866l-.003-.091.003.09"/><path d="M336.037 269.423a4.454 4.454 0 011.54-2.635c.784-.645 1.75-1.019 2.758-1.019.072 0 .144.002.216.006l.003.09.097 3.495-.01-.102-4.604.165" fill="#1D64E3"/><path d="M329.988 270.246h-.37c4.238-.192 8.538-.488 10.256-.63l.794-.072c-2.678.309-6.773.559-10.68.702" fill="#FFFFFE"/><path d="M328.358 270.3l1.26-.054h.37c-.548.02-1.094.038-1.63.053" fill="#6C7978"/><path d="M319.607 270.226c-.298-.042-.482-.092-.53-.152-.069-.086-.054-.183.021-.287-.088.168.021.308.393.41.036.01.074.02.116.029m1.843-1.653c.525-.194.926-.321.926-.321-.318.106-.63.213-.926.32" fill="#FFFFFE"/><path d="M323.635 270.375c-1.837 0-3.286-.046-4.028-.15a1.824 1.824 0 01-.116-.028c-.372-.102-.48-.242-.393-.41.291-.4 1.489-.896 2.352-1.214.296-.108.608-.215.926-.321.748.012 1.179 1.622 1.179 1.622l12.482-.45a3.56 3.56 0 00-.023.144l4.637-.206v-.002l.017.184-.794.073a326.848 326.848 0 01-11.516.682c-1.704.05-3.325.076-4.723.076" fill="#1D64E3"/><path d="M336.014 269.568a3.56 3.56 0 01.023-.145l4.604-.165.01.102v.002l-4.637.206" fill="#F2BCBC"/><path d="M340.842 269.245c0 .005-.076.015-.22.03l-.633.055-2.33.164c-1.967.126-4.688.263-7.696.348a224.82 224.82 0 01-7.705.088l-2.335-.033-.634-.02a1.313 1.313 0 01-.221-.017c0-.006.076-.01.22-.014l.635-.01 2.335-.016c1.97-.014 4.693-.05 7.7-.134 3.007-.086 5.727-.205 7.696-.301l2.331-.115.634-.027c.146-.004.222-.004.223.002" fill="#132529"/><path d="M323.564 270.073c-.047.007-.1-.549-.466-1.102-.358-.559-.845-.83-.82-.87.009-.039.565.188.95.785.392.595.375 1.195.336 1.187m3.734-2.025c-.036.024-.223-.192-.419-.482-.195-.29-.325-.544-.289-.567.036-.025.223.19.418.48.195.29.325.545.29.569m1.024-.578c-.028.032-.235-.097-.461-.29-.227-.192-.388-.375-.36-.408.028-.032.235.097.461.29.226.192.387.375.36.407m.623-1.229c.002.043-.298.09-.667.104-.37.015-.672-.008-.674-.051-.001-.043.297-.09.668-.104.37-.015.671.009.673.051m.202-.86c.015.038-.307.194-.741.238-.435.046-.781-.041-.775-.081.007-.045.347-.03.76-.074.411-.04.74-.125.756-.083" fill="#132529"/><path d="M326.832 266.94c.001.018-.314.065-.825.018a4.914 4.914 0 01-.883-.17c-.162-.053-.332-.09-.508-.193a.444.444 0 01-.212-.25.325.325 0 01.116-.333c.777-.43 1.578-.009 1.883.39.166.204.245.405.284.544.036.14.036.22.027.221-.03.012-.065-.322-.395-.692a1.488 1.488 0 00-.717-.44c-.294-.077-.709-.089-.98.095-.13.1-.074.253.074.336.138.084.315.132.468.185.316.1.608.161.856.197.496.075.811.067.812.092" fill="#132529"/><path d="M326.619 266.988c-.012.009-.139-.199-.11-.57.014-.184.075-.401.208-.61.14-.186.32-.443.674-.439.192.02.292.234.265.374a.894.894 0 01-.13.372c-.117.21-.25.38-.376.51-.252.26-.453.362-.462.346-.015-.019.16-.152.38-.42a2.9 2.9 0 00.332-.503c.108-.178.177-.493-.03-.525-.208-.014-.413.197-.535.365a1.372 1.372 0 00-.218.543c-.054.337.03.55.002.557m13.864-1.248c-.002.03-.368-.025-.947.06a4.156 4.156 0 00-2.045.909 4.148 4.148 0 00-1.242 1.862c-.18.556-.189.926-.218.923-.01 0-.017-.092-.008-.259.01-.166.043-.407.121-.696a3.963 3.963 0 011.248-1.948 3.974 3.974 0 012.131-.9c.298-.03.54-.021.706-.002.166.02.256.042.254.052m-1.476-5.304c.042-.001.124 1.177.182 2.633.06 1.455.073 2.637.029 2.64-.043 0-.124-1.178-.184-2.634-.058-1.456-.071-2.637-.027-2.639m-4.643 7.925c.006.04-.825.2-1.868.237-1.043.04-1.884-.057-1.88-.099.003-.045.841-.016 1.875-.056 1.032-.037 1.867-.127 1.873-.082" fill="#132529"/><path d="M336.879 268.29c.032.03-.064.178-.144.373-.083.194-.123.366-.166.365-.042 0-.072-.2.022-.425.095-.225.26-.344.288-.314m.916-1.206c.031.03-.049.165-.177.303-.13.139-.26.227-.291.197-.031-.029.048-.165.177-.303.129-.138.26-.226.29-.197m1.342-.577c-.008.044-.178.048-.365.12-.188.067-.32.175-.354.147-.035-.023.067-.209.3-.294.232-.086.431-.012.419.027m.958-.28c.017.04-.055.108-.16.152-.105.044-.205.047-.221.009-.016-.04.055-.108.16-.153.106-.044.205-.047.22-.008" fill="#132529"/><path d="M296.675 230.063l2.975-6.174 11.6 5.499-4.257 9.077-.74-.294c-3.286-1.34-16.61-7.043-18.442-8.706-2.044-1.855 8.864.598 8.864.598" fill="#2472FF"/><path d="M307.061 238.29l.037-.092-4.181-1.936a4.457 4.457 0 013.57-1.764c.735 0 1.46.18 2.107.554l-1.533 3.238" fill="#1D64E3"/><path d="M306.993 238.465c-2.888-1.07-7.391-3.045-11.342-4.907a322.869 322.869 0 0010.601 4.613l.741.294m-19.09-8.92c-.248-.173-.389-.301-.404-.377-.023-.107.034-.187.146-.245-.152.11-.119.284.166.542l.091.08m3.362-.509" fill="#FFFFFE"/><path d="M306.993 238.465l-.74-.294a322.869 322.869 0 01-10.602-4.613c-3.558-1.677-6.669-3.263-7.749-4.014a2.441 2.441 0 01-.091-.079c-.285-.258-.318-.433-.166-.542.195-.1.557-.136.98-.136.546 0 1.191.06 1.707.12.3.038.613.082.932.13.661.347.319 1.979.319 1.979l11.334 5.246c-.03.04-.059.079-.086.119l4.228 1.913.002-.004-.068.175" fill="#1D64E3"/><path d="M307.06 238.294l-4.23-1.913.087-.12 4.18 1.937-.036.092-.002.004" fill="#F2BCBC"/><path d="M307.283 238.277a1.19 1.19 0 01-.21-.074l-.589-.236-2.151-.907a229.336 229.336 0 01-13.933-6.58c-.815-.43-1.505-.792-2.068-1.087l-.556-.304a1.092 1.092 0 01-.19-.116c.003-.005.073.025.204.088.171.083.36.175.57.279l2.09 1.041c1.764.879 4.208 2.08 6.928 3.366a379.414 379.414 0 006.998 3.212l2.132.953.577.263c.132.062.2.096.198.102" fill="#132529"/><path d="M291.5 231.198c-.045-.016.16-.534.083-1.193-.066-.66-.378-1.124-.337-1.148.025-.032.419.423.491 1.13.08.707-.206 1.235-.237 1.211m4.246-.117c-.043.005-.112-.272-.155-.618-.043-.347-.043-.633-.001-.638.043-.005.112.272.156.618.042.347.042.633 0 .638m1.174-.051c-.039.016-.165-.194-.28-.468-.114-.274-.176-.51-.136-.526.04-.017.165.192.28.466.115.275.176.51.137.527m1.111-.814c-.017.04-.304-.055-.64-.21-.337-.154-.596-.311-.578-.35.018-.039.305.054.642.21.336.154.595.31.576.35m.57-.676c-.003.041-.361.034-.768-.123-.409-.155-.679-.391-.654-.423.026-.037.322.13.709.278.386.15.72.224.713.268" fill="#132529"/><path d="M295.831 229.883c-.007.016-.308-.084-.743-.358a4.866 4.866 0 01-.711-.55c-.121-.122-.255-.232-.365-.403a.44.44 0 01-.075-.318.324.324 0 01.253-.246c.888-.031 1.412.707 1.502 1.201.057.257.036.471.007.612-.03.142-.066.214-.075.21-.031-.002.088-.317-.039-.796a1.484 1.484 0 00-.441-.716c-.226-.202-.591-.4-.918-.36-.16.033-.178.194-.085.334.085.137.222.261.336.378.235.23.468.418.672.563.409.29.693.426.682.449" fill="#132529"/><path d="M295.62 229.828c-.014.003-.034-.24.16-.558.095-.156.248-.323.46-.448.211-.104.488-.252.802-.086.162.103.153.34.067.453a.919.919 0 01-.284.272c-.2.134-.396.225-.566.285-.342.118-.568.118-.57.1-.005-.025.212-.064.53-.203.157-.069.34-.167.523-.3.177-.108.38-.358.21-.48-.178-.107-.456-.012-.64.083a1.363 1.363 0 00-.441.385c-.2.277-.223.504-.25.497m12.928 5.162c-.015.025-.318-.189-.871-.376a4.149 4.149 0 00-2.236-.114 4.153 4.153 0 00-1.95 1.098c-.413.414-.588.74-.613.724-.008-.004.028-.09.111-.233.083-.145.221-.345.423-.566a3.972 3.972 0 011.994-1.175 3.972 3.972 0 012.307.163c.28.109.493.226.631.318.139.092.21.152.204.16m1.082-5.397c.039.018-.42 1.106-1.027 2.43-.607 1.326-1.13 2.385-1.17 2.367-.038-.017.422-1.106 1.028-2.43.607-1.325 1.13-2.385 1.17-2.367m-7.726 4.967c-.013.038-.827-.196-1.774-.634-.948-.436-1.653-.905-1.632-.939.023-.04.758.366 1.698.797.937.436 1.723.733 1.708.776" fill="#132529"/><path d="M304.182 235.632c.014.041-.138.13-.298.268-.162.135-.276.27-.314.25-.037-.018.028-.212.213-.369.186-.158.386-.19.399-.15m1.361-.661c.014.04-.117.126-.295.191-.177.065-.333.085-.348.044-.015-.04.117-.125.295-.19.177-.065.333-.085.348-.044m1.457.092c-.027.036-.18-.038-.38-.06-.197-.024-.364.013-.382-.028-.02-.036.156-.155.4-.125.247.027.39.183.362.213m.982.184c-.003.043-.098.07-.212.063-.114-.009-.203-.05-.201-.093.003-.043.098-.071.213-.063.113.008.203.05.2.093m73.519-95.584c0 .11-3.329.21-7.434.225-4.108.015-7.435-.062-7.436-.172 0-.11 3.327-.21 7.434-.225 4.107-.015 7.435.063 7.436.172" fill="#132529"/><path d="M381.3 140.38l-2.729-13.685c-2.01-11.202-17.713-11.973-17.713-11.973l-12.325-.2s-9.136-1.228-14.775 5.13c-5.836 6.578-13.005 14.354-13.005 14.354l5.477 13.772 12.965-10.7s-1.738 2.826-1.738 6.225c0 3.648 3.806 5.33 3.806 5.33l1.167 11.106-3.87 17.93 40.244-1.613c-.786-6.501-2.86-12.068-5.933-16.912l.748-18.763h7.68" fill="#2472FF"/><path d="M337.757 140.769c-.05-.02.149-.72.484-1.85.17-.565.377-1.236.634-1.976.13-.37.273-.755.437-1.152.09-.214.202-.396.259-.574a1.79 1.79 0 00.073-.59c-.011-.417-.117-.846-.191-1.264l-.224-1.202-.355-2.04c-.192-1.164-.282-1.889-.229-1.9.053-.01.242.696.504 1.846l.439 2.024.246 1.197c.078.414.191.844.207 1.329.006.24-.018.485-.095.723-.081.24-.202.426-.276.603-.165.385-.313.764-.451 1.126l-.712 1.939c-.404 1.108-.698 1.78-.75 1.76" fill="#132529"/><path d="M365.437 151.063a470.822 470.822 0 00-.943-22.314c1.739 8.224 4.21 18.15 3.816 21.41-.697.545-1.73.775-2.873.904" fill="#1556CB"/><path d="M378.925 174.257s-52.625-11.024-57.72-8.61c-5.095 2.413-28.59 60.49-28.59 60.49l18.916 8.139 20.36-49.348s36.844 13.457 43.28 12.12c6.435-1.337 3.754-22.791 3.754-22.791" fill="#334F55"/><path d="M355.405 177.353c-.805.268-31.246 12.782-33.391 16.805-2.146 4.022 3.125 70.816 3.125 70.816h17.314l-1.073-59.364 33.79-8.562-19.765-19.695" fill="#334F55"/><path d="M375.347 197.183c-.003.014-.175-.008-.499-.061l-1.416-.251a196.122 196.122 0 01-5.187-1.04 249.21 249.21 0 01-16.94-4.196 196.515 196.515 0 01-9.167-2.899c-2.783-.99-5.28-1.918-7.335-2.797a68.542 68.542 0 01-2.766-1.203 41.898 41.898 0 01-2.06-.967c-.53-.266-.955-.481-1.285-.648-.292-.151-.442-.237-.436-.25.006-.012.168.05.47.178l1.315.58a58.36 58.36 0 002.085.905c.815.347 1.742.744 2.783 1.145 2.064.844 4.564 1.742 7.348 2.712 2.795.939 5.887 1.915 9.157 2.862 6.543 1.876 12.54 3.313 16.892 4.305l5.157 1.162 1.4.324c.32.078.487.126.484.139M322.02 209.5c-.027.003-.082-.353-.159-1l-.29-2.738-.377-4.067c-.125-1.522-.34-3.24-.008-5.036.321-1.811 1.377-3.311 2.527-4.353 1.156-1.06 2.406-1.735 3.463-2.226 1.064-.49 1.955-.8 2.571-1.013.616-.21.962-.31.972-.284.029.07-1.339.547-3.421 1.55-1.03.516-2.234 1.203-3.336 2.241-1.099 1.025-2.081 2.445-2.387 4.16-.32 1.711-.123 3.403-.017 4.932l.293 4.073.164 2.749c.03.65.033 1.011.005 1.013m15.189-5.738c.044-.1.997.222 2.129.72 1.132.498 2.013.983 1.97 1.083-.045.101-.998-.222-2.13-.72s-2.014-.983-1.97-1.083" fill="#132529"/><path d="M338.735 201.937c.108-.046.587.914 1.38 1.954.783 1.047 1.575 1.77 1.503 1.86-.06.085-1-.528-1.82-1.62-.828-1.088-1.16-2.16-1.063-2.194" fill="#132529"/><path d="M345.382 204.678c.012.009-.05.143-.267.272-.21.136-.573.228-1.003.237-.427.021-.937-.045-1.44.037-.516.067-.863.48-.86 1.102-.019 2.537-.102 4.626-.215 4.62-.106-.004-.202-2.062-.18-4.642.017-.33.086-.705.326-.984.228-.284.576-.417.87-.456.6-.072 1.091.03 1.501.043.833.085 1.228-.272 1.268-.229" fill="#132529"/><path fill="#BEBFBB" d="M341.229 165.3l.136-.631h.001l-.137.632"/><path fill="#1556CB" d="M377.101 168.183l-35.872-2.882.137-.632h34.394l1.341 3.514"/><path d="M342.154 82.449c-2.628.85-5.686 2.599-4.17 10.83.666 3.622 1.511 7.315 3.94 10.084.37.42.854.856 1.408.777.396-.056.702-.365.972-.659 2.761-3.008 5.112-6.56 5.857-10.575.746-4.015-.372-8.54-3.532-11.126" fill="#132529"/><path d="M347.2 118.205c-.087-3.788-.248-7.853-.248-7.853s-5.763-.726-6.012-6.608c-.248-5.883-.308-16.187-.308-16.187l11.252-8.335 7.905 10.875.194 27.914a6.393 6.393 0 01-12.782.194" fill="#EEA091"/><path d="M346.952 110.352s3.855.111 7.631-2.498c0 0-1.794 4.285-7.531 3.942l-.1-1.444m.52-6.852a.708.708 0 01.067-.693.707.707 0 01.635-.284c.035-.539.563-.983 1.102-.962.54.02 1.02.47 1.114 1 .096.532-.176 1.1-.628 1.395-.451.295-1.055.324-1.551.113-.39-.165-.735-.503-.782-.924" fill="#E98773"/><path d="M342.033 94.935c-.015.427.333.791.779.815.444.024.817-.301.831-.727.016-.427-.333-.791-.777-.815-.445-.025-.817.301-.833.727m-.177-.907c.101.106.712-.347 1.581-.344.868-.011 1.505.436 1.6.33.046-.048-.056-.237-.333-.44a2.211 2.211 0 00-1.28-.394c-.542.002-.997.202-1.259.406-.267.204-.358.395-.309.442m8.685 1.112c-.015.427.334.79.778.814.444.025.817-.301.833-.727.015-.427-.334-.791-.778-.816-.445-.024-.818.303-.833.73m-.144-.951c.1.106.712-.347 1.58-.345.868-.01 1.505.437 1.6.33.045-.047-.055-.236-.334-.438a2.216 2.216 0 00-1.28-.395c-.541.003-.997.202-1.258.406-.267.205-.357.395-.308.442m-3.154 6.443c.004-.05-.535-.143-1.41-.255-.222-.022-.432-.066-.47-.218-.052-.16.041-.4.148-.658.21-.536.427-1.099.657-1.689.91-2.405 1.57-4.382 1.472-4.418-.096-.036-.914 1.885-1.825 4.289l-.628 1.7c-.084.252-.228.537-.115.87.06.166.222.287.365.325.142.043.267.045.376.052.88.047 1.427.051 1.43.002m2.557.601c-.141-.009-.143.935-.95 1.604-.806.672-1.811.566-1.818.697-.014.06.224.183.648.195a2.342 2.342 0 001.517-.53c.493-.41.704-.957.736-1.343.037-.395-.068-.629-.133-.623m.206-8.984c.085.237.952.125 1.972.248 1.022.102 1.843.4 1.978.189.06-.102-.083-.324-.414-.552-.33-.229-.856-.446-1.467-.514-.612-.067-1.173.03-1.544.182-.375.15-.562.336-.525.448m-7.83-.737c.154.198.751-.008 1.47-.017.721-.035 1.33.132 1.47-.074.062-.1-.034-.298-.3-.485-.263-.186-.701-.338-1.196-.323-.495.015-.922.195-1.173.397-.255.203-.338.406-.271.502" fill="#132529"/><path d="M354.564 91.776c1.05-.026 2.064-.34 2.863-1.022.52 1.389.51 2.926.987 4.33.476 1.405 1.598 7.192 3.065 6.972 1.346-.203 2.301-6.04 2.644-7.357.95-3.64-.24-7.65-2.659-10.529-2.871-3.417-7.658-6.33-12.11-6.016-1.976.14-3.965.717-5.52 1.944 0 0-2.402 1.852-2.201 4.215.278 3.293 5.081 5.414 8.385 5.314l.47.457c1.092 1.065 2.551 1.728 4.076 1.692" fill="#132529"/><path d="M340.6 90.697c.838-.638 1.363-1.619 1.64-2.636.278-1.016.331-2.078.382-3.13.016-.305-.03-.697-.323-.778-.284-.078-.524.216-.662.476a10.139 10.139 0 00-1.04 6.37c.063-.057-.195.166-.133.108m21.433 24.001c1.683-1.466 2.573-3.793 2.297-6.007-.21-1.692-1.049-3.3-.967-5.002.065-1.342.695-2.58 1.127-3.853a13.36 13.36 0 00.514-6.492c-.291-1.71-.99-3.456-2.399-4.47-1.409-1.014-3.64-.99-4.68.4l-.506.157c-2.386 4.782-1.648 10.95 1.798 15.033-2.626 2.768-2.565 7.642.129 10.343-1.843 2.343-2.27 5.721-1.065 8.448l.052.103c-1.014 1.096-1.714 2.485-1.94 3.961a7.585 7.585 0 001.687 5.973c-1.243 1.152-2.29 2.624-2.505 4.304-.211 1.649.569 3.484 2.08 4.156-1.148 1.005-1.793 2.573-1.64 4.096.173 1.706 1.34 3.275 2.925 3.932a14.677 14.677 0 012.422-1.979 2.488 2.488 0 01-1.115-1.075 3.15 3.15 0 001.884.593l-.812-3.7c-.147-.667-.302-1.357-.71-1.905l-.095-.111c.937-.471 1.732-1.306 2.113-2.29.734-1.9.23-4.082-.75-5.866 1.034-2.127 2.017-4.37 2.04-6.736a7.21 7.21 0 00-.687-3.116c.86-1.448 1.52-3.072 1.462-4.753-.058-1.74-1.031-3.528-2.66-4.144" fill="#132529"/><path d="M361.146 133.664c.061.07-.597.578-1.577.587-.98.02-1.654-.467-1.595-.54.047-.092.718.208 1.589.186.872-.005 1.533-.325 1.583-.233m1.529-8.426c.063.098-1.868.926-3.375 2.917-1.54 1.967-1.848 4.044-1.959 4.008-.04-.004-.021-.524.204-1.328.221-.803.694-1.88 1.475-2.896.782-1.014 1.702-1.745 2.422-2.165.72-.423 1.218-.572 1.233-.536m-.679-1.153c.058.072-.595.552-1.551.549-.956.007-1.611-.47-1.553-.543.047-.092.702.198 1.552.189.85.006 1.504-.287 1.552-.195m1.063-1.15c-.114.008.013-1.762-.938-3.638-.919-1.893-2.407-2.861-2.332-2.946.021-.034.421.153.963.609.542.454 1.2 1.206 1.687 2.18.482.975.683 1.954.716 2.66.036.707-.056 1.14-.096 1.135m-.882-8.78c.078.051-.281.615-1.018.899-.735.29-1.38.12-1.357.029.01-.102.59-.102 1.229-.359.643-.244 1.069-.637 1.146-.569m-2.105.395c-.02.025-.46-.375-.75-1.254-.295-.865-.34-2.198.161-3.512.503-1.308 1.313-2.292 1.915-2.948.612-.656 1.037-1.011 1.07-.98.037.036-.325.454-.88 1.143-.547.69-1.297 1.67-1.773 2.91-.472 1.24-.47 2.485-.251 3.318.21.845.562 1.287.508 1.322m2.445-9.517c.032.086-.734.368-1.687.169-.956-.19-1.55-.75-1.486-.817.06-.085.69.3 1.556.47.865.183 1.595.076 1.617.178m2.719-9.353c.006.037-.59.18-1.569.113a7.626 7.626 0 01-3.593-1.224 7.634 7.634 0 01-2.548-2.816c-.45-.871-.553-1.475-.516-1.484.055-.02.244.55.735 1.362.483.81 1.32 1.85 2.523 2.642a8.368 8.368 0 003.427 1.27c.939.13 1.536.078 1.54.137" fill="#334F55"/><path d="M364.712 99.178c.01.014-.13.153-.454.292-.322.136-.845.233-1.468.132-1.255-.18-2.793-1.141-3.995-2.598-1.212-1.468-1.774-3.154-1.933-4.37a7.39 7.39 0 01-.069-1.455c.032-.343.06-.53.085-.528.068.002-.004.76.23 1.941a9.451 9.451 0 001.962 4.188c1.157 1.402 2.605 2.349 3.765 2.575 1.182.262 1.86-.245 1.877-.177m-1.257-10.769c.007.015-.22.145-.664.324a7.39 7.39 0 01-1.993.452 8.306 8.306 0 01-3.074-.296 8.106 8.106 0 01-3.366-1.912l.178.04a8.978 8.978 0 01-2.398.47 9.061 9.061 0 01-4.628-.956 8.878 8.878 0 01-4.243-4.74 5.929 5.929 0 01-.206-.676c-.038-.157-.05-.24-.04-.244.076-.037.35 1.347 1.714 3.035.683.825 1.647 1.71 2.921 2.334a8.922 8.922 0 004.462.894 8.826 8.826 0 002.305-.446l.1-.033.077.073a7.964 7.964 0 003.21 1.87 8.426 8.426 0 002.972.362c1.708-.104 2.65-.623 2.673-.551" fill="#334F55"/><path d="M360.828 83.672c.001.024-.25.065-.705.117-.456.052-1.116.116-1.932.187l-2.867.233c-1.078.079-2.282.175-3.548.032-2.54-.274-4.644-1.388-5.94-2.397-.655-.506-1.13-.98-1.436-1.324-.302-.348-.45-.557-.432-.571.049-.046.695.75 2.017 1.694 1.308.938 3.368 1.98 5.83 2.247 1.223.138 2.408.055 3.487-.007l2.872-.157c.818-.04 1.48-.065 1.939-.074.459-.01.713-.005.715.02m.304 57.668c.07.063-.626.685-1.719.746-1.092.072-1.857-.46-1.796-.531.045-.095.799.247 1.775.177.977-.05 1.684-.48 1.74-.391" fill="#334F55"/><path d="M359.767 142.384c-.056-.017.046-.417.092-1.067a7.084 7.084 0 00-.28-2.502 7.093 7.093 0 00-1.154-2.238c-.4-.516-.706-.792-.67-.837.024-.031.392.18.86.675.467.49.999 1.297 1.304 2.297.3 1.001.305 1.966.189 2.634-.114.671-.304 1.051-.341 1.038" fill="#334F55"/><path d="M383.037 152.064c-.795-6.574-1.853-12.178-1.853-12.178h-14.25s1.77 8.34 1.376 10.274c-.345 1.684-27.958 2.8-35.153 2.913-.428-.323-1.051.219-1.604-.263a5.77 5.77 0 01-1.225-1.51c-.39-.69-.875-1.631-.984-2.23-.135-.74-1.077-.93-1.366-.313-.287.617.037 2.667 1.404 4.65 1.367 1.981-2.217.952-3.53.6-1.312-.35-5.422-1.242-5.847-.913-.622.481-.232 1.255 1.087 1.575 1.335.322 5.208 1.562 4.995 2.265-.21.691-6.868-1.19-6.868-1.19s-1.36-.639-1.632.164c-.492 1.449 6.729 2.913 7.42 3.036.48.085.275.856-.236.737-.525-.123-6.599-2.035-7.113-.566-.394 1.128 5.93 1.262 6.976 2.378 1.047 1.114-4.786-.604-5.12.49-.124.406 2.302.595 5.79 1.085 3.261.46 9.327.418 10.78.384 8.09.443 36.678 1.034 42.781.602 7.116-.502 4.446-9.733 4.172-11.99" fill="#EEA091"/><path fill="#D4D5CF" d="M288.531 125.967l11.726 34.264h53.095l-.392-1.764-21.47-.664-9.89-31.855-33.069.019"/><path d="M312.06 142.06c.35 1.404-.251 2.78-1.344 3.072-1.092.293-2.262-.609-2.612-2.013-.351-1.404.25-2.779 1.343-3.071 1.093-.292 2.262.609 2.612 2.013" fill="#FFFFFE"/><path fill="#132529" d="M79.777 160.225v4.444h136.882V264.79h30.94V164.669h136.568v-4.444H79.777"/><path fill="#EA8E6C" d="M211.538 267.213l-.687-34.293 13.139-2.175-2.064 36.319-10.388.149"/><path d="M222.484 267.368l-.035-1.21-11.4.282.072 3.991.705.03c3.136.103 15.952.303 18.031-.378 2.319-.76-7.373-2.715-7.373-2.715" fill="#2472FF"/><path d="M211.13 270.27l-.003-.08h.006l-.004.08" fill="#E98891"/><path d="M211.126 270.164l-.066-3.059v-.008a3.53 3.53 0 01.368-.019c.829 0 1.63.284 2.303.784a3.942 3.942 0 011.476 2.26l-2.686.037h-.808c-.209 0-.393.003-.562.004l-.025.001" fill="#1D64E3"/><path d="M217.997 270.6c-.936 0-1.859-.006-2.74-.02h5.623c-.954.014-1.926.02-2.883.02" fill="#FFFFFE"/><path d="M220.88 270.58h-5.623a87.86 87.86 0 01-4.136-.149l.705.03a282.137 282.137 0 0010.185.1l-1.13.02" fill="#6C7978"/><path d="M219.828 270.57c-3.382 0-6.626-.064-8.002-.11l-.705-.029.008-.162 2.67-.013a210.333 210.333 0 006.791-.03c1.907-.04 3.683-.105 5.177-.175l.007.365.236.015c-1.195.057-2.563.1-3.999.13-.723.006-1.456.009-2.183.009" fill="#E98891"/><path d="M211.13 270.27l.003-.08h.018l.56.023 2.066.043h.022l-2.67.013" fill="#F0B0B2"/><path d="M215.215 270.156a.586.586 0 00-.008-.033l8.364-.113c-.939.03-1.942.057-2.984.079-1.989.042-3.837.06-5.372.067" fill="#E98891"/><path d="M213.778 270.159h-1.257l2.686-.036.008.033-1.437.003" fill="#F0B0B2"/><path d="M210.955 270.174c0 .005.067.011.196.017l.56.022 2.066.043a200.76 200.76 0 0013.623-.289l2.061-.13.56-.046a.955.955 0 00.195-.025c0-.004-.068-.005-.197-.003l-.561.02-2.063.087c-1.741.074-4.148.162-6.808.219-2.659.056-5.066.07-6.81.07h-2.064c-.209 0-.393.003-.562.004a.993.993 0 00-.196.011" fill="#132529"/><path d="M226.253 270.151c.042.004.063-.489.364-.993.29-.51.71-.77.685-.806-.008-.034-.49.192-.804.736-.32.542-.279 1.071-.245 1.063m-3.386-1.626c.032.02.188-.178.348-.443.16-.265.263-.495.23-.514-.032-.02-.188.179-.348.442-.16.265-.263.495-.23.515m-.93-.465c.026.027.203-.096.394-.277.192-.18.326-.347.3-.375-.026-.028-.202.095-.394.275-.192.18-.326.35-.3.377m-.604-1.059c0 .038.266.066.593.063.328-.004.593-.038.592-.076 0-.038-.265-.066-.593-.062-.328.004-.592.037-.592.075m-.217-.751c-.011.034.28.158.665.177.386.022.69-.07.681-.105-.007-.04-.307-.01-.673-.032-.366-.018-.661-.078-.673-.04" fill="#132529"/><path d="M223.23 267.526c0 .016.28.044.73-.02.223-.032.488-.091.772-.188.141-.054.289-.095.44-.193a.394.394 0 00.176-.23c.028-.11-.033-.232-.117-.29-.705-.346-1.395.062-1.646.428a1.312 1.312 0 00-.227.492c-.026.125-.022.196-.014.198.026.008.043-.289.318-.63.136-.167.344-.332.614-.418.257-.083.622-.112.87.04.119.082.077.22-.05.3-.119.08-.273.13-.406.184-.274.1-.53.167-.748.212-.435.087-.713.093-.712.115" fill="#132529"/><path d="M223.42 267.558c.01.008.114-.18.073-.508a1.203 1.203 0 00-.21-.528c-.134-.159-.304-.379-.616-.358-.169.025-.247.22-.218.342a.796.796 0 00.131.323c.113.18.238.324.355.433.233.219.415.3.423.287.012-.02-.148-.129-.354-.355a2.513 2.513 0 01-.315-.431c-.104-.152-.179-.427.004-.464.182-.022.372.156.487.298.118.156.186.325.217.471.063.295-.002.486.022.49m-12.3-.494c.003.025.324-.039.838.01.51.046 1.221.239 1.847.715.624.476 1 1.11 1.178 1.59.184.483.208.81.233.806.01 0 .011-.082-.004-.23a3.002 3.002 0 00-.137-.609c-.16-.5-.535-1.17-1.187-1.667a3.514 3.514 0 00-1.922-.701 2.973 2.973 0 00-.624.03c-.146.023-.223.047-.222.056m5.519 2.048c-.004.035.738.14 1.661.127.923-.01 1.661-.133 1.657-.168-.005-.04-.745.02-1.659.03-.914.014-1.655-.03-1.659.011" fill="#132529"/><path d="M214.414 269.157c-.027.028.064.156.143.324.082.168.124.319.163.315.037-.001.055-.18-.039-.374-.092-.195-.244-.293-.267-.265m-.861-1.025c-.027.027.049.144.169.26.12.117.239.189.265.162.027-.027-.049-.144-.17-.26-.12-.116-.238-.189-.264-.162m-1.211-.451c.01.04.16.034.328.09.17.05.29.14.32.114.029-.02-.07-.181-.279-.246-.208-.066-.381.008-.369.042m-.859-.206c-.013.036.054.093.149.127.095.035.183.034.195-.002.013-.036-.053-.093-.148-.127s-.183-.033-.196.002" fill="#132529"/><path fill="#F1AD92" d="M225.993 266.992l-.899-34.767 13.2-1.48-1.717 36.165-10.584.082"/><path d="M190.787 169.5c12.87.085 25.757.169 38.574 1.34 5.113.466 10.643 1.312 14.2 5.014 3.33 3.467 4.105 8.585 4.719 13.353 1.87 14.537 3.742 29.074 5.614 43.611a201.055 201.055 0 01-53.408-1.695l.374-32.414.283-5.076-19.819-1.29 9.463-22.842" fill="#2472FF"/><path d="M234.544 186.387c-.089-.041.484-1.455 1.28-3.156.796-1.703 1.512-3.05 1.6-3.007.09.04-.484 1.454-1.28 3.156-.795 1.702-1.512 3.048-1.6 3.007m6.399 14.587c-.077.06-.942-.936-1.931-2.222-.989-1.287-1.727-2.378-1.65-2.437.078-.06.942.935 1.93 2.221.99 1.287 1.729 2.378 1.651 2.438m-2.293 8.592c.067.071-.754.955-1.832 1.975-1.079 1.02-2.009 1.789-2.075 1.718-.068-.072.752-.955 1.831-1.975 1.08-1.02 2.008-1.789 2.075-1.718m9.544 8.647c-.094.023-.489-1.227-.88-2.792-.392-1.566-.633-2.854-.538-2.878.096-.024.49 1.226.881 2.792.392 1.565.632 2.854.537 2.878m-8.003 9.154c-.092.032-.547-1.007-1.016-2.32-.47-1.315-.775-2.406-.683-2.44.092-.032.547 1.006 1.017 2.32.469 1.315.774 2.407.682 2.44m-10.136-23.612c.095.023-.134 1.342-.513 2.946-.378 1.605-.761 2.887-.856 2.864-.096-.022.134-1.34.512-2.946.378-1.603.761-2.886.857-2.864" fill="#FAF9F6"/><path fill="#132529" d="M217.094 158.833h52.369v-2.547h-52.369z"/><path fill="#132529" d="M277.58 158.833l9.822-36.811h-40.89l-8.896 36.811h39.963"/><path fill="#F1F0EC" d="M240.067 156.046h36.53l8.503-32.323h-36.718l-8.315 32.323"/><path fill="#D4D5CF" d="M249.29 129.983l-2.264 9.155h24.221l2.584-9.155H249.29"/><path d="M268.722 128.777c0 .098-4.249.177-9.488.177-5.242 0-9.489-.079-9.489-.177 0-.098 4.247-.177 9.489-.177 5.24 0 9.488.08 9.488.177" fill="#334F55"/><path d="M257.682 131.736c0 .097-1.712.177-3.824.177s-3.825-.08-3.825-.177c0-.098 1.713-.178 3.825-.178s3.824.08 3.824.178m6.134-.146c0 .099-1.116.178-2.49.178-1.376 0-2.49-.08-2.49-.177 0-.097 1.114-.177 2.49-.177 1.374 0 2.49.08 2.49.177" fill="#132529"/><path d="M270.742 133.395c0 .098-4.685.177-10.462.177-5.78 0-10.463-.08-10.463-.177 0-.098 4.683-.177 10.463-.177 5.777 0 10.462.079 10.462.177" fill="#334F55"/><path d="M256.167 134.91c0 .098-1.52.177-3.392.177-1.873 0-3.391-.08-3.391-.176 0-.098 1.518-.178 3.391-.178s3.392.08 3.392.178" fill="#E0565F"/><path d="M268.865 137.075c0 .098-4.344.177-9.703.177-5.362 0-9.706-.079-9.706-.177 0-.098 4.344-.177 9.706-.177 5.359 0 9.703.08 9.703.177m-14.285 4.69c0 .098-1.68.177-3.752.177-2.073 0-3.753-.079-3.753-.177 0-.098 1.68-.177 3.753-.177 2.071 0 3.752.08 3.752.177" fill="#334F55"/><path d="M261.001 141.794c0 .098-1.148.167-2.563.156-1.415-.012-2.56-.1-2.56-.198.001-.097 1.148-.168 2.563-.156 1.414.011 2.561.1 2.56.198m3.609-.174c0 .099-.486.178-1.083.178-.598 0-1.083-.08-1.083-.177 0-.098.485-.178 1.083-.178.597 0 1.082.08 1.082.178" fill="#132529"/><path d="M249.6 143.641c0 .097-.532.177-1.19.177-.657 0-1.19-.08-1.19-.177 0-.098.533-.177 1.19-.177.658 0 1.19.08 1.19.177" fill="#E0565F"/><path d="M256.744 143.641c0 .097-1.276.177-2.85.177-1.575 0-2.85-.08-2.85-.177 0-.098 1.275-.177 2.85-.177 1.574 0 2.85.08 2.85.177" fill="#132529"/><path d="M273.772 143.425c0 .097-3.408.176-7.612.176-4.205 0-7.612-.079-7.612-.176 0-.099 3.407-.178 7.612-.178 4.204 0 7.612.08 7.612.178" fill="#334F55"/><path d="M249.24 145.589c0 .098-.55.177-1.227.177s-1.226-.079-1.226-.177c0-.098.549-.177 1.226-.177.677 0 1.227.08 1.227.177m3.752-.072c0 .098-.662.176-1.479.176-.817 0-1.48-.078-1.48-.176 0-.098.663-.177 1.48-.177s1.479.08 1.479.177" fill="#132529"/><path d="M264.176 145.372c0 .098-2.148.178-4.798.178s-4.798-.08-4.798-.178c0-.097 2.147-.176 4.798-.176 2.65 0 4.798.079 4.798.176m-5.916 3.392c0 .098-2.601.177-5.809.177-3.209 0-5.808-.079-5.808-.177 0-.098 2.6-.177 5.808-.177 3.208 0 5.808.08 5.808.177" fill="#334F55"/><path d="M265.042 148.62c0 .097-1.18.177-2.634.177-1.455 0-2.634-.08-2.634-.178 0-.097 1.18-.177 2.634-.177s2.634.08 2.634.177" fill="#E0565F"/><path d="M275.107 148.62c0 .097-1.954.177-4.365.177-2.411 0-4.366-.08-4.366-.178 0-.097 1.955-.177 4.366-.177 2.41 0 4.365.08 4.365.177m-2.345-19.986c0 .098-.404.177-.901.177-.5 0-.902-.08-.902-.177 0-.098.402-.178.902-.178.497 0 .901.08.901.178" fill="#132529"/><path d="M254.363 127.406c0 .098-.888.178-1.984.178-1.097 0-1.985-.08-1.985-.178 0-.098.888-.177 1.985-.177 1.096 0 1.984.08 1.984.177" fill="#E0565F"/><path d="M284.488 126.046h-36.724l.618-2.323H285.1l-.612 2.323" fill="#E4E4DE"/><path d="M250.33 124.898a.402.402 0 11-.803-.001.402.402 0 01.803 0m1.382.001a.402.402 0 11-.803-.001.402.402 0 01.803 0m1.381.001a.401.401 0 11-.803 0 .401.401 0 01.803 0" fill="#FAF9F6"/><path d="M209.154 139.603l5.243 15.79c1.416 4.264 5.142 4.993 9.635 4.993H253.2v-6.543l-26.647-3.805-6.35-16.223-11.048 5.788" fill="#F1AD92"/><path d="M256.406 152.483l2.314-1.095s2.493-4.821 3.067-4.628c.575.192.74 1.611-.262 3.827l3.075-.879s6.666 3.08 6.371 3.495c-.294.414-.841 1.397-2.293.654-1.452-.741-3.354-1.613-3.354-1.613l-3.591 1.025 4.631.588 4.356 3.964s-1.431 1.07-2.665-.066l-11.312 2.43-3.544.201v-6.543l3.207-1.36" fill="#F1AD92"/><path d="M268.055 157.755c-.047.032-.258-.304-.665-.748a3.448 3.448 0 00-.823-.636c-.33-.184-.758-.263-1.222-.32-1.886-.222-3.408-.481-3.395-.579.011-.096 1.549.005 3.438.228.474.057.956.152 1.342.39.369.226.653.498.85.755.384.519.51.89.475.91m-1.769.455c-.043 0-.078-.235-.396-.303-.323-.059-.838-.12-1.374-.175-1.087-.11-1.98-.102-1.99-.203-.01-.093.899-.263 2.025-.15.566.061 1.047.153 1.423.293.194.08.32.237.344.355.03.122-.011.186-.032.182" fill="#EA8E6C"/><path d="M188.016 81.507l-1.583 32.08 13.735 1.294.758-7.786s4.845 1.198 6.316-3.285c.94-2.863 1.776-25.288 1.776-25.288l-21.002 2.985" fill="#F1AD92"/><path d="M210.204 82.268c.38 3.002-3.817 4.74-3.817 4.74l-.734 7.102c-.582-.094-1.973-.018-1.973-.018.354-3.332-3.937-2.682-4.375-.41-.42 2.186 2.069 3.644 2.069 3.644-1.718 2.637-2.414 4.027-4.852 6.496-2.638 2.673-4.057 2.89-6.78 2.81l-3.001-.14s-1.068-2.563-1.852-8.618c-.376-2.913-2.65-6.73-2.003-11.466 1.84-13.458 14.734-12.036 14.734-12.036 6.69.187 11.702.93 12.584 7.896" fill="#132529"/><path d="M200.321 74.76c2.914.077 5.932.306 8.49 1.703 2.557 1.397 4.614 5.134 4.088 8-.485.088-1.009.284-1.494.37-.2-.357-.445-1.691-.645-2.05.005.573-.176 1.86-.17 2.43-.854.24-1.52-.237-2.374 0a18.627 18.627 0 00-2.267-6.194" fill="#132529"/><path d="M210.229 142.203l2.643 8.596 15.801-3.698c-.512-1.59-4.893-11.64-9.4-22.885-2.512-6.266-8.098-10.787-14.757-11.895-4.66-.775-9.728-1.38-13.631-1.337-7.983.089-18.324 3.444-19.902 11.27-1.206 5.973 1.476 15.73 1.476 28.545l-1.89 26.905 39.66 1.345-4.018-23.613 4.018-13.233" fill="#2472FF"/><path fill="#BEBFBB" d="M199.276 193.512h-24.89l-1.649-15.734 14.419.489-5.832 14.076 17.952 1.169"/><path d="M205.574 193.512h-6.298l-17.952-1.17 5.832-14.075 12.244.415c.043.703.085 1.405.125 2.103a18.723 18.723 0 006.049 12.727" fill="#1D64E3"/><path d="M171.436 165.362l-.073-.693h.122l-.049.693m.361-5.137h-.899l-1.327-12.67c.944.193 1.892.312 2.844.378.028.937.044 1.893.044 2.866l-.662 9.426" fill="#BEBFBB"/><path fill="#09181B" d="M171.485 164.669h-.122l-.465-4.444h.9l-.313 4.444"/><path d="M199.4 178.682l-12.244-.415-14.419-.49-1.3-12.415 1.022-14.563c0-.973-.016-1.93-.044-2.866.64.043 1.282.062 1.925.062 3.446 0 6.928-.544 10.392-.75 1.07-.063 2.179-.145 3.274-.145 2.055 0 4.059.288 5.646 1.52 1.929 1.5 2.705 4.02 3.262 6.398 1.122 4.793 1.916 14.348 2.486 23.664" fill="#1D64E3"/><path fill="#334F55" d="M193.578 260.825h4.974v-59.592h-4.974zM151.845 143.39v43.868c0 5.753 4.664 10.417 10.417 10.417h29.212V143.39a4.642 4.642 0 00-4.643-4.643h-30.343a4.642 4.642 0 00-4.643 4.643"/><path d="M230.79 201.233h-71.138a7.722 7.722 0 017.722-7.721h55.694a7.722 7.722 0 017.721 7.721" fill="#334F55"/><path d="M191.474 192.488c.012 0 .019.115.02.335a4.05 4.05 0 01-.116.959c-.174.81-.69 2.014-1.906 2.956-.603.459-1.369.854-2.258 1.004-.901.152-1.829.078-2.812.106l-6.39.021c-4.537.005-8.643-.011-11.615-.042l-3.52-.054-.957-.033c-.218-.012-.333-.025-.333-.037 0-.013.115-.025.333-.037l.958-.036 3.519-.061c2.972-.036 7.078-.062 11.613-.066l6.392.007c.978-.016 1.93.063 2.758-.067.842-.129 1.573-.49 2.156-.913a5.173 5.173 0 001.924-2.784c.213-.793.192-1.261.234-1.258m8.956 8.898c0 .101-1.955.183-4.365.183s-4.363-.082-4.363-.183c0-.101 1.952-.184 4.363-.184 2.41 0 4.364.083 4.364.184" fill="#132529"/><path d="M222.073 198.058c-.05.007-.205-.737-.441-2.089a345.705 345.705 0 01-.934-5.735c-.406-2.423-.64-5.352-1.975-8.26a20.244 20.244 0 00-2.643-4.22c-1.101-1.337-2.45-2.542-3.966-3.572-1.517-1.029-3.149-1.82-4.806-2.317-1.654-.5-3.31-.823-4.905-.846-3.22-.075-6.157-.06-8.604-.107a340.697 340.697 0 01-5.81-.116c-1.371-.044-2.13-.092-2.13-.143 0-.05.759-.099 2.13-.142 1.372-.045 3.357-.083 5.81-.117 2.456-.02 5.362-.088 8.626-.05 1.653.007 3.376.324 5.096.836 1.725.508 3.425 1.325 5.003 2.394 1.575 1.071 2.973 2.328 4.11 3.724a20.413 20.413 0 012.705 4.4c.162.38.297.766.443 1.14l.212.56.159.569.308 1.11.199 1.102c.252 1.44.381 2.764.551 3.982.313 2.433.553 4.404.703 5.767.15 1.365.209 2.123.159 2.13m-4.251 68.165h-.704c0-11.67-9.494-21.163-21.164-21.163-11.67 0-21.163 9.494-21.163 21.163h-.704c0-12.057 9.81-21.867 21.867-21.867 12.058 0 21.868 9.81 21.868 21.867" fill="#334F55"/><path d="M177.717 267.31a3.278 3.278 0 11-6.556 0 3.278 3.278 0 016.556 0m43.195-.452a3.278 3.278 0 11-6.556 0 3.278 3.278 0 016.556 0" fill="#132529"/><path d="M217.61 260.825c0 .1-9.515.183-21.25.183-11.74 0-21.253-.082-21.253-.183 0-.1 9.513-.184 21.253-.184 11.735 0 21.25.083 21.25.184" fill="#334F55"/><path d="M187.222 106.563c2.526.086 4.791.146 8.111-.261 2.61-.32 6.36-2.017 8.3-3.792 1.375-1.26 1.72-1.922 1.8-4.56l.22-3.84-3.862-10.555-9.879-.815-9.14 4.18-.835 13.84a5.478 5.478 0 005.285 5.803" fill="#132529"/><path d="M204.668 99.54c-.025 1.575-1.426 2.743-2.748 3.599-1.322.855-2.811 1.786-3.2 3.312-.758 2.967 3.092 5.208 3.459 8.25.267 2.215-1.356 4.144-2.386 6.124-1.712 3.289-1.83 7.361-.314 10.744-4.156.361-8.338.722-12.513.88l-2.89-5.66-2.149 5.739c-3.668-.033-7.323-.286-10.944-.896 2.151-1.701 2.316-4.86 2.176-7.599-.14-2.738-.658-7.586 1.161-9.638 1.255-1.416 3.22-2.032 4.513-3.413 1.872-2 .98-2.793.058-4.967-1.071-2.522-1.368-5.412-.938-8.119.43-2.713 2.123-5.024 3.488-7.41 1.365-2.384 1.445-4.078 2.201-7.384" fill="#132529"/><path d="M182.877 82.74c-1.44 2.693-4.27 4.594-7.308 4.91a5.824 5.824 0 004.842.705 11.509 11.509 0 01-4.699 2.732c.59 1.52 2.399 2.175 4.026 2.287 2.885.2 5.835-.778 8.03-2.66 2.197-1.88 4.274-6.395 2.446-11.158" fill="#132529"/><path d="M185.823 82.072c1.462.077 2.829-.977 3.416-2.318.587-1.34.499-2.897.081-4.3-.376-1.264-1.087-2.525-2.28-3.088-1.437-.676-3.188-.144-4.462.805-1.493 1.112-2.57 2.824-2.742 4.678-.171 1.854.633 3.81 2.165 4.868 1.533 1.056 3.76 1.073 5.21-.094" fill="#132529"/><path d="M177.418 92.646c.018-.085 1.245.484 3.339.47a10.4 10.4 0 003.567-.665 9.872 9.872 0 003.69-2.418 9.879 9.879 0 002.185-3.833 10.42 10.42 0 00.444-3.601c-.117-2.091-.76-3.279-.676-3.304.01-.004.052.066.12.207.063.142.179.344.272.626.216.552.442 1.391.533 2.454.096 1.061.013 2.35-.38 3.711a9.934 9.934 0 01-2.241 3.982 9.95 9.95 0 01-3.835 2.482 10.242 10.242 0 01-3.68.61c-1.067-.026-1.919-.2-2.484-.381-.287-.075-.496-.178-.642-.232-.143-.06-.217-.097-.212-.108" fill="#334F55"/><path d="M182.867 89.655c-.06-.098 1.639-.809 2.952-2.554 1.342-1.724 1.585-3.548 1.694-3.516.04.004.04.461-.144 1.172-.181.71-.586 1.663-1.27 2.56-.686.893-1.5 1.532-2.138 1.893-.638.364-1.08.483-1.094.445m-2.311-13.265c-.016-.008.049-.214.264-.535.214-.32.602-.743 1.198-1.107a4.509 4.509 0 012.339-.635c.931.002 1.941.348 2.799.981a5.538 5.538 0 011.819 2.342c.35.852.457 1.685.46 2.37a6.49 6.49 0 01-.2 1.61c-.098.37-.186.563-.206.557-.067-.014.208-.826.156-2.16a6.5 6.5 0 00-.51-2.25 5.395 5.395 0 00-1.73-2.184c-.802-.593-1.735-.92-2.595-.94a4.44 4.44 0 00-2.209.527c-1.17.642-1.528 1.473-1.585 1.423m10.174 5.001c.056-.03.529.93 1.433 2.38.46.715 1.05 1.55 1.873 2.302.814.763 1.911 1.355 3.174 1.621 1.259.28 2.509.315 3.64.368 1.132.051 2.149.047 2.987-.08 1.7-.232 2.526-1.002 2.557-.939.011.012-.17.215-.582.48-.413.257-1.073.552-1.934.705-.859.164-1.9.194-3.038.16-1.134-.036-2.4-.058-3.708-.348-1.31-.274-2.485-.918-3.316-1.727-.846-.798-1.427-1.669-1.867-2.412a20.953 20.953 0 01-.942-1.813c-.202-.438-.298-.686-.277-.697" fill="#334F55"/><path d="M190.73 81.39c.026-.01.146.27.374.77s.567 1.218 1.015 2.092a85.35 85.35 0 001.633 3.038c.638 1.133 1.33 2.378 2.292 3.51.949 1.14 2.04 2.066 3.157 2.688a8.822 8.822 0 003.205 1.068c1.944.239 3.117-.286 3.127-.206.004.01-.064.045-.2.1-.133.06-.34.122-.608.197a7.044 7.044 0 01-2.346.159 8.694 8.694 0 01-3.335-1.032c-1.167-.628-2.3-1.578-3.271-2.746-.988-1.162-1.685-2.442-2.306-3.58a59.785 59.785 0 01-1.573-3.086 27.269 27.269 0 01-.917-2.15c-.19-.518-.268-.815-.247-.822m-1.374-.992c-.014-.016.233-.258.722-.647.49-.388 1.224-.92 2.2-1.472a14.822 14.822 0 013.656-1.46 11.846 11.846 0 014.817-.195c1.7.296 3.252.988 4.412 1.943a8.49 8.49 0 012.396 3.129c.449 1.04.596 1.957.616 2.584.006.314 0 .557-.022.722-.017.164-.032.249-.044.248-.09.018.16-1.437-.778-3.45a8.505 8.505 0 00-2.372-2.978c-1.125-.904-2.622-1.562-4.268-1.849a11.851 11.851 0 00-4.682.163c-1.417.33-2.632.855-3.611 1.363a21.788 21.788 0 00-2.237 1.363c-.512.352-.788.558-.805.536m8.639-5.952c.021.115-2.047.206-4.198 1.426-2.17 1.19-3.333 2.902-3.42 2.824-.033-.022.206-.477.743-1.106.535-.629 1.397-1.407 2.504-2.027 1.109-.616 2.223-.941 3.039-1.066.818-.127 1.33-.09 1.332-.05" fill="#334F55"/><path d="M183.599 83.526c.018-.068.677.219 1.779.164 1.073-.04 2.643-.536 3.681-1.845 1.023-1.322 1.129-2.965.91-4.017-.21-1.083-.645-1.654-.584-1.688.016-.012.138.117.31.385.174.268.376.691.518 1.25.294 1.089.235 2.852-.875 4.288-1.129 1.42-2.826 1.9-3.954 1.877a4.285 4.285 0 01-1.337-.204c-.302-.103-.456-.19-.448-.21" fill="#2472FF"/><path d="M189.969 131.856c-.012.005-.09-.157-.227-.468a50.148 50.148 0 01-.578-1.374c-.47-1.202-1.187-2.953-1.606-5.248a13.985 13.985 0 01-.174-3.803c.136-1.364.514-2.831 1.328-4.166.786-1.323 1.982-2.506 2.3-4.1.331-1.597-.343-3.268-1.19-4.772-.424-.768-.896-1.497-1.325-2.25a19.291 19.291 0 01-1.128-2.298c-.63-1.552-.982-3.207-.757-4.769.204-1.58 1.07-2.863 1.856-3.954.8-1.1 1.53-2.126 1.929-3.201.415-1.065.602-2.094.708-3 .106-.906.127-1.697.142-2.342l.015-1.487c.002-.34.01-.52.022-.52.012 0 .03.178.05.518.017.34.043.842.052 1.49a21.83 21.83 0 01-.084 2.362c-.089.918-.26 1.97-.671 3.069-.394 1.112-1.138 2.18-1.924 3.28-.775 1.1-1.589 2.334-1.772 3.83-.206 1.484.136 3.078.756 4.593.31.762.689 1.513 1.112 2.254.422.738.898 1.475 1.328 2.253.432.776.818 1.577 1.066 2.422.243.842.337 1.74.156 2.59-.164.855-.59 1.604-1.037 2.272-.45.672-.933 1.288-1.325 1.93-.791 1.28-1.17 2.696-1.315 4.026-.143 1.337-.056 2.6.128 3.731.382 2.269 1.06 4.026 1.489 5.24l.515 1.397c.117.32.172.49.16.495" fill="#334F55"/><path d="M184.682 92.732c.01.008-.074.136-.24.374-.188.267-.43.61-.728 1.037-.606.908-1.535 2.231-2.161 4.081-.304.922-.511 1.984-.46 3.12.022.567.124 1.148.308 1.72.183.573.47 1.133.778 1.702.598 1.127 1.42 2.336 1.485 3.846.037.744-.182 1.495-.536 2.159-.355.667-.837 1.262-1.369 1.808-1.071 1.083-2.27 1.947-3.116 3.052-.869 1.086-1.222 2.428-1.293 3.702-.078 1.283.09 2.507.249 3.651.163 1.145.319 2.221.343 3.216.088 1.999-.483 3.602-1.13 4.507-.32.458-.638.76-.87.938-.11.095-.21.149-.27.191-.063.04-.097.058-.1.053-.035-.035.528-.341 1.125-1.258.595-.906 1.112-2.467.996-4.422-.04-.975-.208-2.037-.384-3.183-.172-1.143-.356-2.387-.285-3.712.062-1.31.43-2.744 1.343-3.895.886-1.158 2.1-2.034 3.139-3.087 1.024-1.041 1.869-2.333 1.811-3.71-.048-1.374-.822-2.558-1.424-3.701-.308-.578-.6-1.156-.789-1.76a6.724 6.724 0 01-.305-1.805c-.04-1.183.19-2.273.516-3.212.674-1.885 1.644-3.193 2.287-4.081.33-.443.598-.777.783-1 .185-.225.287-.338.297-.331" fill="#132529"/><path d="M197.456 131.444c-.003.005-.042-.014-.118-.057-.073-.046-.19-.104-.325-.207a4.14 4.14 0 01-1.01-1.084c-.725-1.066-1.237-3.018-.77-5.298.221-1.134.639-2.327 1.09-3.59.446-1.263.92-2.617 1.095-4.101a13.208 13.208 0 00-.26-4.646c-.357-1.59-1.096-3.112-2.031-4.576-.916-1.467-1.864-2.951-2.255-4.594-.416-1.624-.431-3.25-.325-4.762.232-3.03.813-5.697.746-7.975-.003-2.275-.517-4.08-1.105-5.2-.597-1.121-1.135-1.607-1.097-1.636 0 0 .572.449 1.22 1.57.635 1.12 1.198 2.957 1.232 5.261.1 2.31-.46 5.01-.67 8.002-.097 1.495-.072 3.085.335 4.653.38 1.58 1.298 3.018 2.22 4.495.94 1.469 1.71 3.053 2.066 4.683a13.4 13.4 0 01.247 4.766c-.19 1.524-.684 2.9-1.141 4.16-.465 1.26-.89 2.432-1.122 3.54-.485 2.215-.026 4.118.642 5.175.672 1.081 1.376 1.38 1.336 1.421" fill="#334F55"/><path d="M237.136 267.353l-.035-1.212-11.4.282.073 3.993.704.03c3.136.102 15.952.303 18.032-.379 2.318-.76-7.374-2.714-7.374-2.714" fill="#2472FF"/><path d="M225.782 270.253l-.07-3.171c.124-.013.248-.02.37-.02.828 0 1.629.285 2.301.785a3.937 3.937 0 011.477 2.26l-4.074.055-.004.091" fill="#1D64E3"/><path d="M232.65 270.586c-.487 0-.971-.002-1.447-.006h2.943c-.5.004-1 .006-1.496.006" fill="#FFFFFE"/><path d="M231.203 270.58a110.911 110.911 0 01-4.793-.127c.044-.001.088-.003.13-.006a284.179 284.179 0 0010.156.097c-.835.017-1.691.03-2.55.036h-2.943" fill="#6C7978"/><path d="M226.41 270.453l-.4-.022.057-.003.411.018h.063a4.096 4.096 0 01-.13.007" fill="#E98891"/><path d="M226.01 270.43l-.236-.014.293.012-.057.003" fill="#F0B0B2"/><path d="M244.407 270.098l.103-.03c.32-.106.411-.234.33-.376.069.087.084.17.028.248-.04.056-.2.108-.461.158m-1.79-1.408" fill="#FFFFFE"/><path d="M234.48 270.554c-3.33 0-6.528-.062-7.94-.107l-.062-.001-.411-.018-.293-.012.008-.163 4.104-.019a3.826 3.826 0 00-.026-.127l11.044-.148s.311-1.441.972-1.483l.024.006c.247.069.487.138.718.208.783.243 1.943.648 2.222 1.002.081.142-.01.27-.33.375l-.103.031c-1.143.217-4.231.375-7.711.446-.733.008-1.478.01-2.216.01" fill="#1D64E3"/><path d="M225.782 270.253l.004-.091 4.074-.055c.01.042.018.084.026.127l-4.104.02" fill="#F0B0B2"/><path d="M225.608 270.16c0 .003.067.009.195.016l.562.02 2.065.045a202.565 202.565 0 0013.623-.288l2.06-.132.56-.045c.128-.012.195-.02.195-.025a1.06 1.06 0 00-.197-.003l-.56.02-2.063.087a324.64 324.64 0 01-6.808.219 343.26 343.26 0 01-6.81.07h-2.065l-.561.004a1.017 1.017 0 00-.196.011" fill="#132529"/><path d="M240.905 270.135c.043.005.064-.488.364-.993.291-.51.71-.77.686-.804-.009-.035-.49.19-.805.735-.32.542-.279 1.071-.245 1.062m-3.385-1.625c.032.02.188-.18.347-.444.16-.264.264-.494.23-.514-.032-.02-.187.179-.347.443-.16.265-.263.495-.23.515m-.93-.466c.026.028.202-.095.394-.276.191-.18.326-.348.3-.376-.027-.028-.203.096-.394.276-.192.18-.326.349-.3.376m-.605-1.058c0 .038.267.066.594.062.327-.004.593-.037.592-.075 0-.038-.266-.066-.594-.063-.327.004-.593.038-.592.076m-.216-.752c-.012.035.28.159.665.178.385.022.689-.071.68-.106-.007-.04-.307-.01-.673-.03-.365-.02-.661-.08-.672-.042" fill="#132529"/><path d="M237.882 267.511c0 .015.28.044.73-.02.224-.032.488-.091.772-.188.141-.054.29-.095.44-.194a.39.39 0 00.176-.23c.028-.11-.033-.231-.117-.29-.705-.345-1.394.062-1.645.428-.139.188-.2.368-.228.492-.026.126-.022.197-.014.197.026.01.043-.288.319-.63.136-.166.344-.33.614-.417.256-.082.622-.11.87.04.118.083.076.22-.051.3-.119.08-.272.13-.406.185-.274.1-.53.168-.747.211-.435.087-.713.094-.713.116" fill="#132529"/><path d="M238.072 267.543c.011.008.114-.18.074-.508a1.201 1.201 0 00-.212-.529c-.132-.158-.303-.378-.615-.358-.168.025-.247.22-.217.342a.788.788 0 00.13.323 2.2 2.2 0 00.355.433c.233.22.416.3.423.286.013-.017-.147-.127-.354-.353a2.645 2.645 0 01-.315-.431c-.103-.153-.178-.427.004-.465.182-.022.373.156.488.3.118.154.185.323.216.469.063.295-.001.487.023.491m-12.302-.495c.004.025.325-.038.84.011.51.046 1.22.239 1.846.714.625.477 1 1.112 1.179 1.59.184.483.208.81.233.806.009 0 .01-.083-.005-.229a2.942 2.942 0 00-.137-.609 3.51 3.51 0 00-1.187-1.667 3.514 3.514 0 00-1.922-.702 3.014 3.014 0 00-.624.03c-.145.024-.223.048-.222.056m5.52 2.048c-.004.036.738.14 1.66.128.923-.01 1.662-.134 1.657-.17-.004-.04-.744.023-1.658.032-.914.013-1.656-.03-1.659.01" fill="#132529"/><path d="M229.066 269.141c-.027.029.064.156.144.325.081.167.124.318.163.314.037 0 .054-.18-.039-.374s-.244-.293-.268-.265m-.861-1.024c-.027.027.05.144.17.26.12.116.238.189.265.162.026-.027-.05-.144-.17-.26-.12-.118-.238-.19-.265-.162m-1.21-.451c.009.038.16.034.328.089.169.051.29.14.319.115.03-.022-.07-.181-.279-.246-.208-.067-.38.008-.368.042m-.859-.206c-.013.036.054.093.148.127.095.034.183.033.196-.002.013-.036-.054-.093-.149-.127-.094-.035-.182-.034-.195.002m-5.002-38.854c-.098-.007.242-6.089.76-13.583.517-7.498 1.015-13.568 1.113-13.561.098.006-.242 6.088-.76 13.585-.517 7.495-1.016 13.566-1.113 13.56m6.559 1.547c-.025 0-.065-.398-.116-1.121l-.203-3.062a421.596 421.596 0 00-.774-10.087 421.112 421.112 0 00-1.037-10.065l-.346-3.048c-.078-.72-.11-1.12-.086-1.124.024-.003.103.39.223 1.105.121.715.278 1.752.457 3.035a213.24 213.24 0 011.142 10.065c.353 3.94.566 7.516.67 10.107.053 1.294.084 2.343.091 3.068.01.725.003 1.126-.021 1.127" fill="#132529"/><path d="M206.67 216.85c-1.037 0-2.05-.184-2.941-.702-2.224-1.292-2.914-4.192-2.884-6.764.03-2.44.01-5.725-.007-8.15h29.389a30.316 30.316 0 01-4.24 5.848c-.06-.455-.119-.887-.176-1.295a113.12 113.12 0 00-.457-3.035c-.12-.712-.198-1.105-.222-1.105h-.001c-.024.004.008.403.086 1.124l.346 3.048c.055.478.113.99.173 1.531a31.657 31.657 0 01-3.171 2.926c.33-5.145.517-8.809.442-8.814-.078 0-.406 3.797-.795 9.094-3.793 2.961-8.257 5.065-12.977 6.002-.835.166-1.71.291-2.565.291" fill="#1D64E3"/><path d="M230.227 201.233h-29.389l-.002-.382h29.6c-.069.128-.138.255-.21.382" fill="#253D41"/><path d="M222.212 210.556c.39-5.297.717-9.094.795-9.094.075.005-.113 3.669-.442 8.814a35.36 35.36 0 01-.353.28m3.524-3.206c-.06-.54-.118-1.053-.173-1.531l-.346-3.048c-.078-.72-.11-1.12-.086-1.124.025 0 .103.393.223 1.105.121.715.278 1.752.457 3.035.057.408.116.84.175 1.295-.083.09-.166.18-.25.268" fill="#09181B"/><path d="M190.91 157.37c-.013-.097 3.39-.623 7.6-1.174 4.212-.552 7.635-.92 7.647-.823.013.096-3.39.622-7.601 1.174-4.21.551-7.633.92-7.646.823" fill="#132529"/><path d="M201.293 156.11c-.03.038-.469-.26-1.152-.774l-1.19-.919c-.217-.182-.488-.413-.577-.79-.09-.38.095-.775.374-1.016.276-.247.662-.377 1.021-.314.35.056.644.245.858.464.435.446.578 1.011.605 1.446.036.885-.124 1.396-.155 1.394-.066-.001.004-.545-.093-1.366-.058-.405-.211-.88-.587-1.242-.357-.37-.986-.525-1.415-.117-.208.183-.322.448-.269.676.046.237.244.438.448.615.4.341.779.666 1.138.974.643.564 1.025.931.994.97" fill="#132529"/><path d="M200.838 156.144c-.04-.01.01-.468.322-1.137a5.094 5.094 0 011.243-1.641c.235-.174.504-.323.869-.297a.539.539 0 01.449.345.658.658 0 01-.041.517c-.141.277-.32.447-.48.633a5.437 5.437 0 01-.984.836c-.617.404-1.061.523-1.076.485-.024-.05.375-.25.928-.688a6.5 6.5 0 00.889-.85c.144-.176.32-.371.407-.56.09-.193.03-.346-.137-.366-.429-.035-.815.382-1.12.715a6.02 6.02 0 00-.726.989c-.354.608-.49 1.034-.543 1.019" fill="#132529"/><path d="M222.285 231.222c-.092-.036.42-1.562 1.141-3.408.722-1.847 1.38-3.315 1.472-3.279.09.036-.42 1.562-1.142 3.408-.721 1.846-1.38 3.314-1.471 3.279m-12.002-3.559c-.047.08-1.389-.677-2.816-1.918-1.432-1.237-2.37-2.458-2.298-2.517.077-.068 1.12 1.033 2.53 2.25 1.404 1.221 2.64 2.098 2.584 2.185m3.75-15.625c-.08.057-.826-.857-1.666-2.04-.84-1.184-1.458-2.19-1.378-2.246.08-.057.826.856 1.667 2.04.84 1.184 1.457 2.19 1.377 2.246m-6.036-21.662c-.077.06-1.022-1-2.111-2.371-1.09-1.37-1.911-2.53-1.834-2.59.077-.062 1.021 1 2.111 2.37 1.09 1.37 1.91 2.53 1.834 2.591m14.684-2.75c.004.099-1.406.234-3.15.304-1.743.07-3.16.047-3.164-.05-.004-.098 1.406-.233 3.15-.304 1.743-.07 3.16-.047 3.164.05m3.395-8.796c-.085.047-.691-.872-1.353-2.054-.662-1.183-1.129-2.18-1.043-2.227.085-.048.69.871 1.352 2.054.662 1.182 1.13 2.18 1.044 2.227m-15.268-1.895c.042.088-.964.648-2.247 1.25-1.283.601-2.356 1.017-2.397.928-.042-.088.964-.648 2.247-1.25 1.282-.601 2.356-1.017 2.397-.928m-8.607.68c-.066.076-1.345-.927-2.947-2.125-1.601-1.203-2.923-2.148-2.868-2.232.05-.081 1.468.738 3.08 1.948 1.613 1.207 2.798 2.337 2.735 2.409m-.779-16.485c.033.1-1.526.656-3.333 1.581-1.812.917-3.179 1.851-3.24 1.766-.057-.07 1.236-1.148 3.08-2.081 1.837-.942 3.47-1.354 3.493-1.266m-2.932-12.138c-.065.072-1.076-.823-2.256-2-1.18-1.176-2.078-2.183-2.006-2.25.072-.065 1.082.83 2.257 2 1.173 1.17 2.07 2.178 2.006 2.25m8.615-8.975c.054.081-.766.726-1.832 1.44-1.067.713-1.975 1.225-2.03 1.144-.054-.082.766-.726 1.832-1.44 1.067-.712 1.976-1.224 2.03-1.144m-6.953-1.584c-.075.063-.925-.83-1.898-1.993-.973-1.164-1.701-2.158-1.626-2.222.075-.062.925.83 1.898 1.994.973 1.164 1.701 2.158 1.626 2.221m10.801-13.003c.04.093-1.198.7-2.68 1.525-1.485.82-2.656 1.548-2.715 1.465-.054-.077 1.04-.944 2.543-1.775 1.501-.835 2.817-1.303 2.852-1.216m5.693 8.131c-.093-.03.18-1.177.609-2.564.43-1.387.853-2.488.947-2.459.093.029-.18 1.176-.608 2.564-.43 1.387-.854 2.488-.948 2.458m2.567 9.249c-.032.087-1.265-.332-2.605-1.197-1.345-.86-2.237-1.808-2.172-1.873.07-.077 1.049.735 2.363 1.575 1.31.846 2.454 1.4 2.414 1.495m-15.542-22.105c-.083-.05.59-1.309 1.503-2.81.914-1.501 1.722-2.677 1.805-2.627.084.051-.59 1.31-1.502 2.811-.914 1.502-1.723 2.677-1.806 2.626m-15.528 14.937c-.018.097-1.677-.143-3.706-.533-2.028-.39-3.657-.785-3.639-.881.02-.096 1.678.143 3.707.534 2.028.39 3.657.784 3.638.88" fill="#FAF9F6"/><path fill="#F1F0EC" d="M236.95 113.55h50.426V75.36H236.95z"/><path fill="#2472FF" d="M273.992 107.806h5.892V84.349h-5.892z"/><path fill="#1D64E3" d="M264.304 107.806h5.892V82.572h-5.892z"/><path fill="#2472FF" d="M254.91 107.806h5.892v-22.11h-5.892z"/><path fill="#7DABFF" d="M254.91 107.806h5.892v-22.11h-5.892z"/><path fill="#2472FF" d="M245.374 107.806h5.892V89.149h-5.892zm28.618 0h5.892V84.349h-5.892z"/><path d="M284.352 107.89c0 .098-9.683.178-21.625.178-11.946 0-21.628-.08-21.628-.178 0-.097 9.682-.177 21.628-.177 11.942 0 21.625.08 21.625.177m-2.459-22.092c-.004.04-.676-.082-1.887-.023a11.14 11.14 0 00-4.858 1.447 10.436 10.436 0 00-2.71 2.22c-.843.95-1.595 2.093-2.492 3.235-.888 1.13-1.995 2.288-3.48 2.938-1.465.671-3.134.883-4.799.942-1.673.06-3.297-.023-4.853.05-1.558.068-3.054.258-4.44.606-1.38.357-2.649.869-3.721 1.543-1.083.655-1.933 1.496-2.59 2.346-1.31 1.726-1.72 3.509-1.75 4.703-.004 1.211.245 1.859.199 1.868 0 0-.297-.63-.336-1.868-.015-1.22.367-3.062 1.687-4.853.66-.881 1.526-1.76 2.634-2.446 1.094-.702 2.39-1.236 3.796-1.61 1.41-.363 2.93-.562 4.504-.637 1.579-.076 3.204.004 4.857-.055 1.645-.058 3.266-.267 4.67-.905 1.416-.616 2.48-1.713 3.367-2.826.891-1.118 1.658-2.264 2.528-3.226a10.581 10.581 0 012.806-2.243A10.907 10.907 0 01280 85.637a9.817 9.817 0 011.408.072c.32.047.485.078.484.09M237.45 91.48c0 .009-.106.014-.314.017l-.916.003-3.478-.032-12.432-.2-.148-.002v-.15l-.026-18.258c.02-9.766.04-18.605.052-25.035.025-3.182.043-5.767.057-7.587l.033-2.062.018-.537a.71.71 0 01.018-.183c.006 0 .012.062.018.183l.017.537.034 2.062.056 7.587.052 25.035c-.01 6.704-.019 12.973-.025 18.259l-.149-.152 12.43.327 3.475.116c.382.017.684.03.915.042.207.012.314.022.314.03m73.799-29.027c0 .012-.153.025-.444.036l-1.274.034-4.685.055-15.453.053-8.95-.016.16-.162-.063 9.311-.046 2.651-.025.703c-.009.16-.018.242-.026.242-.01 0-.019-.083-.027-.242l-.025-.703-.046-2.65-.064-9.312-.001-.16h.163l8.95-.017c6.016.02 11.46.04 15.453.052l4.685.057 1.274.033c.29.011.444.023.444.035m-74.3 41.931c0 .007-.084.012-.245.016l-.716.011-2.752.01c-2.412-.01-5.866-.021-10.124-.036l-33.398-.25-26.572-.27-.096-.001-.037-.087-5.903-13.806-1.622-3.851-.416-1.016c-.092-.23-.135-.352-.129-.354.008-.003.065.111.17.336l.456 1 1.696 3.819 6.016 13.756-.132-.088 26.571.209 33.398.353 10.123.147 2.752.058.715.024c.162.007.244.015.244.02" fill="#132529"/><path d="M168.042 103.861a3.092 3.092 0 11-6.184 0 3.092 3.092 0 016.184 0" fill="#D4D5CF"/><path d="M157.14 86.064h-18.613a4.719 4.719 0 110-9.438h18.613a4.718 4.718 0 110 9.438" fill="#334F55"/><path fill="#F1F0EC" d="M145.842 62.743h43.348V33.962h-43.348z"/><path fill="#2472FF" d="M169.548 54.067h28.784V42.639h-28.784z"/><path d="M164.235 43.133c0 .098-3.016.177-6.735.177-3.72 0-6.736-.079-6.736-.177 0-.098 3.015-.177 6.736-.177 3.72 0 6.735.08 6.735.177m0 2.087c0 .099-3.016.178-6.735.178-3.72 0-6.736-.08-6.736-.177 0-.098 3.015-.177 6.736-.177 3.72 0 6.735.079 6.735.177m0 2.088c0 .098-3.016.177-6.735.177-3.72 0-6.736-.08-6.736-.177 0-.098 3.015-.177 6.736-.177 3.72 0 6.735.079 6.735.177m0 2.088c0 .097-3.016.177-6.735.177-3.72 0-6.736-.08-6.736-.177 0-.098 3.015-.177 6.736-.177 3.72 0 6.735.08 6.735.177m0 2.088c0 .098-3.016.177-6.735.177-3.72 0-6.736-.08-6.736-.177 0-.098 3.015-.177 6.736-.177 3.72 0 6.735.079 6.735.177m-5.56 2.088c0 .097-1.771.177-3.955.177-2.185 0-3.956-.08-3.956-.177 0-.098 1.77-.177 3.956-.177 2.184 0 3.955.08 3.955.177m30.171-15.386c0 .098-9.628.177-21.5.177-11.878 0-21.504-.079-21.504-.177 0-.097 9.626-.176 21.503-.176 11.873 0 21.501.079 21.501.176" fill="#D4D5CF"/><path d="M266.785 64.477a2.48 2.48 0 01-.018-.313l-.017-.878-.04-3.293-.078-11.64.153.153-16.122.024a7.1 7.1 0 01.175-.175v2.193l-.001 2.155-.005 4.168c-.007 2.706-.013 5.26-.017 7.606l-.154-.153c4.795.032 8.8.06 11.64.078l3.293.04.878.017c.2.006.308.012.313.018.006.006-.089.011-.279.017l-.848.018-3.258.04-11.74.078-.152.001v-.154l-.018-7.606c-.001-1.354-.002-2.746-.005-4.168v-4.348c-.159.158.214-.218.178-.179l16.122.024h.154v.153l-.08 11.738c-.015 1.38-.03 2.476-.039 3.258l-.018.848c-.005.19-.01.286-.017.28" fill="#132529"/><path fill="#D4D5CF" d="M270.082 49.514h8.061v-8.062h-8.061z"/><path d="M332.47 67.172h-18.613a4.718 4.718 0 110-9.437h18.613a4.719 4.719 0 010 9.437" fill="#334F55"/><path d="M283.45 62.514a3.092 3.092 0 11-6.184 0 3.092 3.092 0 016.185 0m-59.709 28.18a3.092 3.092 0 11-6.184-.002 3.092 3.092 0 016.184.002" fill="#D4D5CF"/><path d="M229.62 42.906h-18.613a4.719 4.719 0 110-9.437h18.613a4.718 4.718 0 110 9.437" fill="#334F55"/></g></svg>