<svg width="336" height="301" xmlns="http://www.w3.org/2000/svg" xmlns:xlink="http://www.w3.org/1999/xlink"><defs><path id="a" d="M.05.307h335.087v282.475H.05z"/></defs><g fill="none" fill-rule="evenodd"><path d="M32.4 245.068c2.942-1.518 6.406-1.716 9.673-1.176 1.755.291 3.584.816 4.779 2.134 1.193 1.318 1.42 3.638.048 4.77-.816.674-1.954.777-3.012.764-2.557-.03-5.394-.48-7.437 1.06-1.166.877-1.942 2.336-3.335 2.768-1.363.422-2.902-.382-3.625-1.613-.723-1.23-.746-2.768-.41-4.155 0 0 .356-3.023 3.319-4.552m-6.74-13.011c1.799 2.569 5.295 1.717 6.917.15 1.621-1.57 2.306-3.842 2.93-6.01 1.425-4.952 2.862-10.148 1.802-15.191-.317-1.508-.88-3.012-1.94-4.13-1.06-1.12-2.689-1.785-4.179-1.391-1.763.465-2.858 2.192-3.65 3.835a36.221 36.221 0 00-3.58 15.54c-.008 2.504.288 5.13 1.7 7.197m-4.94 3.687c1.953-2.319 2.323-5.7 1.454-8.605-.869-2.904-2.833-5.375-5.095-7.392a27.453 27.453 0 00-9.126-5.384c-1.32-.464-2.711-.83-4.104-.697-1.392.133-2.795.845-3.444 2.083-.96 1.832-.04 4.054.956 5.866a69.551 69.551 0 005.994 9.127c1.796 2.316 3.854 4.6 6.592 5.648 2.738 1.046 5.582.922 7.033-.976" fill="#ECECE8"/><path d="M25.538 270.816c.033.002.088-.414.162-1.168.084-.85.187-1.916.31-3.186.15-1.34.345-2.936.718-4.673.37-1.734.951-3.613 1.698-5.517.774-1.894 1.716-3.614 2.817-4.99 1.094-1.384 2.366-2.385 3.561-2.961a9.95 9.95 0 013-.934c.744-.077 1.161-.136 1.161-.169.001-.033-.417-.038-1.183-.018-.757.05-1.87.243-3.127.814-1.26.558-2.609 1.575-3.756 2.986-1.157 1.405-2.133 3.164-2.92 5.091-.759 1.939-1.332 3.837-1.687 5.607-.353 1.768-.515 3.38-.62 4.733a63.227 63.227 0 00-.159 3.207c-.016.756-.008 1.176.025 1.178" fill="#DFDFDA"/><path d="M25.758 268.364c.016 0 .026-.187.03-.542l-.003-1.549c-.004-1.344-.004-3.29.069-5.692.119-4.805.532-9.978 1.332-17.268.756-6.856 1.772-14.834 2.844-20.022.23-1.18.461-2.241.679-3.17.207-.933.385-1.736.557-2.385l.361-1.507c.078-.345.111-.53.095-.534-.016-.005-.08.17-.188.508l-.45 1.484c-.2.645-.404 1.442-.638 2.37a71.273 71.273 0 00-.75 3.164c-1.06 4.7-2.183 11.27-2.99 18.577-.8 7.306-1.161 13.959-1.193 18.776-.028 2.41.023 4.359.084 5.704l.095 1.548c.027.353.048.539.066.538" fill="#DFDFDA"/><path d="M25.79 255.534c.033 0 .027-.577-.012-1.619a44.587 44.587 0 00-.495-4.385 57.872 57.872 0 00-1.426-6.387c-.296-1.083-.99-3.68-2.672-7.559-2.216-5.257-5.225-9.554-7.844-12.216-.615-.706-1.3-1.216-1.846-1.715-.283-.24-.533-.478-.788-.668l-.716-.493c-.863-.59-1.345-.9-1.363-.873-.077.105 1.93 1.288 4.466 3.985 2.525 2.691 5.451 6.96 7.649 12.17a59.79 59.79 0 012.687 7.49c.7 2.347 1.165 4.507 1.517 6.325.334 1.823.527 3.311.644 4.341.096 1.033.166 1.605.198 1.604m-12.401 22.633l1.286 17.614H37.3l1.286-17.614H13.388m-2.186 0h30.085v-6.942H11.202z" fill="#DFDFDA"/><path fill="#ECECE8" d="M11.202 297.031H40.79v-1.925H11.202z"/><path fill="#DFDFDA" d="M14.002 300.418l-1.386-3.387h27.097l-1.617 3.387H14.002"/><path d="M38.167 283.924a.782.782 0 01-.105.161l-.339.448c-.32.412-.762.977-1.318 1.688l-.058.074-.057-.078-3.239-4.479h.187l-3.188 4.515-.1.141-.112-.133-3.781-4.499.217-.003-.207.262-3.382 4.239-.113.141-.104-.147-3.19-4.513.186.008-3.928 4.476-.07.08-.054-.09-1.23-2.067-.315-.55c-.07-.125-.102-.192-.097-.196.006-.003.051.056.132.174l.35.53 1.29 2.03-.122-.011 3.865-4.531.098-.114.088.123 3.218 4.494-.216-.007 3.373-4.244c.071-.09.142-.18.208-.261l.108-.136.11.133c1.323 1.58 2.598 3.105 3.77 4.507l-.21.008 3.219-4.492.095-.132.092.132 3.17 4.528-.115-.003 1.37-1.644c.15-.172.27-.313.369-.425.084-.095.13-.141.135-.137m.735-5.874c0 .078-5.67.142-12.662.142-6.995 0-12.664-.064-12.664-.141 0-.079 5.669-.142 12.664-.142 6.992 0 12.662.063 12.662.142m1.143 19.169c0 .078-6.162.142-13.761.142-7.602 0-13.763-.064-13.763-.141 0-.078 6.161-.141 13.763-.141 7.6 0 13.761.063 13.761.14M5.869 169.133h282.303V.178H5.87zm229.965 130.245h63.564v-61.497h-63.564z" fill="#F8F7F5"/><path fill="#DFDFDA" d="M240.762 294.115l17.584-31.646 14.383 20.227 8.738-10.741 13.003 22.16h-53.708m38.093-37.8a4.574 4.574 0 11-9.148 0 4.574 4.574 0 019.148 0"/><path d="M240.498 294.55v-.264l-.028-24.247-.008-13.25-.002-6.848v-5.218l-.001-.876v-.864a1.091 1.091 0 01-.067.064l.186-.19c.095-.095.19-.19.194-.19l-.004.004 53.702.043h.26l-.001.26-.133 37.297-.067 10.385-.03 2.718-.015.689a1.159 1.159 0 01-.014.223 1.043 1.043 0 01-.013-.171h.013l-.013-.022-.003-.059c-.002-.185-.007-.419-.013-.717l-.031-2.768-.067-10.443c-.033-8.932-.078-21.63-.132-36.872-15.422.012-33.659.026-53.146.043v6.664c0 2.304-.002 4.587-.003 6.848l-.007 13.25-.028 23.6-.265.476h26.801l12.03.041 10.953.07 2.906.03c.314.006.56.01.753.015.17.005.26.01.265.015.005.005-.075.01-.235.015l-.725.015-2.854.03-10.893.07-39 .134h-.265" fill="#F2F1EE"/><path d="M267.563 294.115h-26.8l.264-.476v.384l26.536.092" fill="#DFDFDA"/><g transform="translate(.719 17.249)"><mask id="b" fill="#fff"><use xlink:href="#a"/></mask><path fill="#DFDFDA" mask="url(#b)" d="M16.5 162.567h285.433V.307H16.5z"/><path d="M335.137 282.423c0 .102-75.018.187-167.535.187-92.55 0-167.552-.085-167.552-.187 0-.105 75.002-.188 167.552-.188 92.517 0 167.535.083 167.535.188" fill="#1A282B" mask="url(#b)"/></g><path d="M297.32 239.837c2.074.872 3.616 2.763 4.403 4.872.789 2.11.885 4.422.659 6.663-.44 4.334-2.846 8.732-5.452 12.222-3.683-3.137-4.589-8.676-4.871-11.514-.447-4.487 1.47-12.867 5.26-12.243m3.932 30.85c-.612-2.44.373-5.135 2.231-6.83 1.858-1.697 4.473-2.436 6.983-2.274 1.16.075 2.417.398 3.092 1.345.632.885.577 2.131.085 3.1-.492.97-1.355 1.7-2.27 2.29-3.133 2.019-6.537 3.397-10.12 2.369m-6.094 2.51c-1.046-5.199-4.768-9.783-9.64-11.874-1.242-.533-2.847-.847-3.809.1-.965.947-.673 2.565-.13 3.805 2.256 5.155 7.888 8.628 13.507 8.329" fill="#2472FF"/><path d="M296.276 284.272c-.019-.004.03-.326.136-.903.105-.577.269-1.41.498-2.435.467-2.038 1.17-4.893 2.668-7.757 1.501-2.865 3.655-4.985 5.477-6.055.906-.545 1.7-.875 2.265-1.047.277-.1.505-.14.654-.179.151-.035.23-.049.234-.039.025.068-1.284.313-3.046 1.438-1.763 1.096-3.851 3.196-5.33 6.017-1.476 2.823-2.208 5.647-2.724 7.67l-.587 2.41c-.14.57-.225.884-.245.88" fill="#1A282B"/><path d="M296.423 246.347c.01 0 .025.134.046.388l.076 1.115c.062.969.135 2.371.21 4.105.151 3.466.295 8.258.336 13.554.04 5.296-.03 10.09-.129 13.559-.048 1.734-.1 3.137-.147 4.106-.024.462-.043.832-.06 1.116-.016.255-.03.389-.04.388-.01 0-.015-.134-.017-.39l.006-1.116.055-4.109c.046-3.467.084-8.259.045-13.553a662.541 662.541 0 00-.252-13.548l-.118-4.107-.023-1.117c-.002-.256.002-.39.012-.39" fill="#1A282B"/><path d="M286.33 265.343c.008-.018.292.107.8.35.256.117.564.27.903.486.34.209.744.424 1.144.732l.643.462c.222.163.432.358.66.547.466.37.907.826 1.383 1.295a20.66 20.66 0 012.618 3.453 20.636 20.636 0 011.77 3.957c.182.642.372 1.248.471 1.835.055.29.125.569.162.842l.096.786c.077.498.072.956.092 1.355.025.4.012.745-.009 1.026-.031.561-.057.87-.077.869-.068-.002.05-1.247-.207-3.225l-.115-.774c-.04-.27-.116-.543-.176-.83-.107-.575-.304-1.17-.489-1.801a21.52 21.52 0 00-1.765-3.893 21.442 21.442 0 00-2.564-3.418c-.464-.467-.892-.925-1.345-1.297-.222-.19-.427-.387-.642-.553l-.625-.472c-1.61-1.176-2.76-1.672-2.728-1.732" fill="#1A282B"/><path fill="#1A282B" d="M303.736 299.672h-13.198l-2.701-19.347h18.417l-2.518 19.347"/><path d="M305.068 289.241c0 .104-3.567.188-7.965.188-4.4 0-7.965-.084-7.965-.188 0-.103 3.566-.187 7.965-.187 4.398 0 7.965.084 7.965.187m0 1.148c0 .103-3.567.186-7.965.186-4.4 0-7.965-.083-7.965-.186 0-.104 3.566-.188 7.965-.188 4.398 0 7.965.084 7.965.188" fill="#FDFCFB"/><path d="M264.321 299.626l-100.676.046a1.535 1.535 0 01-1.535-1.536l-.027-60.803c0-.848.686-1.536 1.534-1.536l100.675-.046c.848 0 1.535.687 1.536 1.535l.027 60.804c0 .848-.686 1.536-1.534 1.536" fill="#1A282B"/><path fill="#FFFFFE" d="M215.05 261.28l8.515 4.578-16.346 10.776-.686-19.932 8.516 4.578m43.312 31.968c0 .103-19.872.196-44.38.207-24.514.011-44.38-.064-44.38-.167 0-.104 19.866-.197 44.38-.207 24.508-.011 44.38.064 44.38.167"/><path d="M171.148 293.287a1.118 1.118 0 11-2.237.002 1.118 1.118 0 012.237-.002" fill="#FFFFFE"/><path d="M248.595 299.449l-106.918.048a1.535 1.535 0 01-1.536-1.535l-.029-64.648c0-.848.686-1.535 1.535-1.536l106.918-.048c.848 0 1.535.687 1.535 1.535l.03 64.648c0 .848-.687 1.535-1.535 1.536" fill="#365158"/><path fill="#FFFFFE" d="M196.266 258.795l9.029 4.854-17.33 11.425-.728-21.133 9.029 4.854m45.918 33.892c0 .103-21.068.196-47.049.208-25.99.012-47.053-.063-47.053-.165 0-.104 21.062-.197 47.053-.21 25.981-.01 47.049.063 47.049.167"/><path d="M149.723 292.729a1.186 1.186 0 11-2.372 0 1.186 1.186 0 012.372 0" fill="#FFFFFE"/><path d="M207.587 299.644l-60.038.028a1.535 1.535 0 01-1.535-1.536l-.016-35.783c0-.848.687-1.536 1.534-1.536l60.038-.027c.847 0 1.535.686 1.536 1.534l.015 35.784a1.534 1.534 0 01-1.534 1.536" fill="#2472FF"/><path fill="#FFFFFE" d="M178.217 276.319l5.18 2.785-9.943 6.554-.417-12.124 5.18 2.785m26.346 19.445c0 .103-12.088.193-26.996.2-14.911.006-26.996-.072-26.996-.176 0-.103 12.084-.192 26.996-.199 14.908-.007 26.996.072 26.996.175"/><path d="M151.512 295.788a.681.681 0 11-1.362 0 .681.681 0 011.362 0M28.161 215.42h282.615V35.385H28.16z" fill="#FFFFFE"/><path d="M310.971 214.736L310.814 34.7l.157.173-282.593.052h-.022l.204-.225-.015 180.036-.189-.209 282.615.209-282.615.208h-.189v-.208L28.153 34.7v-.224h.225l282.593.051h.157v.173l-.157 180.036" fill="#1A282B"/><path d="M311.133 45.491c0 .112-63.343.203-141.463.203-78.147 0-141.476-.09-141.476-.203 0-.113 63.33-.203 141.476-.203 78.12 0 141.463.09 141.463.203M37.537 38.82a1.826 1.826 0 11-3.652.001 1.826 1.826 0 013.652 0m5.571-.001a1.826 1.826 0 11-3.652.001 1.826 1.826 0 013.652 0m5.571-.001a1.826 1.826 0 11-3.653.001 1.826 1.826 0 013.653 0" fill="#1A282B"/><path fill="#C6DAFF" d="M47.118 198.886H105.4V142.5H47.12z"/><path d="M100.87 194.06H76.326l-24.447-.085v-.351l15.88-28.58 13.187 18.546 8.013-9.848 11.91 20.299.001.02m-18.5-30.465a4.194 4.194 0 110-8.389 4.194 4.194 0 010 8.389" fill="#2472FF"/><path d="M51.395 194.46v-.243c-.008-6.868-.018-14.335-.026-22.231l-.008-12.15-.001-6.278v-6.381a1.857 1.857 0 01-.063.059c-.002 0 .085-.087.172-.175.086-.087.173-.174.176-.174l-.003.005 21.088.016a9.84 9.84 0 001.011.521l-21.827.018v6.111l-.002 6.277-.007 12.15-.026 21.639-.242.436h24.689l10.915.038c4.304.028 7.698.05 10.043.063l2.664.03.69.013c.157.003.239.009.243.014.005.004-.068.009-.216.013l-.664.014-2.617.028-9.987.063-35.76.123-.242.001m49.486-.242a.988.988 0 01-.01-.158h.01l-.012-.02-.002-.054-.013-.657-.028-2.538-.062-9.576-.04-11.236.314-.015c-.016 4.304-.03 8.128-.04 11.402l-.062 9.523a6525.16 6525.16 0 00-.029 2.492l-.013.632a1.055 1.055 0 01-.013.205m-17.77-46.796c.248-.14.527-.31.83-.505l7.988.006.06.492-8.877.007" fill="#526079"/><path d="M76.326 194.06h-24.69l.243-.436v.351l24.447.085" fill="#6F2329"/><path fill="#2472FF" d="M113.48 155.207h39.452v-1.982H113.48z"/><path d="M166.643 161.739c0 .112-11.848.203-26.46.203-14.617 0-26.462-.09-26.462-.203 0-.113 11.845-.204 26.462-.204 14.612 0 26.46.091 26.46.204m0 5.532c0 .113-11.848.204-26.46.204-14.617 0-26.462-.091-26.462-.204 0-.112 11.845-.203 26.462-.203 14.612 0 26.46.091 26.46.203m0 5.533c0 .113-11.848.204-26.46.204-14.617 0-26.462-.091-26.462-.204 0-.112 11.845-.204 26.462-.204 14.612 0 26.46.092 26.46.204m0 5.533c0 .113-11.848.204-26.46.204-14.617 0-26.462-.091-26.462-.204 0-.113 11.845-.203 26.462-.203 14.612 0 26.46.09 26.46.203m0 5.533c0 .112-11.848.204-26.46.204-14.617 0-26.462-.092-26.462-.204 0-.112 11.845-.203 26.462-.203 14.612 0 26.46.09 26.46.203m-25.745 5.082c0 .112-6.084.203-13.588.203-7.506 0-13.589-.09-13.589-.203 0-.113 6.083-.203 13.589-.203 7.504 0 13.588.09 13.588.203" fill="#1A282B"/><path fill="#2472FF" d="M240.914 151.87h39.452v-1.982h-39.452z"/><path d="M294.077 158.402c0 .112-11.848.203-26.46.203-14.617 0-26.462-.091-26.462-.203 0-.112 11.845-.204 26.462-.204 14.612 0 26.46.092 26.46.204m0 5.532c0 .113-11.848.204-26.46.204-14.617 0-26.462-.09-26.462-.204 0-.112 11.845-.203 26.462-.203 14.612 0 26.46.091 26.46.203m0 5.534c0 .112-11.848.203-26.46.203-14.617 0-26.462-.09-26.462-.203 0-.113 11.845-.205 26.462-.205 14.612 0 26.46.092 26.46.205m0 5.532c0 .113-11.848.204-26.46.204-14.617 0-26.462-.091-26.462-.204 0-.112 11.845-.203 26.462-.203 14.612 0 26.46.091 26.46.203m0 5.533c0 .113-11.848.203-26.46.203-14.617 0-26.462-.09-26.462-.203 0-.112 11.845-.204 26.462-.204 14.612 0 26.46.092 26.46.204m-25.745 5.082c0 .112-6.085.204-13.589.204-7.505 0-13.588-.092-13.588-.204 0-.112 6.083-.204 13.588-.204 7.504 0 13.589.092 13.589.204m-35.568 15.179c0-.112.875-.204 1.954-.204l-.203.204v-.1l.001-.1.003-.193.011-.368c.011-.233.026-.444.044-.62.038-.354.088-.573.144-.573.056 0 .107.219.144.572.018.177.033.388.044.621l.011.368.003.193.001.1v.1l-.203.204c-1.079 0-1.954-.091-1.954-.204m-8.364 0c0-.112.935-.204 2.09-.204 1.155 0 2.092.092 2.092.204 0 .113-.937.204-2.092.204s-2.09-.091-2.09-.204m-8.366 0c0-.112.936-.204 2.09-.204 1.156 0 2.092.092 2.092.204 0 .113-.936.204-2.091.204-1.155 0-2.091-.091-2.091-.204m-8.366 0c0-.112.937-.204 2.092-.204s2.091.092 2.091.204c0 .113-.936.204-2.091.204-1.155 0-2.092-.091-2.092-.204m-8.364 0c0-.112.936-.204 2.09-.204 1.155 0 2.092.092 2.092.204 0 .113-.937.204-2.091.204-1.155 0-2.091-.091-2.091-.204m-8.366 0c0-.112.937-.204 2.09-.204 1.156 0 2.092.092 2.092.204 0 .113-.936.204-2.091.204-1.154 0-2.09-.091-2.09-.204m-8.367 0c0-.112.937-.204 2.093-.204 1.154 0 2.09.092 2.09.204 0 .113-.936.204-2.09.204-1.156 0-2.093-.091-2.093-.204m-6.136-1.954c.113 0 .203.876.203 1.954-.406-.406-.112-.113-.202-.204h.1l.099.002.194.003.367.012c.234.01.444.025.621.043.353.037.572.088.572.144 0 .056-.219.107-.572.144a10.88 10.88 0 01-.62.043l-.368.012-.194.003-.1.002h-.1l-.203-.204c0-1.078.091-1.954.203-1.954m0-8.074c.113 0 .203.904.203 2.018 0 1.116-.09 2.02-.203 2.02-.112 0-.203-.904-.203-2.02 0-1.114.091-2.018.203-2.018m0-8.073c.113 0 .203.904.203 2.018 0 1.115-.09 2.018-.203 2.018-.112 0-.203-.903-.203-2.018 0-1.114.091-2.018.203-2.018m0-8.073c.113 0 .203.903.203 2.017 0 1.116-.09 2.02-.203 2.02-.112 0-.203-.904-.203-2.02 0-1.114.091-2.018.203-2.018m0-8.074c.113 0 .203.904.203 2.02 0 1.114-.09 2.017-.203 2.017-.112 0-.203-.903-.203-2.018 0-1.115.091-2.019.203-2.019m0-8.073c.113 0 .203.903.203 2.017 0 1.116-.09 2.02-.203 2.02-.112 0-.203-.904-.203-2.02 0-1.114.091-2.017.203-2.017m0-8.074c.113 0 .203.904.203 2.018 0 1.116-.09 2.02-.203 2.02-.112 0-.203-.904-.203-2.02 0-1.114.091-2.018.203-2.018m1.954-5.99c0 .112-.875.203-1.954.203l.203-.203v.2l-.003.193-.012.367c-.011.234-.025.444-.044.621-.036.354-.088.572-.144.572-.056 0-.107-.218-.144-.572a10.257 10.257 0 01-.043-.62l-.012-.368-.004-.293v-.1c.09-.09-.204.203.203-.204 1.079 0 1.954.09 1.954.204m8.365 0c0 .112-.936.203-2.09.203-1.156 0-2.093-.091-2.093-.203 0-.113.937-.204 2.093-.204 1.154 0 2.09.09 2.09.204m8.365 0c0 .112-.936.203-2.09.203-1.155 0-2.092-.091-2.092-.203 0-.113.937-.204 2.092-.204 1.154 0 2.09.09 2.09.204m8.366 0c0 .112-.937.203-2.091.203-1.156 0-2.091-.091-2.091-.203 0-.113.935-.204 2.09-.204 1.155 0 2.092.09 2.092.204m8.365 0c0 .112-.937.203-2.091.203-1.155 0-2.092-.091-2.092-.203 0-.113.937-.204 2.092-.204 1.154 0 2.091.09 2.091.204m8.365 0c0 .112-.936.203-2.09.203-1.156 0-2.092-.091-2.092-.203 0-.113.936-.204 2.091-.204 1.155 0 2.09.09 2.09.204m8.367 0c0 .112-.937.203-2.092.203s-2.09-.091-2.09-.203c0-.113.935-.204 2.09-.204 1.155 0 2.092.09 2.092.204m6.136 1.953c-.112 0-.203-.875-.203-1.953.406.406.112.113.202.203h-.198l-.195-.004-.367-.012c-.234-.01-.444-.026-.62-.043-.354-.037-.573-.088-.573-.144 0-.057.219-.108.573-.145.176-.018.386-.033.62-.043l.367-.012.195-.003.098-.001h.1c.092.09-.202-.204.204.204 0 1.078-.09 1.953-.203 1.953m0 8.074c-.112 0-.203-.903-.203-2.019 0-1.114.09-2.018.203-2.018.112 0 .203.904.203 2.018 0 1.116-.09 2.02-.203 2.02m0 8.072c-.112 0-.203-.903-.203-2.018 0-1.115.09-2.018.203-2.018.112 0 .203.903.203 2.018 0 1.115-.09 2.018-.203 2.018m0 8.074c-.112 0-.203-.903-.203-2.018 0-1.115.09-2.019.203-2.019.112 0 .203.904.203 2.02 0 1.114-.09 2.017-.203 2.017m0 8.074c-.112 0-.203-.904-.203-2.019 0-1.114.09-2.018.203-2.018.112 0 .203.904.203 2.018 0 1.115-.09 2.02-.203 2.02m0 8.073c-.112 0-.203-.905-.203-2.019s.09-2.018.203-2.018c.112 0 .203.904.203 2.018 0 1.114-.09 2.018-.203 2.018m0 8.074c-.112 0-.203-.903-.203-2.018 0-1.115.09-2.019.203-2.019.112 0 .203.904.203 2.02 0 1.114-.09 2.017-.203 2.017" fill="#1A282B"/><path d="M216.834 90.717s-.01-.147-.016-.418l-.017-1.192-.036-4.53-.078-16.404.147.147c-9.94.012-22.717.025-36.614.04-.043.04.35-.353.185-.184v5.914l-.004 5.75-.01 10.877-.174-.173 26.315.085 7.567.047c.869.01 1.545.016 2.023.02.22.005.392.009.526.01.12.005.182.008.186.011a.87.87 0 01-.165.01c-.13.003-.295.007-.507.01l-1.988.022-7.529.047-26.428.085h-.172v-.174l-.011-10.876-.003-5.75v-5.915c-.168.166.228-.231.19-.19l36.613.04.146.001v.146c-.033 6.907-.06 12.553-.077 16.493-.016 1.934-.028 3.448-.038 4.499l-.015 1.165a7.78 7.78 0 01-.016.387" fill="#2472FF"/><path fill="#2472FF" d="M198.75 77.573l3.005 1.617-2.885 1.9-2.886 1.9-.24-7.034 3.006 1.617m15.44 10.892c0 .104-7.014.187-15.663.187-8.653 0-15.665-.083-15.665-.187 0-.102 7.012-.187 15.665-.187 8.649 0 15.663.085 15.663.187"/><path d="M183.408 88.465a.394.394 0 11-.79 0 .395.395 0 01.79 0" fill="#DE4D59"/><path fill="#2472FF" d="M225.062 72.794h39.451v-1.982h-39.45z"/><path d="M278.225 79.326c0 .113-11.848.204-26.46.204-14.616 0-26.463-.09-26.463-.204 0-.112 11.847-.203 26.464-.203 14.61 0 26.459.091 26.459.203m0 5.533c0 .113-11.848.204-26.46.204-14.616 0-26.463-.091-26.463-.204 0-.112 11.847-.204 26.464-.204 14.61 0 26.459.092 26.459.204" fill="#1A282B"/><path d="M216.834 123.834s-.01-.147-.016-.417l-.017-1.193-.036-4.531-.078-16.402.147.145-36.614.041c-.043.04.35-.354.185-.184v5.913l-.004 5.751-.01 10.877-.174-.173 26.315.085 7.567.046 2.023.022.526.01c.12.004.182.007.186.01a.846.846 0 01-.165.01l-.507.011-1.988.02-7.529.048-26.428.084-.172.001v-.174l-.011-10.877-.003-5.75v-5.914c-.168.165.228-.232.19-.19l36.613.04h.146v.148c-.033 6.906-.06 12.552-.077 16.492-.016 1.934-.028 3.447-.038 4.499l-.015 1.165a7.78 7.78 0 01-.016.387" fill="#2472FF"/><path fill="#2472FF" d="M198.75 110.69l3.005 1.617-2.885 1.9-2.886 1.901-.24-7.036 3.006 1.618m15.44 10.892c0 .103-7.014.187-15.663.187-8.653 0-15.665-.084-15.665-.187s7.012-.187 15.665-.187c8.649 0 15.663.084 15.663.187"/><path d="M183.408 121.582a.394.394 0 11-.789.001.394.394 0 01.789 0" fill="#DE4D59"/><path fill="#2472FF" d="M225.062 105.911h39.451v-1.981h-39.45z"/><path d="M278.225 112.443c0 .113-11.848.204-26.46.204-14.616 0-26.463-.091-26.463-.204 0-.112 11.847-.204 26.464-.204 14.61 0 26.459.092 26.459.204m0 5.533c0 .112-11.848.203-26.46.203-14.616 0-26.463-.09-26.463-.203 0-.113 11.847-.204 26.464-.204 14.61 0 26.459.091 26.459.204" fill="#1A282B"/><path d="M160.957 131.774c0-.103.805-.186 1.797-.186l-.187.186v-.092l.001-.09.003-.18.01-.337c.01-.216.024-.409.04-.571.035-.325.081-.526.133-.526.052 0 .099.2.132.526.018.162.031.355.04.571l.012.337.002.18.001.09v.092c-.083.084.188-.186-.187.187-.992 0-1.797-.084-1.797-.187m-7.168 0c0-.103.802-.186 1.792-.186s1.792.083 1.792.186-.802.187-1.792.187-1.792-.084-1.792-.187m-7.169 0c0-.103.803-.186 1.792-.186.99 0 1.792.083 1.792.186s-.802.187-1.792.187-1.792-.084-1.792-.187m-7.17 0c0-.103.804-.186 1.793-.186.99 0 1.793.083 1.793.186s-.803.187-1.793.187c-.99 0-1.792-.084-1.792-.187m-7.168 0c0-.103.802-.186 1.791-.186.99 0 1.793.083 1.793.186s-.802.187-1.793.187c-.99 0-1.791-.084-1.791-.187m-7.169 0c0-.103.802-.186 1.792-.186s1.792.083 1.792.186-.802.187-1.792.187-1.792-.084-1.792-.187m-7.169 0c0-.103.802-.186 1.792-.186s1.792.083 1.792.186-.802.187-1.792.187-1.792-.084-1.792-.187m-7.169 0c0-.103.803-.186 1.792-.186.99 0 1.793.083 1.793.186s-.803.187-1.793.187c-.99 0-1.792-.084-1.792-.187m-7.168 0c0-.103.802-.186 1.791-.186.99 0 1.793.083 1.793.186s-.802.187-1.793.187c-.99 0-1.791-.084-1.791-.187m-7.169 0c0-.103.802-.186 1.792-.186s1.792.083 1.792.186-.802.187-1.792.187-1.792-.084-1.792-.187m-7.169 0c0-.103.802-.186 1.792-.186s1.792.083 1.792.186-.802.187-1.792.187-1.792-.084-1.792-.187m-7.169 0c0-.103.803-.186 1.793-.186.99 0 1.791.083 1.791.186s-.802.187-1.791.187c-.99 0-1.793-.084-1.793-.187m-7.169 0c0-.103.803-.186 1.793-.186.99 0 1.792.083 1.792.186s-.803.187-1.792.187c-.99 0-1.793-.084-1.793-.187m-7.168 0c0-.103.802-.186 1.791-.186.99 0 1.793.083 1.793.186s-.802.187-1.793.187c-.99 0-1.791-.084-1.791-.187m-7.169 0c0-.103.802-.186 1.792-.186s1.792.083 1.792.186-.802.187-1.792.187-1.792-.084-1.792-.187m-7.169 0c0-.103.802-.186 1.792-.186s1.792.083 1.792.186-.802.187-1.792.187-1.792-.084-1.792-.187m-5.381-1.796c.103 0 .187.804.187 1.796-.374-.373-.103-.104-.187-.186h.184l.178.003.337.01c.216.01.409.024.571.041.325.034.526.08.526.132 0 .052-.2.099-.526.133a10.683 10.683 0 01-.908.05l-.178.004h-.184l-.187-.187c0-.992.084-1.796.187-1.796m0-7.056c.103 0 .187.79.187 1.764s-.084 1.764-.187 1.764-.187-.79-.187-1.764c0-.975.084-1.764.187-1.764m0-7.056c.103 0 .187.79.187 1.764s-.084 1.764-.187 1.764-.187-.79-.187-1.764.084-1.764.187-1.764m0-7.056c.103 0 .187.79.187 1.763 0 .975-.084 1.765-.187 1.765s-.187-.79-.187-1.765c0-.974.084-1.763.187-1.763m0-7.056c.103 0 .187.79.187 1.764s-.084 1.764-.187 1.764-.187-.79-.187-1.764.084-1.764.187-1.764m0-7.056c.103 0 .187.79.187 1.764s-.084 1.764-.187 1.764-.187-.79-.187-1.764.084-1.764.187-1.764m0-7.056c.103 0 .187.79.187 1.764 0 .975-.084 1.764-.187 1.764s-.187-.79-.187-1.764.084-1.764.187-1.764m0-7.056c.103 0 .187.79.187 1.764s-.084 1.764-.187 1.764-.187-.79-.187-1.764.084-1.764.187-1.764m0-7.056c.103 0 .187.79.187 1.764 0 .975-.084 1.765-.187 1.765s-.187-.79-.187-1.765c0-.974.084-1.764.187-1.764m0-7.056c.103 0 .187.79.187 1.765 0 .974-.084 1.763-.187 1.763s-.187-.79-.187-1.763c0-.975.084-1.765.187-1.765m1.796-5.324c0 .103-.804.187-1.796.187l.187-.187v.183l-.003.179-.012.337c-.01.215-.023.409-.04.571-.034.325-.08.526-.132.526-.052 0-.098-.201-.133-.526a10.684 10.684 0 01-.05-.908l-.003-.179-.001-.09v-.093l.187-.187c.992 0 1.796.084 1.796.186m7.169.001c0 .103-.802.187-1.791.187-.99 0-1.793-.084-1.793-.188 0-.102.802-.186 1.793-.186.99 0 1.791.084 1.791.186m7.169.001c0 .103-.802.187-1.792.187s-1.792-.084-1.792-.188c0-.102.802-.186 1.792-.186s1.792.084 1.792.186m7.169.001c0 .103-.802.187-1.793.187-.99 0-1.791-.084-1.791-.188 0-.102.802-.186 1.791-.186.99 0 1.793.084 1.793.186m7.169.001c0 .103-.803.187-1.792.187-.99 0-1.793-.084-1.793-.188 0-.102.803-.186 1.793-.186.99 0 1.792.084 1.792.186m7.168.001c0 .103-.802.187-1.791.187-.99 0-1.793-.084-1.793-.188 0-.102.802-.186 1.793-.186.99 0 1.791.084 1.791.186m7.169.001c0 .103-.802.187-1.792.187s-1.792-.084-1.792-.188c0-.102.802-.186 1.792-.186s1.792.084 1.792.186m7.169.001c0 .103-.802.187-1.792.187s-1.792-.084-1.792-.188c0-.102.802-.186 1.792-.186s1.792.084 1.792.186m7.169.001c0 .103-.803.187-1.793.187-.99 0-1.791-.084-1.791-.188 0-.102.802-.186 1.791-.186.99 0 1.793.084 1.793.186m7.168.001c0 .103-.802.187-1.792.187s-1.792-.084-1.792-.188c0-.102.803-.186 1.792-.186.99 0 1.793.084 1.793.186m7.169.001c0 .103-.803.187-1.792.187-.99 0-1.793-.084-1.793-.188 0-.102.802-.186 1.793-.186.99 0 1.791.084 1.791.186m7.169.001c0 .103-.802.187-1.792.187s-1.792-.084-1.792-.188c0-.102.802-.186 1.792-.186s1.792.084 1.792.186m7.169.001c0 .103-.802.187-1.792.187s-1.792-.084-1.792-.188c0-.102.802-.186 1.792-.186s1.792.084 1.792.186m7.169.001c0 .103-.803.187-1.793.187-.99 0-1.792-.084-1.792-.188 0-.102.803-.186 1.792-.186.99 0 1.793.084 1.793.186m7.168.001c0 .103-.802.187-1.792.187s-1.792-.084-1.792-.188c0-.102.802-.186 1.792-.186s1.792.084 1.792.186m7.169.001c0 .103-.802.187-1.792.187s-1.792-.084-1.792-.188c0-.102.802-.186 1.792-.186s1.792.084 1.792.186m5.381 1.797c-.103 0-.187-.804-.187-1.797.374.374.103.105.186.188h-.182l-.18-.004-.336-.011a9.381 9.381 0 01-.57-.04c-.326-.033-.528-.08-.528-.133 0-.051.202-.098.527-.132a10.707 10.707 0 01.908-.05l.179-.004h.182c.084.083-.186-.187.188.186 0 .993-.083 1.797-.187 1.797m0 7.056c-.103 0-.187-.79-.187-1.763 0-.975.084-1.765.187-1.765.104 0 .187.79.187 1.765 0 .974-.083 1.763-.187 1.763m0 7.057c-.103 0-.187-.79-.187-1.765 0-.974.084-1.764.187-1.764.104 0 .187.79.187 1.764s-.083 1.765-.187 1.765m0 7.055c-.103 0-.187-.79-.187-1.763 0-.975.084-1.765.187-1.765.104 0 .187.79.187 1.765 0 .973-.083 1.763-.187 1.763m0 7.056c-.103 0-.187-.79-.187-1.764s.084-1.764.187-1.764c.104 0 .187.79.187 1.764 0 .975-.083 1.764-.187 1.764m0 7.056c-.103 0-.187-.79-.187-1.764s.084-1.764.187-1.764c.104 0 .187.79.187 1.764s-.083 1.764-.187 1.764m0 7.056c-.103 0-.187-.79-.187-1.764s.084-1.764.187-1.764c.104 0 .187.79.187 1.764s-.083 1.764-.187 1.764m0 7.056c-.103 0-.187-.79-.187-1.764 0-.975.084-1.764.187-1.764.104 0 .187.79.187 1.764s-.083 1.764-.187 1.764m0 7.056c-.103 0-.187-.79-.187-1.764 0-.975.084-1.764.187-1.764.104 0 .187.789.187 1.764 0 .974-.083 1.764-.187 1.764m0 7.056c-.103 0-.187-.79-.187-1.764 0-.975.084-1.764.187-1.764.104 0 .187.79.187 1.764s-.083 1.764-.187 1.764" fill="#DFDFDA"/><path d="M154.474 131.222l-111.472 6.115a1.534 1.534 0 01-1.616-1.449l-3.7-67.453a1.534 1.534 0 011.448-1.616l111.472-6.114a1.535 1.535 0 011.617 1.448l3.7 67.453a1.535 1.535 0 01-1.45 1.616" fill="#2472FF"/><path fill="#FFFFFE" d="M97.61 91.855l9.677 4.543-17.4 12.88-1.954-21.966 9.678 4.543m49.738 32.693c.005.103-21.929 1.39-48.985 2.874-27.065 1.485-49.003 2.604-49.01 2.501-.005-.103 21.924-1.39 48.99-2.875 27.056-1.483 48.999-2.603 49.005-2.5"/><path d="M51.064 129.83a1.236 1.236 0 11-2.468.136 1.236 1.236 0 012.468-.136" fill="#FFFFFE"/><path fill="#ADAEAA" d="M155.335 118.89L152.62 69.4l.693 2.804.68 6.74 1.342 39.945"/><path fill="#2472FF" d="M120.544 277.022l.956 22.527 12.163-.272-.91-22.572-12.21.317"/><path d="M127.472 298.565c.102-.005-.087-4.938-.42-11.017-.335-6.08-.689-11.003-.79-10.997-.101.006.087 4.937.421 11.018.335 6.078.688 11.001.79 10.996" fill="#1A282B"/><path fill="#DFDFDA" d="M121.434 297.996l12.165-.312.064 1.593-12.163.272-.066-1.553"/><path d="M133.372 292.063c.018-.015-.095-.19-.334-.478a8.438 8.438 0 00-1.137-1.108 8.27 8.27 0 00-2.023-1.225 6.414 6.414 0 00-2.863-.524c-2.102.101-3.821 1.213-4.643 2.279a5.583 5.583 0 00-.828 1.363c-.14.35-.189.551-.168.56.068.033.324-.777 1.193-1.754.84-.978 2.473-1.982 4.467-2.08 1.988-.104 3.673.823 4.706 1.587 1.056.782 1.581 1.424 1.63 1.38" fill="#1A282B"/><path d="M120.918 285.83l-.08-1.87 5.638-.385c.034.687.07 1.408.109 2.153l-5.667.102m6.03-.108a743.99 743.99 0 00-.13-2.17l6.193-.423.003.058.098 2.424-6.164.11" fill="#AB363E"/><path d="M126.585 285.728c-.04-.745-.075-1.466-.109-2.153l.343-.023.13 2.17-.364.006" fill="#111819"/><path d="M91.122 277.61l.61 14.093s-14.12 5.352-14.26 7.969l27.367-.203-.05-21.997-13.667.137" fill="#2472FF"/><path d="M100.004 290.506c.534.142.907.739.788 1.278-.12.54-.725.925-1.262.793-.536-.133-1.006-.836-.826-1.359.179-.523.913-.936 1.402-.678m4.733 8.928l-.005-2.203-26.48 1s-1.223.543-1.078 1.407l27.563-.204" fill="#DFDFDA"/><path d="M91.484 291.794c.005.134.678.19 1.345.618.676.41 1.022.991 1.144.937.125-.027-.082-.83-.897-1.335-.81-.51-1.622-.344-1.592-.22m-2.882 1.216c-.03.131.555.356 1.015.921.478.553.598 1.167.733 1.161.126.02.213-.769-.373-1.462-.581-.697-1.373-.748-1.375-.62m-1.617 3.473c.123.028.305-.646-.046-1.381-.346-.737-.983-1.023-1.038-.91-.076.11.336.503.615 1.111.293.6.336 1.168.47 1.18m4.716-7.94c.033.07.248.039.567.007.241-.024.54-.048.868-.028.762.03 1.356.281 1.425.166.078-.098-.504-.593-1.401-.634-.897-.05-1.525.384-1.459.49m-.512-3.034c-.002.056.531.135 1.38-.017a6.2 6.2 0 001.44-.454c.261-.119.527-.26.79-.426.127-.084.277-.166.415-.328.148-.142.23-.5.056-.717a.74.74 0 00-.592-.303 1.804 1.804 0 00-.517.075 4.873 4.873 0 00-2.123 1.146c-.635.597-.85 1.101-.803 1.126.061.045.37-.378 1.016-.873.323-.245.735-.5 1.226-.702.246-.1.51-.187.792-.251.29-.078.54-.082.615.047.027.05.031.069-.029.154-.063.08-.18.158-.305.24a7.192 7.192 0 01-.726.422c-.48.242-.938.408-1.331.522-.788.226-1.307.267-1.305.34" fill="#1A282B"/><path d="M91.367 285.702c.047.02.31-.463.353-1.336a4.48 4.48 0 00-.557-2.345c-.164-.272-.363-.635-.886-.69-.272-.01-.497.205-.573.388-.09.188-.107.348-.138.507a3.182 3.182 0 00.605 2.352c.545.71 1.107.867 1.119.82.044-.067-.427-.323-.844-1.006a3.183 3.183 0 01-.446-1.294 2.843 2.843 0 01.02-.798c.04-.293.149-.53.258-.501.137-.003.371.215.486.448.143.246.258.498.348.746.176.497.255.973.277 1.375.044.81-.096 1.314-.022 1.334" fill="#1A282B"/><path fill="#ADAEAA" d="M104.815 289.04l-.007-3.114.035-.004-.028 3.118"/><path d="M104.815 289.05H91.617v-1.719l13.19-1.405.008 3.114v.01m-11.926-.536c.08 0 .164.003.248.008.62.025 1.13.196 1.335.196.047 0 .077-.01.09-.03.078-.098-.504-.593-1.401-.634a2.34 2.34 0 00-.141-.004c-.821 0-1.38.394-1.318.493.015.031.065.043.143.043.1 0 .245-.018.424-.036s.39-.036.62-.036" fill="#365158"/><path d="M94.472 288.718c-.205 0-.714-.171-1.335-.196a4.165 4.165 0 00-.248-.008c-.23 0-.441.018-.62.036s-.324.036-.424.036c-.078 0-.128-.012-.143-.043-.062-.099.497-.493 1.318-.493.046 0 .093.002.14.004.898.041 1.48.536 1.402.634-.013.02-.043.03-.09.03" fill="#111819"/><path d="M145.816 63.324c-.306.034-1.109 3.117-1.499 4.688-.142.575-.06 1.18.232 1.696l3.17 5.608a6.614 6.614 0 002.484 2.494l1.59.905.204 3.334 8.92.14-2.718-10.402-1.133-6.349a2.116 2.116 0 00-1.598-1.185l-.837-.126-.319-.802a1.408 1.408 0 00-1.132-.877l-.52-.066-.732-1.804a1.566 1.566 0 00-1.472-.976l-4.32.057s-.95 1.282 1.225 1.88c1.066.292 1.853.232 1.853.232l1.006 3.888s.71 4.083-1.199 4.08c-1.68-.004-1.841-2.192-1.841-2.192s.834-4.47-1.364-4.223" fill="#F2B499"/><path d="M154.673 67.219c-.03.001-.007-.326-.169-.81-.155-.498-.536-1.072-1.213-1.546-.37-.749-.543-1.422-.67-1.936-.111-.511-.11-.837-.093-.837.024-.003.06.316.197.812.139.48.36 1.201.682 1.865.133.118.29.229.436.361a2.727 2.727 0 01.763 1.25c.071.254.09.468.09.615 0 .146-.015.226-.023.226m1.36-.751c-.016-.003 0-.173-.132-.408a1.057 1.057 0 00-.828-.538l-.046-.004-.016-.045-.052-.14c-.319-.877-.547-1.599-.508-1.613.039-.014.33.685.649 1.562l.051.14-.061-.048c.464.047.802.372.902.642.12.27.062.463.04.452m-6.818-4.697c-.032.03-.195-.192-.153-.496.038-.295.187-.49.222-.468.036.02-.041.228-.073.486-.037.258.04.456.004.478" fill="#EB916B"/><path d="M103.526 102.21l16.176-.209-1.806-13.773s1.106-.236 1.18-6.228c.074-5.993.349-16.174.349-16.174a20.83 20.83 0 00-20.927 2.63l-.887.684 5.915 33.07" fill="#F2B499"/><path d="M99.489 76.51c-.103-.044-4.118-1.218-3.987 2.879.13 4.096 4.217 3.12 4.22 3.003.003-.118-.233-5.882-.233-5.882m19.241-.856c.101-.043 3.753-1.028 3.622 3.069-.13 4.096-4.216 3.12-4.22 3.002-.004-.118.597-6.07.597-6.07" fill="#F2B499"/><path d="M123.327 63.82c.064-.742-.213-1.54-.817-1.976-.605-.436-1.542-.408-2.033.152.281-1-.537-2.155-1.574-2.22-.977-.062-1.811.676-2.755.935-.922.252-1.911.034-2.798-.323-.886-.357-1.716-.85-2.614-1.178a7.751 7.751 0 00-5.825.234 7.754 7.754 0 00-3.975 4.266c-1.31-.41-2.8.255-3.608 1.365-.808 1.11-1.015 2.568-.854 3.932.108.921.375 1.812.685 2.689 0 .077-.008.152-.007.23.063 3.294 1.78 13.708 3.186 13.73 2.45.037.521-11.123.521-11.123 3.007-1.162 1.887-5.667 2.639-6.35.751-.684 2.325-2.272 8.62.946 2.444 1.25 5.695 1.21 7.47.807l.156-.031.037-.007.051-.022a5.662 5.662 0 001.615-.685c.57-.36 1.088-.849 1.33-1.479.242-.63.152-1.417-.343-1.876.465-.583.828-1.273.893-2.015" fill="#1A282B"/><path d="M98.16 76.053c.612 3.432.492 5.236 1.058 7.529.896 3.628 2.698 6.41 5.966 8.222 3.27 1.812 7.69 1.78 10.499-.687 1.948-1.712 3.329-3.646 3.618-6.224.288-2.578.578-7.141.597-9.735.033-4.677.346-9.149.346-9.149l-13.363-2.417-7.604 4.521-1.116 7.94m13.783 17.821c.02.094-1.03.355-2.342.206-1.311-.141-2.28-.624-2.24-.712.039-.103 1.027.207 2.281.34 1.254.143 2.286.056 2.3.166" fill="#1A282B"/><path d="M115.42 62.99s-.216.097-.635.117c-.418.019-1.035-.074-1.71-.398-.687-.308-1.39-.865-2.166-1.452-.77-.588-1.703-1.17-2.822-1.302-1.106-.148-2.196.073-3.043.531a4.984 4.984 0 00-1.855 1.737c-.779 1.262-.749 2.243-.794 2.224 0 0-.01-.232.066-.642.08-.407.25-.997.639-1.639.386-.635 1-1.327 1.878-1.8.87-.48 1.991-.711 3.129-.559 1.153.135 2.118.743 2.885 1.34.777.597 1.461 1.152 2.128 1.466.657.33 1.255.437 1.664.436.41-.002.632-.075.636-.058m-12.837 1.687c-.015.03-.342-.217-.96-.359-.604-.146-1.54-.135-2.362.37-.82.513-1.244 1.346-1.382 1.951-.147.617-.073 1.02-.104 1.02-.009.001-.033-.096-.05-.276a2.752 2.752 0 01.051-.767 3.184 3.184 0 011.406-2.055 3.187 3.187 0 012.466-.346c.315.086.555.2.708.295.155.095.231.16.227.167m-.396 14.609c-.095.041-.597-.899-1.12-2.1-.525-1.201-.873-2.209-.778-2.25.094-.04.596.898 1.12 2.1.524 1.201.873 2.209.778 2.25m3.501 2.353c-.054.079-1.073-.626-1.892-1.89-.827-1.257-1.063-2.474-.969-2.492.107-.033.49 1.087 1.282 2.287.78 1.209 1.653 2.01 1.58 2.095m3.455.757c-.053.086-.814-.298-1.6-.986-.788-.685-1.27-1.387-1.194-1.45.081-.07.677.504 1.44 1.168.762.667 1.411 1.18 1.354 1.268m6.1-5.552c.097.005.088.965-.361 2.041-.444 1.08-1.116 1.764-1.188 1.699-.087-.068.423-.82.841-1.842.428-1.019.6-1.911.708-1.898m2.07-3.236c.095-.008.194 1.158-.236 2.511-.42 1.357-1.168 2.257-1.242 2.196-.093-.061.485-1.014.884-2.308.412-1.29.483-2.402.594-2.4" fill="#365158"/><path d="M118.901 65.328s-.161.185-.535.414c-.37.23-.975.474-1.76.542-.78.075-1.73-.049-2.698-.415-.974-.353-1.961-.918-2.994-1.493-1.033-.573-2.05-1.07-3.04-1.31-.988-.255-1.928-.212-2.661.012-.739.219-1.263.588-1.562.894-.304.306-.42.52-.434.51 0 0 .097-.226.393-.55.29-.325.82-.718 1.572-.954.746-.244 1.716-.298 2.724-.046 1.012.237 2.045.739 3.08 1.313 1.036.576 2.014 1.14 2.97 1.495.952.368 1.876.499 2.642.438 1.568-.109 2.295-.9 2.303-.85m1.189 1.942c.005.01-.072.06-.217.145a5.4 5.4 0 01-.637.314 7.677 7.677 0 01-4.608.42 5.388 5.388 0 01-.684-.192c-.157-.057-.243-.093-.24-.103.009-.025.36.088.944.191.583.107 1.403.18 2.302.1a8.765 8.765 0 002.246-.515c.556-.208.881-.383.894-.36" fill="#365158"/><path fill="#1A282B" d="M112.642 191.094l3.934 37.921 2.824 57.108h15.07l.408-121.544-43.147 3.076-8.94 63.771 7.743 55.814h16.535l-3.872-53.07 9.445-43.076"/><path d="M112.642 191.094c.069.078-1.244 1.372-2.932 2.891-1.689 1.52-3.113 2.69-3.182 2.614-.07-.077 1.243-1.372 2.931-2.892 1.689-1.52 3.113-2.69 3.183-2.613m-.043-.758c-.103-.009-.017-2.184.079-4.869.103-2.683.178-4.859.281-4.86.104-.002.197 2.183.092 4.875-.095 2.69-.349 4.863-.452 4.854m4.982-14.154c-.007-.005.076-.015.242-.027l.744-.044 2.86-.14 10.217-.426.174-.008v.176l.019 10.607v.332l-.118.046c-2.314.928-4.546 1.82-6.647 2.663l-.061.025-.063-.022-5.877-2.042-.091-.03-.012-.095-1.044-8.046-.27-2.212c-.059-.505-.086-.767-.073-.757.006.005.022.079.047.216l.1.598c.09.557.207 1.305.355 2.239l1.194 7.918-.104-.126 5.89 2-.123.002 6.64-2.678-.118.174v-.205l.018-10.607.175.169-10.106.25-2.903.053-.781.006a1.74 1.74 0 01-.284-.01m-21.754.185c-.007-.005.068-.013.218-.022l.67-.029 2.585-.08 9.32-.216.17-.005-.005.173-.341 10.642-.003.097-.082.053-1.078.704-5.464 3.563-.096.062-.096-.06-6.155-3.748-.078-.048.003-.09.282-8.034.095-2.208c.025-.504.043-.765.055-.754.006.006.01.08.012.217l.003.6-.016 2.244-.12 7.943-.075-.137 6.18 3.707-.191.004 5.456-3.574 1.079-.705-.085.15c.142-3.863.274-7.49.388-10.638l.166.169-9.219.05-2.622-.005-.702-.01a1.413 1.413 0 01-.254-.015m34.395 17.18c-.005.05-.786.029-2.043-.065a93.842 93.842 0 01-4.9-.512 94.669 94.669 0 01-4.868-.755c-1.24-.23-2-.41-1.991-.46.009-.051.784.035 2.032.198l4.876.646 4.878.62c1.248.16 2.02.274 2.016.328m-.35 42.27c.015.008-.062.219-.357.479-.292.253-.834.523-1.541.523-.71.024-1.537-.302-2.251-.864-.724-.563-1.376-1.3-2.052-2.075a28.344 28.344 0 01-3.052-4.294c-.67-1.172-.995-1.94-.953-1.961.05-.026.458.697 1.18 1.824a37.782 37.782 0 003.109 4.187c.668.767 1.31 1.506 1.98 2.048.67.545 1.399.858 2.043.87a2.407 2.407 0 001.45-.375c.298-.204.417-.382.444-.362m-29.763 1.331c.017.007-.025.194-.203.484-.177.29-.514.673-1.043.99a3.974 3.974 0 01-2.067.544c-.822-.008-1.701-.296-2.49-.79-1.597-1.014-2.458-2.532-2.998-3.572-.53-1.068-.786-1.756-.745-1.777.052-.026.394.627.978 1.65.593 1.001 1.464 2.434 2.964 3.381.74.465 1.551.737 2.3.763a3.914 3.914 0 001.93-.43c1.03-.541 1.314-1.29 1.374-1.243m.961-5.721c.02.036-.422.366-1.238.72-.813.355-2.016.693-3.378.753-1.364.054-2.59-.185-3.43-.472-.842-.285-1.312-.577-1.293-.615.035-.118 2.05.843 4.707.712 2.658-.089 4.587-1.212 4.631-1.098m49.047-133.833h-21.973s-2.985-1.719-4.43-1.43c-1.443.289-2.695 1.83-2.695 1.83l2.906 24.21 7.117-5.267 26.489-2.76a8.426 8.426 0 008.287-9.425l-4.9-26.036-10.051.332-.397 6.608-.353 11.938m-60.486 6.102s-3.554 1.961-5.306 6.168c-1.282 3.074-10.032 18.436-14.643 26.474a7.595 7.595 0 001.1 9.032c2.801 2.931 7.502 3.732 11.591 2.402 1.834-.597 9.169-6.556 9.169-6.556l-1.91-37.52" fill="#365158"/><path fill="#365158" d="M93.452 158.595l-5.036-43.347 1.214-11.553 12.825-5.465 16.61-1.088 15.817 1.742-3.7 44.46 4.048 25.074-44.3 2.003 2.522-11.826"/><path d="M93.43 158.41c-.103.011-1.309-9.642-2.693-21.56-1.386-11.921-2.425-21.592-2.322-21.604.103-.012 1.309 9.64 2.694 21.561 1.384 11.917 2.424 21.59 2.321 21.603m41.127-49.8c.012.003.009.137-.01.392l-.1 1.114-.417 4.087c-.35 3.5-.827 8.243-1.353 13.485a696.45 696.45 0 00-1.168 13.503l-.295 4.096-.09 1.114c-.024.255-.043.389-.056.388-.012 0-.019-.135-.019-.391l.02-1.118c.018-.97.085-2.373.176-4.106.19-3.467.557-8.248 1.06-13.521a508.07 508.07 0 011.463-13.48c.213-1.722.395-3.115.534-4.075l.17-1.105c.044-.252.072-.384.085-.382m-7.622 43.156c.019.016-.231.32-.702.857a9.997 9.997 0 01-.9.939c-.37.345-.772.765-1.28 1.155-.492.409-1.036.85-1.666 1.264-.605.449-1.307.843-2.035 1.275a27.548 27.548 0 01-5.067 2.136 27.463 27.463 0 01-5.41.99c-.845.039-1.649.094-2.401.05a18.247 18.247 0 01-2.087-.144c-.638-.047-1.204-.178-1.703-.265-.502-.08-.924-.19-1.267-.29-.688-.192-1.064-.309-1.057-.333.02-.084 1.533.39 4.054.624.63.056 1.32.11 2.065.098.743.03 1.535-.037 2.37-.083a28.704 28.704 0 005.33-1.006 28.834 28.834 0 005.007-2.08c.723-.418 1.422-.796 2.027-1.229a19.624 19.624 0 001.674-1.213c1.979-1.579 2.985-2.804 3.048-2.745" fill="#1A282B"/><path d="M108.496 160.47c-.429 0-.856-.014-1.283-.04.086.002.173.003.26.003.198.012.399.016.603.016.574 0 1.175-.037 1.799-.065a27.64 27.64 0 005.098-.902 21.996 21.996 0 01-6.477.987m-.624-.339c-.133 0-.264-.002-.393-.007l-.22.001c-.66 0-1.277-.05-1.845-.099a28.97 28.97 0 01-2.307-.309c-1.759-.743-1.815-2.563-1.04-3.38.623-.655 1.541-.88 2.465-.88.31 0 .62.025.922.068 1.085.157 2.158.497 3.248.497.11 0 .22-.004.33-.011 1.97-.133 3.623-1.504 4.99-2.929 1.368-1.425 2.667-3.016 4.465-3.833a5.026 5.026 0 012.055-.438c1.308 0 2.577.516 3.192 1.641.601 1.102.411 2.51-.215 3.598-.485.841-1.193 1.521-1.97 2.112-.432.266-.892.52-1.363.794a28.834 28.834 0 01-5.008 2.08 28.756 28.756 0 01-5.33 1.005c-.688.038-1.349.09-1.976.09" fill="#233639"/><path d="M108.076 160.45c-.204 0-.405-.005-.602-.017-.088 0-.175-.001-.261-.003a20.145 20.145 0 01-3.699-.57 3.688 3.688 0 01-.407-.144c.624.11 1.4.224 2.307.31.568.049 1.185.098 1.845.098l.22-.001c.129.005.26.007.393.007.627 0 1.288-.052 1.976-.09a28.704 28.704 0 005.33-1.006 28.834 28.834 0 005.008-2.08c.47-.272.931-.527 1.363-.793-.228.174-.462.34-.698.5a22.058 22.058 0 01-5.878 2.82 27.64 27.64 0 01-5.098.903c-.624.028-1.225.065-1.8.065" fill="#111819"/><path d="M82.372 142.025s3.63-4.684 3.73-5.201c0 0 3.237-4.423 4.001-5.48.2 1.759.413 3.603.634 5.507l.025.21c-.55.45-1.79 1.43-2.688 1.893a244.8 244.8 0 00-5.702 3.07" fill="#293E43"/><path d="M90.762 137.062c-.01-.07-.017-.141-.025-.211-.221-1.904-.433-3.748-.634-5.506.007-.01.013-.02.02-.028.037.244.076.472.115.682.245 1.31.804 4.83.804 4.83s-.105.09-.28.233" fill="#141D1F"/><path d="M90.007 130.494a67.234 67.234 0 01-.227-2.007l.227 2.007" fill="#293E43"/><path d="M90.123 131.317c-.04-.258-.079-.534-.116-.823l-.227-2.007c-.292-2.93-.47-6.089-.47-6.089l.921 8.768-.108.151" fill="#141D1F"/><path d="M129.714 98.477c.016-.091 1.657.576 2.882 2.293 1.244 1.704 1.36 3.472 1.268 3.459-.115.03-.388-1.625-1.572-3.24-1.159-1.632-2.642-2.413-2.578-2.512m-39.483 32.689c.043.03-.374.697-1.082 1.749a168.74 168.74 0 01-2.842 4.062c-2.26 3.135-4.194 5.642-4.334 5.499l1.16-1.679 2.87-4.04a235.4 235.4 0 012.93-3.996c.764-1.012 1.256-1.625 1.298-1.595" fill="#1A282B"/></g></svg>