<svg width="318" height="333" xmlns="http://www.w3.org/2000/svg" xmlns:xlink="http://www.w3.org/1999/xlink"><defs><path id="a" d="M.045.372h317.559v118.216H.045z"/><path id="c" d="M.506.12h23.701v39.585H.507z"/><path id="e" d="M.573.602h18.495v15.103H.573z"/></defs><g fill="none" fill-rule="evenodd"><path d="M314.124 274.729c0-.107.336-.195.75-.195l-.195.195v-.039l.002-.038.002-.074.011-.141c.01-.09.024-.17.042-.238.035-.136.084-.22.138-.22.054 0 .103.084.138.22.017.068.032.149.043.238l.01.141.003.074.001.038v.039c-.087.088.196-.195-.195.196-.414 0-.75-.088-.75-.196m-2.973 0c0-.107.333-.195.743-.195.411 0 .743.088.743.195 0 .108-.332.196-.743.196-.41 0-.743-.088-.743-.196m-2.973 0c0-.107.333-.195.743-.195.411 0 .743.088.743.195 0 .108-.332.196-.743.196-.41 0-.743-.088-.743-.196m-2.973 0c0-.107.332-.195.743-.195.41 0 .744.088.744.195 0 .108-.334.196-.744.196s-.743-.088-.743-.196m-2.973 0c0-.107.332-.195.743-.195.41 0 .743.088.743.195 0 .108-.333.196-.743.196s-.743-.088-.743-.196m-2.973 0c0-.107.332-.195.743-.195.41 0 .743.088.743.195 0 .108-.332.196-.743.196-.41 0-.743-.088-.743-.196m-2.974 0c0-.107.334-.195.743-.195.411 0 .744.088.744.195 0 .108-.332.196-.743.196-.41 0-.744-.088-.744-.196m-2.973 0c0-.107.334-.195.744-.195s.744.088.744.195c0 .108-.334.196-.744.196s-.744-.088-.744-.196m-2.972 0c0-.107.332-.195.743-.195.41 0 .743.088.743.195 0 .108-.333.196-.743.196s-.744-.088-.744-.196m-2.972 0c0-.107.332-.195.743-.195.41 0 .743.088.743.195 0 .108-.332.196-.743.196-.41 0-.743-.088-.743-.196m-2.974 0c0-.107.333-.195.744-.195.41 0 .743.088.743.195 0 .108-.332.196-.743.196-.41 0-.744-.088-.744-.196m-2.973 0c0-.107.333-.195.743-.195s.744.088.744.195c0 .108-.333.196-.743.196s-.744-.088-.744-.196m-2.973 0c0-.107.332-.195.743-.195.41 0 .744.088.744.195 0 .108-.333.196-.744.196-.41 0-.743-.088-.743-.196m-2.973 0c0-.107.333-.195.743-.195s.744.088.744.195c0 .108-.333.196-.744.196-.41 0-.743-.088-.743-.196m-2.974 0c0-.107.334-.195.745-.195.41 0 .743.088.743.195 0 .108-.333.196-.743.196s-.745-.088-.745-.196m-2.973 0c0-.107.334-.195.745-.195.41 0 .743.088.743.195 0 .108-.333.196-.743.196s-.745-.088-.745-.196m-2.972 0c0-.107.332-.195.743-.195.41 0 .744.088.744.195 0 .108-.333.196-.743.196-.411 0-.744-.088-.744-.196m-2.973 0c0-.107.332-.195.743-.195.41 0 .743.088.743.195 0 .108-.332.196-.743.196-.41 0-.743-.088-.743-.196m-2.972 0c0-.107.332-.195.742-.195s.743.088.743.195c0 .108-.332.196-.743.196-.41 0-.743-.088-.743-.196m-2.974 0c0-.107.334-.195.744-.195s.743.088.743.195c0 .108-.332.196-.743.196-.41 0-.744-.088-.744-.196m-2.973 0c0-.107.333-.195.744-.195.41 0 .744.088.744.195 0 .108-.334.196-.744.196-.411 0-.744-.088-.744-.196m-2.972 0c0-.107.333-.195.743-.195s.743.088.743.195c0 .108-.333.196-.743.196s-.743-.088-.743-.196m-2.974 0c0-.107.333-.195.744-.195.41 0 .743.088.743.195 0 .108-.333.196-.743.196s-.744-.088-.744-.196m-2.972 0c0-.107.333-.195.743-.195s.743.088.743.195c0 .108-.332.196-.743.196-.41 0-.743-.088-.743-.196m-2.974 0c0-.107.333-.195.744-.195.41 0 .743.088.743.195 0 .108-.333.196-.743.196-.411 0-.744-.088-.744-.196m-2.972 0c0-.107.332-.195.743-.195.41 0 .742.088.742.195 0 .108-.332.196-.742.196-.411 0-.743-.088-.743-.196m-2.973 0c0-.107.332-.195.742-.195.411 0 .743.088.743.195 0 .108-.332.196-.743.196-.41 0-.743-.088-.743-.196m-2.974 0c0-.107.334-.195.744-.195.411 0 .744.088.744.195 0 .108-.333.196-.744.196-.41 0-.743-.088-.743-.196m-2.973 0c0-.107.334-.195.743-.195.411 0 .744.088.744.195 0 .108-.333.196-.744.196-.41 0-.743-.088-.743-.196m-2.973 0c0-.107.333-.195.744-.195.41 0 .743.088.743.195 0 .108-.334.196-.743.196-.411 0-.744-.088-.744-.196m-2.973 0c0-.107.333-.195.743-.195.411 0 .743.088.743.195 0 .108-.332.196-.743.196-.41 0-.743-.088-.743-.196m-2.973 0c0-.107.333-.195.743-.195.411 0 .743.088.743.195 0 .108-.332.196-.743.196-.41 0-.743-.088-.743-.196m-2.973 0c0-.107.333-.195.743-.195.411 0 .743.088.743.195 0 .108-.332.196-.743.196-.41 0-.743-.088-.743-.196m-2.973 0c0-.107.332-.195.743-.195.41 0 .743.088.743.195 0 .108-.333.196-.743.196-.411 0-.743-.088-.743-.196m-2.973 0c0-.107.332-.195.743-.195.41 0 .743.088.743.195 0 .108-.333.196-.743.196-.411 0-.743-.088-.743-.196m-2.973 0c0-.107.333-.195.742-.195.411 0 .744.088.744.195 0 .108-.333.196-.744.196-.41 0-.742-.088-.742-.196m-2.237-.75c.107 0 .195.337.195.75l-.195-.195h.039l.037.001.075.002.14.012c.091.01.171.024.24.042.135.036.22.084.22.138 0 .055-.085.103-.22.139a1.86 1.86 0 01-.24.041l-.14.011-.075.003h-.037l-.02.002h-.019l-.196-.196c0-.413.088-.75.196-.75m0-3.041c.107 0 .195.34.195.76s-.088.76-.195.76c-.108 0-.196-.34-.196-.76s.088-.76.196-.76m0-3.042c.107 0 .195.34.195.76s-.088.76-.195.76c-.108 0-.196-.34-.196-.76s.088-.76.196-.76m0-3.043c.107 0 .195.341.195.761s-.088.761-.195.761c-.108 0-.196-.34-.196-.761 0-.42.088-.76.196-.76m0-3.042c.107 0 .195.34.195.76s-.088.761-.195.761c-.108 0-.196-.34-.196-.761 0-.42.088-.76.196-.76m0-3.042c.107 0 .195.34.195.762 0 .419-.088.76-.195.76-.108 0-.196-.341-.196-.76 0-.421.088-.762.196-.762m0-3.042c.107 0 .195.34.195.762 0 .42-.088.76-.195.76-.108 0-.196-.34-.196-.76 0-.421.088-.762.196-.762m0-3.041c.107 0 .195.34.195.76s-.088.761-.195.761c-.108 0-.196-.34-.196-.76s.088-.761.196-.761m0-3.041c.107 0 .195.34.195.76s-.088.76-.195.76c-.108 0-.196-.34-.196-.76s.088-.76.196-.76m0-3.042c.107 0 .195.34.195.76s-.088.76-.195.76c-.108 0-.196-.34-.196-.76s.088-.76.196-.76m0-3.041c.107 0 .195.34.195.76s-.088.76-.195.76c-.108 0-.196-.34-.196-.76s.088-.76.196-.76m0-3.043c.107 0 .195.341.195.761s-.088.76-.195.76c-.108 0-.196-.34-.196-.76s.088-.76.196-.76m0-3.043c.107 0 .195.341.195.761s-.088.76-.195.76c-.108 0-.196-.34-.196-.76s.088-.76.196-.76m0-3.042c.107 0 .195.34.195.76s-.088.76-.195.76c-.108 0-.196-.34-.196-.76s.088-.76.196-.76m0-3.042c.107 0 .195.34.195.76s-.088.76-.195.76c-.108 0-.196-.34-.196-.76s.088-.76.196-.76m0-3.042c.107 0 .195.34.195.76 0 .422-.088.761-.195.761-.108 0-.196-.34-.196-.76s.088-.76.196-.76m0-3.042c.107 0 .195.34.195.76s-.088.76-.195.76c-.108 0-.196-.34-.196-.76s.088-.76.196-.76m0-3.042c.107 0 .195.34.195.76s-.088.76-.195.76c-.108 0-.196-.34-.196-.76s.088-.76.196-.76m0-3.042c.107 0 .195.34.195.76 0 .421-.088.762-.195.762-.108 0-.196-.34-.196-.762 0-.42.088-.76.196-.76m0-3.041c.107 0 .195.34.195.76s-.088.76-.195.76c-.108 0-.196-.34-.196-.76s.088-.76.196-.76m.75-2.271c0 .108-.336.195-.75.195l.195-.195v.076l-.004.075-.01.14c-.011.09-.025.172-.043.239-.036.136-.084.22-.138.22-.055 0-.103-.084-.139-.22a1.735 1.735 0 01-.04-.238l-.012-.142-.003-.074v-.038l-.001-.019v-.02c.087-.086-.195.196.195-.194.414 0 .75.087.75.195m2.973 0c0 .108-.333.195-.744.195-.41 0-.742-.087-.742-.195 0-.108.333-.195.742-.195.411 0 .744.087.744.195m2.972 0c0 .108-.332.195-.742.195-.411 0-.743-.087-.743-.195 0-.108.332-.195.743-.195.41 0 .743.087.743.195m2.974 0c0 .108-.334.195-.744.195-.411 0-.743-.087-.743-.195 0-.108.332-.195.743-.195.41 0 .743.087.743.195m2.973 0c0 .108-.333.195-.743.195-.411 0-.743-.087-.743-.195 0-.108.332-.195.743-.195.41 0 .743.087.743.195m2.973 0c0 .108-.332.195-.743.195-.41 0-.743-.087-.743-.195 0-.108.333-.195.743-.195.411 0 .743.087.743.195m2.973 0c0 .108-.332.195-.743.195-.41 0-.743-.087-.743-.195 0-.108.333-.195.743-.195.411 0 .743.087.743.195m2.974 0c0 .108-.334.195-.743.195-.411 0-.744-.087-.744-.195 0-.108.333-.195.744-.195.41 0 .743.087.743.195m2.973 0c0 .108-.334.195-.744.195s-.743-.087-.743-.195c0-.108.333-.195.743-.195s.744.087.744.195m2.973 0c0 .108-.333.195-.744.195-.41 0-.743-.087-.743-.195 0-.108.333-.195.743-.195.411 0 .744.087.744.195m2.972 0c0 .108-.332.195-.743.195-.41 0-.743-.087-.743-.195 0-.108.333-.195.743-.195.411 0 .743.087.743.195m2.973 0c0 .108-.332.195-.742.195-.411 0-.743-.087-.743-.195 0-.108.332-.195.743-.195.41 0 .742.087.742.195m2.974 0c0 .108-.333.195-.743.195-.411 0-.744-.087-.744-.195 0-.108.333-.195.744-.195.41 0 .743.087.743.195m2.973 0c0 .108-.332.195-.743.195-.41 0-.743-.087-.743-.195 0-.108.333-.195.743-.195s.743.087.743.195m2.973 0c0 .108-.333.195-.743.195s-.744-.087-.744-.195c0-.108.333-.195.744-.195.41 0 .743.087.743.195m2.973 0c0 .108-.333.195-.743.195s-.743-.087-.743-.195c0-.108.333-.195.743-.195s.743.087.743.195m2.974 0c0 .108-.334.195-.744.195-.411 0-.744-.087-.744-.195 0-.108.333-.195.744-.195.41 0 .744.087.744.195m2.972 0c0 .108-.332.195-.743.195-.41 0-.744-.087-.744-.195 0-.108.334-.195.744-.195s.743.087.743.195m2.973 0c0 .108-.332.195-.743.195-.41 0-.743-.087-.743-.195 0-.108.333-.195.743-.195s.743.087.743.195m2.973 0c0 .108-.332.195-.743.195-.41 0-.743-.087-.743-.195 0-.108.332-.195.743-.195.41 0 .743.087.743.195m2.974 0c0 .108-.333.195-.743.195-.411 0-.744-.087-.744-.195 0-.108.332-.195.743-.195.41 0 .744.087.744.195m2.973 0c0 .108-.333.195-.743.195s-.745-.087-.745-.195c0-.108.334-.195.745-.195.41 0 .743.087.743.195m2.973 0c0 .108-.333.195-.743.195s-.745-.087-.745-.195c0-.108.334-.195.745-.195.41 0 .743.087.743.195m2.972 0c0 .108-.332.195-.743.195-.41 0-.743-.087-.743-.195 0-.108.333-.195.743-.195s.744.087.744.195m2.973 0c0 .108-.333.195-.744.195-.41 0-.743-.087-.743-.195 0-.108.332-.195.743-.195.41 0 .744.087.744.195m2.973 0c0 .108-.333.195-.743.195-.411 0-.744-.087-.744-.195 0-.108.332-.195.743-.195.41 0 .744.087.744.195m2.973 0c0 .108-.332.195-.743.195-.41 0-.744-.087-.744-.195 0-.108.333-.195.744-.195.41 0 .743.087.743.195m2.973 0c0 .108-.332.195-.743.195-.41 0-.743-.087-.743-.195 0-.108.332-.195.743-.195.41 0 .743.087.743.195m2.974 0c0 .108-.334.195-.744.195s-.744-.087-.744-.195c0-.108.333-.195.744-.195.41 0 .743.087.743.195m2.974 0c0 .108-.334.195-.744.195s-.744-.087-.744-.195c0-.108.333-.195.744-.195.41 0 .744.087.744.195m2.972 0c0 .108-.332.195-.743.195-.41 0-.744-.087-.744-.195 0-.108.334-.195.743-.195.411 0 .744.087.744.195m2.973 0c0 .108-.332.195-.743.195-.41 0-.743-.087-.743-.195 0-.108.332-.195.743-.195.41 0 .743.087.743.195m2.973 0c0 .108-.333.195-.743.195s-.743-.087-.743-.195c0-.108.332-.195.743-.195.41 0 .743.087.743.195m2.974 0c0 .108-.334.195-.744.195s-.743-.087-.743-.195c0-.108.332-.195.743-.195.41 0 .744.087.744.195m2.972 0c0 .108-.332.195-.743.195-.41 0-.743-.087-.743-.195 0-.108.333-.195.743-.195.411 0 .743.087.743.195m2.973 0c0 .108-.332.195-.743.195-.41 0-.743-.087-.743-.195 0-.108.333-.195.743-.195.411 0 .743.087.743.195m2.237.75c-.107 0-.195-.336-.195-.75.39.39.108.108.194.195h-.037l-.038-.001-.075-.003-.14-.011a1.747 1.747 0 01-.24-.042c-.135-.036-.219-.084-.219-.138 0-.054.084-.103.22-.138a1.66 1.66 0 01.238-.042l.14-.012.076-.002.038-.001h.037c.088.087-.193-.195.196.195 0 .414-.087.75-.195.75m0 3.042c-.107 0-.195-.34-.195-.762 0-.419.088-.76.195-.76.108 0 .195.341.195.76 0 .421-.087.762-.195.762m0 3.042c-.107 0-.195-.34-.195-.762 0-.42.088-.76.195-.76.108 0 .195.34.195.76 0 .421-.087.762-.195.762m0 3.04c-.107 0-.195-.34-.195-.76s.088-.76.195-.76c.108 0 .195.34.195.76s-.087.76-.195.76m0 3.042c-.107 0-.195-.34-.195-.76s.088-.76.195-.76c.108 0 .195.34.195.76s-.087.76-.195.76m0 3.042c-.107 0-.195-.34-.195-.76s.088-.76.195-.76c.108 0 .195.34.195.76s-.087.76-.195.76m0 3.042c-.107 0-.195-.341-.195-.76 0-.42.088-.76.195-.76.108 0 .195.34.195.76 0 .419-.087.76-.195.76m0 3.042c-.107 0-.195-.341-.195-.761s.088-.76.195-.76c.108 0 .195.34.195.76s-.087.76-.195.76m0 3.043c-.107 0-.195-.341-.195-.761s.088-.76.195-.76c.108 0 .195.34.195.76s-.087.76-.195.76m0 3.041c-.107 0-.195-.34-.195-.759 0-.42.088-.76.195-.76.108 0 .195.34.195.76s-.087.76-.195.76m0 3.042c-.107 0-.195-.34-.195-.76s.088-.76.195-.76c.108 0 .195.34.195.76s-.087.76-.195.76m0 3.042c-.107 0-.195-.34-.195-.76 0-.422.088-.761.195-.761.108 0 .195.34.195.76s-.087.76-.195.76m0 3.042c-.107 0-.195-.34-.195-.76s.088-.76.195-.76c.108 0 .195.34.195.76s-.087.76-.195.76m0 3.042c-.107 0-.195-.34-.195-.76s.088-.761.195-.761c.108 0 .195.34.195.76s-.087.761-.195.761m0 3.042c-.107 0-.195-.34-.195-.76 0-.421.088-.762.195-.762.108 0 .195.34.195.762 0 .42-.087.76-.195.76m0 3.041c-.107 0-.195-.34-.195-.76s.088-.76.195-.76c.108 0 .195.34.195.76s-.087.76-.195.76m0 3.042c-.107 0-.195-.34-.195-.76s.088-.76.195-.76c.108 0 .195.34.195.76s-.087.76-.195.76m0 3.042c-.107 0-.195-.34-.195-.76 0-.421.088-.762.195-.762.108 0 .195.341.195.762 0 .42-.087.76-.195.76m0 3.041c-.107 0-.195-.34-.195-.76s.088-.76.195-.76c.108 0 .195.34.195.76s-.087.76-.195.76m0 3.043c-.107 0-.195-.341-.195-.762 0-.419.088-.76.195-.76.108 0 .195.341.195.76 0 .421-.087.762-.195.762" fill="#D4D5CF"/><path fill="#D4D5CF" d="M206.328 276.231h3.005v-3.005h-3.005zm0-60.813h3.005v-3.005h-3.005zm107.044 0h3.004v-3.005h-3.004zm0 60.813h3.004v-3.005h-3.004zm-53.522 0h3.004v-3.005h-3.005zm1.502-60.813h3.004v-3.005h-3.004zm-55.024 29.326h3.005v-3.004h-3.005zm107.044 0h3.004v-3.004h-3.004z"/><path fill="#D4E3FF" d="M122.997 77.299h94.946V36.764h-94.946z"/><path d="M63.237 113.811c0-.107.336-.195.75-.195-.39.39-.108.108-.196.195v-.02l.001-.018v-.038l.004-.075.011-.14c.01-.09.024-.172.042-.24.035-.135.084-.219.138-.219.054 0 .103.084.138.22.018.067.032.148.042.238l.011.141.003.075.001.056v.02l-.195.196c-.414 0-.75-.088-.75-.196m-3.001 0c0-.107.336-.195.75-.195.415 0 .75.088.75.195 0 .108-.335.196-.75.196-.414 0-.75-.088-.75-.196m-3.002 0c0-.107.337-.195.75-.195.416 0 .75.088.75.195 0 .108-.334.196-.75.196-.413 0-.75-.088-.75-.196m-3.001 0c0-.107.336-.195.75-.195.415 0 .75.088.75.195 0 .108-.335.196-.75.196-.414 0-.75-.088-.75-.196m-3.001 0c0-.107.336-.195.75-.195.415 0 .75.088.75.195 0 .108-.335.196-.75.196-.414 0-.75-.088-.75-.196m-3.002 0c0-.107.336-.195.75-.195.415 0 .751.088.751.195 0 .108-.336.196-.75.196-.415 0-.75-.088-.75-.196m-3.002 0c0-.107.336-.195.75-.195.415 0 .75.088.75.195 0 .108-.335.196-.75.196-.414 0-.75-.088-.75-.196m-3.002 0c0-.107.336-.195.751-.195.414 0 .75.088.75.195 0 .108-.336.196-.75.196-.415 0-.75-.088-.75-.196m-3.001 0c0-.107.336-.195.75-.195s.75.088.75.195c0 .108-.336.196-.75.196s-.75-.088-.75-.196m-3.002 0c0-.107.336-.195.75-.195.415 0 .75.088.75.195 0 .108-.335.196-.75.196-.414 0-.75-.088-.75-.196m-3.001 0c0-.107.336-.195.75-.195s.75.088.75.195c0 .108-.336.196-.75.196s-.75-.088-.75-.196m-3.002 0c0-.107.336-.195.75-.195.415 0 .75.088.75.195 0 .108-.335.196-.75.196-.414 0-.75-.088-.75-.196m-3.001 0c0-.107.336-.195.75-.195s.75.088.75.195c0 .108-.336.196-.75.196s-.75-.088-.75-.196m-3.001 0c0-.107.336-.195.75-.195.415 0 .75.088.75.195 0 .108-.335.196-.75.196-.414 0-.75-.088-.75-.196m-3.002 0c0-.107.336-.195.75-.195.415 0 .751.088.751.195 0 .108-.336.196-.75.196-.415 0-.75-.088-.75-.196m-2.251-.75c.108 0 .195.336.195.75l-.195-.195h.076l.075.004.141.011c.09.01.17.025.238.042.136.035.22.084.22.138 0 .054-.084.103-.22.138a1.646 1.646 0 01-.238.042l-.141.012-.075.002-.038.001h-.038l-.195-.195c0-.414.087-.75.195-.75m0-2.983c.108 0 .195.334.195.746s-.087.746-.195.746c-.108 0-.195-.334-.195-.746s.087-.746.195-.746m0-2.982c.108 0 .195.333.195.745 0 .413-.087.746-.195.746-.108 0-.195-.334-.195-.746s.087-.745.195-.745m0-2.983c.108 0 .195.334.195.745 0 .412-.087.746-.195.746-.108 0-.195-.334-.195-.746s.087-.745.195-.745m0-2.983c.108 0 .195.334.195.746 0 .411-.087.745-.195.745-.108 0-.195-.334-.195-.745 0-.412.087-.746.195-.746m0-2.983c.108 0 .195.334.195.746s-.087.745-.195.745c-.108 0-.195-.334-.195-.745 0-.412.087-.746.195-.746m0-2.982c.108 0 .195.333.195.745s-.087.746-.195.746c-.108 0-.195-.334-.195-.746s.087-.745.195-.745m0-2.983c.108 0 .195.334.195.745 0 .412-.087.746-.195.746-.108 0-.195-.334-.195-.746s.087-.745.195-.745m0-2.984c.108 0 .195.335.195.747 0 .411-.087.745-.195.745-.108 0-.195-.334-.195-.745 0-.412.087-.747.195-.747m.75-2.241c0 .108-.337.195-.75.195l.195-.195v.039l-.001.038-.003.074-.011.141c-.01.09-.024.171-.043.239-.035.135-.084.22-.137.22-.055 0-.103-.085-.139-.22a1.621 1.621 0 01-.041-.239l-.012-.141-.003-.074v-.077l.195-.195c.413 0 .75.087.75.195m3.001 0c0 .108-.336.195-.75.195-.415 0-.75-.087-.75-.195 0-.108.335-.195.75-.195.414 0 .75.087.75.195m3.001 0c0 .108-.335.195-.75.195-.414 0-.75-.087-.75-.195 0-.108.336-.195.75-.195.415 0 .75.087.75.195m3.001 0c0 .108-.336.195-.75.195s-.75-.087-.75-.195c0-.108.336-.195.75-.195s.75.087.75.195m3.002 0c0 .108-.336.195-.75.195-.415 0-.751-.087-.751-.195 0-.108.336-.195.75-.195.415 0 .75.087.75.195m3.002 0c0 .108-.336.195-.75.195s-.75-.087-.75-.195c0-.108.336-.195.75-.195s.75.087.75.195m3.002 0c0 .108-.336.195-.75.195-.415 0-.751-.087-.751-.195 0-.108.336-.195.75-.195.415 0 .75.087.75.195m3.002 0c0 .108-.336.195-.75.195s-.75-.087-.75-.195c0-.108.336-.195.75-.195s.75.087.75.195m3.002 0c0 .108-.337.195-.751.195-.415 0-.75-.087-.75-.195 0-.108.335-.195.75-.195.414 0 .75.087.75.195m3.002 0c0 .108-.336.195-.75.195-.415 0-.751-.087-.751-.195 0-.108.336-.195.75-.195.415 0 .75.087.75.195m3.002 0c0 .108-.336.195-.75.195-.415 0-.75-.087-.75-.195 0-.108.335-.195.75-.195.414 0 .75.087.75.195m3.002 0c0 .108-.336.195-.751.195-.414 0-.75-.087-.75-.195 0-.108.336-.195.75-.195.415 0 .75.087.75.195m3.001 0c0 .108-.335.195-.75.195-.414 0-.75-.087-.75-.195 0-.108.336-.195.75-.195.415 0 .75.087.75.195m3.002 0c0 .108-.335.195-.75.195s-.751-.087-.751-.195c0-.108.336-.195.75-.195.416 0 .75.087.75.195m3.002 0c0 .108-.336.195-.75.195s-.75-.087-.75-.195c0-.108.336-.195.75-.195s.75.087.75.195m2.251.75c-.108 0-.196-.336-.196-.75l.196.195h-.076l-.075-.004-.14-.01a1.64 1.64 0 01-.24-.043c-.135-.035-.219-.084-.219-.138 0-.054.084-.102.22-.138a1.64 1.64 0 01.238-.042l.141-.011.075-.003h.057l.01-.002h.009c.087.088-.195-.194.195.196 0 .414-.087.75-.195.75m0 2.983c-.108 0-.196-.334-.196-.745 0-.412.088-.747.196-.747.108 0 .195.335.195.747 0 .411-.087.745-.195.745m0 2.983c-.108 0-.196-.334-.196-.746s.088-.745.196-.745c.108 0 .195.334.195.745 0 .412-.087.746-.195.746m0 2.983c-.108 0-.196-.334-.196-.746s.088-.745.196-.745c.108 0 .195.333.195.745s-.087.746-.195.746m0 2.982c-.108 0-.196-.334-.196-.745 0-.412.088-.746.196-.746.108 0 .195.334.195.746s-.087.745-.195.745m0 2.983c-.108 0-.196-.334-.196-.745 0-.412.088-.746.196-.746.108 0 .195.334.195.746 0 .411-.087.745-.195.745m0 2.983c-.108 0-.196-.334-.196-.746s.088-.745.196-.745c.108 0 .195.334.195.745 0 .412-.087.746-.195.746m0 2.983c-.108 0-.196-.334-.196-.746s.088-.745.196-.745c.108 0 .195.333.195.745 0 .413-.087.746-.195.746m0 2.983c-.108 0-.196-.334-.196-.746s.088-.746.196-.746c.108 0 .195.334.195.746s-.087.746-.195.746" fill="#D4D5CF"/><path fill="#D4D5CF" d="M17.894 114.665h2.148v-2.147h-2.148zm0-26.635h2.148v-2.147h-2.148zm45.02 0h2.147v-2.147h-2.147zm0 26.539h2.147v-2.148h-2.147zm-22.511 0h2.148v-2.148h-2.148zm0-26.539h2.148v-2.147h-2.148zm-22.509 13.428h2.148V99.31h-2.148zm45.02 0h2.147V99.31h-2.147zm241.142-56.923c0-.107.336-.195.75-.195l-.195.195v-.076l.004-.075.011-.14c.01-.09.025-.171.042-.24.035-.134.084-.219.138-.219.054 0 .103.085.138.22.018.068.032.149.042.238l.011.141.003.075.001.038v.038c-.087.088.195-.194-.195.196-.414 0-.75-.088-.75-.196m-2.941 0c0-.107.329-.195.734-.195.407 0 .737.088.737.195 0 .108-.33.196-.737.196-.405 0-.734-.088-.734-.196m-2.941 0c0-.107.328-.195.735-.195.406 0 .736.088.736.195 0 .108-.33.196-.736.196-.407 0-.735-.088-.735-.196m-2.942 0c0-.107.33-.195.735-.195.406 0 .736.088.736.195 0 .108-.33.196-.736.196-.405 0-.735-.088-.735-.196m-2.942 0c0-.107.33-.195.736-.195.406 0 .736.088.736.195 0 .108-.33.196-.736.196-.406 0-.735-.088-.735-.196m-2.941 0c0-.107.33-.195.735-.195.406 0 .735.088.735.195 0 .108-.329.196-.735.196-.406 0-.736-.088-.736-.196m-2.94 0c0-.107.329-.195.735-.195.406 0 .735.088.735.195 0 .108-.329.196-.736.196-.405 0-.734-.088-.734-.196m-2.942 0c0-.107.33-.195.736-.195.406 0 .735.088.735.195 0 .108-.33.196-.735.196-.407 0-.736-.088-.736-.196m-2.941 0c0-.107.33-.195.735-.195.406 0 .735.088.735.195 0 .108-.329.196-.735.196-.406 0-.736-.088-.736-.196m-2.94 0c0-.107.329-.195.735-.195.406 0 .736.088.736.195 0 .108-.33.196-.736.196-.406 0-.735-.088-.735-.196m-2.942 0c0-.107.33-.195.735-.195.407 0 .736.088.736.195 0 .108-.33.196-.736.196-.405 0-.735-.088-.735-.196m-2.941 0c0-.107.329-.195.736-.195.405 0 .735.088.735.195 0 .108-.33.196-.736.196-.406 0-.735-.088-.735-.196m-2.941 0c0-.107.328-.195.735-.195.406 0 .736.088.736.195 0 .108-.33.196-.736.196-.406 0-.735-.088-.735-.196m-2.941 0c0-.107.33-.195.735-.195.407 0 .735.088.735.195 0 .108-.328.196-.735.196-.406 0-.736-.088-.736-.196m-2.941 0c0-.107.33-.195.736-.195.406 0 .735.088.735.195 0 .108-.329.196-.735.196-.406 0-.736-.088-.736-.196m-2.941 0c0-.107.33-.195.735-.195.407 0 .735.088.735.195 0 .108-.328.196-.735.196-.406 0-.736-.088-.736-.196m-2.94 0c0-.107.329-.195.736-.195.405 0 .734.088.734.195 0 .108-.329.196-.735.196-.406 0-.735-.088-.735-.196m-2.941 0c0-.107.328-.195.735-.195.406 0 .736.088.736.195 0 .108-.33.196-.736.196-.406 0-.735-.088-.735-.196m-2.942 0c0-.107.33-.195.736-.195.406 0 .735.088.735.195 0 .108-.329.196-.736.196-.405 0-.735-.088-.735-.196m-2.941 0c0-.107.33-.195.735-.195.406 0 .736.088.736.195 0 .108-.33.196-.736.196-.406 0-.735-.088-.735-.196m-2.942 0c0-.107.33-.195.736-.195.406 0 .735.088.735.195 0 .108-.329.196-.736.196-.405 0-.734-.088-.734-.196m-2.941 0c0-.107.329-.195.736-.195.405 0 .734.088.734.195 0 .108-.329.196-.734.196-.407 0-.736-.088-.736-.196m-2.942 0c0-.107.33-.195.736-.195.406 0 .735.088.735.195 0 .108-.33.196-.735.196-.406 0-.736-.088-.736-.196m-2.941 0c0-.107.33-.195.736-.195.406 0 .734.088.734.195 0 .108-.328.196-.734.196-.406 0-.736-.088-.736-.196m-2.942 0c0-.107.33-.195.736-.195.406 0 .735.088.735.195 0 .108-.329.196-.735.196-.406 0-.736-.088-.736-.196m-2.94 0c0-.107.329-.195.734-.195.407 0 .736.088.736.195 0 .108-.329.196-.736.196-.405 0-.734-.088-.734-.196m-2.221-.75c.108 0 .195.336.195.75l-.195-.195h.038l.038.002.075.002.14.012c.09.01.172.024.24.041.135.036.22.085.22.138 0 .055-.085.104-.22.139a1.76 1.76 0 01-.24.042l-.14.011-.075.003h-.076l-.195-.195c0-.414.087-.75.195-.75m0-3.108c.108 0 .195.348.195.777 0 .429-.087.778-.195.778-.108 0-.195-.349-.195-.778 0-.429.087-.777.195-.777m0-3.108c.108 0 .195.348.195.777 0 .429-.087.777-.195.777-.108 0-.195-.348-.195-.777 0-.429.087-.777.195-.777m0-3.109c.108 0 .195.348.195.777 0 .43-.087.778-.195.778-.108 0-.195-.348-.195-.778 0-.429.087-.777.195-.777m0-3.108c.108 0 .195.348.195.777 0 .43-.087.777-.195.777-.108 0-.195-.348-.195-.777 0-.429.087-.777.195-.777m0-3.108c.108 0 .195.348.195.777 0 .43-.087.777-.195.777-.108 0-.195-.348-.195-.777 0-.429.087-.777.195-.777m0-3.108c.108 0 .195.348.195.777 0 .43-.087.777-.195.777-.108 0-.195-.348-.195-.777 0-.43.087-.777.195-.777m0-3.109c.108 0 .195.348.195.777 0 .43-.087.777-.195.777-.108 0-.195-.348-.195-.776 0-.43.087-.777.195-.777m0-3.108c.108 0 .195.347.195.776 0 .43-.087.777-.195.777-.108 0-.195-.348-.195-.776 0-.43.087-.777.195-.777m0-3.11c.108 0 .195.349.195.778 0 .43-.087.777-.195.777-.108 0-.195-.348-.195-.777 0-.43.087-.777.195-.777m0-3.108c.108 0 .195.348.195.777 0 .429-.087.777-.195.777-.108 0-.195-.348-.195-.777 0-.43.087-.777.195-.777m0-3.108c.108 0 .195.347.195.776 0 .43-.087.777-.195.777-.108 0-.195-.347-.195-.777 0-.429.087-.776.195-.776m0-3.109c.108 0 .195.348.195.777 0 .429-.087.777-.195.777-.108 0-.195-.348-.195-.777 0-.429.087-.777.195-.777m0-3.108c.108 0 .195.347.195.777 0 .429-.087.777-.195.777-.108 0-.195-.348-.195-.777 0-.43.087-.777.195-.777m.75-2.305c0 .108-.336.196-.75.196l.195-.195v.038l-.001.038-.003.075-.011.14c-.01.09-.024.171-.042.24-.036.134-.084.218-.138.218-.054 0-.103-.084-.138-.219a1.747 1.747 0 01-.042-.238l-.011-.141-.004-.075v-.076l.195-.196c.414 0 .75.088.75.195m2.94 0c0 .108-.328.196-.734.196-.406 0-.735-.088-.735-.196 0-.107.329-.195.735-.195.406 0 .734.088.734.195m2.942 0c0 .108-.329.196-.735.196-.406 0-.736-.088-.736-.196 0-.107.33-.195.736-.195.406 0 .735.088.735.195m2.941 0c0 .108-.328.196-.734.196-.406 0-.736-.088-.736-.196 0-.107.33-.195.736-.195.406 0 .734.088.734.195m2.942 0c0 .108-.33.196-.735.196-.406 0-.736-.088-.736-.196 0-.107.33-.195.736-.195.406 0 .735.088.735.195m2.941 0c0 .108-.329.196-.734.196-.407 0-.736-.088-.736-.196 0-.107.329-.195.736-.195.405 0 .734.088.734.195m2.941 0c0 .108-.329.196-.735.196-.406 0-.736-.088-.736-.196 0-.107.33-.195.736-.195.406 0 .735.088.735.195m2.942 0c0 .108-.33.196-.736.196-.406 0-.735-.088-.735-.196 0-.107.33-.195.735-.195.406 0 .736.088.736.195m2.941 0c0 .108-.33.196-.736.196-.406 0-.735-.088-.735-.196 0-.107.329-.195.736-.195.405 0 .735.088.735.195m2.942 0c0 .108-.33.196-.736.196-.406 0-.735-.088-.735-.196 0-.107.328-.195.735-.195.406 0 .736.088.736.195m2.94 0c0 .108-.329.196-.735.196-.406 0-.735-.088-.735-.196 0-.107.329-.195.736-.195.405 0 .734.088.734.195m2.941 0c0 .108-.328.196-.734.196-.406 0-.736-.088-.736-.196 0-.107.33-.195.736-.195.406 0 .734.088.734.195m2.942 0c0 .108-.329.196-.735.196-.406 0-.736-.088-.736-.196 0-.107.33-.195.736-.195.406 0 .735.088.735.195m2.941 0c0 .108-.329.196-.735.196-.406 0-.736-.088-.736-.196 0-.107.33-.195.736-.195.406 0 .735.088.735.195m2.942 0c0 .108-.33.196-.736.196-.406 0-.735-.088-.735-.196 0-.107.328-.195.735-.195.406 0 .736.088.736.195m2.941 0c0 .108-.33.196-.736.196-.406 0-.735-.088-.735-.196 0-.107.329-.195.736-.195.405 0 .735.088.735.195m2.941 0c0 .108-.33.196-.736.196-.405 0-.735-.088-.735-.196 0-.107.33-.195.735-.195.407 0 .736.088.736.195m2.941 0c0 .108-.329.196-.735.196-.406 0-.735-.088-.735-.196 0-.107.329-.195.735-.195.406 0 .736.088.736.195m2.94 0c0 .108-.329.196-.735.196-.406 0-.736-.088-.736-.196 0-.107.33-.195.736-.195.406 0 .735.088.735.195m2.942 0c0 .108-.33.196-.735.196-.407 0-.736-.088-.736-.196 0-.107.33-.195.736-.195.406 0 .735.088.735.195m2.942 0c0 .108-.33.196-.736.196-.406 0-.736-.088-.736-.196 0-.107.33-.195.736-.195.406 0 .735.088.735.195m2.941 0c0 .108-.329.196-.735.196-.406 0-.736-.088-.736-.196 0-.107.33-.195.736-.195.406 0 .735.088.735.195m2.942 0c0 .108-.33.196-.736.196-.406 0-.735-.088-.735-.196 0-.107.329-.195.735-.195.406 0 .736.088.736.195m2.941 0c0 .108-.33.196-.736.196-.406 0-.735-.088-.735-.196 0-.107.329-.195.735-.195.406 0 .736.088.736.195m2.941 0c0 .108-.33.196-.735.196-.407 0-.735-.088-.735-.196 0-.107.328-.195.735-.195.406 0 .736.088.736.195m2.941 0c0 .108-.33.196-.736.196-.406 0-.735-.088-.735-.196 0-.107.329-.195.735-.195.406 0 .736.088.736.195m2.22.75c-.108 0-.195-.335-.195-.749l.195.195h-.076l-.076-.004-.14-.011a1.719 1.719 0 01-.238-.043c-.136-.035-.22-.083-.22-.138 0-.054.084-.102.22-.138.067-.017.148-.031.238-.041l.14-.012.075-.003h.077l.195.195c0 .414-.087.75-.195.75m0 3.108c-.108 0-.195-.348-.195-.777 0-.43.087-.777.195-.777.108 0 .195.347.195.777 0 .429-.087.777-.195.777m0 3.108c-.108 0-.195-.348-.195-.777 0-.429.087-.777.195-.777.108 0 .195.348.195.777 0 .429-.087.777-.195.777m0 3.108c-.108 0-.195-.348-.195-.776 0-.43.087-.777.195-.777.108 0 .195.347.195.777 0 .428-.087.776-.195.776m0 3.109c-.108 0-.195-.348-.195-.777 0-.43.087-.777.195-.777.108 0 .195.347.195.777 0 .429-.087.777-.195.777m0 3.108c-.108 0-.195-.348-.195-.777 0-.43.087-.777.195-.777.108 0 .195.348.195.777 0 .43-.087.777-.195.777m0 3.109c-.108 0-.195-.349-.195-.777 0-.43.087-.777.195-.777.108 0 .195.347.195.776 0 .43-.087.777-.195.777m0 3.108c-.108 0-.195-.348-.195-.776 0-.43.087-.777.195-.777.108 0 .195.348.195.777 0 .428-.087.776-.195.776m0 3.109c-.108 0-.195-.348-.195-.777 0-.43.087-.777.195-.777.108 0 .195.348.195.777 0 .43-.087.777-.195.777m0 3.108c-.108 0-.195-.348-.195-.777 0-.429.087-.777.195-.777.108 0 .195.348.195.777 0 .43-.087.777-.195.777m0 3.108c-.108 0-.195-.348-.195-.777 0-.429.087-.777.195-.777.108 0 .195.348.195.777 0 .43-.087.777-.195.777m0 3.109c-.108 0-.195-.348-.195-.778 0-.429.087-.777.195-.777.108 0 .195.348.195.777 0 .43-.087.778-.195.778m0 3.108c-.108 0-.195-.348-.195-.777 0-.429.087-.777.195-.777.108 0 .195.348.195.777 0 .429-.087.777-.195.777m0 3.109c-.108 0-.195-.349-.195-.777 0-.43.087-.778.195-.778.108 0 .195.348.195.778 0 .428-.087.777-.195.777"/><path fill="#D4D5CF" d="M227.23 45.609h2.147v-2.147h-2.147zm0-43.462h2.147V0h-2.147zm76.503 0h2.146V0h-2.146zm0 43.462h2.146v-2.147h-2.146zm-38.252 0h2.147v-2.147h-2.147zm1.074-43.462h2.147V0h-2.147zM227.23 23.106h2.147v-2.147h-2.147zm76.503 0h2.146v-2.147h-2.146z"/><g transform="translate(0 203.238)"><mask id="b" fill="#fff"><use xlink:href="#a"/></mask><path fill="#D4E3FF" mask="url(#b)" d="M32.396 34.085h84.134V.372H32.396z"/><path d="M317.604 118.213c0 .108-71.104.196-158.794.196-87.721 0-158.81-.088-158.81-.196 0-.107 71.089-.195 158.81-.195 87.69 0 158.794.088 158.794.195" fill="#132529" mask="url(#b)"/></g><path fill="#FAF9F6" d="M132.828 224.612h161.414V123.563H132.828z"/><path d="M294.243 224.612s-.011-.624-.017-1.823l-.017-5.303-.039-20.264-.082-73.659.155.154-161.403.041h-.012l.195-.195-.015 101.049-.18-.18 116.207.088 33.282.048c3.866.01 6.842.018 8.858.022 1.005.006 1.767.009 2.286.011.514.004.782.011.782.011s-.253.007-.76.01l-2.266.011-8.822.023c-7.725.01-19.002.028-33.241.048l-116.326.088h-.18v-.18l-.016-101.049v-.195h.208l161.403.041h.154v.154l-.082 73.754-.039 20.23-.017 5.274c-.006 1.188-.016 1.791-.016 1.791" fill="#B2C9F4"/><path fill="#2472FF" d="M229.641 182.603h46.24v-46.24h-46.24zm39.92 6.52c0 .108-7.522.195-16.799.195-9.281 0-16.802-.087-16.802-.195 0-.108 7.52-.195 16.802-.195 9.277 0 16.8.087 16.8.195m10.056 3.823c0 .11-12.026.196-26.856.196-14.836 0-26.859-.087-26.859-.196 0-.107 12.023-.194 26.859-.194 14.83 0 26.856.087 26.856.194m0 4.694c0 .11-12.026.197-26.856.197-14.836 0-26.859-.087-26.859-.196 0-.107 12.023-.195 26.859-.195 14.83 0 26.856.088 26.856.195m0 4.695c0 .107-12.026.195-26.856.195-14.836 0-26.859-.088-26.859-.195 0-.108 12.023-.196 26.859-.196 14.83 0 26.856.088 26.856.196m0 4.694c0 .107-12.026.195-26.856.195-14.836 0-26.859-.088-26.859-.195 0-.108 12.023-.196 26.859-.196 14.83 0 26.856.088 26.856.196m0 4.694c0 .108-12.026.195-26.856.195-14.836 0-26.859-.088-26.859-.196 0-.107 12.023-.195 26.859-.195 14.83 0 26.856.088 26.856.196m-122.953-29.121h46.24v-46.24h-46.24z"/><path d="M202.904 182.603h-46.239v-21.892h24.859c.607 0 1.294-.377 1.943-.957 2.062-1.841 2.617-4.852 1.549-7.401l-4.264-10.381.325-5.609h1.481l3.217 8.593c1.644 4.308 5.512 9.312 11.26 9.312l.106-.001c.237.041.477.06.716.06 1.743.001 3.515-1.04 5.047-2.532v30.808" fill="#D4E3FF"/><path d="M196.585 189.123c0 .108-7.523.195-16.8.195-9.28 0-16.801-.087-16.801-.195 0-.108 7.521-.195 16.802-.195 9.276 0 16.8.087 16.8.195m10.056 3.823c0 .11-12.025.196-26.856.196-14.836 0-26.859-.087-26.859-.196 0-.107 12.023-.194 26.859-.194 14.83 0 26.856.087 26.856.194m0 4.694c0 .11-12.025.197-26.856.197-14.836 0-26.859-.087-26.859-.196 0-.107 12.023-.195 26.859-.195 14.83 0 26.856.088 26.856.195m0 4.695c0 .107-12.025.195-26.856.195-14.836 0-26.859-.088-26.859-.195 0-.108 12.023-.196 26.859-.196 14.83 0 26.856.088 26.856.196m0 4.694c0 .107-12.025.195-26.856.195-14.836 0-26.859-.088-26.859-.195 0-.108 12.023-.196 26.859-.196 14.83 0 26.856.088 26.856.196m0 4.694c0 .108-12.025.195-26.856.195-14.836 0-26.859-.088-26.859-.196 0-.107 12.023-.195 26.859-.195 14.83 0 26.856.088 26.856.196" fill="#2472FF"/><path fill="#D4E3FF" d="M229.641 182.603h46.24v-46.24h-46.24z"/><path d="M274.816 166.56c-.007.007-.089-.06-.241-.197l-.661-.608-2.465-2.338a42073.1 42073.1 0 01-8.648-8.343l.252-.01-8.871 10.091-.356.404-.125.142-.145-.121-5.475-4.522.247-.006c-4.804 4.288-8.977 8.01-11.982 10.69l-3.514 3.088-.951.815c-.22.182-.337.273-.345.265-.007-.009.095-.116.3-.315l.91-.86 3.44-3.17c2.98-2.708 7.12-6.466 11.89-10.793l.12-.11.125.104 5.483 4.513-.271.021.356-.404 8.903-10.062.122-.139.13.129 8.55 8.445 2.397 2.407c.255.266.461.479.624.647.138.15.207.23.2.236m-29.213-15.345c-.036.023-.243-.37-.793-.916a4.929 4.929 0 00-2.88-1.375c-1.341-.181-3.095.298-4.252 1.699a4.717 4.717 0 00-1.076 2.544c-.116.966.1 1.995.606 2.893.524.887 1.307 1.59 2.202 1.973.887.4 1.865.495 2.742.34 1.792-.302 3.085-1.582 3.597-2.833a4.93 4.93 0 00.25-3.182c-.198-.75-.434-1.125-.396-1.143.011-.007.072.083.178.263a3.8 3.8 0 01.364.838 4.916 4.916 0 01-.142 3.331c-.508 1.335-1.863 2.735-3.788 3.08a5.04 5.04 0 01-2.959-.345c-.968-.408-1.821-1.166-2.387-2.127-.548-.969-.779-2.087-.648-3.13a5.055 5.055 0 011.181-2.734c1.262-1.494 3.152-1.969 4.562-1.74a4.923 4.923 0 012.956 1.542c.268.295.445.55.543.734.103.183.152.28.14.288" fill="#2472FF"/><path d="M42.391 157.583h84.129v-34.172H42.391z"/><path d="M116.52 157.583s-.007-.209-.01-.61l-.01-1.773-.023-6.8c-.013-5.899-.03-14.43-.05-24.989l.093.094-84.124.04h-.005l.134-.134-.006 34.172-.128-.127 60.319.06c7.469.016 13.414.027 17.497.035 2.04.008 3.614.013 4.684.016l1.213.008c.273.003.416.008.416.008s-.133.006-.4.008l-1.198.008-4.657.017c-4.077.008-10.012.019-17.469.035l-60.405.06h-.127v-.128l-.007-34.172v-.133h.14l84.123.04h.094v.093c-.022 10.583-.04 19.134-.051 25.046l-.023 6.779-.01 1.756c-.004.394-.01.591-.01.591" fill="#C6DAFF"/><path fill="#2472FF" d="M39.54 151.56h20.321v-20.321h-20.32zm71.158-12.54c0 .073-10.455.133-23.351.133-12.901 0-23.355-.06-23.355-.134 0-.073 10.454-.132 23.355-.132 12.896 0 23.352.059 23.352.132m-.001 4.141c0 .073-10.455.132-23.351.132-12.901 0-23.355-.06-23.355-.133 0-.073 10.454-.133 23.355-.133 12.896 0 23.352.06 23.352.133m-16.64 4.139c0 .01-.105.02-.305.028l-.876.024c-.797.012-1.889.026-3.222.043l-10.63.039c-4.136-.015-7.88-.03-10.631-.039a1562.87 1562.87 0 01-3.222-.043l-.876-.024c-.2-.009-.305-.018-.305-.028 0-.008.105-.018.305-.026l.876-.025 3.222-.042 10.631-.04 10.63.04 3.222.042.876.024c.2.01.305.019.305.028"/><path fill="#FFFFFE" d="M32.391 279.086h84.129v-34.172H32.391z"/><path d="M116.52 279.086s-.007-.209-.01-.61l-.01-1.773-.023-6.8c-.013-5.899-.03-14.43-.05-24.989l.093.094-84.124.04h-.005l.134-.134-.006 34.172-.128-.127 60.319.06 17.497.035 4.684.017c.53.002.934.005 1.213.007.273.003.416.008.416.008s-.133.005-.4.008l-1.198.008-4.657.017c-4.077.008-10.012.019-17.469.035l-60.405.06h-.127v-.128l-.007-34.172v-.133h.14l84.123.04h.094v.093c-.022 10.583-.04 19.134-.051 25.046l-.023 6.779-.01 1.756c-.004.394-.01.591-.01.591" fill="#E0565F"/><path fill="#2472FF" d="M39.54 273.063h20.321v-20.32h-20.32zm71.158-12.541c0 .075-10.455.134-23.351.134-12.901 0-23.355-.06-23.355-.134 0-.073 10.454-.133 23.355-.133 12.896 0 23.352.06 23.352.133m-.001 4.139c0 .075-10.455.134-23.351.134-12.901 0-23.355-.06-23.355-.134 0-.072 10.454-.132 23.355-.132 12.896 0 23.352.06 23.352.132m-16.64 4.14c0 .01-.105.019-.305.028l-.876.024-3.222.043-10.63.039-10.631-.039-3.222-.043-.876-.024c-.2-.01-.305-.018-.305-.028 0-.008.105-.017.305-.026l.876-.025 3.222-.042 10.631-.04 10.63.04 3.222.042.876.025c.2.009.305.018.305.026m16.639-90.23c0 .074-10.455.133-23.351.133-12.901 0-23.355-.06-23.355-.133 0-.073 10.454-.132 23.355-.132 12.896 0 23.352.059 23.352.132m-.001 4.14c0 .074-10.455.133-23.351.133-12.901 0-23.355-.06-23.355-.133 0-.074 10.454-.133 23.355-.133 12.896 0 23.352.059 23.352.133m-16.64 4.139c0 .01-.105.019-.305.028l-.876.024-3.222.042-10.63.04-10.631-.04-3.222-.042-.876-.024c-.2-.01-.305-.018-.305-.027 0-.01.105-.018.305-.028l.876-.024c.796-.012 1.888-.025 3.222-.043l10.631-.038 10.63.038c1.333.018 2.425.031 3.222.043l.876.024c.2.01.305.018.305.028m20.971 10.791c0-.108.336-.196.749-.196.415 0 .75.088.75.196 0 .108-.335.195-.75.195-.413 0-.75-.087-.75-.195m-2.999 0c0-.108.336-.196.749-.196.415 0 .75.088.75.196 0 .108-.335.195-.75.195-.413 0-.75-.087-.75-.195m-2.999 0c0-.108.336-.196.749-.196.415 0 .75.088.75.196 0 .108-.335.195-.75.195-.413 0-.75-.087-.75-.195m-2.999 0c0-.108.336-.196.749-.196.415 0 .75.088.75.196 0 .108-.335.195-.75.195-.413 0-.75-.087-.75-.195m-2.999 0c0-.108.336-.196.749-.196.415 0 .75.088.75.196 0 .108-.335.195-.75.195-.413 0-.75-.087-.75-.195m-2.999 0c0-.108.336-.196.749-.196.415 0 .75.088.75.196 0 .108-.335.195-.75.195-.413 0-.75-.087-.75-.195m-2.999 0c0-.108.336-.196.749-.196.415 0 .75.088.75.196 0 .108-.335.195-.75.195-.413 0-.75-.087-.75-.195m-2.999 0c0-.108.336-.196.749-.196.415 0 .75.088.75.196 0 .108-.335.195-.75.195-.413 0-.75-.087-.75-.195m-2.999 0c0-.108.336-.196.749-.196.415 0 .75.088.75.196 0 .108-.335.195-.75.195-.413 0-.75-.087-.75-.195m-2.999 0c0-.108.336-.196.749-.196.415 0 .75.088.75.196 0 .108-.335.195-.75.195-.413 0-.75-.087-.75-.195m-2.999 0c0-.108.336-.196.749-.196.415 0 .75.088.75.196 0 .108-.335.195-.75.195-.413 0-.75-.087-.75-.195m-2.999 0c0-.108.336-.196.749-.196.415 0 .75.088.75.196 0 .108-.335.195-.75.195-.413 0-.75-.087-.75-.195m-2.999 0c0-.108.336-.196.749-.196.415 0 .75.088.75.196 0 .108-.335.195-.75.195-.413 0-.75-.087-.75-.195m-2.999 0c0-.108.336-.196.749-.196.415 0 .75.088.75.196 0 .108-.335.195-.75.195-.413 0-.75-.087-.75-.195m-2.999 0c0-.108.336-.196.749-.196.415 0 .75.088.75.196 0 .108-.335.195-.75.195-.413 0-.75-.087-.75-.195m-2.999 0c0-.108.336-.196.749-.196.415 0 .75.088.75.196 0 .108-.335.195-.75.195-.413 0-.75-.087-.75-.195m-2.999 0c0-.108.336-.196.749-.196.415 0 .75.088.75.196 0 .108-.335.195-.75.195-.413 0-.75-.087-.75-.195m-2.999 0c0-.108.336-.196.749-.196.415 0 .75.088.75.196 0 .108-.335.195-.75.195-.413 0-.75-.087-.75-.195m-2.999 0c0-.108.336-.196.749-.196.415 0 .75.088.75.196 0 .108-.335.195-.75.195-.413 0-.75-.087-.75-.195m-2.999 0c0-.108.336-.196.749-.196.415 0 .75.088.75.196 0 .108-.335.195-.75.195-.413 0-.75-.087-.75-.195m-2.999 0c0-.108.336-.196.749-.196.415 0 .75.088.75.196 0 .108-.335.195-.75.195-.413 0-.75-.087-.75-.195m-2.999 0c0-.108.336-.196.749-.196.415 0 .75.088.75.196 0 .108-.335.195-.75.195-.413 0-.75-.087-.75-.195m-2.999 0c0-.108.336-.196.749-.196.415 0 .75.088.75.196 0 .108-.335.195-.75.195-.413 0-.75-.087-.75-.195m-2.999 0c0-.108.336-.196.749-.196.415 0 .75.088.75.196 0 .108-.335.195-.75.195-.413 0-.75-.087-.75-.195m-2.999 0c0-.108.336-.196.749-.196.415 0 .75.088.75.196 0 .108-.335.195-.75.195-.413 0-.75-.087-.75-.195m-2.999 0c0-.108.336-.196.749-.196.415 0 .75.088.75.196 0 .108-.335.195-.75.195-.413 0-.75-.087-.75-.195m-2.999 0c0-.108.336-.196.749-.196.415 0 .75.088.75.196 0 .108-.335.195-.75.195-.413 0-.75-.087-.75-.195m-2.999 0c0-.108.336-.196.749-.196.415 0 .75.088.75.196 0 .108-.335.195-.75.195-.413 0-.75-.087-.75-.195m-1.633-1.368c.108 0 .195.336.195.75 0 .257-.033.482-.084.617l-.11-.11c.083.031.133.069.133.11 0 .042-.05.08-.134.112l-.06.022-.05-.134a1.905 1.905 0 01-.085-.617c0-.414.088-.75.195-.75m0-3c.108 0 .195.336.195.75 0 .415-.087.75-.195.75-.107 0-.195-.335-.195-.75 0-.414.088-.75.195-.75m0-3c.108 0 .195.336.195.75 0 .415-.087.75-.195.75-.107 0-.195-.335-.195-.75 0-.414.088-.75.195-.75m0-3c.108 0 .195.336.195.75 0 .415-.087.75-.195.75-.107 0-.195-.335-.195-.75 0-.414.088-.75.195-.75m0-3c.108 0 .195.336.195.75 0 .415-.087.75-.195.75-.107 0-.195-.335-.195-.75 0-.414.088-.75.195-.75m0-3c.108 0 .195.336.195.75 0 .415-.087.75-.195.75-.107 0-.195-.335-.195-.75 0-.414.088-.75.195-.75m0-3c.108 0 .195.336.195.75 0 .415-.087.75-.195.75-.107 0-.195-.335-.195-.75 0-.414.088-.75.195-.75m0-3c.108 0 .195.336.195.75 0 .415-.087.75-.195.75-.107 0-.195-.335-.195-.75 0-.414.088-.75.195-.75m0-3c.108 0 .195.336.195.75 0 .415-.087.75-.195.75-.107 0-.195-.335-.195-.75 0-.414.088-.75.195-.75m0-3c.108 0 .195.336.195.75 0 .415-.087.75-.195.75-.107 0-.195-.335-.195-.75 0-.414.088-.75.195-.75m0-3c.108 0 .195.336.195.75 0 .415-.087.75-.195.75-.107 0-.195-.335-.195-.75 0-.414.088-.75.195-.75m.654-2.346c0 .1-.285.181-.654.194l.194-.195.001.097c0 .415-.087.75-.195.75-.107 0-.195-.335-.195-.75l.002-.096.003-.2.19.006c.37.013.654.094.654.194m3 0c0 .108-.336.195-.75.195s-.75-.087-.75-.195c0-.108.336-.196.75-.196s.75.088.75.196m3 0c0 .108-.336.195-.75.195s-.75-.087-.75-.195c0-.108.336-.196.75-.196s.75.088.75.196m3 0c0 .108-.336.195-.75.195s-.75-.087-.75-.195c0-.108.336-.196.75-.196s.75.088.75.196m3 0c0 .108-.336.195-.75.195s-.75-.087-.75-.195c0-.108.336-.196.75-.196s.75.088.75.196m3 0c0 .108-.336.195-.75.195s-.75-.087-.75-.195c0-.108.336-.196.75-.196s.75.088.75.196m3 0c0 .108-.336.195-.75.195s-.75-.087-.75-.195c0-.108.336-.196.75-.196s.75.088.75.196m3 0c0 .108-.336.195-.75.195s-.75-.087-.75-.195c0-.108.336-.196.75-.196s.75.088.75.196m3 0c0 .108-.336.195-.75.195s-.75-.087-.75-.195c0-.108.336-.196.75-.196s.75.088.75.196m3 0c0 .108-.336.195-.75.195s-.75-.087-.75-.195c0-.108.336-.196.75-.196s.75.088.75.196m3 0c0 .108-.336.195-.75.195s-.75-.087-.75-.195c0-.108.336-.196.75-.196s.75.088.75.196m3 0c0 .108-.337.195-.75.195-.415 0-.75-.087-.75-.195 0-.108.335-.196.75-.196.413 0 .75.088.75.196m3 0c0 .108-.336.195-.75.195-.415 0-.75-.087-.75-.195 0-.108.335-.196.75-.196.414 0 .75.088.75.196m3 0c0 .108-.337.195-.75.195-.415 0-.75-.087-.75-.195 0-.108.335-.196.75-.196.413 0 .75.088.75.196m3 0c0 .108-.337.195-.75.195-.415 0-.75-.087-.75-.195 0-.108.335-.196.75-.196.413 0 .75.088.75.196m3 0c0 .108-.337.195-.75.195-.415 0-.75-.087-.75-.195 0-.108.335-.196.75-.196.413 0 .75.088.75.196m3 0c0 .108-.337.195-.75.195-.415 0-.75-.087-.75-.195 0-.108.335-.196.75-.196.413 0 .75.088.75.196m3 0c0 .108-.337.195-.75.195-.415 0-.75-.087-.75-.195 0-.108.335-.196.75-.196.413 0 .75.088.75.196m3 0c0 .108-.337.195-.75.195-.415 0-.75-.087-.75-.195 0-.108.335-.196.75-.196.413 0 .75.088.75.196m3 0c0 .108-.337.195-.75.195-.415 0-.75-.087-.75-.195 0-.108.335-.196.75-.196.413 0 .75.088.75.196m3 0c0 .108-.337.195-.75.195-.415 0-.75-.087-.75-.195 0-.108.335-.196.75-.196.413 0 .75.088.75.196m3 0c0 .108-.337.195-.75.195-.415 0-.75-.087-.75-.195 0-.108.335-.196.75-.196.413 0 .75.088.75.196m3 0c0 .108-.337.195-.75.195-.415 0-.75-.087-.75-.195 0-.108.335-.196.75-.196.413 0 .75.088.75.196m3 0c0 .108-.337.195-.75.195-.415 0-.75-.087-.75-.195 0-.108.335-.196.75-.196.413 0 .75.088.75.196m3 0c0 .108-.337.195-.75.195-.415 0-.75-.087-.75-.195 0-.108.335-.196.75-.196.413 0 .75.088.75.196m3 0c0 .108-.337.195-.75.195-.415 0-.75-.087-.75-.195 0-.108.335-.196.75-.196.413 0 .75.088.75.196m3 0c0 .108-.337.195-.75.195-.415 0-.75-.087-.75-.195 0-.108.335-.196.75-.196.413 0 .75.088.75.196m3 0c0 .108-.337.195-.75.195-.415 0-.75-.087-.75-.195 0-.108.335-.196.75-.196.413 0 .75.088.75.196m2.48.519c-.087 0-.16-.217-.186-.52l.185.186a2.73 2.73 0 01-.23.01c-.414 0-.75-.087-.75-.195 0-.108.336-.196.75-.196.081 0 .16.004.23.01l.2.017-.014.169c-.025.302-.098.52-.185.52m0 2.999c-.108 0-.196-.335-.196-.749s.088-.75.196-.75c.107 0 .195.336.195.75s-.088.75-.195.75m0 2.999c-.108 0-.196-.335-.196-.749s.088-.75.196-.75c.107 0 .195.336.195.75s-.088.75-.195.75m0 2.999c-.108 0-.196-.335-.196-.749s.088-.75.196-.75c.107 0 .195.336.195.75s-.088.75-.195.75m0 2.999c-.108 0-.196-.335-.196-.749s.088-.75.196-.75c.107 0 .195.336.195.75s-.088.75-.195.75m0 2.999c-.108 0-.196-.335-.196-.749s.088-.75.196-.75c.107 0 .195.336.195.75s-.088.75-.195.75m0 2.999c-.108 0-.196-.335-.196-.749s.088-.75.196-.75c.107 0 .195.336.195.75s-.088.75-.195.75m0 2.999c-.108 0-.196-.335-.196-.749s.088-.75.196-.75c.107 0 .195.336.195.75s-.088.75-.195.75m0 2.999c-.108 0-.196-.335-.196-.749s.088-.75.196-.75c.107 0 .195.336.195.75s-.088.75-.195.75m0 2.999c-.108 0-.196-.335-.196-.749s.088-.75.196-.75c.107 0 .195.336.195.75s-.088.75-.195.75m0 2.999c-.108 0-.196-.335-.196-.749s.088-.75.196-.75c.107 0 .195.336.195.75s-.088.75-.195.75m0 2.999c-.108 0-.196-.335-.196-.749s.088-.75.196-.75c.107 0 .195.336.195.75s-.088.75-.195.75m-56.324-5.735c0-.108.335-.195.75-.195-.39.39-.109.108-.196.195v-.04l.001-.037.003-.074.011-.141c.01-.09.025-.17.043-.238.035-.136.084-.22.138-.22.053 0 .102.084.137.22.018.068.033.148.042.238l.012.141.003.073.001.058v.02l-.196.196c-.413 0-.75-.089-.75-.196m-2.801 0c0-.108.314-.195.7-.195.388 0 .7.087.7.195 0 .107-.312.196-.7.196-.386 0-.7-.089-.7-.196m-2.801 0c0-.108.313-.195.7-.195.388 0 .701.087.701.195 0 .107-.313.196-.7.196-.388 0-.701-.089-.701-.196m-2.801 0c0-.108.313-.195.7-.195.386 0 .7.087.7.195 0 .107-.313.196-.7.196-.387 0-.7-.089-.7-.196m-2.802 0c0-.108.314-.195.7-.195.388 0 .7.087.7.195 0 .107-.312.196-.7.196-.386 0-.7-.089-.7-.196m-2.8 0c0-.108.313-.195.7-.195.387 0 .7.087.7.195 0 .107-.313.196-.7.196-.387 0-.7-.089-.7-.196m-2.802 0c0-.108.313-.195.7-.195.387 0 .7.087.7.195 0 .107-.313.196-.7.196-.386 0-.7-.089-.7-.196m-2.801 0c0-.108.313-.195.7-.195.387 0 .7.087.7.195 0 .107-.313.196-.7.196-.387 0-.7-.089-.7-.196m-2.151-.75c.108 0 .196.336.196.75-.391-.391-.109-.109-.196-.195h.077l.074.004.14.01c.09.01.171.025.239.043.136.035.22.084.22.138 0 .054-.084.102-.22.138a1.727 1.727 0 01-.239.042l-.14.011-.074.003h-.038l-.02.001h-.019l-.195-.195c0-.414.087-.75.195-.75m0-3.02c.108 0 .196.338.196.755s-.088.755-.196.755c-.108 0-.195-.338-.195-.755s.087-.755.195-.755m0-3.019c.108 0 .196.337.196.755 0 .417-.088.755-.196.755-.108 0-.195-.338-.195-.755 0-.418.087-.755.195-.755m0-3.02c.108 0 .196.339.196.756 0 .416-.088.754-.196.754-.108 0-.195-.338-.195-.754 0-.417.087-.756.195-.756m0-3.019c.108 0 .196.338.196.754 0 .418-.088.755-.196.755-.108 0-.195-.337-.195-.755 0-.416.087-.754.195-.754m0-3.02c.108 0 .196.338.196.755s-.088.756-.196.756c-.108 0-.195-.34-.195-.756 0-.417.087-.755.195-.755m0-3.019c.108 0 .196.338.196.754 0 .418-.088.756-.196.756-.108 0-.195-.338-.195-.756 0-.416.087-.754.195-.754m.75-2.26c0 .108-.336.196-.75.196.39-.391.108-.108.196-.195v.01l-.001.008v.02l-.001.037-.003.076-.011.14a1.7 1.7 0 01-.042.239c-.036.136-.084.22-.138.22-.054 0-.103-.084-.138-.22a1.747 1.747 0 01-.042-.238l-.011-.141-.004-.076v-.076l.195-.195c.414 0 .75.087.75.195m2.801 0c0 .108-.313.196-.7.196-.387 0-.7-.088-.7-.196 0-.108.313-.195.7-.195.387 0 .7.087.7.195m2.801 0c0 .108-.313.196-.7.196-.386 0-.7-.088-.7-.196 0-.108.313-.195.7-.195.387 0 .7.087.7.195m2.802 0c0 .108-.314.196-.7.196-.387 0-.7-.088-.7-.196 0-.108.313-.195.7-.195.386 0 .7.087.7.195m2.8 0c0 .108-.312.196-.699.196-.387 0-.7-.088-.7-.196 0-.108.313-.195.7-.195.387 0 .7.087.7.195m2.801 0c0 .108-.313.196-.7.196-.387 0-.7-.088-.7-.196 0-.108.313-.195.7-.195.386 0 .7.087.7.195m2.802 0c0 .108-.313.196-.7.196-.388 0-.701-.088-.701-.196 0-.108.313-.195.7-.195.388 0 .701.087.701.195m2.8 0c0 .108-.312.196-.7.196-.386 0-.7-.088-.7-.196 0-.108.314-.195.7-.195.388 0 .7.087.7.195m2.152.751c-.109 0-.196-.336-.196-.75l.196.195h-.039l-.038-.001-.074-.003-.141-.012a1.64 1.64 0 01-.239-.042c-.136-.034-.22-.084-.22-.138 0-.053.084-.103.22-.138a1.71 1.71 0 01.239-.041l.14-.012.075-.003.038-.001h.038l.196.196c0 .414-.088.75-.196.75m.001 3.019c-.109 0-.196-.338-.196-.756 0-.416.087-.754.196-.754.107 0 .195.338.195.754 0 .418-.088.756-.196.756m.001 3.02c-.109 0-.196-.34-.196-.756 0-.417.087-.755.196-.755.107 0 .195.338.195.755s-.088.756-.196.756m.001 3.018c-.109 0-.196-.337-.196-.754s.087-.755.196-.755c.107 0 .195.338.195.755s-.088.755-.196.755m.001 3.019c-.109 0-.196-.338-.196-.754 0-.417.087-.756.196-.756.107 0 .195.339.195.756 0 .416-.088.754-.196.754m.001 3.02c-.109 0-.196-.338-.196-.755 0-.418.087-.755.196-.755.107 0 .195.337.195.755 0 .417-.088.755-.196.755m.001 3.019c-.109 0-.196-.338-.196-.755s.087-.755.196-.755c.107 0 .195.338.195.755s-.088.755-.196.755"/><path fill="#2472FF" d="M37.909 192.25h1.074v-1.074h-1.074zm0-21.127h1.074v-1.073h-1.074zm22.51 0h1.074v-1.073h-1.075zm0 20.59h1.074v-1.074h-1.075zm-11.792.537h1.074v-1.074h-1.074zm.537-21.127h1.073v-1.073h-1.073zm-11.255 11.1h1.074v-1.073h-1.074zm21.973-.536h1.074v-1.074h-1.074z"/><path fill="#81ADFF" d="M19.14 23.836h263.735v-9.428H19.14z"/><path fill="#D4E3FF" d="M19.14 23.836h263.735v-9.428H19.14z"/><path d="M25.018 18.829c0 .777-.66 1.408-1.475 1.408-.814 0-1.474-.63-1.474-1.408 0-.778.66-1.408 1.474-1.408.815 0 1.475.63 1.475 1.408m4.497 0c0 .777-.66 1.408-1.474 1.408s-1.474-.63-1.474-1.408c0-.778.66-1.408 1.474-1.408s1.474.63 1.474 1.408m4.499 0c0 .777-.66 1.408-1.475 1.408-.814 0-1.475-.63-1.475-1.408 0-.778.661-1.408 1.475-1.408.814 0 1.475.63 1.475 1.408" fill="#2472FF"/><path d="M93.84 85.642l-.099-5.062-4.007-6.212s-.847-.002-.935 1.098c-.089 1.1.445 3.202.445 3.202l-7.865-9.27a.989.989 0 00-1.564 1.206l3.582 5.13s-2.37-.516-1.87 2.194c0 0-2.24 1.28-.49 4.299 1.75 3.02 5.187 7.74 5.187 7.74l4.743-.66 2.874-3.665" fill="#F1AD92"/><path d="M83.222 76.2c.041-.035.553.508 1.347 1.415.422.492.882 1.03 1.378 1.606.249.303.556.621.74 1.073.088.226.135.48.102.743a1.082 1.082 0 01-.391.706c-.448.345-1.012.35-1.467.178-.454-.182-.781-.506-1.047-.814-.516-.63-.931-1.2-1.298-1.682-.721-.965-1.147-1.579-1.105-1.612.043-.034.544.52 1.322 1.44l1.35 1.617c.258.284.556.556.916.694.343.13.796.107 1.082-.124.293-.222.318-.654.18-1.008-.139-.36-.413-.669-.662-.981l-1.313-1.66c-.74-.951-1.175-1.557-1.134-1.592" fill="#EA8E6C"/><path d="M82.255 79.195c.041-.034.553.51 1.347 1.417l1.377 1.605c.25.303.557.621.74 1.073.089.227.135.48.102.744a1.08 1.08 0 01-.39.706c-.448.344-1.013.349-1.468.177-.453-.182-.78-.506-1.047-.814-.515-.63-.93-1.2-1.297-1.682-.722-.965-1.147-1.579-1.105-1.612.042-.034.544.519 1.32 1.44l1.352 1.617c.257.284.555.557.914.694.344.132.797.107 1.084-.124.292-.222.317-.654.178-1.008-.137-.36-.412-.668-.66-.982l-1.314-1.658c-.739-.952-1.175-1.558-1.133-1.593m8.008 6.15c-.027.03-.397-.25-.68-.918a3.615 3.615 0 01.005-2.757c.141-.338.336-.645.552-.897l-.027.202c-.666-1.482-1.102-2.592-1.02-2.63.082-.038.653 1.008 1.361 2.47l.052.106-.08.097a3.356 3.356 0 00-.478.803c-.391.925-.303 1.887-.107 2.511.196.638.474.972.422 1.013" fill="#EA8E6C"/><path d="M206.627 114.01l-2.144 5.397v3.908l6.948 1.44 2.836-2.829 4.188-6.666c.27-.43.183-.995-.207-1.324l-1.18-.997.054-.283a1.695 1.695 0 00-1.039-1.895l-.925-.368 2.077-4.505a1.585 1.585 0 00-.394-1.855l-6.246 7.532-3.278.71-.69 1.735" fill="#F1AD92"/><path d="M217.165 112.775c.04.031-.248.484-.825 1.13-.298.319-.626.697-1.11 1.064-.242.173-.566.33-.93.326-.353.014-.785-.192-.948-.573-.169-.361-.13-.759-.022-1.074.108-.32.267-.581.4-.828l.743-1.31c.433-.741.724-1.187.772-1.162.048.026-.158.517-.528 1.291l-.668 1.35c-.256.494-.577 1.063-.343 1.566.105.235.339.354.599.358.258.008.502-.097.722-.241.433-.304.806-.677 1.116-.96.616-.585.977-.974 1.022-.938" fill="#EA8E6C"/><path d="M218.542 114.833c.044.031-.237.489-.734 1.207-.252.358-.519.794-.98 1.206-.415.407-1.344.71-1.941.04-.27-.344-.23-.783-.135-1.094.1-.327.242-.595.374-.856.274-.517.576-.95.854-1.291.56-.683 1.007-1.002 1.038-.967.042.044-.332.43-.817 1.132a9.83 9.83 0 00-.754 1.29c-.118.252-.25.523-.327.796-.078.272-.08.558.074.749.147.193.437.27.697.245.26-.02.499-.156.707-.32.411-.338.723-.772.993-1.1.545-.668.906-1.068.95-1.037m-8.292 4.859c-.057-.036.441-.528.667-1.571.117-.519.089-1.152-.09-1.85-.18-.677-.473-1.476-1.088-1.975l-.38-.309.484-.036c.416-.03.847-.14 1.26-.314.588-.248 1.11-.617 1.47-1.064.369-.446.53-.982.48-1.468l.207.144a94.32 94.32 0 01-2.719.523c-.66.115-1.04.164-1.046.128-.008-.036.359-.15 1.006-.323.646-.171 1.571-.4 2.682-.66l.182-.041.026.185c.082.58-.11 1.236-.521 1.746-.406.514-.974.918-1.615 1.19-.45.19-.921.308-1.387.338l.105-.344c.743.626 1.005 1.481 1.181 2.203.167.732.168 1.44.007 1.983a3.38 3.38 0 01-.572 1.182c-.189.243-.323.346-.339.333" fill="#EA8E6C"/><g transform="translate(186.75 293.238)"><mask id="d" fill="#fff"><use xlink:href="#c"/></mask><path fill="#F1AD92" mask="url(#d)" d="M13.786.12l3.073 23.848-10.804.687L.506 1.774 13.786.12"/><path d="M5.045 20.03s8.257 4.322 11.274-.8l1.257 2.112 6.453 15.392c.418.997.088 2.202-.856 2.728a2.085 2.085 0 01-2.248-.122C17.426 36.816 4.603 27.46 4.513 25.966l-.49-3.928c-.1-.814.304-1.61 1.022-2.009" fill="#2472FF" mask="url(#d)"/><path d="M22.094 39.75c-.436 0-.869-.136-1.23-.4-7.8-5.685-12.014-9.03-14.169-10.946h.011c3.839 3.389 11.614 9.056 14.219 10.936a2.07 2.07 0 001.893.28c-.235.087-.48.13-.724.13M6.281 28.023h-.008c-.277-.254-.51-.479-.707-.676.211.21.451.435.715.676" fill="#FFFFFE" mask="url(#d)"/></g><path d="M193.445 321.642c-.15-.134-.291-.261-.422-.381h.008c.135.123.278.25.425.381h-.01" fill="#97A19F"/><g transform="translate(190.5 317.238)"><mask id="f" fill="#fff"><use xlink:href="#e"/></mask><path d="M1.58 3.11c-.276-.273-.522-.502-.686-.823.134.216.369.495.685.823M.76 1.924a2.351 2.351 0 01-.067-.466L.573.602.596.62l.162 1.304" fill="#FFFFFE" mask="url(#f)"/><path d="M18.389 15.733a2.07 2.07 0 01-1.214-.393C14.569 13.46 6.795 7.794 2.956 4.405a38.8 38.8 0 01-.425-.381 24.51 24.51 0 01-.715-.676c-.036-.034-.069-.069-.102-.102a7.714 7.714 0 00-.135-.135c-.316-.328-.55-.607-.685-.823a1.738 1.738 0 01-.136-.363L.596.62l18.472 15a2.104 2.104 0 01-.68.114" fill="#334F55" mask="url(#f)"/></g><path d="M192.56 317.238c-.16 0-.319-.032-.465-.103-.56-.268-.914-1.15-.597-1.684.216-.361.698-.609 1.135-.609.21 0 .409.058.563.184.486.315.708 1 .468 1.529-.189.419-.65.683-1.104.683" fill="#EEA8AB"/><path d="M203.713 324.675c.122.04.43-1.082 1.552-1.82 1.1-.77 2.256-.642 2.264-.77.01-.052-.267-.174-.75-.174-.478-.003-1.153.158-1.767.573-.612.418-1.011.985-1.185 1.43-.177.449-.167.751-.114.761m1.817 2.505c.11.074.666-.674 1.67-1.12.993-.468 1.922-.4 1.937-.53.044-.112-.989-.404-2.124.123-1.142.514-1.595 1.487-1.482 1.527m-4.984-5.598c.108.082.959-1.072 2.459-1.902 1.487-.853 2.914-.983 2.899-1.118.018-.113-1.523-.183-3.12.727-1.605.895-2.343 2.25-2.238 2.293m-1.019-4.814c.071.113 1.123-.51 2.567-.764 1.442-.277 2.647-.069 2.672-.2.042-.108-1.203-.535-2.753-.241-1.553.278-2.564 1.12-2.486 1.205" fill="#132529"/><path d="M202.917 315.847c.025-.008-.017-.283-.216-.742a5.376 5.376 0 00-1.219-1.726c-.329-.29-.7-.68-1.325-.757a.842.842 0 00-.84.476c-.145.325-.112.667-.017.976.428 1.223 1.879 2.062 3.32 1.78 1.439-.307 2.434-1.517 2.631-2.761.03-.315 0-.68-.258-.957-.257-.282-.695-.282-.956-.143-.547.277-.8.73-1.056 1.087a5.988 5.988 0 00-.823 1.943c-.107.487-.101.764-.076.767.085.029.174-1.113 1.161-2.532.255-.336.542-.749.943-.924.196-.087.396-.065.522.075.126.131.166.387.133.638-.177 1.023-1.09 2.127-2.31 2.368-1.212.25-2.485-.49-2.839-1.471-.081-.237-.097-.498-.017-.682a.454.454 0 01.46-.268c.427.027.815.35 1.133.62 1.289 1.151 1.57 2.28 1.649 2.233" fill="#132529"/><path fill="#F1AD92" d="M167.352 292.309l.307 24.437-13.198-.508-1.955-23.64 14.846-.29"/><path d="M154.232 313.288s-14.64 5.457-14.801 8.163l28.319-.05.024-7.405-1.04.239a21.033 21.033 0 01-12.502-.947" fill="#2472FF"/><path d="M164.235 317.541a.922.922 0 01-.23-.029c-.55-.138-1.03-.863-.843-1.4.148-.421.648-.772 1.099-.772.12 0 .238.026.344.082.492.192.818.766.7 1.284-.11.478-.588.835-1.07.835" fill="#EEA8AB"/><path d="M139.421 321.257c.033-.545.579-.94.898-1.125-.453.403-.754.782-.853 1.125h-.045m28.33 0l.006-2.154h.017l-.023 2.154" fill="#FFFFFE"/><path d="M139.431 321.45a.891.891 0 01-.01-.193h.044a.907.907 0 00-.034.194l28.319-.05v-.144h.001l-.001.144-28.319.05" fill="#97A19F"/><path d="M139.431 321.45a.907.907 0 01.034-.193c.1-.343.401-.722.854-1.125a2.28 2.28 0 01.227-.12l27.211-.909-.007 2.154v.144l-28.319.05" fill="#334F55"/><path d="M153.773 313.145c.005.139.697.2 1.377.643.693.426 1.046 1.024 1.172.969.128-.027-.08-.853-.914-1.376-.83-.53-1.665-.362-1.635-.236m-2.968 1.234c-.031.133.568.368 1.038.952.489.57.608 1.203.746 1.196.13.022.224-.788-.375-1.503-.593-.72-1.406-.777-1.409-.645m-1.68 3.558c.125.03.316-.662-.04-1.419-.351-.76-1.004-1.057-1.062-.942-.078.115.343.52.626 1.146.298.619.339 1.202.476 1.215" fill="#132529"/><path d="M154.08 313.065c0 .057.546.141 1.419-.01a6.432 6.432 0 002.297-.893c.13-.083.285-.168.428-.334.152-.144.238-.511.061-.735a.76.76 0 00-.606-.316c-.209-.005-.378.037-.531.075a5.04 5.04 0 00-2.188 1.165c-.656.61-.88 1.126-.832 1.153.062.046.381-.388 1.05-.891a5.62 5.62 0 011.263-.715c.253-.102.526-.189.814-.252.3-.08.555-.083.632.05.028.051.031.072-.031.16-.065.08-.186.16-.315.243a7.29 7.29 0 01-.748.43 7.808 7.808 0 01-1.37.528c-.811.228-1.345.267-1.342.342" fill="#132529"/><path d="M154.26 313.262c.05.022.324-.474.373-1.37a4.58 4.58 0 00-.559-2.413c-.167-.28-.37-.654-.906-.714-.28-.01-.513.209-.592.396-.094.192-.112.356-.144.52a3.269 3.269 0 00.609 2.419c.554.734 1.132.898 1.143.851.046-.07-.436-.335-.862-1.04a3.278 3.278 0 01-.45-1.332 2.965 2.965 0 01.024-.82c.045-.3.157-.544.27-.513.14-.002.38.224.497.464.145.254.262.513.352.768.179.511.257 1 .277 1.415.04.83-.106 1.349-.031 1.37m38.775-125.05c-.587-13.202-10.726-27.63-10.726-27.63l-15.607-1.305-.004-.055-.33.027-17.942 1.46s-7.902 17.235-5.848 37.77c2.053 20.535 8.997 96.094 8.997 96.094h16.456l.362-109.332 16.662 113.034h16.471s-7.905-96.863-8.491-110.064" fill="#132529"/><path fill="#334F55" d="M149.576 292.705l2.294 11.142 16.766-.056 1.013-10.261-20.073-.825m34.372 3.558l3.67 12.555 15.603-2.177-.812-14.115-18.461 3.737m-14.884-111.12c-.002.013-.085.011-.246-.008a1.716 1.716 0 01-.649-.287c-.517-.362-1.003-1.172-1.239-2.237-.384-2.127-.744-5.056-1.096-8.31a257.642 257.642 0 01-.744-8.338 100.616 100.616 0 01-.154-2.533c-.026-.599-.026-.93 0-.933.027-.002.079.326.152.92l.277 2.522.857 8.32c.35 3.244.67 6.195.978 8.295.195 1.031.615 1.806 1.063 2.173.451.37.813.374.8.416m-1.395-23.421c-.006-.018.125-.096.392-.133a1.72 1.72 0 011.118.238c.42.256.847.736.97 1.407.062.33.019.72-.176 1.05-.189.336-.516.581-.878.722-.72.284-1.588.115-2.034-.438-.451-.538-.467-1.208-.346-1.673.121-.481.378-.809.584-.98.212-.172.36-.211.37-.192.052.047-.526.348-.684 1.229-.076.417-.02.977.347 1.38.347.409 1.033.54 1.624.31.61-.217.939-.806.837-1.351a1.888 1.888 0 00-.764-1.232c-.734-.493-1.364-.249-1.36-.337"/><path d="M145.558 103.896l-27.692-2.766-22.443-18.898-9.785 10.067 17.305 17.752a26.229 26.229 0 0015.022 7.651c9.92 1.438 24.668 3.496 24.819 3.047.227-.678 2.774-16.853 2.774-16.853" fill="#2472FF"/><path d="M142.784 120.75l2.16 23.916-.163 12.64s1.601 3.437 3.507 3.405h33.234c.607.001 1.295-.376 1.945-.957 2.062-1.841 2.617-4.852 1.549-7.401l-4.264-10.381 1.412-24.38-2.906-9.41-.936-2.716-16.829-1.096-15.935-.474-2.774 16.853" fill="#2472FF"/><path d="M176.598 105.385s10.673-.165 13.156 5.826c1.46 3.523 13.228 25.35 16.154 34.037 0 0-3.524 7.819-6.18 8.668-7.238 1.858-12.065-4.011-13.953-8.96l-5.15-13.754-4.027-25.817" fill="#2472FF"/><path d="M204.483 121.491l-2.708 5.263-8.286 17.582 3.65 9.93c4.165.72 8.722-5.077 9.891-9.139l6.506-21.802-9.053-1.834" fill="#2472FF"/><path d="M204.484 121.489c.096.048-2.707 5.827-6.26 12.907-3.555 7.082-6.513 12.782-6.61 12.733-.096-.048 2.706-5.826 6.26-12.908 3.554-7.08 6.514-12.78 6.61-12.732m-22.704 2.495c.108.006-.036 4.038-.319 9.004-.284 4.97-.602 8.99-.71 8.984-.107-.006.036-4.037.32-9.006.284-4.966.602-8.988.709-8.982m-28.012 34.663c-.017.1-1.156-.236-1.995-1.357-.852-1.111-.867-2.3-.766-2.287.115-.021.297 1.04 1.077 2.052.762 1.025 1.735 1.487 1.684 1.592m5.102-.337c-.074.069-.757-.596-1.22-1.657-.471-1.059-.501-2.011-.4-2.02.113-.017.31.863.757 1.863.437 1.002.952 1.742.863 1.814m8.757-4.394c.089-.048.56 1.106.265 2.556-.281 1.455-1.157 2.342-1.22 2.264-.096-.069.581-.994.836-2.34.278-1.339.005-2.454.12-2.48m7.799.714c.098-.023.34 1.098-.004 2.437-.333 1.344-1.078 2.215-1.152 2.149-.098-.064.463-.983.773-2.244.325-1.258.267-2.332.383-2.342m.486-49.245c.014 0 .024.132.033.386.014.254.015.628-.002 1.11-.036.96-.137 2.368-.623 4.039-.487 1.653-1.471 3.588-3.247 5.096-1.745 1.514-4.253 2.514-6.93 2.503-1.337-.02-2.642-.297-3.792-.825a7.4 7.4 0 01-2.834-2.248c-1.399-1.88-1.865-3.973-2.144-5.662a21.537 21.537 0 01-.2-4.08c.03-.481.057-.854.093-1.106.031-.251.055-.382.068-.381.033.003-.004.533-.01 1.491-.001.957.047 2.347.322 4.032.307 1.659.804 3.705 2.157 5.486a7.096 7.096 0 002.708 2.121c1.1.498 2.35.762 3.636.782 2.578.009 4.998-.942 6.694-2.388 1.726-1.44 2.703-3.293 3.215-4.903.51-1.626.654-3.014.736-3.966.08-.956.083-1.488.12-1.487" fill="#132529"/><path d="M165.767 118.17c.093.041-.329 1.192-.957 2.619l-.157.355-.19-.34-.12-.21c-.813-1.456-1.397-2.68-1.302-2.733.094-.053.83 1.086 1.644 2.543l.117.21-.348.016c.643-1.42 1.219-2.502 1.313-2.46" fill="#132529"/><path d="M172.082 130.016c-.138-.342-.451-.653-.721-.904-.271-.25-.546-.523-.656-.875-.112-.352.004-.803.343-.948.292-.125.644.023.852.263.208.242.38.455.505.724.17-.362.245-.602.571-.833.327-.23.841-.246 1.08.075.15.201.152.483.064.718-.089.234-.255.43-.43.61a6.654 6.654 0 01-1.614 1.226" fill="#FAF9F6"/><path d="M160.268 113.922c.052.094-.29.383-.765.643-.474.26-.9.395-.952.3-.053-.094.29-.382.765-.642.474-.261.9-.395.952-.301m-1.48-3.849c.02.106-.432.285-1.011.4-.58.114-1.065.121-1.086.015-.021-.106.431-.284 1.01-.4.579-.113 1.065-.12 1.087-.015m-.045-3.42c-.053.097-.592-.095-1.261-.278-.667-.188-1.228-.302-1.222-.413.002-.104.612-.163 1.327.037.716.197 1.207.563 1.156.654m5.557 11.723c-.109-.012-.154-.435-.103-.946.05-.512.178-.918.286-.907.107.011.153.434.103.946-.052.51-.18.917-.287.907m4.602-.994c-.1.04-.329-.3-.512-.76-.182-.461-.25-.867-.149-.907.1-.04.33.302.512.761.183.462.25.867.15.906m4.14-2.744c-.084.069-.445-.24-.866-.627-.42-.388-.757-.72-.696-.811.059-.089.515.114.96.524.446.409.685.847.602.913m2.357-4.274c-.048.1-.539-.036-1.133-.208-.592-.175-1.08-.326-1.065-.434.012-.106.55-.125 1.175.06.626.181 1.069.487 1.023.582m.135-3.741c.016.107-.525.277-1.208.381-.684.105-1.251.102-1.268-.005-.016-.107.525-.277 1.209-.381.683-.104 1.251-.101 1.267.005m-38.628 3.793c.028-.035.635.368 1.488 1.174a17.184 17.184 0 014.644 7.795c.303 1.134.369 1.86.325 1.867-.126.037-.63-2.846-2.458-5.877-1.795-3.05-4.09-4.865-3.999-4.959" fill="#132529"/><path d="M191.933 146.145c-.855-.707-1.082-1.963-.846-3.047.235-1.083.853-2.039 1.46-2.967 1.767-2.704 4.825-7.125 6.591-9.828.4.811.058.115.352.713a1168.7 1168.7 0 00-1.616 3.205 781.552 781.552 0 00-4.563 9.224l-1.378 2.7" fill="#1B4C95"/><path d="M193.311 143.445a781.552 781.552 0 014.563-9.224 1168.7 1168.7 0 011.616-3.205l.079.16-6.258 12.269" fill="#051317"/><path d="M142.85 119.698a273.342 273.342 0 01-11.036-7.796c-.764-.569-1.617-1.38-1.379-2.303.146-.562.69-.954 1.259-1.071a2.5 2.5 0 01.495-.048c.411 0 .825.09 1.224.2 2.457.68 4.657 2.181 6.298 4.132a15.244 15.244 0 012.517 4.286 17.184 17.184 0 00-3.834-5.509c-.82-.773-1.411-1.176-1.482-1.176-.002 0-.004 0-.006.002-.092.094 2.204 1.909 3.999 4.959.982 1.627 1.58 3.21 1.945 4.324" fill="#1B4C95"/><path d="M142.853 119.7c-.001-.002-.002-.002-.003-.002-.364-1.113-.963-2.697-1.945-4.324-1.795-3.05-4.09-4.865-3.999-4.959.002-.002.004-.002.006-.002.071 0 .663.403 1.482 1.177.852.803 1.925 2.041 2.847 3.584.387.654.715 1.305.987 1.924.321.825.577 1.677.768 2.54l-.143.061" fill="#051317"/><path d="M176.02 135.108c.012.04-.52.25-1.434.353-.91.107-2.205.053-3.552-.368-1.344-.426-2.437-1.125-3.122-1.733-.689-.61-1.006-1.086-.972-1.113.048-.043.435.363 1.146.897a10.438 10.438 0 003.065 1.577c1.293.404 2.529.499 3.416.465.89-.03 1.439-.142 1.453-.078m.242 14.408c.001.014-.103.033-.303.057-.2.02-.496.065-.877.079-.765.05-1.878.05-3.243-.092-2.718-.268-6.5-1.287-9.987-3.666-3.488-2.38-5.817-5.53-7.059-7.96a19.753 19.753 0 01-1.268-2.987c-.127-.36-.193-.651-.248-.846-.05-.194-.07-.299-.056-.302.03-.01.17.39.447 1.097a24.22 24.22 0 001.369 2.906c1.288 2.37 3.611 5.434 7.036 7.77 3.422 2.334 7.122 3.379 9.798 3.714a24.26 24.26 0 003.206.214c.76-.001 1.183-.015 1.185.016" fill="#132529"/><path d="M172.873 149.883a21.204 21.204 0 01-9.006-2.774c2.875 1.525 5.772 2.234 7.972 2.45.515.055.993.088 1.43.106-.056.137-.183.218-.396.218m.434-.45c-.44-.032-.92-.08-1.435-.147-2.677-.335-6.377-1.38-9.8-3.715-2.734-1.865-4.766-4.195-6.13-6.264 2.784 3.299 6.788 5.564 11.064 6.185 1.4.203 2.868.251 4.123.905.925.482 2.159 2.209 2.178 3.037" fill="#1B4C95"/><path d="M173.27 149.665a22.693 22.693 0 01-1.431-.105c-2.2-.217-5.097-.927-7.972-2.451-6.381-3.669-9.24-9.58-9.24-9.58.4.621.84 1.215 1.315 1.778 1.364 2.07 3.396 4.399 6.13 6.264 3.423 2.335 7.123 3.38 9.8 3.715.515.067.995.115 1.435.148a.569.569 0 01-.037.23" fill="#09181B"/><path d="M178.978 79.973c.618-1.556 2.537-2.457 4.13-1.94 1.592.517 2.614 2.374 2.2 3.996-.154.603-.419 1.38.09 1.74.454.32 1.054-.057 1.594-.196.847-.219 1.765.225 2.312.91.545.685.78 1.567.9 2.434.287 2.056-.054 4.318-1.459 5.844-1.406 1.527-4.048 1.972-5.573.565.15 1.437-1.058 2.809-2.48 3.056-1.423.248-2.907-.494-3.77-1.652-.864-1.159-1.162-2.665-1.073-4.106.089-1.441.538-2.836 1.052-4.186" fill="#132529"/><path d="M150.358 88.415c-1.489.377-2.849-1.185-3.037-2.71-.188-1.524.36-3.034.524-4.561.252-2.357-.415-4.71-.524-7.079-.109-2.367.549-5.052 2.607-6.23 2.01-1.15 4.592-.452 6.797-1.164 1.56-.505 2.812-1.678 4.3-2.364 2.714-1.252 6.17-.661 8.314 1.42 1.038 1.007 1.84 2.355 3.182 2.89 1.34.534 2.872.112 4.286.397 1.59.321 2.907 1.553 3.575 3.032.667 1.48.74 3.174.467 4.774-.293 1.722-.974 3.408-.85 5.15.183 2.6 2.133 5.106 1.335 7.585-.946 2.936-5.007 3.606-6.627 6.231-.421.683-.652 1.464-1.018 2.177-.366.715-.923 1.396-1.696 1.606-.775.211-1.752-.262-1.826-1.06" fill="#132529"/><path d="M172.484 71.625l.017 2.33.66 34.922c.057 4.049-3.2 6.928-7.536 6.956-4.378.029-6.779-2.692-6.904-6.781-.131-4.291-.349-8.806-.349-8.806s-5.553-.766-6.898-7.947c-.668-3.572-.65-9.458-.48-14.274.154-4.335 3.881-7.67 8.206-7.332l13.284.932" fill="#F1AD92"/><path d="M154.286 82.207c-.004.49.407.896.918.91.51.012.927-.372.93-.86.004-.49-.406-.897-.916-.91-.511-.014-.928.372-.932.86m-1.932-1.157c.119.117.805-.42 1.8-.446.995-.038 1.74.453 1.844.329.052-.056-.071-.27-.395-.493a2.535 2.535 0 00-1.481-.412c-.62.02-1.135.263-1.428.505-.3.243-.397.464-.34.516m11.811 1.158c-.004.49.407.896.918.91.51.012.927-.372.931-.86.004-.49-.407-.897-.917-.91-.51-.014-.928.372-.932.86m-2.02-1.241c.117.117.805-.42 1.8-.446.994-.039 1.738.453 1.843.329.051-.056-.07-.27-.396-.493-.32-.223-.86-.432-1.48-.413-.62.021-1.135.264-1.428.506-.3.243-.397.464-.34.517m-3.409 7.482c.003-.057-.619-.147-1.624-.248-.255-.019-.498-.063-.545-.236-.065-.181.034-.459.149-.757l.699-1.956c.967-2.785 1.66-5.072 1.549-5.11-.114-.038-.99 2.188-1.957 4.973l-.667 1.967c-.088.292-.244.624-.104 1.001a.638.638 0 00.429.36c.163.045.306.045.433.048 1.01.026 1.636.014 1.638-.042" fill="#132529"/><path d="M158.372 100.246s4.862.179 9.59-2.843c0 0-2.207 5.02-9.445 4.543l-.145-1.7m.851-9.411c.345-.483.964-.76 1.589-.71.433.034.875.23 1.148.575.272.344.34.842.111 1.184-.258.385-.817.487-1.296.366-.478-.122-.896-.424-1.293-.725a1.097 1.097 0 01-.292-.286c-.07-.116-.089-.27-.008-.37" fill="#EA8E6C"/><path d="M161.684 89.055c-.162-.005-.134 1.075-1.038 1.868-.902.795-2.058.705-2.061.857-.014.068.262.202.748.202a2.69 2.69 0 001.723-.654c.551-.486.777-1.12.8-1.564.03-.453-.098-.717-.172-.709m.144-10.985c.105.268 1.096.112 2.267.221 1.175.085 2.126.401 2.274.154.066-.118-.105-.368-.493-.62-.384-.251-.994-.483-1.697-.542-.703-.057-1.342.072-1.763.257-.423.184-.633.402-.588.53m-9.511.969c.22.22 1.048-.038 2.052-.077 1.002-.067 1.857.102 2.047-.14.082-.118-.058-.34-.435-.544-.372-.204-.989-.361-1.678-.325-.69.037-1.281.258-1.624.5-.348.242-.458.478-.362.586m14.075-9.737c-1.14 1.984-.736 4.725.926 6.296.694.656 1.606 1.167 1.944 2.06.415 1.092-.194 2.272-.65 3.35-.595 1.407-.932 3.065-.248 4.43.349.695.937 1.26 1.207 1.989.495 1.334-.192 2.786-.323 4.203-.172 1.854 1.058 4.004 2.92 4.012 1.129.005 2.143-.786 2.707-1.764.564-.978.753-2.123.894-3.243.63-5.023.462-10.109.293-15.17-.046-1.396-.106-2.844-.743-4.088-.735-1.436-2.169-2.417-3.694-2.948-1.524-.532-3.153-.666-4.763-.797" fill="#132529"/><path d="M159.683 67.791a13.966 13.966 0 005.284 6.971 13.962 13.962 0 008.408 2.415c-.12-3.29-1.859-6.483-4.559-8.368-2.7-1.884-6.296-2.416-9.426-1.395" fill="#132529"/><path d="M159.39 67.415c-.166-.5.178-1.194 1.172-1.85.983-.64 2.642-1.223 4.8-1.153a11.3 11.3 0 013.502.685 11.975 11.975 0 013.67 2.13c2.309 1.933 4.154 4.918 4.627 8.472.068.452.09.91.113 1.335l.206 3.913-3.942.126c-3.21.103-6.173-.79-8.475-2.166-2.326-1.375-3.951-3.225-4.901-4.904-.964-1.693-1.31-3.23-1.307-4.313.007-1.093.34-1.736.828-1.899 1.02-.334 2.393 1.209 4.597 2.741 1.106.77 2.407 1.518 3.922 2.03 1.512.52 3.252.814 5.01.718l-3.734 4.039c-.02-.188-.026-.39-.06-.595-.207-1.602-.936-3.148-1.865-4.303-.906-1.16-2.091-1.992-3.278-2.593-2.367-1.205-4.525-1.367-4.884-2.413" fill="#132529"/><path d="M149.444 79.942a42.347 42.347 0 009.798-9.855c-2.69-.564-5.635.293-7.601 2.212-1.967 1.917-2.899 4.84-2.404 7.541" fill="#132529"/><path d="M189.053 92.215c-.02-.029.13-.118.296-.356.166-.23.335-.639.288-1.144-.036-.499-.375-1.054-.95-1.403-.568-.362-1.34-.474-2.126-.355a6.072 6.072 0 00-.882.203l-.22.066-.028-.224c-.089-.69-.299-1.319-.672-1.742-.37-.429-.874-.636-1.282-.602a1.31 1.31 0 00-.87.415c-.159.175-.201.31-.23.301-.017-.002-.024-.156.12-.385.14-.222.456-.509.952-.585.497-.079 1.115.144 1.562.627.457.483.702 1.191.802 1.917l-.249-.157c.295-.092.612-.172.942-.22.845-.132 1.734.003 2.374.438.649.413 1.03 1.097 1.033 1.689.016.588-.225 1.033-.447 1.258-.225.233-.406.276-.413.259m-4.556 2.351c-.065-.002-.026-.423-.279-.998-.227-.571-.886-1.251-1.828-1.355-.102-.015-.202-.015-.297-.016l-.369-.002.204-.302c.48-.712.399-1.582.188-2.088-.209-.53-.498-.769-.456-.815.017-.033.391.14.695.704.3.535.47 1.538-.106 2.419l-.165-.305a2.518 2.518 0 011.725.634c.353.316.561.697.667 1.028.21.675.06 1.109.021 1.096m-3.544-20.308c.011-.014.208.285.185.879-.019.586-.233 1.403-.514 2.38-.123.485-.304 1.038-.284 1.585.003.252.16.508.311.789.154.273.33.546.511.834.357.57.754 1.21.892 1.985a3.628 3.628 0 01-.379 2.33c-.394.748-1.065 1.204-1.425 1.784-.377.567-.365 1.28-.412 1.957a6.533 6.533 0 01-1.237 3.411 6.375 6.375 0 01-1.782 1.674c-.497.299-.804.396-.811.379-.06-.07 1.213-.541 2.367-2.211a6.433 6.433 0 001.104-3.276c.04-.649.003-1.444.449-2.138.424-.67 1.072-1.114 1.404-1.766.349-.646.46-1.397.344-2.079-.114-.684-.472-1.289-.82-1.861-.175-.287-.35-.57-.505-.858a6.151 6.151 0 01-.216-.434 1.26 1.26 0 01-.117-.501c-.005-.66.202-1.188.341-1.682.317-.974.564-1.755.627-2.314.069-.56-.068-.853-.033-.867" fill="#334F55"/><path d="M150.617 70.444c-.04.003-.2-.64-.23-1.728-.001-.539.053-1.212.352-1.893.281-.673.876-1.376 1.728-1.633.837-.267 1.684-.156 2.372.062.695.22 1.264.53 1.733.784.936.516 1.501.859 1.477.907-.024.049-.635-.208-1.602-.66-.483-.222-1.052-.498-1.71-.686-.652-.187-1.421-.269-2.15-.036-.731.223-1.242.803-1.52 1.41-.29.61-.371 1.232-.403 1.753-.042 1.048.02 1.717-.047 1.72m36.679 15.276c-.003-.038.314-.026.823-.216a3.143 3.143 0 001.658-1.483c.217-.42.35-.94.282-1.487a2.872 2.872 0 00-.721-1.577c-.408-.464-.99-.834-1.65-.928-.644-.103-1.413.079-1.76.654-.173.28-.235.627-.133.912.087.279.365.489.65.543a.64.64 0 00.7-.313c.14-.24.153-.563.1-.856-.278-1.205-1.262-2.052-2.134-2.385a3.766 3.766 0 00-2.246-.135c-.531.132-.801.289-.817.258-.011-.015.235-.22.775-.404a3.72 3.72 0 012.384.023c.958.34 2.042 1.184 2.393 2.577.064.346.07.742-.133 1.109-.19.372-.669.598-1.091.503-.413-.078-.801-.362-.949-.793-.147-.42-.055-.882.168-1.244.476-.766 1.418-.947 2.15-.828.766.117 1.416.546 1.864 1.07.454.526.72 1.163.772 1.78a2.818 2.818 0 01-.36 1.651 3.18 3.18 0 01-1.853 1.497 2.504 2.504 0 01-.645.099c-.15-.005-.227-.013-.227-.026" fill="#132529"/><path d="M179.999 71.908c.01-.002.054.117.066.357.01.237-.02.601-.214 1.018a2.25 2.25 0 01-1.18 1.142 2.42 2.42 0 01-2.155-.16l.207-.043a4.022 4.022 0 01-3.073 1.734c-1.341.086-2.821-.621-3.61-1.93l.282.058c-.201.138-.416.288-.645.416a7.548 7.548 0 01-5.18.855c-1.629-.315-2.917-1.183-3.767-2.07a7.15 7.15 0 01-1.561-2.444 4.982 4.982 0 01-.226-.756c-.036-.177-.049-.27-.035-.273.034-.01.127.356.402.97a7.612 7.612 0 001.617 2.31c.845.83 2.09 1.63 3.638 1.909a7.292 7.292 0 004.917-.839c.218-.121.42-.263.609-.393l.177-.12.106.178c.704 1.174 2.051 1.832 3.258 1.766a3.735 3.735 0 002.84-1.544l.084-.12.123.077a2.173 2.173 0 001.902.19 2.099 2.099 0 001.116-.99c.398-.771.248-1.306.302-1.298m-.048 6.317c.019.003.031.167-.06.446-.091.277-.317.659-.725.995a3.32 3.32 0 01-1.686.708c-.699.088-1.462-.041-2.205-.289-.624-.21-1.189-.475-1.7-.717l.26-.134a2.471 2.471 0 01-.807 1.361 3.1 3.1 0 01-1.058.612c-.652.218-1.061.16-1.06.129-.005-.052.39-.08.975-.341.56-.25 1.399-.822 1.586-1.827l.043-.23.216.096c.514.227 1.073.481 1.669.68.707.237 1.415.363 2.041.303a3.25 3.25 0 001.557-.57c.8-.567.887-1.252.954-1.222" fill="#334F55"/><path d="M169.708 64.926c-.023.073-.714-.386-1.941-.334a3.582 3.582 0 00-1.963.7 3.704 3.704 0 00-1.393 2.117l-.046.201-.208-.06c-.098-.028-.201-.066-.309-.09a4.228 4.228 0 00-2.659.215 4.123 4.123 0 00-1.717 1.379c-.75 1.057-.775 1.926-.85 1.904-.023-.001-.039-.21.025-.582a4.23 4.23 0 012.397-3.031 4.464 4.464 0 012.9-.263c.118.026.232.067.339.1l-.253.14a3.963 3.963 0 011.565-2.317 3.718 3.718 0 012.164-.683c.652.001 1.16.16 1.484.308.325.15.477.277.465.296m-11.314 5.56c.033.039-.469.539-1.334 1.293-.866.746-2.106 1.762-3.674 2.589-1.57.827-3.174 1.2-4.337 1.22-1.168.032-1.863-.205-1.851-.242.01-.067.712.067 1.834-.033 1.121-.09 2.649-.489 4.173-1.292 1.524-.802 2.774-1.767 3.681-2.456.905-.695 1.472-1.123 1.508-1.08" fill="#334F55"/><path d="M80.436 62.79a2.59 2.59 0 01-.018-.334l-.018-.935-.043-3.52-.084-12.511.163.162-21.59.033c-.045.042.367-.37.193-.193v2.323l-.001 2.289-.005 4.447-.015 8.238-.175-.175 15.555.088 4.432.047 1.185.02c.271.007.414.014.421.02.007.007-.124.014-.382.02l-1.15.022-4.393.046-15.667.087-.175.002v-.177l-.015-8.238-.004-4.447c0-.756 0-1.52-.002-2.29v-2.322c-.174.173.237-.24.198-.198l21.59.033h.163l-.001.163-.084 12.613-.042 3.483-.018.906c-.007.202-.012.303-.018.297" fill="#2472FF"/><path d="M77.675 56.478c-.026.027-.518-.403-1.348-1.172a262.05 262.05 0 01-3.38-3.2l.252-.01c-1.028 1.177-2.193 2.508-3.426 3.917l-.138.157-.125.142-.145-.121-2.118-1.755.246-.005a380.09 380.09 0 01-4.67 4.11l-1.382 1.17c-.329.268-.514.405-.529.389-.015-.017.141-.187.442-.486l1.31-1.252a392.967 392.967 0 014.576-4.212l.12-.109.127.104 2.126 1.745-.271.021.138-.156 3.457-3.89.124-.138.13.13a276.099 276.099 0 013.281 3.301c.788.811 1.23 1.293 1.203 1.32M66.36 50.534c-.028.017-.122-.126-.34-.322a1.914 1.914 0 00-1.094-.481 1.786 1.786 0 00-1.551.645 1.753 1.753 0 00-.163 1.975c.374.66 1.153.964 1.792.847a1.79 1.79 0 001.335-1.021c.212-.464.189-.905.13-1.188-.061-.286-.138-.439-.109-.455.017-.012.142.117.255.414.11.291.188.784-.022 1.335a2.04 2.04 0 01-1.526 1.27c-.768.164-1.735-.194-2.193-1.006-.475-.804-.302-1.82.226-2.403a2.042 2.042 0 011.861-.688c.582.095.97.41 1.168.65.201.247.249.419.231.428m-10.025 7.54c-.028.017-.122-.126-.34-.322a1.917 1.917 0 00-1.094-.481 1.784 1.784 0 00-1.55.645 1.755 1.755 0 00-.164 1.975c.373.66 1.153.964 1.793.847a1.789 1.789 0 001.334-1.02c.212-.465.189-.906.13-1.189-.06-.286-.138-.44-.11-.455.018-.011.142.116.256.414.11.292.187.784-.021 1.336a2.043 2.043 0 01-1.527 1.268c-.767.165-1.734-.194-2.193-1.006-.474-.803-.301-1.82.226-2.402a2.04 2.04 0 011.861-.687c.583.095.97.408 1.168.649.202.247.25.419.23.428" fill="#2472FF"/><path d="M69.64 63.55c.011 0 .022.127.034.369l.031 1.069.056 4.024.002.12-.123.001c-4.463.046-11.483.075-19.357.075l-.995-.001h-.195v-.195l.052-15.906.001-.145.142.002 5.794.063 1.576.039c.36.013.55.027.55.04 0 .015-.19.028-.55.042l-1.577.038-5.793.063.143-.142.053 15.906-.196-.195h.995c7.874 0 14.894.03 19.357.074l-.122.121.056-4.025.032-1.068c.011-.242.023-.368.034-.368" fill="#2472FF"/><path d="M57.69 61.724c.07.084-1.361 1.373-3.124 2.962-1.765 1.587-3.196 2.875-3.274 2.797-.074-.075 1.241-1.493 3.012-3.087 1.77-1.596 3.32-2.754 3.386-2.672m4.358 4.343c-.067.082-.653-.292-1.215-.927-.564-.635-.864-1.262-.774-1.318.093-.06.525.45 1.067 1.058.538.612.993 1.102.922 1.187" fill="#2472FF"/><path d="M87.4 78.544s-.01-.277-.016-.8l-.017-2.312c-.01-2.033-.022-5.006-.038-8.82l-.08-32.073.15.151-73.765.045h-.005l.195-.196-.014 44.005-.181-.182 53.058.089 15.234.049 4.063.022 1.053.01c.237.004.363.012.363.012s-.112.007-.342.01l-1.032.011-4.026.022-15.193.049c-13.057.023-31.517.053-53.178.089h-.181v-.181l-.015-44.005v-.195h.201l73.766.044h.152v.151c-.034 13.503-.062 24.516-.08 32.167l-.04 8.786-.016 2.283c-.005.513-.016.769-.016.769" fill="#2472FF"/><path fill="#2472FF" d="M19.601 46.484h22.473v-1.64H19.601zm21.566 6.479c0 .108-4.902.195-10.949.195-6.049 0-10.95-.087-10.95-.195 0-.108 4.901-.195 10.95-.195 6.047 0 10.95.087 10.95.195m-.001 3.64c0 .108-4.902.196-10.949.196-6.049 0-10.95-.088-10.95-.196 0-.108 4.901-.195 10.95-.195 6.047 0 10.95.087 10.95.195m-.001 3.641c0 .107-4.902.195-10.949.195-6.049 0-10.95-.088-10.95-.195 0-.108 4.901-.195 10.95-.195 6.047 0 10.95.087 10.95.195m-.001 3.639c0 .108-4.902.196-10.949.196-6.049 0-10.95-.087-10.95-.195 0-.108 4.901-.196 10.95-.196 6.047 0 10.95.088 10.95.195m-12.046 3.57c0 .108-2.205.195-4.926.195-2.723 0-4.929-.087-4.929-.195 0-.108 2.206-.196 4.929-.196 2.72 0 4.926.088 4.926.196M83.48 70.26c-.037 0-.037-.272-.17-.725a3.041 3.041 0 00-1.116-1.585 2.916 2.916 0 00-2.733-.38c-1.013.355-1.885 1.432-1.873 2.69-.012 1.256.859 2.335 1.873 2.689a2.912 2.912 0 002.733-.38 3.04 3.04 0 001.117-1.585c.132-.453.132-.726.168-.725.017-.001.072.273-.021.762a3.026 3.026 0 01-1.097 1.767c-.689.571-1.864.913-3.024.499-1.147-.377-2.154-1.597-2.14-3.028-.014-1.43.993-2.65 2.14-3.027 1.159-.415 2.335-.072 3.024.498a3.028 3.028 0 011.097 1.768c.093.489.038.763.022.761"/><path d="M281.942 111.867s-.011-.332-.016-.959l-.019-2.77c-.008-2.433-.022-5.991-.04-10.54l-.082-38.025.157.158-75.024.037h-.006l.195-.195-.017 52.294-.178-.178 54.071.088 15.428.048 4.104.022 1.061.01c.239.003.366.01.366.01s-.112.007-.346.011l-1.04.01-4.068.022-15.388.048c-13.244.02-32.016.052-54.188.088h-.178v-.179l-.018-52.294v-.195h.202l75.024.038h.158v.157l-.083 38.123-.04 10.504-.017 2.742c-.006.617-.018.925-.018.925" fill="#6C9FFF"/><path d="M255.316 85.72c0 6.015-4.875 10.89-10.889 10.89-6.014 0-10.889-4.875-10.889-10.89 0-6.014 4.875-10.889 10.89-10.889 6.013 0 10.888 4.875 10.888 10.89" fill="#2472FF"/><path d="M219.833 103.885c-.036.001-.036-.271-.17-.725a3.038 3.038 0 00-1.116-1.584 2.917 2.917 0 00-2.734-.38c-1.012.353-1.883 1.432-1.873 2.688-.01 1.258.86 2.336 1.873 2.69a2.916 2.916 0 002.734-.38 3.041 3.041 0 001.117-1.585c.133-.453.133-.726.169-.724.017-.002.07.272-.022.761a3.024 3.024 0 01-1.097 1.768c-.688.57-1.864.912-3.023.498-1.148-.376-2.155-1.596-2.14-3.028-.014-1.43.992-2.65 2.14-3.027 1.159-.414 2.334-.071 3.023.499a3.026 3.026 0 011.097 1.768c.092.489.039.762.022.76" fill="#E0565F"/><path fill="#FFFFFE" d="M241.748 85.72v-4.905l8.496 4.906-8.496 4.905V85.72"/><path d="M263.25 270.755c5.587 1.952 12.877.209 17.657-3.282 4.78-3.491 8.22-8.493 11.27-13.566 1.3-2.164 2.57-4.422 2.982-6.914.41-2.492-.195-5.296-2.127-6.922-3.004-2.528-7.605-1.245-11.017.697-10.675 6.08-17.964 17.73-18.765 29.987m6 13.375c3.356 4.428 9.122 6.399 14.671 6.656 5.55.257 11.034-1.278 16.22-3.267 1.882-.723 3.942-1.713 4.587-3.622.488-1.445-.014-3.092-.983-4.272-.969-1.18-2.342-1.955-3.746-2.553-5.105-2.175-10.954-2.276-16.326-.883-5.371 1.393-10.064 4.507-14.424 7.941m-6.081-37.313c4.626.092 8.127-3.96 10.222-8.086 2.9-5.713 3.884-12.379 2.755-18.685-.423-2.364-1.317-4.913-3.433-6.05-2.149-1.155-4.946-.395-6.75 1.251-1.801 1.645-2.788 3.993-3.508 6.325-2.483 8.035-1.948 17.268.714 25.245m-15.194 25.585c7.887-13.423 9.202-29.846 4.544-44.702-.756-2.41-2.182-5.167-4.703-5.326-2.79-.178-4.54 2.934-5.311 5.623-2.705 9.433-2.13 19.453-1.532 29.248.368 6.033 2.44 11.191 7.002 15.157m-8.201 5.52c-2.858-9.193-10.129-16.903-19.139-20.294-2.094-.789-4.757-1.239-6.32.364-1.531 1.572-1.06 4.199-.076 6.162 1.587 3.17 4.165 5.717 6.734 8.162 2.335 2.222 4.763 4.454 7.718 5.747 2.955 1.292 8.38 1.621 11.083-.14" fill="#2472FF"/><path d="M288.67 243.437a.7.7 0 01-.137.124l-.426.328-1.653 1.237c-.363.268-.762.564-1.199.885-.43.334-.881.72-1.375 1.12-.976.815-2.13 1.694-3.291 2.798l-1.859 1.69c-.644.591-1.263 1.258-1.932 1.918-1.358 1.306-2.672 2.83-4.086 4.403-2.737 3.225-5.546 6.944-8.133 11.087-2.55 4.167-4.62 8.344-6.283 12.234-.774 1.968-1.55 3.826-2.111 5.624-.292.894-.611 1.746-.852 2.587l-.681 2.418c-.469 1.532-.737 2.957-1.031 4.194-.137.621-.282 1.197-.387 1.73l-.255 1.469c-.156.859-.278 1.537-.366 2.031l-.105.527a.704.704 0 01-.048.178c-.007 0-.002-.063.01-.183.018-.142.04-.317.069-.533l.297-2.045.224-1.476c.096-.537.23-1.116.357-1.741.275-1.245.528-2.678.982-4.22l.659-2.433c.234-.844.548-1.701.835-2.601.55-1.81 1.317-3.678 2.087-5.658 1.65-3.913 3.722-8.112 6.282-12.298 2.6-4.16 5.428-7.89 8.19-11.115 1.427-1.574 2.756-3.095 4.128-4.396.675-.66 1.303-1.323 1.953-1.91l1.881-1.678c1.177-1.095 2.346-1.961 3.337-2.764.501-.393.959-.772 1.397-1.098l1.22-.86 1.697-1.182.446-.298a.732.732 0 01.159-.093" fill="#132529"/><path d="M299.114 280.646c-.003.013-.19-.019-.541-.09-.353-.063-.864-.2-1.536-.311a43.184 43.184 0 00-5.71-.698c-4.825-.309-11.682.263-18.544 3.119-6.866 2.855-12.105 7.318-15.287 10.958a43.34 43.34 0 00-3.53 4.542c-.393.556-.657 1.014-.86 1.309-.198.3-.306.454-.318.448-.011-.007.077-.173.253-.486.184-.309.428-.78.805-1.35.72-1.159 1.86-2.781 3.453-4.637 3.15-3.706 8.41-8.245 15.341-11.127 6.927-2.883 13.853-3.416 18.704-3.039 2.438.177 4.392.513 5.722.819.67.134 1.177.293 1.525.38.346.095.527.15.523.163m-29.127-61.291c.006.001-.004.072-.03.208l-.127.603c-.123.554-.297 1.328-.518 2.311-.454 2.005-1.147 4.9-2.018 8.471-1.738 7.146-4.263 16.986-6.893 27.889a671.517 671.517 0 00-3.51 15.418c-1 4.755-1.854 9.048-2.49 12.667-.34 1.806-.595 3.449-.838 4.889-.248 1.438-.44 2.681-.588 3.697l-.363 2.34-.104.607a.941.941 0 01-.048.206c-.007 0-.003-.072.01-.211l.067-.612.296-2.35c.125-1.02.296-2.267.524-3.71.224-1.444.462-3.09.786-4.9.602-3.63 1.43-7.931 2.412-12.694a579.396 579.396 0 013.484-15.434c2.633-10.908 5.198-20.738 7-27.865l2.132-8.442.587-2.294.162-.595c.038-.133.06-.2.067-.2m-18.111 78.226c-.007.002-.023-.053-.05-.162l-.11-.484-.388-1.868a234.725 234.725 0 01-1.282-6.902c-1.012-5.84-2.21-13.95-2.949-22.97a225.834 225.834 0 01-.643-12.74c-.065-3.92-.03-7.452.092-10.415.036-1.482.134-2.82.198-3.996.06-1.175.143-2.187.219-3.012l.176-1.9.054-.494a.62.62 0 01.032-.166c.007 0 .009.058.007.17-.005.133-.012.297-.018.496-.027.466-.062 1.102-.106 1.904a95.668 95.668 0 00-.156 3.014c-.045 1.175-.124 2.512-.144 3.993-.089 2.959-.095 6.486-.011 10.398.105 3.914.315 8.213.67 12.718.737 9.005 1.894 17.11 2.838 22.957.471 2.923.875 5.287 1.165 6.917l.32 1.882.073.49a.621.621 0 01.013.17" fill="#132529"/><path d="M252.46 299.285c-.013.004-.084-.156-.206-.464l-.519-1.35-.37-.976-.507-1.134c-.181-.41-.375-.844-.58-1.304-.202-.462-.467-.928-.717-1.43l-.805-1.564-.959-1.65c-.633-1.157-1.452-2.307-2.243-3.56a84.435 84.435 0 00-5.94-7.592 93.566 93.566 0 00-6.817-6.823c-1.133-.957-2.172-1.913-3.22-2.714-.516-.41-1.014-.808-1.493-1.19l-1.417-1.045a49.433 49.433 0 00-2.477-1.742 35.58 35.58 0 00-1.913-1.254l-1.221-.775c-.279-.181-.421-.281-.414-.292.006-.012.161.067.45.227l1.26.716c.552.305 1.206.711 1.953 1.204a45.465 45.465 0 012.515 1.703c.459.328.938.671 1.437 1.03l1.512 1.177c1.06.794 2.11 1.745 3.255 2.698a88.641 88.641 0 016.868 6.834 80.435 80.435 0 015.946 7.646c.787 1.265 1.6 2.428 2.225 3.597l.945 1.668.788 1.584c.244.507.502.98.698 1.447l.556 1.322.479 1.151.341.991.456 1.377c.1.315.146.483.134.487m33.285-40.279c-.002.06-.957.06-2.492.145-1.534.084-3.65.285-5.952.72a46.506 46.506 0 00-5.805 1.513c-1.46.484-2.347.833-2.37.779-.01-.024.2-.137.591-.322.391-.187.968-.43 1.692-.705a35.511 35.511 0 0111.834-2.248c.775-.009 1.401.005 1.833.037.432.027.67.055.669.08m5.95 29.062c-.111.058-1.004-2.513-3.246-4.898-2.212-2.412-4.71-3.491-4.644-3.599.016-.037.656.175 1.603.709.946.53 2.179 1.419 3.313 2.637 1.132 1.221 1.927 2.517 2.386 3.5.462.984.627 1.637.588 1.65m-20.289-57.814c.075.08-1.378 1.52-2.962 3.47-1.593 1.945-2.71 3.657-2.805 3.599-.083-.047.905-1.865 2.516-3.834 1.605-1.974 3.188-3.307 3.25-3.235m-4.765-8.229c.102-.018.423 1.376.72 3.112.295 1.738.452 3.158.352 3.176-.101.017-.424-1.376-.72-3.114-.295-1.735-.453-3.157-.351-3.174m-14.755 25.823c.091.047-.943 2.223-2.309 4.858-1.366 2.637-2.548 4.735-2.639 4.688-.09-.048.943-2.222 2.31-4.859 1.366-2.635 2.547-4.734 2.638-4.686m-8.782-8.768c.092-.045.968 1.528 1.957 3.514.99 1.988 1.716 3.635 1.624 3.68-.092.047-.968-1.526-1.957-3.514-.989-1.986-1.715-3.633-1.624-3.68" fill="#132529"/><path d="M230.198 269.063c-.025.106-1.59-.198-3.543-.333-1.951-.142-3.544-.062-3.554-.17-.013-.096 1.592-.345 3.58-.2 1.99.137 3.543.61 3.517.702m8.814 26.508l4.39 23.09a3.236 3.236 0 003.18 2.633h12.972a3.236 3.236 0 003.193-2.707l3.816-23.016h-27.55" fill="#132529"/><path fill="#334F55" d="M240.439 303.075h24.806l1.318-7.505h-27.55l1.426 7.505"/><path fill="#FAF9F6" d="M240.439 303.075l.521 2.737h23.905l.38-2.737h-24.806"/></g></svg>