<svg width="303" height="302" xmlns="http://www.w3.org/2000/svg" xmlns:xlink="http://www.w3.org/1999/xlink"><defs><path id="a" d="M.224.375h76.095V270.27H.224z"/><path id="c" d="M.433.367h58.2V106.48H.434z"/></defs><g fill="none" fill-rule="evenodd"><path d="M301.317 60.065c-1.903-.418-3.936.15-5.546 1.25-1.61 1.1-2.83 2.688-3.788 4.387-1.85 3.285-2.341 7.597-2.237 11.367 4.17-.383 7.572-3.851 9.188-5.718 2.553-2.952 5.376-9.838 2.383-11.286M283.15 79.932c1.65-1.42 2.297-3.82 1.828-5.945-.469-2.127-1.951-3.954-3.807-5.091-.859-.526-1.91-.924-2.859-.591-.888.311-1.471 1.22-1.606 2.152-.136.93.11 1.878.464 2.75 1.21 2.993 2.93 5.666 5.98 6.725" fill="#D4D5CF"/><path d="M279.896 92.026c-.024-.01.064-.277.243-.753l.77-2.006c.633-1.691 1.516-4.053 1.878-6.777.358-2.724-.063-5.24-.75-6.893-.674-1.67-1.465-2.506-1.4-2.551.015-.014.22.181.538.583.32.4.724 1.029 1.1 1.868.767 1.668 1.242 4.254.875 7.04-.37 2.781-1.305 5.154-2 6.826a47.96 47.96 0 01-.88 1.966c-.219.458-.352.707-.374.697" fill="#E4E4DE"/><path d="M298.705 65.119c.01.008-.052.107-.177.29l-.565.785-2.117 2.858a687.26 687.26 0 00-6.92 9.47 674.72 674.72 0 00-6.74 9.6c-.83 1.2-1.514 2.186-2.026 2.924l-.562.788c-.132.177-.206.268-.217.26-.011-.006.044-.11.155-.301l.506-.826c.444-.712 1.103-1.734 1.929-2.989a306.408 306.408 0 016.658-9.67 309.107 309.107 0 017.011-9.413 150.75 150.75 0 012.21-2.788c.246-.296.45-.542.62-.744.145-.168.225-.252.235-.244" fill="#E4E4DE"/><path d="M286.184 84.448c3.449-3.028 8.418-4.228 12.87-3.109 1.133.285 2.403.912 2.569 2.068.165 1.16-.885 2.12-1.909 2.688-4.26 2.363-9.96 1.795-13.67-1.362" fill="#D4D5CF"/><path d="M296.373 83.593c-.01.073-1.072-.134-2.794-.094-.861.012-1.882.13-2.995.351a18.821 18.821 0 00-3.506 1.14 18.825 18.825 0 00-3.181 1.864c-.906.685-1.672 1.37-2.252 2.006-1.174 1.26-1.723 2.192-1.786 2.15-.021-.012.106-.248.36-.665a6.42 6.42 0 01.497-.738c.212-.275.435-.604.737-.92.566-.669 1.328-1.388 2.241-2.102a17.743 17.743 0 013.234-1.928 17.797 17.797 0 013.588-1.137c1.14-.208 2.184-.3 3.06-.28.438-.014.832.037 1.178.062.346.02.642.068.88.117.482.088.743.148.74.174" fill="#E4E4DE"/><path d="M2.397 17.438C1.204 18.98.849 21.062 1.155 22.986c.307 1.925 1.22 3.709 2.347 5.3 2.178 3.078 5.868 5.364 9.32 6.883 1.436-3.934-.244-8.493-1.242-10.751-1.577-3.571-6.595-9.067-9.183-6.98M12.59 42.354c-.579-2.099-2.47-3.708-4.593-4.193-2.123-.485-4.408.073-6.23 1.265-.842.551-1.651 1.33-1.756 2.332-.098.936.474 1.852 1.259 2.372.783.52 1.746.703 2.685.757 3.222.184 6.374-.229 8.635-2.533" fill="#D4D5CF"/><path d="M22.132 50.467c-.019.017-.223-.178-.576-.543l-1.484-1.553c-1.258-1.296-3.016-3.103-5.324-4.595-2.31-1.488-4.764-2.182-6.553-2.267-1.798-.106-2.89.252-2.905.174-.005-.02.26-.122.758-.237.498-.118 1.24-.215 2.16-.196 1.835.02 4.375.695 6.737 2.219 2.356 1.524 4.102 3.382 5.316 4.726a47.56 47.56 0 011.401 1.634c.321.395.489.62.47.638" fill="#E4E4DE"/><path d="M5.848 21.96c.012-.006.075.093.186.284l.469.846 1.679 3.135a676.847 676.847 0 005.602 10.305c2.227 4.004 4.294 7.6 5.799 10.199l1.777 3.08.471.845c.104.195.154.3.144.307-.012.006-.082-.086-.207-.27l-.53-.809a149.963 149.963 0 01-1.878-3.021 309.324 309.324 0 01-5.896-10.153 308.503 308.503 0 01-5.512-10.363 149.076 149.076 0 01-1.576-3.19l-.408-.878c-.09-.202-.13-.311-.12-.317" fill="#E4E4DE"/><path d="M17.97 41.543c-1.263-4.413-.224-9.418 2.691-12.964.742-.903 1.85-1.784 2.968-1.438 1.119.345 1.538 1.706 1.614 2.874.314 4.862-2.635 9.77-7.075 11.776" fill="#D4D5CF"/><g transform="translate(18.252 31.59)"><mask id="b" fill="#fff"><use xlink:href="#a"/></mask><path d="M3.3.376c.063.041-.579.912-1.279 2.486-.357.783-.687 1.756-.962 2.857A18.818 18.818 0 00.59 9.376a18.883 18.883 0 00.325 3.673c.233 1.111.525 2.097.851 2.893.638 1.6 1.245 2.495 1.181 2.535-.021.013-.179-.204-.449-.611a6.218 6.218 0 01-.452-.765c-.159-.31-.361-.652-.52-1.06-.361-.797-.686-1.793-.94-2.924a17.728 17.728 0 01-.36-3.748c.034-1.34.23-2.605.505-3.73.3-1.12.662-2.103 1.056-2.885.173-.402.388-.737.558-1.039.167-.305.337-.55.483-.747.285-.397.452-.607.472-.592" fill="#E4E4DE" mask="url(#b)"/><path d="M62.366 269.872c1.82.695 3.916.432 5.67-.418s3.197-2.241 4.394-3.78c2.315-2.976 3.436-7.169 3.89-10.913-4.182-.235-8.059 2.693-9.932 4.3-2.96 2.544-6.769 8.937-4.022 10.811" fill="#D4D5CF" mask="url(#b)"/></g><path d="M101.517 284.492c-1.841 1.162-2.835 3.44-2.685 5.61.15 2.173 1.346 4.199 3.015 5.598.771.646 1.751 1.195 2.74 1.007.924-.178 1.635-.992 1.906-1.892.271-.902.167-1.875-.053-2.79-.756-3.138-2.064-6.035-4.923-7.533" fill="#D4D5CF"/><path d="M106.52 273.011c.022.013-.106.265-.353.708l-1.057 1.87c-.876 1.58-2.097 3.785-2.857 6.427-.756 2.64-.71 5.191-.273 6.928.418 1.752 1.077 2.695 1.007 2.73-.017.011-.192-.212-.447-.656-.256-.443-.563-1.125-.811-2.01-.513-1.763-.602-4.39.173-7.092.776-2.697 2.05-4.905 2.985-6.457.473-.777.875-1.393 1.16-1.814.284-.422.452-.647.473-.634" fill="#E4E4DE"/><path d="M83.947 296.85c-.009-.01.067-.1.219-.26l.674-.695 2.515-2.514a687.02 687.02 0 008.241-8.345 674.75 674.75 0 008.083-8.503l2.435-2.592.671-.696c.157-.156.244-.234.253-.227.01.01-.059.104-.198.276l-.621.742c-.545.64-1.347 1.552-2.349 2.672a308.772 308.772 0 01-8.011 8.582 308.196 308.196 0 01-8.324 8.276 152.736 152.736 0 01-2.597 2.432l-.722.645c-.168.144-.26.215-.269.207" fill="#E4E4DE"/><path d="M99.183 279.578c-3.858 2.486-8.95 2.941-13.188 1.177-1.079-.45-2.243-1.256-2.236-2.425.007-1.17 1.187-1.965 2.284-2.376 4.562-1.71 10.116-.307 13.32 3.363" fill="#D4D5CF"/><path d="M88.979 278.921c.021-.071 1.04.291 2.75.504.853.116 1.88.15 3.014.095 1.132-.08 2.37-.264 3.635-.61a18.814 18.814 0 003.422-1.374c.997-.544 1.855-1.109 2.523-1.652 1.346-1.074 2.028-1.914 2.083-1.864.02.016-.142.23-.454.606a6.078 6.078 0 01-.601.656c-.25.24-.519.533-.865.802-.657.578-1.517 1.176-2.526 1.748a17.724 17.724 0 01-3.483 1.43c-1.291.354-2.56.532-3.717.595-1.158.037-2.204-.025-3.067-.175-.435-.05-.818-.159-1.156-.234a6.264 6.264 0 01-.854-.246c-.462-.16-.713-.257-.704-.28m140.977-68.907a7.016 7.016 0 11-14.032.019 7.016 7.016 0 0114.032-.02m19.637-14.058a7.016 7.016 0 11-14.031.02 7.016 7.016 0 0114.031-.02m.041 29.738c.006 4.215-3.13 7.637-7.005 7.642-3.875.006-7.02-3.407-7.026-7.623-.006-4.216 3.13-7.637 7.005-7.643 3.875-.006 7.02 3.407 7.026 7.624" fill="#E4E4DE"/><path d="M240.548 224.804c-.3.441-4.967-2.21-10.422-5.918-5.457-3.711-9.637-7.075-9.337-7.517.3-.44 4.965 2.209 10.423 5.92 5.455 3.708 9.636 7.074 9.336 7.515m.56-29.329c.327.422-3.276 3.76-8.046 7.456-4.772 3.697-8.904 6.35-9.23 5.93-.327-.422 3.275-3.76 8.046-7.457 4.771-3.696 8.904-6.35 9.23-5.93" fill="#E4E4DE"/><path d="M202.135 128.248c.101 0 .184 1.886.184 4.212 0 2.326-.083 4.212-.184 4.212-.1 0-.182-1.886-.182-4.212 0-2.326.081-4.212.182-4.212m0-16.848c.101 0 .184 1.886.184 4.212 0 2.326-.083 4.212-.184 4.212-.1 0-.182-1.886-.182-4.212 0-2.326.081-4.212.182-4.212m0-16.848c.101 0 .184 1.886.184 4.212 0 2.326-.083 4.212-.184 4.212-.1 0-.182-1.886-.182-4.212 0-2.326.081-4.212.182-4.212m0-16.848c.101 0 .184 1.886.184 4.212 0 2.326-.083 4.212-.184 4.212-.1 0-.182-1.886-.182-4.212 0-2.326.081-4.212.182-4.212m0-16.848c.101 0 .184 1.886.184 4.212 0 2.326-.083 4.212-.184 4.212-.1 0-.182-1.886-.182-4.212 0-2.326.081-4.212.182-4.212m-4.795-12.054c0-.1 1.886-.182 4.213-.182l.582.002h.183l-.002.181c-.012 2.053-.088 3.629-.18 3.629-.093 0-.17-1.576-.182-3.629l.181.18-.582.003c-2.327 0-4.212-.083-4.212-.184m-16.848 0c0-.1 1.885-.182 4.212-.182 2.326 0 4.212.082 4.212.182 0 .101-1.886.184-4.212.184-2.327 0-4.212-.083-4.212-.184m-7.326-9.522c.101 0 .183 1.886.183 4.212 0 2.326-.082 4.212-.183 4.212-.1 0-.182-1.886-.182-4.212 0-2.326.082-4.212.182-4.212m0-13.52c.101 0 .183 1.14.183 2.547 0 1.408-.082 2.549-.183 2.549-.1 0-.182-1.141-.182-2.55 0-1.406.082-2.547.182-2.547M71.56 216.855c0-.101.941-.183 2.104-.183 1.163 0 2.106.082 2.106.183 0 .1-.943.182-2.106.182-1.163 0-2.105-.081-2.105-.182m-18.371 0c0-.101 2.056-.183 4.592-.183 2.537 0 4.592.082 4.592.183 0 .1-2.055.182-4.592.182-2.536 0-4.592-.081-4.592-.182m-18.371 0c0-.101 2.057-.183 4.593-.183s4.591.082 4.591.183c0 .1-2.055.182-4.591.182s-4.593-.081-4.593-.182m-13.391-4.212c.102 0 .183 1.885.183 4.211.04.04-.345-.345-.181-.182h.215l.213.001.418.003.792.01 1.338.04c.762.033 1.233.078 1.233.129 0 .05-.471.096-1.233.129l-1.338.04-.792.01-.418.003h-.428a5.933 5.933 0 01-.184-.183c0-2.326.082-4.211.182-4.211m0-16.332c.102 0 .183 1.828.183 4.083s-.081 4.083-.183 4.083c-.1 0-.182-1.828-.182-4.083s.082-4.083.182-4.083m0-16.331c.102 0 .183 1.827.183 4.082 0 2.256-.081 4.083-.183 4.083-.1 0-.182-1.827-.182-4.083 0-2.255.082-4.083.182-4.083m0-12.378c.102 0 .183.944.183 2.106 0 1.164-.081 2.106-.183 2.106-.1 0-.182-.942-.182-2.106 0-1.162.082-2.106.182-2.106" fill="#D4D5CF"/><path d="M53.353 162.742c.942-2.768-.046-6.08-2.35-7.881-1.158-.906-2.608-1.396-4.075-1.458a5.885 5.885 0 01-5.179-3.525c-1.494-3.384-4.466-6.142-8.042-7.144-5.108-1.431-11.026.84-13.864 5.322-.785 1.24-1.421 2.691-2.702 3.408-1.632.914-3.645.296-5.512.178-5.536-.35-10.78 5.56-10.492 11.1h52.216M196.338 25.76c.942-2.769-.045-6.082-2.35-7.882-1.158-.906-2.607-1.396-4.075-1.458a5.883 5.883 0 01-5.178-3.525c-1.495-3.384-4.466-6.142-8.042-7.144-5.109-1.43-11.027.84-13.865 5.322-.785 1.24-1.42 2.691-2.701 3.408-1.632.914-3.646.295-5.512.178-5.537-.35-10.78 5.56-10.492 11.1h52.215" fill="#F1F0EC"/><path d="M197.958 121.645c1.63 25.847 23.906 45.477 49.751 43.846 25.846-1.632 45.476-23.907 43.846-49.752-1.632-25.846-23.907-45.477-49.753-43.846-25.846 1.632-45.476 23.907-43.844 49.752m-11.147 121.086c-1.113 28.203-21.882 51.541-50.102 52.09-28.22.548-51.54-21.883-52.09-50.102-.548-28.22 21.96-54.254 50.103-52.09 30.016 2.31 53.104 24.371 52.09 50.102M9.365 73.145c-.513 26.402 20.474 48.222 46.876 48.735 26.402.514 48.222-20.473 48.735-46.876.514-26.402-20.473-48.22-46.875-48.734-26.402-.514-48.222 20.473-48.736 46.875" fill="#D4E3FF"/><path d="M238.702 147.544c.68.55-15.888 17.31-37 37.43-21.117 20.127-38.781 35.992-39.46 35.442-.678-.55 15.886-17.306 37.004-37.434 21.11-20.12 38.778-35.988 39.456-35.438m-9.61-51.802c-.215.987-32.144-5.123-71.308-13.644-39.175-8.523-70.75-16.231-70.536-17.218.215-.986 32.138 5.122 71.314 13.646 39.163 8.521 70.744 16.23 70.53 17.216M107.976 214.404c-.316.26-4.054-6.843-9.716-18.648-5.663-11.805-13.218-28.338-21.173-46.897-7.955-18.57-14.8-35.642-19.55-48.136-4.75-12.495-7.44-20.39-7.11-20.617.345-.24 3.642 7.23 8.826 19.396l20.225 47.548 20.448 47.37c5.228 12.133 8.38 19.714 8.05 19.984" fill="#D4D5CF"/><path d="M262.356 54.05c.245 4.008.52 5.223 2.006 8.418.88 1.895 2.12 3.65 2.61 5.681.464 1.931.214 3.968.57 5.921.581 3.189 2.696 5.84 4.284 8.666 1.588 2.825 2.659 6.4 1.081 9.232l-16.24-1.918-1.145-20.164 6.834-15.836m-32.29-6.836c-2.103 4.46.821 8.92-1.281 13.381-1.043 2.21-2.092 4.441-2.648 6.82-.502 2.145-.602 4.404-1.476 6.425-1.393 3.22-4.556 5.398-6.021 8.587-2.17 4.724.135 10.643 4.284 13.776 4.148 3.134 9.655 3.915 14.841 3.551 3.144-.22 6.332-.847 9.038-2.463 2.705-1.617 4.875-4.349 5.216-7.482" fill="#132529"/><path d="M254.15 39.274c10.451 4.634 12.529 21.8 12.581 24.11.062 2.757 1.53 3.328 3.363 4.769 1.832 1.44 3.606 3.187 4.113 5.425.399 1.76-.02 3.708.823 5.314 1.006 1.919 3.39 2.631 5.24 3.816 3.494 2.238 5.219 6.447 5.412 10.51.193 4.064-.924 8.067-2.032 11.99-.439 1.556-.985 3.256-2.396 4.105-1.087.654-2.447.646-3.726.617l-19.848-.443c-5.062-.113-10.26-.252-14.938-2.133-3.802-1.529-7.136-4.227-9.175-7.702-2.038-3.475-2.721-7.724-1.651-11.588.824-2.977 2.632-5.667 3.154-8.709.647-3.766-2.511-5.378-3.656-9.03-1.145-3.653-2.09-12.416-.522-15.918" fill="#132529"/><path d="M266.096 133.918l-3.264-10.461-.476 15.972s4.234 10.913 7.46 19.253a48.752 48.752 0 01-21.976 6.805 48.737 48.737 0 01-27.557-6.459l5.027-18.061-2.396-20.428-6.632 9.484-14.147-13.676s10.356-19.133 11.64-20.88c8.188-11.13 22.332-10.864 22.332-10.864l20.01 1.11s11.254-.63 18.645 8.275c0 0 7.224 11.026 13.158 38.24l-21.824 1.69" fill="#2472FF"/><path d="M276.104 96.98c0 .006-.099.021-.29.046-.191.031-.482.04-.853.115-.746.113-1.842.368-3.173.914a14.564 14.564 0 00-4.362 2.865 13.943 13.943 0 00-2.085 2.522c-.613.98-1.216 2.085-1.45 3.345-.115.625-.123 1.292.062 1.924a3.057 3.057 0 001.152 1.598c.547.398 1.29.564 1.942.306.652-.245 1.134-.869 1.347-1.567a2.96 2.96 0 00-.154-2.183c-.325-.696-.874-1.292-1.52-1.768-1.304-.951-2.933-1.538-4.637-1.725-1.708-.195-3.497.002-5.249.468-1.745.479-3.509 1.136-5.112 2.134-1.597.997-3.114 2.259-4.232 3.852-.538.796-.988 1.707-1.01 2.662-.008.472.102.945.357 1.345.249.402.613.733 1.023 1l-.033-.016c.464.173.982.25 1.43.06.45-.184.791-.598 1.02-1.07.458-.958.588-2.093.593-3.2-.013-1.094-.137-2.203-.525-3.201-.378-1.004-1.01-1.9-1.777-2.633-1.542-1.479-3.585-2.332-5.642-2.542-2.066-.225-4.128.1-6.045.68-1.9.586-3.804 1.362-5.025 2.814-.579.72-1.012 1.612-.897 2.505.095.885.544 1.742 1.223 2.283.337.27.736.458 1.148.5.411.043.83-.061 1.182-.283.718-.442 1.046-1.3 1.12-2.12a6.385 6.385 0 00-.271-2.444c-.127-.387-.295-.76-.438-1.136-.077-.186-.14-.377-.229-.556l-.284-.523c-.711-1.415-1.693-2.602-2.718-3.621-2.09-2.017-4.462-3.309-6.664-3.99-2.205-.692-4.222-.884-5.845-.775-1.624.107-2.863.414-3.677.68l-.92.33a4.782 4.782 0 01-.32.102s.1-.052.305-.136l.911-.366c.811-.29 2.053-.622 3.692-.753 1.637-.131 3.679.042 5.915.723 2.235.671 4.648 1.962 6.784 4 1.046 1.03 2.053 2.233 2.787 3.673l.291.534c.092.181.157.377.237.565.148.385.32.763.452 1.163.251.809.372 1.678.292 2.56-.073.865-.42 1.834-1.253 2.355a2.186 2.186 0 01-1.38.334c-.487-.048-.941-.266-1.317-.565-.756-.603-1.24-1.52-1.351-2.502a2.97 2.97 0 01.208-1.47c.18-.462.44-.895.757-1.28 1.302-1.55 3.26-2.334 5.184-2.934 1.947-.594 4.054-.933 6.186-.703 2.122.214 4.247 1.095 5.854 2.636.8.764 1.466 1.704 1.866 2.764.411 1.063.535 2.201.549 3.33-.006 1.146-.13 2.314-.63 3.363-.251.515-.643 1.013-1.21 1.246-.567.239-1.188.134-1.7-.057l-.016-.007-.016-.01c-.442-.29-.85-.656-1.135-1.118a2.786 2.786 0 01-.41-1.54c.03-1.074.518-2.03 1.077-2.86 1.164-1.652 2.71-2.929 4.343-3.946 1.646-1.019 3.434-1.682 5.21-2.165 1.784-.47 3.614-.668 5.372-.462 1.755.2 3.428.804 4.785 1.801.673.5 1.258 1.133 1.606 1.888.367.75.406 1.635.16 2.396-.236.761-.77 1.461-1.526 1.743-.752.294-1.6.09-2.195-.348a3.317 3.317 0 01-1.244-1.745c-.196-.684-.18-1.39-.058-2.042.256-1.314.878-2.428 1.507-3.42a14.064 14.064 0 012.138-2.543 14.533 14.533 0 014.444-2.847c1.352-.534 2.46-.768 3.215-.859.754-.095 1.152-.093 1.152-.093m8.481 22.872c.018.045-.704.205-1.816.877a9.266 9.266 0 00-3.589 4.02 8.283 8.283 0 00-.578 1.706c-.154.607-.198 1.26-.004 1.885.093.308.26.597.51.775a.96.96 0 00.885.097c.6-.251 1-.956 1.069-1.673.192-1.46-.693-3.085-2.134-3.79-1.451-.715-3.348-.515-4.769.449-1.439.972-2.335 2.557-2.7 4.147-.182.786-.201 1.632.188 2.273.372.644 1.163 1.024 1.803.71.642-.288 1.028-.99 1.022-1.67.01-.69-.256-1.356-.604-1.919a5.61 5.61 0 00-2.848-2.293 5.278 5.278 0 00-3.034-.183 5.783 5.783 0 00-2.11.98c-1.039.782-1.362 1.47-1.402 1.435-.005-.003.014-.044.059-.121.044-.077.106-.194.21-.332a5.2 5.2 0 011.046-1.095 5.806 5.806 0 012.148-1.066 5.457 5.457 0 013.17.138 5.851 5.851 0 013.018 2.377c.372.593.672 1.3.669 2.083.01.775-.422 1.617-1.208 1.975-.388.181-.87.19-1.272.014a2.118 2.118 0 01-.965-.85c-.465-.769-.426-1.707-.24-2.535.379-1.665 1.31-3.33 2.846-4.371 1.523-1.031 3.546-1.25 5.13-.468 1.58.786 2.526 2.536 2.311 4.155-.09.795-.515 1.606-1.288 1.93-.39.157-.844.09-1.178-.14-.331-.241-.52-.597-.621-.943-.211-.694-.146-1.418.018-2.037a8.52 8.52 0 01.619-1.752c1.042-2.148 2.615-3.403 3.752-4.034 1.152-.645 1.887-.754 1.887-.754m-22.149 10.098a.644.644 0 01-.174-.032l-.5-.124c-.44-.096-1.092-.245-1.945-.328a14.827 14.827 0 00-7.1.993c-.708.281-1.426.642-2.13 1.081-.694.444-1.376.996-1.855 1.73-.484.724-.68 1.668-.354 2.539.153.426.413.83.786 1.093.365.27.845.37 1.3.28.915-.2 1.677-1.084 1.803-2.068.14-1.009-.24-2.058-.813-2.964-1.163-1.829-3.113-3.245-5.348-3.797-2.242-.563-4.612-.121-6.483.973-.931.545-1.782 1.25-2.388 2.072-.286.424-.513.889-.62 1.373-.113.476-.106.987.115 1.385.209.407.632.675 1.073.715a1.99 1.99 0 001.274-.37c.778-.502 1.024-1.472.946-2.328-.074-.873-.413-1.683-.817-2.4a8.577 8.577 0 00-1.465-1.86 9.554 9.554 0 00-3.493-2.09 8.91 8.91 0 00-3.054-.478c-1.718.034-2.605.488-2.618.423-.003-.007.052-.03.16-.071l.49-.173a7.98 7.98 0 011.964-.322 8.864 8.864 0 013.121.426 9.673 9.673 0 013.607 2.097 8.803 8.803 0 011.531 1.908c.426.738.788 1.576.875 2.514.045.466.005.96-.157 1.427a2.373 2.373 0 01-.906 1.192c-.42.294-.943.473-1.488.434a1.69 1.69 0 01-1.339-.883c-.277-.5-.275-1.096-.154-1.622.119-.536.36-1.036.667-1.495.66-.896 1.522-1.607 2.495-2.183 1.942-1.142 4.41-1.606 6.75-1.02 2.33.578 4.353 2.049 5.565 3.961.597.95 1.014 2.075.856 3.204-.157 1.124-.993 2.11-2.083 2.351a1.989 1.989 0 01-1.559-.344c-.44-.314-.728-.777-.897-1.253a3.07 3.07 0 01-.135-1.482c.076-.496.29-.933.539-1.33.522-.785 1.241-1.351 1.96-1.803a13.454 13.454 0 012.184-1.082 14.627 14.627 0 017.21-.894c1.721.226 2.604.624 2.604.624" fill="#FAF9F6"/><path d="M184.019 71.437c1.457.076 1.042 8.012 2.12 6.333 1.076-1.68-.62-9.737.898-9.595 1.979.186 1.391 8.49 1.393 9.195.002.685 1.022.7.985.064-.052-.913-.358-10.53 1.587-10.366 1.078.09.685 2.017.685 2.017s-.377 9.036.545 9.081c.935.048 1.335-5.254 1.344-7.048.008-1.773.855-2.512 1.637-1.876.533.433.637 5.925.587 7.7-.05 1.775-.274 6.644 1.786 4.282 2.061-2.36 4.514-3.421 5.366-3.251.851.17.893 1.422.014 1.829-.713.328-1.738 1.239-2.483 1.954-.612.59-1.051 1.32-1.515 2.03-.495.757-.681 1.244-1.085 2.516l2.761 33.096 2.028-2.532 11.566 11.182-6.035 6.943c-4.422 5.088-12.422 5.416-16.914.391a11.565 11.565 0 01-.473-.564c-1.122-1.434-1.72-3.208-1.874-5.022l-3.82-42.909-.034.002c-.084-4.769-1.378-8.393-1.603-10.852-.418-4.574-.007-4.629.534-4.6m53.462 17.686c.042-4.991-.004-10.246-.004-10.246s-6.417-1.141-7.652-9.545c-1.177-8.014.82-25.25.82-25.25 9.296-3.667 19.763-2.25 26.276 5.234l-1.013 40.527c-.117 4.705-4.256 8.351-9.293 8.187-5.087-.166-9.174-4.152-9.134-8.907" fill="#F1AD92"/><path d="M232.392 57.317c-.027.568.432 1.059 1.024 1.097.591.039 1.093-.389 1.12-.957.027-.568-.432-1.059-1.023-1.098-.593-.039-1.094.39-1.12.958m-1.731-1.225c.131.142.953-.451 2.111-.435 1.156 0 1.999.605 2.126.464.063-.061-.07-.316-.437-.59-.361-.272-.98-.54-1.7-.545-.722-.005-1.332.254-1.683.521-.359.269-.483.522-.417.585m13.578 1.566c-.028.568.432 1.059 1.024 1.098.592.038 1.094-.39 1.12-.958.027-.567-.432-1.059-1.023-1.097-.593-.04-1.094.39-1.122.957" fill="#132529"/><path d="M242.735 56.652c.132.142.954-.451 2.112-.435 1.156 0 1.999.605 2.126.465.062-.062-.07-.317-.438-.59-.36-.273-.979-.54-1.7-.546-.72-.005-1.33.254-1.682.521-.359.27-.483.522-.418.585m-4.3 8.536c.006-.066-.713-.198-1.876-.36-.296-.034-.575-.097-.622-.299-.067-.215.06-.531.207-.874l.9-2.24c1.251-3.191 2.16-5.816 2.032-5.865-.13-.05-1.248 2.497-2.5 5.688-.3.787-.588 1.536-.863 2.254-.115.335-.312.714-.166 1.159a.742.742 0 00.48.437c.19.06.355.065.502.076 1.172.076 1.9.09 1.906.024" fill="#132529"/><path d="M237.477 78.877s5.638.43 11.268-2.866c0 0-2.792 5.73-11.178 4.848l-.09-1.982m1.415-10.893c.423-.546 1.155-.84 1.879-.753.501.06 1.006.308 1.307.72.3.413.357.995.075 1.381-.317.436-.971.53-1.521.366-.55-.163-1.023-.532-1.47-.9-.124-.102-.25-.208-.327-.345-.076-.14-.09-.319.007-.432" fill="#EA8E6C"/><path d="M241.832 66.029c-.188-.014-.205 1.243-1.291 2.123-1.084.882-2.421.725-2.433.9-.018.079.295.248.86.27a3.129 3.129 0 002.03-.681c.663-.54.954-1.266 1.002-1.781.055-.525-.082-.838-.168-.831m11.445-22.699c-3.069 4.377-11.194 8.877-17.013 9.922.68-.895 4.254-3.098 4.933-3.993-2.638 1.97-6.412 4.605-9.911 4.783-.414.021-.862.02-1.203-.187-.464-.283-.558-.832-.613-1.318-.225-2.05-.083-5.567.243-7.601.327-2.035 1.261-4.06 3.027-5.424 2.242-1.732 5.45-2.16 8.474-2.232 2.535-.06 5.149.089 7.467 1.004 2.316.915 4.3 2.723 4.638 4.897" fill="#132529"/><path d="M262.078 62.939c.422-2.172.76-4.232.837-5.607.248-4.33-1.002-20.306-15.927-19.02l3.592 4.584s-2.95 9.684 3.33 16.362c0 0 .357 3.909 4.729 8.418 0 0 2.531-.076 3.439-4.737" fill="#132529"/><path d="M253.733 58.531c.899-.163 1.847-.127 2.698.205.851.331 1.596.975 1.956 1.816.36.841.312 1.823-.008 2.681-.32.858-.895 1.603-1.554 2.238-.474.457-1.011.872-1.641 1.062-.63.19-1.368.12-1.865-.311" fill="#F1AD92"/><path d="M254.166 63.975c-.103.032.28.579 1.103.368.396-.1.786-.442 1.023-.874.24-.438.4-.919.465-1.482.063-.56-.057-1.157-.361-1.584-.29-.435-.768-.696-1.17-.71-.844-.029-1.112.553-1.016.57.066.07.396-.227.947-.088.528.104 1.04.838.915 1.744-.11.921-.475 1.762-.969 1.967-.514.254-.88.016-.937.089" fill="#EA8E6C"/><path fill="#132529" d="M264.257 144.35v-3.833h-26.978l-7.92-34.679-40.374.332 9.79 38.18h65.482"/><path d="M208.115 125.116c.597 1.837 2.221 2.955 3.628 2.498 1.405-.457 2.062-2.317 1.465-4.153-.596-1.836-2.22-2.954-3.627-2.497-1.407.457-2.063 2.316-1.466 4.152" fill="#FAF9F6"/><path d="M227.51 144.114a24.992 24.992 0 01-1.686-4.037c-.106-.333-.205-.68-.158-1.025.046-.346.278-.69.619-.76.63-.126 1.02.637 1.266 1.23.918 2.212 2.958 3.913 5.292 4.443l1.635-.046.008-.067 35.287-3.147-1.683-7 18.68-1.388 1.703 6.892c.92 8.609-6.008 16.03-14.66 15.703l-40.491.01c-12.88.843-15.301-10.542-15.301-10.542l9.489-.266" fill="#F1AD92"/><path d="M180.593 257.249l-15.95 9.843 5.85 14.076a51.237 51.237 0 0012.525-18.072l-2.425-5.847" fill="#B67E6D"/><path d="M184.92 257.572c-2.063-4.934-9.137-21.23-15.058-27.32-8.866-9.117-24.471-7.89-24.471-7.89l-20.27.721s-7.709.847-14.932 4.62l-.498.154.006.103c-5.673 3.08-13.708 10.47-21.362 17.642l9.16 8.5 10.137 9s-.04.064-.018.179c.106.546-1.646 11.433-3.198 20.84a50.884 50.884 0 0032.293 10.7 50.913 50.913 0 0021.546-5.22l.757-8.696c.692-7.885 1.218-17.648 1.218-17.648l2.911 7.384 21.148-10.997a51.18 51.18 0 00.63-2.072" fill="#2472FF"/><path d="M145.953 221.593c.012-.002.042.122.089.362.055.239.098.597.134 1.061.063.926-.012 2.298-.524 3.894-.522 1.578-1.522 3.387-3.205 4.851-1.664 1.478-4.048 2.447-6.608 2.576-2.56.111-5.025-.63-6.821-1.945-1.814-1.298-2.98-3.004-3.651-4.526-.66-1.54-.865-2.898-.891-3.826-.009-.465 0-.826.032-1.069.024-.243.042-.37.055-.368.041.002-.016.513.055 1.43.068.912.31 2.237.985 3.728.685 1.473 1.844 3.116 3.61 4.357 1.745 1.256 4.128 1.961 6.61 1.853 2.48-.126 4.785-1.052 6.404-2.465 1.64-1.403 2.64-3.148 3.18-4.68.531-1.547.645-2.89.627-3.804-.017-.919-.123-1.423-.081-1.43m19.303 4.398c.006.045-.54.023-1.435.34-.89.3-2.11 1.037-3.14 2.382-1.053 1.328-1.729 3.291-1.995 5.517-.141 1.114-.202 2.297-.243 3.527a131.74 131.74 0 00-.087 3.808c-.04 5.22.27 9.942.6 13.347.16 1.704.33 3.078.436 4.03l.126 1.095c.024.252.031.384.019.386-.012.002-.044-.127-.093-.375l-.193-1.087a90.269 90.269 0 01-.551-4.022 111.142 111.142 0 01-.615-17.196c.047-1.232.114-2.425.267-3.557.288-2.258 1.01-4.28 2.124-5.632 1.09-1.368 2.373-2.092 3.3-2.359.934-.281 1.48-.204 1.48-.204m-48.246-1.317c.012.004-.018.14-.087.395l-.315 1.11-1.188 4.069a322.043 322.043 0 00-3.59 13.513 323.162 323.162 0 00-2.974 13.663l-.8 4.163-.225 1.131c-.056.26-.09.393-.103.391-.012-.002-.002-.14.03-.402l.158-1.143c.143-.992.376-2.423.686-4.187.62-3.528 1.59-8.385 2.873-13.702a229.586 229.586 0 013.697-13.502c.529-1.71.974-3.09 1.3-4.038l.382-1.089c.09-.248.143-.376.155-.372m67.512 29.511c.014.021-.281.24-.827.617-.544.378-1.343.91-2.34 1.553a179.056 179.056 0 01-7.916 4.808 179.542 179.542 0 01-8.152 4.4 89.49 89.49 0 01-2.522 1.234c-.601.28-.939.425-.95.401-.011-.022.304-.209.885-.528l2.467-1.335a366.89 366.89 0 008.09-4.489 370.333 370.333 0 007.962-4.71l2.4-1.454c.569-.34.89-.518.903-.497" fill="#132529"/><path d="M108.68 257.267c-.063.078-4.049-3.064-8.9-7.017-4.853-3.953-8.736-7.221-8.672-7.3.064-.078 4.049 3.063 8.902 7.017 4.853 3.953 8.735 7.222 8.67 7.3" fill="#132529"/><path fill="#A4A6A3" d="M163.141 270.64l-2.91-7.383 2.91 7.384 2.448-1.274-2.448 1.274"/><path fill="#896154" d="M165.59 269.368l.505-.263-.506.263"/><path d="M163.141 270.64l-2.91-7.383s-.5-2.585-1.027-5.967c-.079-.695-.164-1.492-.247-2.38-.287-2.943-.556-6.87-.598-11.254l6.62 21.779-2.28 1.234c-.58.32-.896.506-.886.528a.01.01 0 00.007.003c.052 0 .383-.144.944-.404a85.09 85.09 0 002.29-1.116l1.04 3.425-.505.262-2.448 1.274m-4.898-20.71c-.202-2.086-.31-4.043-.237-5.53.036 1.96.122 3.82.237 5.53" fill="#1E56B3"/><path d="M159.204 257.29c-.355-2.274-.723-4.907-.96-7.358a112.616 112.616 0 01-.238-5.531c.026-.533.076-1.004.152-1.4l.2.655c.043 4.384.312 8.311.599 11.255.083.887.168 1.684.247 2.379m2.616 9.91c-.003 0-.005 0-.007-.003-.01-.022.305-.209.886-.528l2.28-1.234.075.245a85.09 85.09 0 01-2.29 1.116c-.56.26-.892.404-.944.404" fill="#09181B"/><path d="M118.123 224.572c1.298-.53 4.605-1.136 6.368-1.436l-.002.03a48.956 48.956 0 00-6.366 1.406m6.457-1.418v-.033c.643-.11 1.058-.174 1.058-.174l.045.116-.563.02s-.19.02-.54.07" fill="#A4A6A3"/><path d="M128.79 232.225c-4.99-.117-15.094-5.336-10.92-7.536.072-.038.157-.077.253-.117a48.956 48.956 0 016.366-1.405c-.017.227-.02.52-.013.873.026.928.23 2.287.89 3.826.643 1.458 1.74 3.084 3.424 4.36m.287-.204c-1.69-1.23-2.807-2.826-3.474-4.26-.676-1.492-.917-2.817-.985-3.73-.028-.356-.036-.65-.038-.878.35-.05.54-.071.54-.071l.563-.02 3.394 8.959" fill="#1A5FDD"/><path d="M128.96 232.227c-.056 0-.113 0-.17-.002-1.684-1.275-2.781-2.901-3.423-4.359-.66-1.54-.865-2.898-.891-3.826-.006-.353-.004-.646.013-.873l.002-.031.089-.015v.033c.002.227.01.522.038.878.068.913.31 2.238.985 3.73.667 1.434 1.785 3.03 3.474 4.26l.078.202c-.064.003-.13.003-.195.003" fill="#09181B"/><path d="M142.736 191.474c-.198.703.06 1.513.629 1.972a1.92 1.92 0 002.06.196c1.225-.651 1.348-2.362 1.078-3.723-.27-1.361-.763-2.81-.215-4.086.42-.975 1.358-1.606 2.083-2.381 1.265-1.351 1.915-3.296 1.566-5.114-.35-1.817-1.749-3.428-3.54-3.892-1.829-.473-4.058.13-5.438-1.16-1-.936-1.09-2.498-1.872-3.622-1.212-1.745-3.71-1.977-5.809-1.648-2.1.329-4.23 1.045-6.302.573-1.73-.395-3.166-1.57-4.794-2.277-3.53-1.532-7.983-.578-10.577 2.264-2.592 2.843-3.133 7.365-1.284 10.739.664 1.211 1.65 2.306 2.941 2.799" fill="#132529"/><path d="M135.372 234.123c-5.58.01-10.182-4.325-10.458-9.847-.23-4.6-.422-9.03-.422-9.03s-8.54-.619-9.328-8.968c-.789-8.35-.897-27.658-.897-27.658 9.423-4.945 20.806-4.451 29.75 1.292l.813.522.987 43.208c.063 5.763-4.63 10.472-10.445 10.481" fill="#B67E6D"/><path d="M130.472 191.464c-.645.211-.994.9-.78 1.539.213.638.908.983 1.553.772.643-.212.993-.901.779-1.54a1.23 1.23 0 00-1.552-.77" fill="#132529"/><path d="M128.131 191.898c.141.137.932-.545 2.095-.62 1.162-.09 2.043.472 2.163.316.059-.07-.089-.323-.474-.58-.378-.253-1.015-.483-1.74-.43-.724.051-1.32.368-1.658.674-.344.307-.454.58-.386.64m-10.406-.434c-.644.211-.993.9-.78 1.539.214.638.909.983 1.553.772.644-.212.993-.901.78-1.54a1.23 1.23 0 00-1.553-.77" fill="#132529"/><path d="M115.228 191.924c.141.137.933-.545 2.096-.62 1.162-.091 2.043.471 2.162.315.06-.068-.088-.323-.474-.578-.378-.254-1.014-.484-1.74-.432-.723.051-1.32.369-1.658.675-.344.307-.454.58-.386.64m8.773 9.028c0-.09-.73-.177-1.91-.243-.307-.008-.55-.058-.586-.217-.07-.178.022-.509.147-.88l.727-2.413c.996-3.435 1.66-6.26 1.485-6.31-.176-.049-1.126 2.694-2.122 6.129l-.677 2.427c-.084.357-.261.78-.064 1.265a.794.794 0 00.563.438c.206.045.378.03.524.026 1.181-.054 1.913-.132 1.913-.222" fill="#132529"/><path d="M127.878 201.92c-2.328 1.13-3.41 1.475-5.562 2.099 0 0 1.532 2.038 3.892.96 2.449-1.119 1.67-3.06 1.67-3.06" fill="#FFFFFE"/><path d="M124.469 215.127s5.364 0 10.74-3.984c0 0-2.106 6.225-10.583 6.15l-.157-2.166" fill="#A16354"/><path d="M145.035 188.877c-.01-.676.512-1.258 1.193-1.29 1.575-.074 4.164.496 4.49 4.8.465 6.15-5.539 4.729-5.563 4.553-.019-.136-.09-5.67-.12-8.063" fill="#B67E6D"/><path d="M146.477 194.495c.025-.021.113.067.302.136.185.068.495.101.81-.044.637-.287 1.11-1.36 1.057-2.47a3.514 3.514 0 00-.419-1.51c-.223-.437-.54-.729-.875-.762a.553.553 0 00-.616.34c-.07.18-.02.3-.053.312-.017.017-.141-.093-.11-.35a.683.683 0 01.214-.405.826.826 0 01.586-.2c.482-.004.945.401 1.201.868a3.62 3.62 0 01.505 1.686c.054 1.242-.498 2.45-1.375 2.773-.428.145-.803.043-1.001-.089-.204-.137-.247-.273-.226-.285" fill="#A16354"/><path d="M132.274 188.47c-.263.339-1.179.181-2.37.13-1.187-.095-2.117-.05-2.334-.417-.245-.383.904-1.26 2.436-1.135 1.535.062 2.562 1.074 2.268 1.423m-13.419-.214c-.087.426-.858.629-1.728.71-.872.07-1.666.005-1.827-.4-.163-.391.567-1.05 1.69-1.148 1.122-.1 1.957.424 1.865.838" fill="#132529"/><path d="M113.081 181.264s5.066 2.452 11.66-.838c4.327-2.16 9.37-3.215 10.482-2.345 1.112.87 1.347 5.328 5.633 6.63 0 0-.295 8.506 3.097 8.202 3.391-.303 1.272-13.478 1.272-13.478l-8.297-4.052-9.054-1.71-8.531 1.203-6.601 1.808.339 4.58" fill="#132529"/><path d="M82.773 195.827c.3.482 10.059 34.296 10.059 34.296l-19.363 2.64-8.906-27.592 18.21-9.344" fill="#334F55"/><path fill="#132529" d="M92.832 230.123l1.74-.926-10.133-34.257-1.875.995 10.268 34.188m-18.171-25.317a.821.821 0 11-1.606.344.821.821 0 011.606-.344"/><path d="M89.18 245.555l-12.703 8.275-2.337-29.604.198-1.479 8.605-3.284-2.473-6.336a5.461 5.461 0 00-7.533-2.8l-2.755 1.403a7.76 7.76 0 00-3.982 4.91c-.978 3.667-1.848 7.63-1.758 7.287h.002-.002L59 262.033s-2.589 10.987 4.928 16.215c5.68 3.949 15.245-.245 20.322-3.115l22-13.259-17.07-16.319" fill="#B67E6D"/><g transform="translate(43.524)"><mask id="d" fill="#fff"><use xlink:href="#c"/></mask><path d="M58.634 90.156l-8.618-13.11-14.526 9.126 13.17 20.307s7.244-7.86 9.974-16.323" fill="#EA8E6C" mask="url(#d)"/><path d="M4.647 24.591c.71-.782-.253-2.006-1.247-2.366-.993-.361-2.23-.527-2.705-1.472-.576-1.145.442-2.426.625-3.696.196-1.357-.586-2.648-.819-4-.295-1.721.38-3.575 1.71-4.705 1.332-1.128 3.272-1.49 4.92-.917.106-2.645 1.973-5.131 4.483-5.97 2.51-.839 5.497.025 7.17 2.074 1.31-.994 2.638-2 4.163-2.616 1.524-.615 3.294-.802 4.798-.137 1.504.664 2.62 2.319 2.33 3.936 1.137-1.352 3.255-1.617 4.852-.86 1.597.756 2.682 2.357 3.147 4.062.65 2.381.084 5.191-1.816 6.768-1.9 1.577-5.152 1.43-6.56-.599" fill="#132529" mask="url(#d)"/></g><path d="M57.492 64.937c5.22.008 9.527-4.047 9.785-9.214.215-4.304.394-8.448.394-8.448s7.991-.579 8.728-8.39c.737-7.812.839-25.877.839-25.877a27.722 27.722 0 00-27.835 1.209l-.76.488-.922 40.426c-.06 5.391 4.33 9.798 9.771 9.806" fill="#F1AD92"/><path d="M62.077 25.024c.603.199.93.843.73 1.44-.2.597-.85.921-1.453.722a1.137 1.137 0 01-.73-1.44c.2-.596.85-.92 1.453-.722" fill="#132529"/><path d="M64.267 25.43c-.132.13-.873-.509-1.96-.578-1.087-.086-1.912.44-2.023.294-.056-.065.082-.302.443-.542.353-.238.949-.452 1.627-.404.678.048 1.237.345 1.552.631.322.289.425.543.36.6m9.737-.407c.602.199.93.843.73 1.44a1.152 1.152 0 01-1.454.722 1.136 1.136 0 01-.729-1.44c.2-.596.85-.92 1.453-.722" fill="#132529"/><path d="M76.338 25.455c-.132.128-.872-.51-1.96-.58-1.087-.085-1.91.44-2.023.295-.055-.065.083-.302.443-.542.354-.238.95-.452 1.628-.403.677.048 1.236.344 1.551.63.323.289.425.543.361.6m-8.207 8.446c0-.085.683-.165 1.787-.227.287-.007.516-.054.548-.203.065-.167-.02-.476-.137-.823l-.68-2.258c-.932-3.213-1.554-5.856-1.39-5.903.164-.047 1.054 2.52 1.986 5.733l.633 2.271c.078.335.244.73.06 1.183a.745.745 0 01-.527.41c-.193.042-.354.029-.49.025-1.105-.05-1.79-.123-1.79-.208" fill="#132529"/><path d="M64.503 34.806c2.179 1.058 3.19 1.38 5.203 1.965 0 0-1.432 1.907-3.64.898-2.291-1.047-1.563-2.863-1.563-2.863" fill="#FFFFFE"/><path d="M67.693 47.164s-5.02 0-10.048-3.728c0 0 1.97 5.824 9.9 5.755l.148-2.027" fill="#EA8E6C"/><path d="M48.452 26.178a1.187 1.187 0 00-1.117-1.206c-1.473-.07-3.895.464-4.2 4.49-.436 5.752 5.182 4.425 5.204 4.26.018-.128.085-5.305.113-7.544" fill="#F1AD92"/><path d="M47.103 31.435c-.024-.021-.107.062-.284.127a1.022 1.022 0 01-.757-.04c-.596-.27-1.04-1.274-.989-2.312a3.289 3.289 0 01.392-1.414c.21-.407.506-.681.819-.713a.517.517 0 01.576.32c.065.167.02.278.05.29.015.016.132-.086.103-.328a.64.64 0 00-.2-.377.767.767 0 00-.55-.188c-.45-.003-.883.375-1.123.812a3.386 3.386 0 00-.472 1.578c-.05 1.162.466 2.292 1.287 2.594.4.137.75.04.936-.082.19-.13.231-.256.212-.267" fill="#EA8E6C"/><path d="M60.391 22.225c.246.316 1.103.167 2.217.12 1.111-.09 1.98-.047 2.184-.39.23-.359-.846-1.18-2.28-1.062-1.436.057-2.396 1.004-2.121 1.332m12.555-.201c.081.399.803.588 1.616.665.816.066 1.56.004 1.71-.375.152-.366-.531-.984-1.581-1.074-1.05-.093-1.831.396-1.745.784" fill="#132529"/><path d="M78.348 15.481s-4.74 2.295-10.909-.784c-4.048-2.021-8.767-3.007-9.807-2.194-1.04.814-1.26 4.985-5.27 6.203 0 0 .275 7.958-2.898 7.674-3.173-.283-1.19-12.609-1.19-12.609l7.762-3.791 8.471-1.6 7.982 1.124 6.176 1.691-.317 4.286" fill="#132529"/><path d="M25.224 61.533c8.294-8.53 22.895-7.6 22.895-7.6l18.965.674s7.212.792 13.97 4.323l.465.144-.006.096c5.309 2.883 12.826 9.797 19.986 16.506L92.93 83.63l-9.484 8.42s.037.06.016.168c-.099.51 1.541 10.697 2.993 19.499a47.611 47.611 0 01-30.214 10.01 47.628 47.628 0 01-20.157-4.884l-.71-8.137c-.646-7.377-1.139-16.51-1.139-16.51l-9.011-30.662" fill="#2472FF"/><path d="M74.672 56.095c.012-.004.063.116.149.347l.358 1.019c.306.886.725 2.176 1.22 3.777a213.795 213.795 0 016.147 25.453c.29 1.65.507 2.99.638 3.918.06.43.108.784.146 1.07.029.244.038.374.026.376-.012.002-.046-.124-.099-.365l-.213-1.058-.752-3.894a305.829 305.829 0 00-2.785-12.783 306.385 306.385 0 00-3.355-12.643l-1.108-3.808-.293-1.04c-.064-.238-.091-.365-.08-.369" fill="#132529"/><path d="M82.465 86.59c-.064-.078 3.564-3.141 8.104-6.84 4.54-3.699 8.273-6.633 8.336-6.555.064.078-3.564 3.14-8.105 6.84-4.54 3.697-8.271 6.633-8.335 6.555" fill="#132529"/><path fill="#A4A6A3" d="M31.511 99.102l-2.763-1.437 3.608-11.866 1.88 6.395-2.725 6.908"/><path d="M34.235 92.194l-1.88-6.395 3.818-12.557c.861 4.442-1.938 18.952-1.938 18.952" fill="#C8444D"/><path d="M73.629 56c-3.09-.896-5.537-1.262-6.299-1.362l.002-.039c1.523.255 4.992.87 6.297 1.4" fill="#A4A6A3"/><path d="M67.33 54.638c-.16-.022-.246-.03-.246-.03l-.526-.02.04-.108s.282.044.734.12l-.002.038" fill="#CD8D73"/><path d="M63.492 63.162c-.062 0-.122 0-.183-.002l3.249-8.572.526.02s.085.008.246.03c.762.1 3.208.466 6.299 1.362.09.037.17.074.239.11 3.948 2.082-5.765 7.052-10.376 7.052" fill="#1A5FDD"/><path d="M46.925 54.48v-6.467s12.633 3.25 13.091 10.808c0 0 1.607-8.354 8.115-8.755l.92 11.752-7.574 6.59H53.8l-6.08-5.246-.795-8.16" fill="#2472FF"/><path d="M62.86 95.075c-.013-.001-.02-.125-.022-.36.004-.278.009-.618.013-1.03.024-.894.044-2.187.052-3.785.017-3.194-.079-7.608-.48-12.464A144.94 144.94 0 0060.84 65.06a187.69 187.69 0 00-.675-3.723l-.183-1.014c-.037-.233-.051-.356-.04-.359.013-.003.051.115.112.343l.25 1c.214.87.486 2.136.79 3.707.611 3.141 1.287 7.52 1.695 12.39.402 4.872.457 9.3.373 12.5-.04 1.6-.1 2.894-.167 3.787l-.082 1.027c-.023.235-.04.357-.053.357m-3.425-38.429c-.003.033-.285-.119-.753.057-.23.088-.483.26-.697.543-.218.279-.396.65-.59 1.074a36.126 36.126 0 00-2.416 6.99l-.056.24-.211-.128a52.073 52.073 0 01-2.307-1.477 46.553 46.553 0 01-4.094-3.107c-.605-.52-1.101-1.146-1.389-1.812a5.729 5.729 0 01-.427-1.94c-.053-1.212.142-2.172.268-2.825.138-.653.24-1.007.263-1.002.026.005-.03.369-.123 1.027-.082.655-.234 1.614-.15 2.783.047.581.17 1.215.446 1.833.281.618.74 1.184 1.334 1.683a51.784 51.784 0 004.078 3.058 58.78 58.78 0 002.287 1.474l-.268.111a32.28 32.28 0 012.558-7.009c.207-.415.407-.798.657-1.087.244-.293.54-.473.796-.547.53-.152.812.058.794.06m8.696-6.579c.025 0 .06.36.104 1.01l.19 2.755c.092 1.16.23 2.539.465 4.058.092.75.352 1.563.15 2.468-.257.889-.931 1.56-1.648 2.102-1.008.75-2.069 1.313-2.784 2.117l-.28.313-.027-.418a15.074 15.074 0 00-1.882-6.307c-.81-1.441-1.48-2.177-1.433-2.213.014-.013.192.16.489.507.295.348.7.879 1.136 1.594.87 1.418 1.835 3.65 2.04 6.395l-.306-.104c.767-.871 1.857-1.45 2.827-2.176.69-.515 1.303-1.154 1.522-1.899.181-.757-.045-1.565-.137-2.33a45.223 45.223 0 01-.39-4.091 57.99 57.99 0 01-.074-2.766c0-.653.013-1.014.038-1.015m40.659 1.623c-.514.605-19.11 25.471-19.11 25.471l2.618 1.484 19.083-24.55-2.591-2.405" fill="#132529"/><path d="M34.081 71.35s19.564 28.161 20.743 28.714c2.322 1.09 29.087-22.039 31.64-24.252.35-.47 1.078-1.461 2.503-3.434 0 0 2.111-9.663 4.365-8.92 2.254.742-1.235 4.91.233 8.581 1.468 3.671 8.188-5.086 8.458-5.871l1.733-2.265s1.818 5.153 1.694 7.305c-.394 6.894-6.917 15.093-6.917 15.093s-29.29 36.284-49.355 37.41c-5.779.325-16.049-16.073-22.914-28.367-4.146-7.426-2.077-16.78 4.795-21.79l3.022-2.205" fill="#F1AD92"/><path d="M102.158 72.433c-.054-.033.581-1.136 1.274-2.54.697-1.404 1.188-2.578 1.247-2.555.054.02-.348 1.237-1.05 2.652-.699 1.416-1.423 2.475-1.471 2.443" fill="#EA8E6C"/><path d="M30.77 57.606s-20.999 7.465-5.387 42.778l24.241-14.63-3.449-8.258-15.405-19.89" fill="#2472FF"/><path d="M29.161 58.217c0-.006.056-.011.166-.015l.49-.006c.43.003 1.068.06 1.868.248.794.206 1.747.56 2.747 1.166 1 .601 2.04 1.447 3.051 2.51 2.033 2.124 3.93 5.087 5.693 8.52 1.773 3.432 3.43 7.342 5.13 11.45l1.485 3.593.064.151-.144.079c-7.013 3.824-13.12 7.409-17.432 10.095a277.005 277.005 0 00-5.055 3.21l-1.357.878c-.311.198-.477.298-.484.288-.006-.01.147-.128.446-.344.299-.216.74-.536 1.32-.932a162.29 162.29 0 015-3.307c4.283-2.742 10.374-6.369 17.388-10.207l-.08.229-1.49-3.593c-1.699-4.107-3.342-8.012-5.092-11.437-1.736-3.426-3.597-6.377-5.58-8.496-.985-1.06-1.997-1.905-2.97-2.513-.972-.613-1.9-.978-2.676-1.203-1.571-.405-2.493-.308-2.488-.364" fill="#132529"/></g></svg>