<svg width="410" height="257" xmlns="http://www.w3.org/2000/svg" xmlns:xlink="http://www.w3.org/1999/xlink"><defs><path id="a" d="M0 .121h45.49v89.463H0z"/></defs><g fill="none" fill-rule="evenodd"><g transform="translate(0 109.8)"><mask id="b" fill="#fff"><use xlink:href="#a"/></mask><path d="M19.369.139s-5.012-.361-4.55 10.881c.46 11.242 1.608 17.23 1.608 17.23s-.148 2.493-2.079 2.004c-1.93-.49-5.562-2.916-7.355-1.102-1.86 1.881-1.199 4.765 1.268 8.163 2.468 3.397 7.6 11.04 8.062 11.733.453.68.635 1.956-.733 1.833-1.37-.121-10.606-3.253-11.83 1.219-1.223 4.472 7.207 12.808 8.111 13.737.904.929.952 1.515.586 2.077-.367.562-3.372-.782-6.036-1.565-2.664-.783-5.89-1.224-6.38 1.415-.489 2.64 3.224 10.363 17.127 18.481l6.69 3.34 6.33-4.039C43.21 76.08 46.132 68.022 45.381 65.445c-.751-2.577-3.917-1.816-6.489-.77-2.572 1.045-5.428 2.684-5.849 2.16-.421-.521-.431-1.11.375-2.125.807-1.014 8.36-10.151 6.696-14.479-1.665-4.327-10.542-.288-11.892-.029-1.35.259-1.296-1.028-.913-1.75.39-.736 4.732-8.853 6.848-12.48 2.115-3.628 2.484-6.564.445-8.25-1.966-1.625-5.336 1.152-7.208 1.832-1.872.68-2.268-1.785-2.268-1.785s.542-6.073-.124-17.305C24.337-.768 19.267.139 19.267.139" fill="#E4E4DE" mask="url(#b)"/></g><path d="M19.764 120.008s.014.078.027.234l.053.69.18 2.655c.154 2.306.351 5.644.579 9.769.458 8.25.994 19.653 1.545 32.249.55 12.6 1.057 24.003 1.47 32.255.209 4.118.378 7.453.497 9.772.057 1.145.1 2.038.132 2.657l.027.692c.005.155 0 .236 0 .236s-.012-.08-.026-.234l-.053-.69-.18-2.655a922.224 922.224 0 01-.578-9.768c-.459-8.251-.995-19.655-1.545-32.254-.55-12.596-1.058-23.998-1.47-32.25l-.497-9.773-.132-2.658-.028-.691c-.005-.156-.001-.236-.001-.236" fill="#D4D5CF"/><path d="M11.936 142.55c.013-.013.16.111.417.347.257.234.618.583 1.06 1.019.884.874 2.07 2.114 3.355 3.507l3.271 3.58.996 1.08c.236.253.361.4.348.413-.012.013-.16-.11-.418-.343a32.973 32.973 0 01-1.057-1.026c-.874-.883-2.045-2.138-3.328-3.53l-3.296-3.555-1.002-1.075c-.235-.256-.358-.405-.346-.417m10.111 9.725c-.05-.05 2.396-2.612 5.463-5.72 3.068-3.112 5.596-5.593 5.646-5.543.05.05-2.395 2.611-5.464 5.722-3.067 3.11-5.595 5.591-5.645 5.541m-.027 19.383c-.009-.015.158-.12.466-.297l1.308-.734c1.104-.62 2.626-1.482 4.27-2.493a120.363 120.363 0 004.16-2.675l1.248-.833c.297-.194.466-.295.476-.281.01.014-.139.143-.417.363a39.11 39.11 0 01-1.203.9 65.863 65.863 0 01-4.13 2.745 66.949 66.949 0 01-4.319 2.433c-.565.289-1.024.516-1.348.664-.322.15-.504.224-.512.208m-11.08-6.783c.008-.015.172.063.462.217.29.154.703.384 1.213.674 1.018.579 2.415 1.393 3.951 2.306s2.92 1.753 3.914 2.371c.497.31.897.564 1.17.744.274.18.422.288.412.303-.009.015-.173-.063-.462-.217a55.24 55.24 0 01-1.213-.674 248.492 248.492 0 01-3.952-2.307 246.848 246.848 0 01-3.913-2.37c-.497-.31-.897-.564-1.17-.744-.274-.181-.421-.288-.412-.303M8.74 181.984c.01-.016.218.087.589.284l1.556.86c1.31.734 3.109 1.764 5.088 2.915a400.125 400.125 0 015.05 2.983l1.516.929c.355.224.547.355.538.37-.009.015-.218-.087-.588-.285-.413-.226-.934-.514-1.557-.858a404.873 404.873 0 01-5.088-2.917 399.333 399.333 0 01-5.05-2.981l-1.516-.93c-.355-.224-.547-.355-.538-.37m14.05 8.046c-.008-.016.199-.154.582-.39l1.626-.99a204.226 204.226 0 005.316-3.336 196.985 196.985 0 005.202-3.513l1.564-1.086c.37-.255.58-.389.591-.375.01.015-.18.175-.532.455-.353.28-.87.676-1.517 1.153-1.293.958-3.11 2.24-5.168 3.58a107.912 107.912 0 01-5.364 3.278c-.7.397-1.27.712-1.668.92-.399.21-.623.319-.632.304m10.053 11.543H14.338l6.04 45.719h6.426l6.04-45.719" fill="#D4D5CF"/><path d="M15.299 207.193c-.007.004.02.065.099.163.078.097.224.224.446.319.439.19 1.21.207 1.954-.24.748-.412 1.398-1.222 2.4-1.58.993-.378 2.223-.31 3.402.068 1.194.369 2.23.973 3.17 1.535.94.56 1.803 1.06 2.576 1.383.768.335 1.437.49 1.9.55.232.03.414.04.537.036.124 0 .188-.005.189-.016.01-.06-1.048-.051-2.539-.765-.747-.342-1.586-.852-2.52-1.426-.929-.574-1.99-1.204-3.223-1.586-1.218-.39-2.526-.462-3.591-.039-.532.204-.98.522-1.352.837-.378.312-.716.606-1.059.82-.677.437-1.388.457-1.802.313-.427-.148-.564-.398-.587-.372m.675 8.42c.024.016.147-.188.436-.49a4.126 4.126 0 011.478-.938c.694-.266 1.586-.425 2.573-.387.991.034 2.071.252 3.22.438 1.147.194 2.283.28 3.297.137a9.088 9.088 0 002.594-.74c.701-.32 1.22-.67 1.56-.928.342-.259.505-.433.495-.445-.035-.05-.75.59-2.14 1.177a9.472 9.472 0 01-2.542.66c-.985.122-2.076.033-3.216-.159-1.139-.184-2.236-.398-3.26-.418-1.024-.023-1.947.163-2.661.467a3.887 3.887 0 00-1.485 1.057c-.133.17-.23.307-.28.41-.054.1-.078.154-.07.159m14.774 4.508c.007-.013-.164-.13-.51-.264a5.44 5.44 0 00-1.533-.33c-.663-.052-1.457-.01-2.319.133-.863.14-1.788.378-2.76.584-.97.205-1.907.342-2.755.312a6.039 6.039 0 01-2.188-.473c-1.19-.523-1.615-1.284-1.66-1.235-.011.006.073.197.314.483.238.284.654.648 1.256.945.6.295 1.383.511 2.266.558.884.048 1.847-.087 2.83-.294.982-.209 1.9-.454 2.744-.606.844-.155 1.614-.218 2.26-.194 1.298.044 2.036.437 2.055.381m-13.138 6.341c.009.048.661-.412 1.797-.181.557.1 1.179.382 1.879.7.698.326 1.538.604 2.44.673 1.818.175 3.435-.413 4.427-1.026a6.314 6.314 0 001.102-.847c.225-.24.34-.378.325-.392-.04-.045-.526.503-1.534 1.055-.991.548-2.552 1.077-4.293.91-1.752-.1-3.096-1.146-4.311-1.284-.593-.088-1.088-.004-1.396.121-.313.122-.445.26-.436.27m1.031 8.776c0 .035.62.03 1.543-.306.93-.311 2.081-1.024 3.426-1.559.674-.257 1.35-.415 1.966-.412a3.623 3.623 0 011.581.361c.85.423 1.096 1.025 1.143.987.014-.006-.024-.157-.175-.39-.15-.233-.433-.535-.867-.785a3.627 3.627 0 00-1.678-.45c-.663-.02-1.379.141-2.078.407-1.393.555-2.508 1.29-3.396 1.642-.878.378-1.472.457-1.465.505m.907 4.083c-.01.038.434.197 1.172.38.738.184 1.773.38 2.928.494 1.157.113 2.21.122 2.97.086.76-.036 1.225-.106 1.223-.146-.005-.09-1.875-.01-4.163-.24-2.288-.22-4.107-.663-4.13-.574M394.561 12.595L360.496.36l-33.734 12.07c-4.306 2.034-8.084 3.252-8.084 7.264v19.974c0 13.872 3.634 27.619 11.113 39.755 6.292 10.212 16.036 20.728 31.036 27.411 13.79-4.479 24.083-16.42 30.375-26.632 7.478-12.136 11.112-25.882 11.112-39.754V22.486c0-5.722-3.03-8.516-7.753-9.891" fill="#F1F0EC"/><path d="M360.827 95.242c-11.867-5.288-19.576-13.785-24.555-21.864-5.916-9.602-8.792-20.478-8.792-31.453V27.913c0-3.174 1.915-6.147 5.717-7.922l27.306-10.21-.007-9.42-33.734 12.069c-3.54 1.546-8.084 3.252-8.084 7.264v19.974c0 13.872 3.634 27.619 11.113 39.755 6.292 10.212 16.036 20.728 31.036 27.411V95.242" fill="#E4E4DE"/><path d="M360.827 106.834c2.39-.8 4.585-1.722 6.693-2.87 5.655-3.08 10.48-7.312 14.162-11.14 4.119-4.284 7.187-8.913 9.852-13.236 7.477-12.136 11.112-25.883 10.78-40.137l.021-16.492c-.02-8.212-4.232-8.818-7.774-10.364L360.496.36l.007 9.42 27.624 10.375c3.803 1.775 5.717 4.748 5.717 7.922V42.09c0 10.975-2.876 21.85-8.792 31.453-4.979 8.08-12.357 16.411-24.225 21.7v11.591" fill="#D4D5CF"/><path d="M367.628 41.003h-13.877l.037-2.673a6.947 6.947 0 016.94-6.939c3.825 0 6.938 3.113 6.938 6.926l-.038 2.686zm-4.542 16.893h-4.318l.674-3.118a2.626 2.626 0 01-1.247-2.235 2.632 2.632 0 114.1 2.185c.305 1.21.79 3.168.79 3.168zm6.448-16.87l.037-2.696c0-4.876-3.967-8.844-8.844-8.844-4.877 0-8.844 3.968-8.844 8.83l-.039 2.747a4.946 4.946 0 00-4.22 4.89v15.901a4.949 4.949 0 004.95 4.949h16.508a4.95 4.95 0 004.949-4.949V45.953a4.948 4.948 0 00-4.497-4.927z" fill="#D4D5CF"/><path d="M333 40.832c-.075.01-.312-1.04-.511-2.767a47.522 47.522 0 01-.277-6.782c.038-1.326.126-2.588.247-3.732.11-1.141.318-2.213.76-3.014.434-.805 1.038-1.286 1.492-1.5.463-.214.75-.204.755-.171.058.074-1.15.312-1.87 1.86-.354.749-.511 1.744-.59 2.876a73.429 73.429 0 00-.198 3.699 79.44 79.44 0 00.101 6.729c.091 1.722.179 2.79.091 2.802m.501 8.696c-.165.003-.315-.818-.335-1.833-.02-1.017.097-1.842.262-1.846.165-.002.314.818.334 1.834.02 1.015-.097 1.841-.261 1.845" fill="#FFFFFE"/><path d="M409.822 247.332c0 .086-91.586.156-204.536.156-112.99 0-204.556-.07-204.556-.156s91.566-.156 204.556-.156c112.95 0 204.536.07 204.536.156" fill="#132529"/><path d="M336.825 17.317H76.468a8.127 8.127 0 00-8.127 8.127v183.895a8.127 8.127 0 008.127 8.127h99.925s6.356 19.656-13.348 29.826h93.435s-22.247-7.627-16.527-29.826h96.873a8.127 8.127 0 008.127-8.127V25.444a8.127 8.127 0 00-8.128-8.127" fill="#E0DFDF"/><path d="M210.123 198.126c3.541 5.062-2.002 10.605-7.064 7.064a1.807 1.807 0 01-.435-.436c-3.532-5.06 2.004-10.596 7.063-7.064.168.117.32.269.436.436" fill="#2472FF"/><path d="M340.47 183.824H72.823V26.504a5.819 5.819 0 015.819-5.818H334.65a5.819 5.819 0 015.818 5.818v157.32" fill="#FFFFFE"/><path d="M340.47 34.241H72.823v-8.063a5.492 5.492 0 015.493-5.492H335.96a4.51 4.51 0 014.51 4.51v9.045" fill="#E0DFDF"/><path d="M83.228 27.748a1.88 1.88 0 11-3.761-.001 1.88 1.88 0 013.76.001m5.605 0a1.88 1.88 0 11-3.76 0 1.88 1.88 0 013.76 0m5.33 0a1.88 1.88 0 11-3.76 0 1.88 1.88 0 013.76 0" fill="#D4D5CF"/><path d="M290.278 217.492c0 .087-37.05.157-82.742.157-45.706 0-82.748-.07-82.748-.157 0-.086 37.042-.156 82.748-.156 45.693 0 82.742.07 82.742.156" fill="#132529"/><path d="M247.985 57.198l-40.809-15.032-40.413 14.83c-5.158 2.5-9.684 3.996-9.684 8.925v24.545c0 17.045 4.355 33.936 13.313 48.849 7.538 12.549 19.211 25.469 37.181 33.682 16.519-5.504 28.85-20.176 36.388-32.725 8.958-14.912 13.312-31.803 13.312-48.849V69.352c0-7.03-3.632-10.463-9.288-12.154" fill="#2472FF"/><path d="M207.573 172.997c-17.97-8.213-29.643-21.133-37.181-33.682-8.958-14.913-13.313-31.804-13.313-48.849V65.921c0-4.93 4.526-6.426 9.684-8.926l40.413-14.829 40.81 15.032c5.655 1.69 9.287 5.123 9.287 12.154v22.071c0 17.046-4.354 33.937-13.312 48.85-7.539 12.548-19.87 27.22-36.388 32.724m-30.495-71.82a3.486 3.486 0 00-3.486 3.487v36.12a3.486 3.486 0 003.486 3.487h60.196a3.486 3.486 0 003.487-3.486v-36.121a3.487 3.487 0 00-3.487-3.487h-5.177V78.518c0-13.74-11.18-24.92-24.92-24.92-13.742 0-24.922 11.18-24.922 24.92v22.66h-5.177m47.52 0h-34.844v-22.66c0-9.606 7.816-17.422 17.422-17.422 9.607 0 17.423 7.816 17.423 17.422v22.66" fill="#D4E3FF"/><path d="M232.097 119.333H224.6V78.518c0-9.606-7.816-17.422-17.423-17.422-9.606 0-17.422 7.816-17.422 17.422v40.815h-7.499V78.518c0-13.74 11.18-24.92 24.921-24.92s24.921 11.18 24.921 24.92v40.815" fill="#E0565F"/><path d="M232.097 101.177H224.6V78.518c0-9.606-7.816-17.422-17.423-17.422-9.606 0-17.422 7.816-17.422 17.422v22.66h-7.499v-22.66c0-13.74 11.18-24.92 24.921-24.92s24.921 11.18 24.921 24.92v22.66" fill="#1B50A6"/><path d="M237.274 144.27h-60.196a3.486 3.486 0 01-3.486-3.485v-36.121a3.486 3.486 0 013.486-3.487h60.196a3.487 3.487 0 013.487 3.487v36.12a3.486 3.486 0 01-3.487 3.487" fill="#2472FF"/><path d="M208.708 130.88h-3.063v-8.394c-2.351-.67-4.083-2.81-4.083-5.376a5.615 5.615 0 0111.228 0c0 2.566-1.731 4.706-4.082 5.376v8.394" fill="#1B50A6"/><path d="M177.173 140.184c-.153 0-.278-7.186-.278-16.05 0-8.866.125-16.05.278-16.05.155 0 .28 7.184.28 16.05 0 8.864-.125 16.05-.28 16.05m25.607-15.877c-.019.027-.264-.088-.659-.374-.396-.284-.923-.769-1.447-1.474-1.047-1.374-2.005-3.868-1.383-6.562.652-2.687 2.627-4.487 4.179-5.245.785-.396 1.473-.593 1.954-.669.482-.078.752-.071.756-.038.024.105-1.065.207-2.52 1.053-1.435.81-3.225 2.546-3.826 5.028-.576 2.487.246 4.842 1.164 6.208.922 1.41 1.85 1.989 1.782 2.073" fill="#FAF9F6"/><path d="M257.627 163.479s.16-.225.485-.653l.273-.36c.093-.137.175-.302.276-.473.197-.346.442-.738.617-1.234.096-.243.21-.495.308-.77l.245-.89c.1-.308.153-.642.205-.991.046-.35.14-.708.152-1.092.165-1.523.063-3.3-.241-5.263-.608-3.936-2.278-8.573-4.834-13.611-2.55-5.05-6.063-10.481-10.38-16.143-4.318-5.663-9.509-11.512-15.478-17.386-5.974-5.866-12.738-11.76-20.32-17.345a159.834 159.834 0 00-12.013-8.039c-4.213-2.553-8.656-4.932-13.342-6.995-4.686-2.037-9.63-3.812-14.845-4.654-2.6-.4-5.28-.594-7.917-.195a14.82 14.82 0 00-3.824 1.108c-1.197.584-2.3 1.363-3.21 2.347-.875 1.017-1.527 2.197-1.973 3.454a14.835 14.835 0 00-.668 3.927c-.1 2.665.398 5.308 1.09 7.845 1.429 5.087 3.756 9.799 6.313 14.225 2.583 4.421 5.454 8.566 8.47 12.462a159.88 159.88 0 009.355 11.022c6.413 6.897 13.039 12.948 19.547 18.216 6.515 5.262 12.917 9.754 19.036 13.4 6.115 3.643 11.91 6.515 17.218 8.474 5.296 1.967 10.092 3.096 14.072 3.252 1.983.08 3.761-.022 5.255-.359.38-.055.725-.19 1.067-.275.341-.092.667-.182.962-.317l.855-.344c.262-.128.5-.27.731-.394.472-.23.834-.52 1.155-.753.159-.119.313-.22.44-.328l.325-.312c.388-.371.593-.556.593-.556s-.19.2-.57.58c-.097.094-.204.2-.322.319-.126.109-.279.213-.437.335-.32.24-.68.534-1.153.77-.23.126-.469.272-.732.403l-.858.354c-.296.137-.622.23-.965.325-.343.088-.69.226-1.071.284-1.502.348-3.288.46-5.28.39-4-.138-8.814-1.255-14.128-3.21-5.325-1.948-11.138-4.812-17.271-8.448-6.135-3.64-12.554-8.128-19.085-13.388a188.983 188.983 0 01-19.595-18.222 159.594 159.594 0 01-9.38-11.036c-3.025-3.902-5.905-8.056-8.498-12.49-2.568-4.44-4.907-9.168-6.348-14.296-.699-2.558-1.204-5.227-1.103-7.94.051-1.354.269-2.708.684-4.015.458-1.292 1.131-2.512 2.036-3.562.94-1.018 2.079-1.822 3.31-2.422a15.175 15.175 0 013.91-1.134c2.684-.405 5.392-.207 8.012.197 5.257.85 10.219 2.635 14.92 4.68 4.7 2.072 9.153 4.46 13.374 7.02a159.706 159.706 0 0112.029 8.064c7.59 5.6 14.356 11.51 20.33 17.392 5.97 5.89 11.16 11.755 15.473 17.436 4.312 5.68 7.818 11.129 10.36 16.197 2.547 5.058 4.205 9.715 4.798 13.672.296 1.973.389 3.76.214 5.291-.014.385-.113.746-.16 1.098-.056.35-.111.686-.214.995l-.254.893c-.1.276-.218.53-.317.773-.181.497-.432.889-.634 1.233-.103.171-.189.335-.283.472l-.281.356c-.334.423-.51.634-.51.634" fill="#2472FF"/><path d="M276.835 117.116s-.03-.275-.074-.81l-.034-.45c-.023-.165-.07-.343-.11-.537-.084-.389-.162-.845-.36-1.331-.09-.245-.174-.51-.284-.78l-.41-.828c-.13-.296-.313-.58-.506-.876-.199-.291-.367-.622-.614-.916-.891-1.246-2.15-2.505-3.683-3.766-3.074-2.534-7.406-4.882-12.668-6.94-5.265-2.07-11.502-3.785-18.491-5.137-6.992-1.352-14.76-2.261-23.124-2.671-8.363-.401-17.334-.297-26.71.582-4.686.445-9.472 1.09-14.315 1.998-4.844.899-9.744 2.08-14.614 3.66-4.853 1.6-9.724 3.566-14.176 6.41-2.206 1.43-4.336 3.07-6.038 5.124a14.809 14.809 0 00-2.116 3.373c-.505 1.233-.809 2.547-.833 3.888.023 1.34.323 2.656.827 3.89a14.832 14.832 0 002.115 3.375c1.7 2.056 3.83 3.697 6.036 5.129 4.453 2.846 9.325 4.812 14.18 6.413 4.87 1.58 9.772 2.762 14.616 3.662 4.844.907 9.631 1.553 14.318 1.998 9.377.879 18.349.983 26.713.583 8.365-.411 16.132-1.321 23.125-2.673 6.989-1.352 13.226-3.066 18.49-5.136 5.262-2.06 9.593-4.408 12.666-6.94 1.533-1.262 2.792-2.522 3.683-3.768.247-.293.415-.624.613-.915.194-.296.377-.58.507-.876l.409-.827c.11-.27.193-.536.284-.78.199-.487.276-.943.36-1.331.04-.195.087-.373.11-.537.013-.166.025-.316.034-.45.044-.535.074-.81.074-.81s-.01.275-.041.813l-.028.452c-.02.166-.065.345-.102.54-.079.392-.153.852-.348 1.342-.088.248-.169.516-.278.788l-.405.835c-.129.3-.311.587-.502.886-.198.294-.366.628-.612.925-.888 1.259-2.147 2.532-3.68 3.806-3.076 2.558-7.413 4.93-12.68 7.01-5.271 2.09-11.515 3.822-18.512 5.19-7.001 1.368-14.779 2.292-23.154 2.714-8.376.413-17.36.318-26.753-.555a159.684 159.684 0 01-14.346-1.99c-4.855-.9-9.769-2.082-14.656-3.665-4.872-1.604-9.764-3.575-14.253-6.443-2.224-1.444-4.378-3.1-6.108-5.19a15.14 15.14 0 01-2.163-3.452c-.518-1.268-.828-2.627-.852-4.013.025-1.386.34-2.744.859-4.012a15.125 15.125 0 012.163-3.448c1.733-2.09 3.885-3.744 6.11-5.187 4.488-2.865 9.379-4.836 14.25-6.439 4.886-1.583 9.798-2.764 14.653-3.663a159.418 159.418 0 0114.343-1.99c9.392-.873 18.375-.968 26.75-.556 8.374.423 16.152 1.346 23.152 2.714 6.999 1.368 13.243 3.1 18.515 5.19 5.267 2.08 9.603 4.451 12.68 7.01 1.534 1.274 2.792 2.546 3.682 3.806.246.296.413.631.611.925.191.299.374.586.503.886l.404.835c.11.272.191.54.279.788.195.491.269.95.348 1.342.037.196.081.375.102.54l.028.453c.032.538.04.813.04.813" fill="#2472FF"/><path d="M251.386 59.404s-.236-.144-.685-.439l-.377-.248c-.144-.083-.314-.154-.491-.242-.359-.172-.767-.39-1.273-.53-.25-.08-.51-.176-.791-.255l-.905-.183c-.314-.079-.651-.108-1.003-.137-.351-.02-.715-.091-1.1-.075-1.53-.06-3.296.163-5.233.603-3.885.877-8.395 2.862-13.246 5.759-4.862 2.893-10.038 6.772-15.39 11.467-5.352 4.698-10.83 10.28-16.278 16.64-5.44 6.364-10.854 13.518-15.904 21.466a159.83 159.83 0 00-7.192 12.538c-2.257 4.379-4.325 8.976-6.06 13.792-1.71 4.816-3.14 9.87-3.62 15.13-.22 2.621-.23 5.31.351 7.912.292 1.298.74 2.562 1.368 3.739.665 1.154 1.519 2.2 2.563 3.04 1.074.803 2.298 1.373 3.582 1.731 1.296.315 2.632.438 3.963.396 2.666-.083 5.268-.762 7.752-1.628 4.977-1.776 9.517-4.422 13.756-7.278 4.232-2.881 8.17-6.03 11.85-9.308a159.7 159.7 0 0010.35-10.092c6.44-6.872 12.019-13.899 16.827-20.755 4.8-6.862 8.84-13.559 12.056-19.913 3.214-6.352 5.68-12.332 7.27-17.762 1.595-5.419 2.393-10.28 2.274-14.262-.058-1.985-.282-3.751-.72-5.219-.081-.374-.24-.71-.348-1.045-.116-.334-.228-.652-.382-.937-.14-.29-.276-.567-.404-.83-.145-.253-.304-.481-.442-.702-.263-.455-.575-.796-.831-1.1-.13-.15-.241-.297-.357-.416l-.334-.304c-.397-.36-.596-.553-.596-.553s.211.175.618.53l.34.299c.118.118.232.263.365.412.26.302.579.642.847 1.097.141.221.303.45.453.702l.411.832c.158.286.273.605.392.94.111.337.273.673.357 1.05.45 1.474.685 3.247.753 5.24.138 3.999-.645 8.879-2.23 14.316-1.577 5.446-4.032 11.443-7.239 17.812-3.208 6.371-7.243 13.083-12.041 19.962-4.805 6.871-10.384 13.914-16.829 20.803a159.95 159.95 0 01-10.363 10.118c-3.685 3.287-7.63 6.445-11.876 9.339-4.252 2.867-8.808 5.526-13.824 7.317-2.504.873-5.132 1.56-7.845 1.647a15.16 15.16 0 01-4.053-.406c-1.32-.367-2.584-.955-3.694-1.786-1.08-.868-1.96-1.948-2.644-3.135a15.133 15.133 0 01-1.4-3.823c-.589-2.649-.578-5.364-.356-8.006.486-5.302 1.925-10.376 3.642-15.207 1.743-4.832 3.818-9.438 6.083-13.825a159.516 159.516 0 017.214-12.556 188.981 188.981 0 0115.95-21.481c5.465-6.36 10.96-11.941 16.33-16.636 5.368-4.693 10.564-8.567 15.445-11.452 4.87-2.89 9.402-4.864 13.309-5.728 1.947-.432 3.724-.646 5.264-.577.385-.013.751.06 1.105.083.354.032.692.064 1.008.145l.909.192c.282.081.543.18.794.263.507.146.915.37 1.273.547.177.091.346.166.49.25l.374.256c.445.304.668.466.668.466M136.76 145.865a2.587 2.587 0 11-3.658 3.659 2.587 2.587 0 013.658-3.66m145.961-80.163a2.587 2.587 0 11-5.173 0 2.587 2.587 0 015.173 0m-129.623 88.671a.658.658 0 11-1.317-.002.658.658 0 011.317.002M167.13 81.88a.657.657 0 11-1.315 0 .657.657 0 011.315 0m102.596 35.236a.658.658 0 11-1.316 0 .658.658 0 011.316 0m9.137-30.651a.658.658 0 11-1.316 0 .658.658 0 011.316 0m105.7 98.16a22.386 22.386 0 019.575-3.295c1.564-.16 3.274-.115 4.528.832.267.202.527.499.467.828-.044.242-.248.417-.443.566-3.895 2.971-9.788 3.347-14.127 1.07m.247-.271c2.167-1.692 4.347-3.395 6.183-5.442 1.837-2.046 3.329-4.475 3.877-7.169.166-.817.218-1.75-.306-2.4-4.93 3.85-8.802 8.83-9.755 15.01" fill="#2472FF"/><path d="M384.614 184.588c.372-2.696.506-5.468-.114-8.118-.619-2.651-2.061-5.188-4.324-6.7-.852 1.99-.486 4.285.114 6.365a30.935 30.935 0 004.288 9.029m-4.795 8.083c2.933.356 5.488 1.902 7.678 3.886a14.517 14.517 0 014.392 7.539c-2.877-.178-5.319-2.207-7.089-4.481-1.77-2.276-2.997-4.772-4.941-6.9m-1.089 1.341c2.362-5.82 1.506-12.833-2.187-17.913-1.671 5.944-1.058 12.659 2.187 17.913m-6.385 7.602a13.784 13.784 0 017.68 1.8 13.786 13.786 0 015.413 5.737c.162.324.305.737.089 1.026-.19.253-.555.276-.87.256-2.58-.167-4.866-1.72-6.753-3.488-1.888-1.767-3.531-3.81-5.617-5.339m.262-.406a24.392 24.392 0 00.243-13.622c-.48-1.753-1.286-3.6-2.907-4.422-.138-.07-.3-.132-.445-.078-.137.052-.217.193-.281.326-.577 1.205-.745 2.574-.686 3.908.06 1.334.336 2.649.613 3.956.51 2.418.782 5.017 2.108 7.102.315.494.592 1.03.843 1.56s.254.716.483 1.138m-16.872 2.65c1.253-4.763-.077-10.537-3.078-14.441-.221-.287-.514-.596-.875-.562-.553.05-.696.787-.671 1.342a26.095 26.095 0 004.624 13.66m-1.524 1.043c-5.786 1.505-12.424.041-17.237-3.506a13.954 13.954 0 019.331-1.145c3.117.712 5.966 2.109 7.906 4.65m-1.285-3.171c-3.24-5.283-9.453-8.732-15.644-9.046.713 2.518 2.783 4.475 5.117 5.658 2.335 1.182 4.94 1.696 7.51 2.196.999.193 2.37.407 3.017 1.192m2.487-15.388c-.878-3.006-1.76-6.039-2-9.162-.242-3.123.204-6.383 1.824-9.063 3.027 5.858 3.333 12.702.267 18.54m-10.283-5.466c-3.54-6.434-10.762-11.573-18.07-12.294 2.819 7.02 10.508 12.445 18.07 12.294m2.227 1.261c-5.28.804-9.777 4.176-14.71 6.22-1.056.437-2.195.785-3.326.637-1.133-.149-2.25-.908-2.504-2.022-.211-.924.21-1.906.873-2.583.663-.678 1.54-1.101 2.416-1.466 5.374-2.237 11.137-2.293 16.797-.936" fill="#2472FF"/><path d="M350.42 186.633c-1.195.342-1.603.96-2.55 1.767a27.518 27.518 0 01-11.155 5.73c-.427.106-.986.149-1.197-.236-.184-.336.05-.744.289-1.043 1.715-2.146 4.16-3.615 6.735-4.573 2.575-.96 4.806-2.115 7.878-1.867m3.448-22.143c-4.293 4.007-10.34 6.065-16.186 5.507-.266-.025-.556-.067-.737-.265-.407-.443.082-1.127.556-1.497 4.759-3.71 10.524-5.249 16.367-3.745" fill="#2472FF"/><path d="M349.78 162.772c-5.674-4.254-13.456-5.538-20.196-3.333 2.543 2.508 6.072 3.856 9.624 4.226 3.552.37 7.108-.024 10.573-.893m1.625-10.277c.466-4.75.163-8.5.493-13.272.026-.38.108-.839.465-.977.497-.19.91.42 1.073.926 1.415 4.399.642 9.444-2.025 13.218" fill="#2472FF"/><path d="M351.747 153.02c-3.219-1.991-5.635-4.59-7.868-7.647-1.554-2.127-2.865-4.674-2.511-7.284 2.182-.044 4.256 1.16 5.675 2.819 1.42 1.657 2.264 3.73 2.893 5.82.63 2.09 1.072 4.238 1.811 6.292m-7.73-2.148a63.458 63.458 0 01-19.364-11.417c2.313-.932 4.961-.374 7.274.559 5.283 2.133 9.6 5.733 12.19 10.807m5.456 4.797c-3.574.392-7.205.645-10.752.053-3.486-.583-6.78-1.964-10.037-3.335-.27-.114-.564-.25-.682-.518-.129-.291.008-.646.244-.859.236-.213.55-.315.856-.401 3.541-.99 7.363-.527 10.847.648 3.485 1.175 6.342 2.571 9.524 4.412m20.412 8.812c2.438-4.922 2.28-10.667.173-15.741-1.483 2.26-1.664 5.138-1.393 7.827.271 2.69 1.09 5.457 1.143 8.16m9.819-5.159c6.089-.116 12.18 2.478 16.314 6.95-3.04.477-6.169-.307-8.933-1.657-2.765-1.35-5.221-3.243-7.655-5.124m6.824-2.36c2.979-.241 5.845-.61 8.708.268 2.865.877 5.472 2.869 6.639 5.628-2.787.313-5.611-.385-8.165-1.542-2.554-1.157-4.876-2.76-7.182-4.354m-9.698.101c2.68-1.756 5.43-3.544 8.551-4.272 3.12-.727 6.736-.19 8.912 2.162-2.526 1.482-5.59 1.657-8.519 1.655-2.928-.002-6.518-.036-9.28.941" fill="#2472FF"/><path d="M376.562 157.568c4.582-4.498 6.319-12.58 4.475-18.73-3.6 5.471-5.213 12.221-4.475 18.73m-12.597-12.746c-.863-2.009-1.47-4.117-2.246-6.161-.775-2.045-1.738-4.056-3.203-5.68-1.465-1.623-3.49-2.833-5.674-2.94 1.367 6.19 5.478 11.72 11.012 14.813m2.391 2.624c1.43-1.968 3.082-4.64 5.02-6.108 1.94-1.47 4.465-2.358 6.831-1.794-2.407 4.302-6.955 7.334-11.85 7.902m-.456-2.493c.937-2.38 1.88-4.787 2.26-7.318.379-2.531.148-5.234-1.146-7.442-2.516 4.754-3.325 9.856-1.243 14.814m-1.718-14.814c-1.425-4.713-5.74-8.182-10.398-9.774-.587-.201-1.21-.368-1.823-.273-.613.094-1.215.514-1.344 1.121-.17.802.492 1.52 1.115 2.053a35.393 35.393 0 0012.45 6.873m-.052-3.854c-.181-3.038-.37-6.12-1.358-9-.99-2.878-2.894-5.579-5.664-6.839-.472 3.069.882 6.122 2.515 8.762 1.632 2.641 3.6 5.133 4.581 8.08m0 1.088c1.178-3.434 1.3-7.796 3.356-10.788 1.438-2.091 3.74-3.516 4.978-5.731.823 2.068.571 4.453-.29 6.506-.86 2.054-2.282 3.821-3.803 5.447-1.522 1.625-2.825 2.847-4.24 4.566" fill="#2472FF"/><path d="M363.943 229.6c.091 0 .17-22.91.177-51.165.006-28.264-.063-51.169-.155-51.169-.09 0-.17 22.905-.177 51.17-.006 28.254.063 51.164.155 51.164" fill="#2472FF"/><path d="M343.922 160.973c-.007.023.3.137.861.324l2.371.8c1.999.68 4.745 1.666 7.725 2.887 2.95 1.266 5.733 2.295 7.318 3.668.792.678 1.246 1.41 1.47 1.945.228.537.268.867.298.861.012-.001.009-.084-.009-.24a3.64 3.64 0 00-.169-.667c-.192-.566-.635-1.35-1.434-2.075-.797-.726-1.905-1.378-3.176-1.972a96.945 96.945 0 00-11.95-4.63 63.87 63.87 0 00-2.406-.7c-.573-.15-.893-.222-.9-.2" fill="#2472FF"/><path d="M337.36 144.854c-.008.008.075.097.24.258l.736.69 2.745 2.493 9.134 8.134c3.566 3.174 6.647 6.206 8.783 8.49 1.07 1.14 1.912 2.085 2.486 2.744.268.307.488.557.663.759.155.171.24.258.249.251.009-.007-.06-.108-.196-.293-.14-.184-.34-.46-.617-.799a61.633 61.633 0 00-2.413-2.821c-2.097-2.33-5.161-5.398-8.735-8.578a1192.203 1192.203 0 00-9.2-8.062l-2.813-2.414-.777-.645c-.18-.144-.278-.216-.285-.207" fill="#2472FF"/><path d="M354.064 159.656c.094-.042-.651-1.761-1.393-3.936-.75-2.175-1.102-4.01-1.196-3.995-.087.009.124 1.898.883 4.101.372 1.1.784 2.066 1.108 2.753.325.686.558 1.095.598 1.077m9.858 13.867c.018.013.213-.214.55-.638l1.407-1.805a587.28 587.28 0 014.65-5.946c1.832-2.31 3.516-4.38 4.736-5.879.576-.712 1.057-1.31 1.439-1.78.335-.424.513-.666.496-.68-.017-.015-.228.197-.594.596a77.77 77.77 0 00-1.52 1.713 181.083 181.083 0 00-4.818 5.823 181.87 181.87 0 00-4.576 6.012 80.044 80.044 0 00-1.325 1.87c-.304.447-.463.7-.445.714" fill="#2472FF"/><path d="M368.311 167.887c.054.058 1.225-1.33 1.84-3.443.453-1.487.473-2.848.416-3.47l-.146.01c.066.267.114.406.14.402.026-.003.027-.152.006-.425l-.147.012c-.053.618-.147 1.932-.587 3.377-.592 2.046-1.61 3.481-1.522 3.537m5.668-7.128c.042.046.42-.43 1.284-.747.858-.331 2.148-.404 3.565-.283a21.88 21.88 0 013.59.58c.906.224 1.46.4 1.477.354.014-.04-.512-.294-1.414-.58a16.43 16.43 0 00-3.628-.684c-1.433-.124-2.792-.014-3.678.397-.899.397-1.226.955-1.196.963m1.343-1.728c.025.052.748-.3 1.967-.717a20.313 20.313 0 014.909-1.01 20.31 20.31 0 015.005.255c1.268.227 2.035.464 2.053.41.007-.022-.179-.1-.521-.223-.342-.127-.85-.273-1.487-.417-1.27-.292-3.082-.504-5.076-.355-1.992.155-3.751.64-4.963 1.12-.606.24-1.086.46-1.405.638-.32.174-.493.278-.482.3m-11.357-7.307c.09.022.732-2.21 1.436-4.984.703-2.775 1.202-5.042 1.113-5.064-.089-.023-.73 2.208-1.434 4.983-.704 2.774-1.203 5.042-1.115 5.065" fill="#2472FF"/><path d="M363.874 151.725c.1.032.512-1.46 1.59-2.984 1.05-1.557 2.39-2.337 2.34-2.415-.017-.035-.387.102-.902.466-.517.36-1.157.97-1.708 1.759-1.12 1.586-1.4 3.168-1.32 3.174m.069 65.662c.036.006.103-.55.361-1.524.255-.972.735-2.352 1.53-3.966 1.584-3.235 4.464-7.336 8.124-11.444 1.813-2.071 3.573-4.026 5.066-5.898 1.495-1.869 2.725-3.65 3.623-5.224.9-1.574 1.487-2.925 1.829-3.878.168-.478.29-.85.359-1.109.072-.257.105-.392.094-.396-.03-.009-.196.524-.573 1.459a28.436 28.436 0 01-1.911 3.805c-.917 1.548-2.157 3.303-3.659 5.152-1.499 1.852-3.261 3.796-5.077 5.871-3.67 4.12-6.544 8.273-8.085 11.56-.775 1.641-1.227 3.048-1.445 4.038-.106.496-.178.882-.203 1.15-.033.263-.044.402-.033.404" fill="#2472FF"/><path d="M345.851 196.953c-.011.025.335.2.948.532.609.342 1.471.868 2.46 1.626.989.757 2.094 1.75 3.23 2.946 1.133 1.198 2.3 2.588 3.493 4.078 2.382 2.99 4.611 5.636 5.946 7.748a31.472 31.472 0 011.493 2.55c.325.618.498.965.522.954.01-.004-.02-.097-.088-.269-.07-.17-.167-.426-.32-.742a23.88 23.88 0 00-1.41-2.618c-1.295-2.163-3.506-4.845-5.885-7.83-1.194-1.494-2.376-2.887-3.53-4.083-1.158-1.193-2.293-2.18-3.31-2.922a17.285 17.285 0 00-2.54-1.552c-.315-.158-.572-.255-.741-.327-.171-.07-.263-.102-.268-.091" fill="#2472FF"/><path d="M345.497 203.582c-.004.048.765.141 2.004.291 1.235.16 2.954.366 4.754.936 1.793.584 3.283 1.475 4.255 2.234.98.758 1.443 1.385 1.489 1.348.016-.011-.08-.182-.297-.461a7.566 7.566 0 00-1.044-1.07c-.956-.822-2.461-1.766-4.302-2.366-1.844-.583-3.586-.753-4.831-.854-1.25-.09-2.024-.101-2.028-.058" fill="#2472FF"/><path d="M357.414 207.663c.104-.06-.799-1.439-1.5-3.295-.656-1.872-.81-3.514-.929-3.495-.042.006-.04.416.034 1.076.078.657.237 1.57.585 2.533.35.96.809 1.763 1.161 2.323.358.558.612.88.649.858m-17.422-28.507c-.004.01.107.069.32.17l.943.429c.412.177.913.401 1.477.698.566.292 1.227.593 1.915 1.007l1.093.62c.379.219.754.478 1.153.728.806.488 1.614 1.09 2.476 1.705a46.581 46.581 0 015.166 4.545 46.516 46.516 0 014.366 5.32c.585.882 1.16 1.71 1.62 2.532.237.407.483.791.688 1.177l.583 1.114c.39.702.667 1.372.941 1.948.277.575.484 1.083.647 1.501l.396.956c.094.217.149.33.159.326.011-.004-.023-.123-.097-.348-.089-.26-.2-.584-.338-.98a16.892 16.892 0 00-.598-1.528c-.257-.587-.522-1.267-.9-1.98l-.569-1.13c-.2-.392-.442-.781-.674-1.195-.454-.834-1.024-1.673-1.606-2.566a44.548 44.548 0 00-4.38-5.377 44.472 44.472 0 00-5.223-4.56c-.873-.612-1.692-1.21-2.51-1.692-.405-.247-.785-.502-1.17-.716-.386-.21-.757-.412-1.11-.606-.7-.403-1.372-.69-1.948-.968a17.024 17.024 0 00-1.507-.65l-.968-.372c-.222-.081-.341-.119-.345-.108" fill="#2472FF"/><path d="M354.31 188.75c.029-.006-.13-.562-.787-1.173-.64-.611-1.81-1.176-3.172-1.218-1.358-.035-2.535.344-3.339.653-.808.318-1.278.574-1.261.613.018.046.522-.135 1.338-.392.814-.249 1.965-.577 3.251-.542 1.282.04 2.389.533 3.03 1.063.656.529.887 1.028.94.995m2.14 2.208c.091-.05-.716-1.235-.9-2.93-.212-1.693.302-3.031.201-3.06-.036-.015-.216.296-.372.854a6.008 6.008 0 00-.158 2.244c.104.881.39 1.644.67 2.147.28.506.528.768.56.745" fill="#2472FF"/><path d="M379.766 220.67c-.494 8.756-3.132 17.66-7.19 26.662h-17.647c-3.87-8.913-6.327-17.804-6.763-26.662h31.6" fill="#132529"/><path d="M351.026 234.838c0 .091 5.81.165 12.976.165 7.168 0 12.977-.074 12.977-.165 0-.092-5.809-.166-12.977-.166-7.166 0-12.976.074-12.976.166m.394 3.172c0 .091 5.447.165 12.164.165 6.721 0 12.167-.074 12.167-.165 0-.092-5.446-.166-12.167-.166-6.717 0-12.164.074-12.164.166m20.871-11.592c-.091 0-.166 1.82-.166 4.065 0 2.246.075 4.065.166 4.065.092 0 .166-1.82.166-4.065s-.074-4.065-.166-4.065" fill="#FAF9F6"/><path d="M362.836 226.418c-.092 0-.166 1.886-.166 4.21 0 2.325.074 4.21.166 4.21.091 0 .165-1.885.165-4.21 0-2.324-.074-4.21-.165-4.21m-8.876-.071c-.092 0-.166 1.922-.166 4.293 0 2.372.074 4.294.165 4.294.092 0 .166-1.922.166-4.294 0-2.37-.074-4.293-.166-4.293" fill="#FAF9F6"/><path d="M348.726 226.418c0 .092 6.815.167 15.22.167 8.407 0 15.22-.075 15.22-.167 0-.09-6.813-.165-15.22-.165-8.405 0-15.22.074-15.22.165" fill="#FAF9F6"/><path d="M44.428 227.765l-2.85 14.588-5.582 10.888a1.522 1.522 0 002.145 1.996c2.682-1.639 12.516-7.717 12.665-8.797.172-1.25 4.028-15.187 4.028-15.187l-10.406-3.488" fill="#2472FF"/><path d="M36.75 255.334l14.271-9.873-.135.615a2.287 2.287 0 01-.85 1.335c-1.159.882-4.414 3.245-11.85 7.837-.433.266-.974.3-1.435.086" fill="#132529"/><path d="M49.053 241.168c-.419.172-.658.696-.504 1.122.155.425.685.673 1.108.509.42-.164.728-.785.527-1.19-.201-.405-.84-.663-1.21-.402" fill="#E4E4DE"/><path d="M41.46 249.719c-.09.022-.251-.81-1.025-1.409-.756-.621-1.603-.592-1.602-.686-.005-.038.204-.11.554-.084.347.024.829.18 1.251.516.421.336.68.77.781 1.104.104.336.08.555.041.559M40 251.436c-.083.048-.446-.527-1.15-.906-.695-.396-1.373-.398-1.378-.494-.025-.083.741-.238 1.537.208.8.438 1.075 1.17.99 1.192m3.932-3.787c-.083.054-.636-.832-1.678-1.518-1.032-.703-2.063-.877-2.044-.975-.007-.082 1.116-.047 2.225.703 1.116.74 1.576 1.765 1.497 1.79m1.238-4.362c-.059.078-.787-.432-1.822-.7-1.033-.28-1.918-.196-1.93-.293-.024-.08.903-.32 2.013-.022 1.112.29 1.8.958 1.739 1.015m.945-4.261c-.064.075-.764-.587-1.878-.778-1.109-.216-1.998.154-2.03.061-.018-.035.18-.182.558-.302a3.263 3.263 0 011.532-.08 3.26 3.26 0 011.402.617c.31.246.444.455.416.482m-1.674-1.583c-.018-.004-.009-.207.1-.554.11-.344.325-.84.752-1.342.216-.236.456-.547.903-.65a.612.612 0 01.645.282c.13.224.131.475.085.705-.217.92-1.204 1.637-2.269 1.542a2.5 2.5 0 01-2.116-1.801c-.045-.226-.052-.492.115-.713.165-.223.481-.257.681-.176.418.16.635.468.848.707a4.35 4.35 0 01.743 1.345c.115.345.132.546.113.551-.059.026-.21-.794-1.032-1.747-.211-.224-.45-.501-.754-.598-.148-.048-.292-.017-.372.094-.082.105-.091.294-.048.473.206.727.95 1.458 1.852 1.54.898.089 1.764-.543 1.946-1.28.04-.179.033-.369-.04-.496a.332.332 0 00-.353-.16c-.307.052-.564.315-.775.535-.844.932-.963 1.771-1.024 1.743" fill="#132529"/><path d="M93.047 228.9l2.43 14.663 5.265 11.045a1.523 1.523 0 01-2.202 1.933c-2.632-1.715-12.288-8.074-12.405-9.157-.137-1.254-3.59-15.297-3.59-15.297l10.502-3.187" fill="#2472FF"/><path d="M99.928 256.679l-13.98-10.28.117.618c.101.535.387 1.018.81 1.36 1.134.913 4.32 3.37 11.622 8.173.424.28.963.329 1.431.129" fill="#132529"/><path d="M88.038 242.164c.414.184.638.715.472 1.136-.167.42-.705.653-1.122.477-.416-.176-.705-.805-.492-1.205.212-.4.858-.638 1.22-.367" fill="#E4E4DE"/><path d="M95.382 250.93c.09.025.275-.803 1.066-1.379.773-.599 1.619-.546 1.62-.64.006-.038-.2-.116-.551-.1-.348.014-.833.156-1.266.48-.43.324-.701.75-.811 1.081-.114.333-.096.553-.058.558m1.411 1.758c.081.05.46-.513 1.174-.873.707-.375 1.385-.357 1.392-.453.027-.083-.734-.26-1.542.164-.812.414-1.108 1.137-1.024 1.162m-3.821-3.898c.08.056.66-.814 1.721-1.47 1.053-.673 2.086-.817 2.07-.914.01-.083-1.113-.08-2.243.638-1.137.707-1.627 1.718-1.548 1.745m-1.112-4.395c.056.08.8-.41 1.841-.646 1.04-.251 1.923-.142 1.937-.24.027-.078-.893-.345-2.011-.078-1.12.256-1.826.904-1.767.964m-.822-4.286c.061.076.78-.565 1.899-.724 1.115-.184 1.993.21 2.029.12.018-.036-.177-.189-.55-.32a3.272 3.272 0 00-1.529-.123 3.274 3.274 0 00-1.42.577c-.317.237-.457.442-.429.47m1.719-1.535c.018-.003.014-.206-.085-.557-.1-.347-.3-.848-.713-1.363-.209-.242-.44-.56-.883-.674a.612.612 0 00-.653.261c-.136.221-.145.471-.106.704.19.924 1.156 1.67 2.224 1.606a2.498 2.498 0 002.167-1.74c.052-.224.066-.49-.094-.715-.158-.228-.474-.271-.677-.195-.421.147-.647.448-.867.682-.426.5-.657.984-.782 1.323-.124.341-.147.542-.129.547.059.029.234-.787 1.083-1.717.217-.217.464-.487.77-.576.15-.043.292-.007.37.105.078.107.082.296.034.474-.227.721-.992 1.43-1.896 1.486-.9.063-1.747-.593-1.907-1.336-.036-.179-.023-.37.053-.494a.331.331 0 01.358-.15c.306.061.554.332.759.557.817.957.912 1.799.974 1.772" fill="#132529"/><path d="M45.822 132.259c-1.355-2.063-6.977 110.026-6.6 110.67l14.807.213 8.061-59.893 4.383-45.796 7.068 43.031 8.67 63.063 16.183.234-10.002-114.314-20.956-12.009-21.614 14.8" fill="#132529"/><path d="M59.96 56.957s-4.539.789-6.269 2.302c-1.73 1.513-3.489 4.99-3.489 4.99l-8.627 5.856 7.595 30.267-6.366 41.826 1.271 3.607 47.59-.796.907-3.282-4.92-38.069 2.16-25.512L91.8 67.902l-8.618-3.862s3.947-1.224 4.129-1.905c.18-.681-8.894-5.34-8.894-5.34s-14.317-2.427-18.456.162" fill="#2472FF"/><path d="M45.75 122.842a53.638 53.638 0 01-.226-.29l.07-.433a7.89 7.89 0 01.292-.17l-.136.893" fill="#A2A5A2"/><path d="M71.582 142.27c-.408 0-.817-.039-1.22-.118a7.96 7.96 0 01-1.675-.54l.002-.025.322-10.39.056-1.934.227.002c2.812 0 5.63-1.14 8.215-2.377 3.222-1.54 6.521-3.298 10.09-3.298h.047l-2.951 5.328c-.54.974-1.088 1.96-1.865 2.757-.899.92-2.07 1.553-2.908 2.53-1.239 1.444-1.593 3.45-2.637 5.04-1.233 1.876-3.467 3.025-5.703 3.025m-3.015-.713c-1.1-.504-2.125-1.21-3.125-1.905-7.115-4.945-14.345-10-19.692-16.81l.136-.894.124-.069c3.661 3.647 7.508 6.69 9.603 6.69.057 0 .111-.002.165-.006l1.658-.599 1.586 1.23 3.406-2.553c1.458 1.078 2.988 1.988 4.752 2.391a9.31 9.31 0 001.657.223c-.016.662-.03 1.308-.046 1.937l-.224 10.365" fill="#1E58B9"/><path d="M41.575 70.105s-1.773 2.264-2.166 7.016c-.393 4.753-3.455 29.687-2.425 33.27 1.03 3.583 14.356 18.54 18.794 18.172l1.658-.599 1.586 1.23 7.093-5.317-15.633-19.671.84-28.32s-4.802-6.902-9.747-5.78" fill="#2472FF"/><path d="M53.691 59.259c.008.013-.143.099-.389.326a6.89 6.89 0 00-.954 1.125c-.38.527-.767 1.224-1.242 2.046l-1.734 2.748-.1-.124c.862-.336 1.915-.341 2.924-.01 1.013.325 1.994.905 2.943 1.61 1.896 1.436 3.629 3.437 5.306 5.706 3.345 4.563 6.604 10.202 9.75 16.45l.016.034-.001.04-.221 7.698-.978 34.29-.322 10.39-.104 2.824-.035.734c-.01.165-.017.25-.023.25-.005 0-.008-.086-.009-.25l.004-.736.045-2.826.224-10.392c.211-8.776.482-20.896.885-34.291l.226-7.702.015.073c-3.13-6.234-6.372-11.876-9.681-16.431-1.662-2.268-3.37-4.259-5.228-5.685-.933-.703-1.892-1.279-2.871-1.602-.976-.328-1.978-.329-2.805-.018l-.239.09.138-.213 1.765-2.725c.481-.806.887-1.509 1.28-2.03.385-.528.738-.89.996-1.107.258-.219.419-.292.419-.292m31.98 3.616c.015.05-.911.321-2.351.898-1.435.579-3.395 1.489-5.267 2.928-1.876 1.436-3.333 3.026-4.389 4.164l-1.245 1.36c-.297.318-.469.488-.485.474-.016-.014.124-.21.393-.554.27-.342.666-.833 1.172-1.427 1.016-1.178 2.459-2.806 4.365-4.265 1.905-1.465 3.911-2.356 5.376-2.886a20.488 20.488 0 011.765-.556c.422-.111.66-.156.666-.136" fill="#132529"/><path d="M70.162 89.258c-.021-.003 0-.32.059-.89.067-.57.188-1.393.379-2.401.374-2.018 1.041-4.774 1.923-7.777.897-2.999 1.843-5.675 2.667-7.557.407-.942.778-1.687 1.053-2.191.288-.499.454-.768.473-.757.019.01-.112.3-.364.812-.24.518-.58 1.272-.958 2.221-.768 1.893-1.677 4.571-2.571 7.561-.88 2.993-1.578 5.732-2.007 7.732a73.03 73.03 0 00-.474 2.374c-.096.563-.159.875-.18.873M71.64 72.52c-.077-.037 1.012-2.457 2.432-5.403 1.42-2.948 2.635-5.307 2.713-5.27.077.038-1.011 2.457-2.432 5.405-1.42 2.947-2.634 5.306-2.712 5.268" fill="#132529"/><path d="M73.121 83.748l.14-.298c.144.108.358.185.565.188.236.003.332-.074.333-.18.005-.322-.997-.115-.988-.753.004-.293.243-.533.732-.525.216.003.436.057.595.16l-.127.301a.97.97 0 00-.475-.142c-.235-.003-.328.084-.33.192-.004.317.999.112.99.743-.004.288-.246.53-.737.523-.273-.004-.546-.089-.698-.209m3.036-.106l-.004.319-1.331-.02.025-1.718 1.299.018-.005.32-.903-.014-.006.374.798.012-.005.309-.798-.012-.005.398.935.014m.213-.538c.008-.518.41-.883.946-.875.297.004.544.116.703.314l-.259.232a.552.552 0 00-.429-.207.528.528 0 00-.559.542.528.528 0 00.543.558.547.547 0 00.435-.197l.252.239c-.165.196-.415.3-.714.297-.533-.008-.925-.384-.918-.903m3.175.391a5.728 5.728 0 01-.07-.252c-.024-.057-.04-.114-.06-.17l-.003.163c-.004.327-.146.46-.389.457-.24-.004-.381-.141-.376-.468l.013-.948-.398-.006-.014.963c-.007.506.279.79.768.798.286.003.503-.093.636-.273a1.835 1.835 0 01-.107-.264m.091-.785l-.01.584.018.062.048.14.051.215c.047.201.056.389.035.563.149-.132.233-.332.236-.597l.014-.962-.392-.006m1.504.346l-.325-.005-.008.599.324.005c.243.003.367-.108.37-.294.003-.19-.118-.302-.362-.305m.354 1.4l-.325-.484h-.02l-.346-.005-.007.48-.397-.007.024-1.719.744.011c.46.007.744.249.738.635a.559.559 0 01-.362.537l.378.558-.427-.006m.735-1.708l.398.005-.025 1.719-.397-.006.024-1.718m1.158.34l-.55-.008.004-.324 1.498.022-.004.324-.55-.008-.021 1.395-.398-.006.02-1.395" fill="#FFFFFE"/><path fill="#FFFFFE" d="M85.33 83.901l-.009.609-.398-.005.01-.615-.65-1.114.422.006.448.77.47-.757.391.006-.684 1.1"/><path d="M81.035 88.385c-.02.008-.103-.153-.237-.45a14.964 14.964 0 01-.5-1.291 22.923 22.923 0 01-1.144-9.015c.046-.582.103-1.053.16-1.374.055-.323.096-.499.117-.496.05.006-.021.723-.056 1.882a29.413 29.413 0 00.21 4.513c.225 1.752.6 3.31.925 4.423.324 1.113.571 1.79.525 1.808" fill="#132529"/><path d="M83.305 64.096l-.124-.056.11-.034a.18.18 0 01.07.022l-.056.068" fill="#A2A5A2"/><path d="M70.085 96.858a.077.077 0 01-.029-.005c-.025-.01-.046-.043-.062-.096l.142-4.956c.111-1.439.225-2.67.228-2.85.006-.408.036-.776.08-1.12.077-.4.171-.875.285-1.414.193-.76.418-1.502.56-2.46.405-1.665.926-3.611 1.534-5.678.894-2.99 1.803-5.668 2.571-7.56.155-.39.304-.746.441-1.066.489-.99.881-1.74.881-1.74s3.167-2.53 4.936-3.326c.533-.24 1.264-.585 1.59-.585a.33.33 0 01.05.004l-.111.034.124.056c-.345.424-2.217 2.73-2.756 3.631-3.129 5.236-5.363 8.48-6.376 14.484a1.301 1.301 0 00-.27-.031h-.02c-.475 0-.708.237-.712.525-.007.466.527.481.813.582l-.064.347a.818.818 0 01-.08.004h-.014a1.009 1.009 0 01-.565-.188l-.14.298c.152.12.425.205.698.209h.04c-.323 1.72-.708 3.617-.952 5.153-.413 2.593-2.276 7.748-2.822 7.748m3.962-13.918c-.244-.064-.483-.094-.48-.25.001-.105.09-.191.316-.191h.013a.884.884 0 01.222.033l-.071.408" fill="#1E58B9"/><path d="M69.994 96.757c-.167-.513-.015-2.939.142-4.956l-.142 4.956m.451-8.925c.068-.51.17-.965.284-1.415a70.876 70.876 0 00-.284 1.415m.844-3.876l.001-.009a77.228 77.228 0 012.88-10.568c.351-.999 1.078-2.536 1.665-3.726-.137.32-.286.677-.44 1.065-.769 1.893-1.678 4.571-2.572 7.561a127.396 127.396 0 00-1.534 5.677" fill="#051317"/><path d="M73.84 83.957h-.021c-.273-.004-.546-.089-.698-.209l.14-.298c.144.108.358.185.565.188h.015a.818.818 0 00.079-.004l-.06.323h-.02m.144-.67c-.286-.1-.82-.116-.813-.582.004-.288.237-.525.711-.525h.021c.09 0 .183.011.27.03a.934.934 0 00-.007.041l-.048.28a.884.884 0 00-.222-.032h-.013c-.226 0-.315.086-.316.192-.003.155.236.185.48.25l-.063.346" fill="#A2A5A2"/><path d="M71.288 83.957l.048-.349a14.639 14.639 0 01-.048.349" fill="#051317"/><path d="M68.947 87.366c-2.102-1.43-3.323-3.866-4.647-6.068a40.892 40.892 0 00-6.048-7.752c-1.413-1.42-2.977-2.763-4.855-3.464-.797-.297-1.644-.475-2.389-.888-.744-.411-1.396-1.135-1.408-1.987-.01-.721 1.379-1.59 1.801-1.838.245.041.491.103.736.185.98.323 1.938.899 2.871 1.602 1.859 1.426 3.566 3.417 5.228 5.685 2.969 4.086 5.883 9.047 8.711 14.525" fill="#1E58B9"/><path d="M69.358 87.626a6.695 6.695 0 01-.41-.26c-2.829-5.478-5.743-10.44-8.712-14.525-1.662-2.268-3.37-4.259-5.228-5.685-.933-.703-1.892-1.279-2.871-1.602a4.856 4.856 0 00-.736-.185 4.37 4.37 0 01.12-.069c2.018.203 5.402 3.258 7.478 5.778a54.607 54.607 0 015.51 8.074c1.597 2.855 3.253 5.618 4.85 8.474" fill="#051317"/><path d="M44.635 107.448c-.008 0-.016-.053-.025-.157a2.489 2.489 0 01.005-.46c.036-.4.163-1 .573-1.64.4-.628 1.121-1.309 2.157-1.564a3.852 3.852 0 013.324.74l-.233.114c-.09-1.826.024-3.897.357-6.038.305-1.975.665-3.835.872-5.543.213-1.707.325-3.255.354-4.557.038-1.301.033-2.356.017-3.085a450.62 450.62 0 01-.006-.84c.002-.193.009-.294.02-.295.01 0 .025.1.043.291l.064.84c.054.728.093 1.786.083 3.094a40.846 40.846 0 01-.289 4.587c-.193 1.721-.546 3.591-.849 5.554-.33 2.129-.454 4.17-.382 5.98l.012.32-.246-.205c-.921-.768-2.133-.95-3.086-.727-.97.219-1.666.84-2.07 1.43a3.796 3.796 0 00-.625 1.555c-.06.39-.048.606-.07.606" fill="#132529"/><path d="M46.144 122.066c.005-.005.07.052.191.167l.526.513c.467.44 1.152 1.084 2.077 1.836.927.746 2.082 1.62 3.494 2.467.706.417 1.474.854 2.325 1.17.42.156.876.242 1.337.199.45-.037.928-.221 1.235-.543l.093-.098.1.077 1.589 1.225-.176-.002 7.087-5.325-.028.224-.126-.158c-2.138-2.662-4.044-5.29-5.817-7.65-1.765-2.367-3.367-4.486-4.754-6.234-1.383-1.75-2.556-3.122-3.399-4.04-.414-.466-.754-.81-.984-1.046-.227-.237-.344-.365-.336-.373.007-.008.138.105.38.328.244.22.6.553 1.029 1.006.872.897 2.074 2.252 3.482 3.987 1.412 1.733 3.034 3.842 4.812 6.199 1.786 2.35 3.7 4.975 5.83 7.627l.125.156.102.127-.13.097-7.099 5.308-.089.066-.087-.068-1.583-1.234.193-.02c-.4.412-.919.586-1.426.632a3.269 3.269 0 01-1.447-.226c-.883-.336-1.647-.784-2.358-1.213a29.275 29.275 0 01-5.514-4.44l-.496-.544c-.11-.125-.164-.192-.158-.197m5.701-44.114c-.055.02-.284-.694-.862-1.738a12.696 12.696 0 00-1.165-1.735 13.945 13.945 0 00-1.788-1.824 13.912 13.912 0 00-2.117-1.43 12.712 12.712 0 00-1.917-.834c-1.131-.38-1.874-.476-1.866-.534.003-.022.19-.01.527.027.338.032.82.13 1.405.297.587.161 1.264.428 1.985.789.712.375 1.464.852 2.183 1.444.712.6 1.317 1.253 1.814 1.887.485.643.87 1.261 1.134 1.809.27.545.453 1.003.545 1.33.098.324.143.506.122.512" fill="#132529"/><path d="M80.854 87.073a.447.447 0 01-.212-.048l-.132-.448a29.46 29.46 0 01-.603-2.462.894.894 0 00.107-.438l.013-.858c.114.365.24.726.378 1.083l-.007.537.226.004c.182.43.38.851.596 1.265.159.304.33.641.248.973-.052.21-.351.392-.614.392m-.86-4.359l-.331-.005a28.737 28.737 0 01-.257-2.566c.132.87.33 1.73.588 2.571" fill="#1A52AC"/><path d="M79.907 84.115a29.264 29.264 0 01-.244-1.406l.33.005.034.105-.013.858a.894.894 0 01-.107.438m.717.328l-.226-.004.007-.537c.07.18.143.361.219.54" fill="#A2A5A2"/><path d="M80.642 87.025a.364.364 0 01-.16-.174 17.24 17.24 0 01-.942-3.047 22.35 22.35 0 01-.12-.642c-.23-1.403-.272-2.829-.17-4.396.033.46.086.92.155 1.378a28.737 28.737 0 00.258 2.565 29.264 29.264 0 00.98 4.316" fill="#051317"/><path d="M44.378 106.817c-.53-1.675.27-3.671 1.809-4.52.356-.195.754-.335 1.158-.335.042 0 .084 0 .126.004.972.07 1.668.935 2.239 1.725a4.01 4.01 0 00-1.147-.165H48.5a3.744 3.744 0 00-1.156.101c-1.036.255-1.756.936-2.157 1.564-.264.413-.411.81-.492 1.147a3.714 3.714 0 00-.116.45l-.202.03" fill="#1A4D9B"/><path d="M44.696 106.338a3.73 3.73 0 01.492-1.147c.4-.628 1.121-1.309 2.157-1.564a3.744 3.744 0 011.156-.101 4.091 4.091 0 00-2.042.577 4.109 4.109 0 00-1.763 2.235" fill="#051317"/><path d="M91.256 70.532c.042.027-.313.593-.813 1.54a24.86 24.86 0 00-1.633 3.845 24.936 24.936 0 00-.942 4.07c-.153 1.061-.199 1.726-.249 1.724-.036 0-.069-.67.029-1.75a19.513 19.513 0 012.602-7.996c.556-.931.976-1.454 1.006-1.433" fill="#132529"/><path fill="#A2A5A2" d="M87.84 105.12l-.188-1.462.352-4.162.235 4.511-.032.19-.366.922"/><path d="M74.47 118.103l1.32-1.933a64.498 64.498 0 017.259-8.613c.554-.553 1.123-1.098 1.582-1.732.55-.758.93-1.622 1.306-2.479.298-.676.597-1.356.794-2.068.372-1.344.372-2.757.37-4.151-.006-3.375-.216-4.857-.221-8.232 0 0 .088-2.795.41-3.127l.714 13.728-.352 4.162.189 1.461-.28.702-13.09 12.282" fill="#1A4D9B"/><path d="M91.8 67.902s2.061.775 3.137 5.375c1.242 5.313 2.869 14.149 3.119 17.492.21 2.815 2.974 13.1.837 17.629-2.138 4.527-12.472 18.512-16.55 18.961l-1.702-.431-1.787.306-5.015-5.77.439-1.65s-.568-.92.024-1.741c.592-.82 13.38-12.834 13.38-12.834s-.488-.063-.593-.891c-.18-1.426 1.062-1.376 1.062-1.376l-.825-12.57 4.473-22.5" fill="#2472FF"/><path d="M92.575 106.73c-.055.078-.998-.598-2.336-1.02-1.335-.436-2.494-.435-2.494-.53-.014-.076 1.192-.222 2.59.233 1.4.443 2.296 1.263 2.24 1.317m2.583-1.882c-.059.084-1.309-1.129-3.313-1.649-1.996-.552-3.685-.125-3.694-.227-.01-.034.393-.19 1.082-.276.687-.089 1.663-.072 2.693.202 1.028.277 1.883.75 2.433 1.17.553.42.824.756.8.78" fill="#132529"/><path d="M87.745 105.18c-.012.03-.213.013-.476-.185a1.018 1.018 0 01-.334-.479 1.282 1.282 0 01-.007-.71c.043-.162.102-.302.184-.439l-.014.03c.186-.432.58-.513.797-.534.237-.015.366.055.359.086-.006.039-.134.041-.325.103-.18.056-.467.194-.546.441l-.003.01-.011.021a1.765 1.765 0 00-.139.36c-.113.403.006.751.191.951.181.203.348.3.324.346" fill="#132529"/><path d="M87.164 85.154c.021-.002.06.246.112.696.053.45.113 1.103.176 1.91.129 1.614.254 3.847.362 6.313l.269 6.316.077 1.915c.014.452.012.703-.01.705-.02 0-.06-.247-.111-.697a54.396 54.396 0 01-.177-1.91 194.56 194.56 0 01-.361-6.314l-.269-6.315-.077-1.914c-.015-.453-.012-.703.01-.705m.787 19.94c.006.007-.103.114-.317.311l-.948.856-3.508 3.181a248.385 248.385 0 00-8.19 7.891c-.25.263-.492.54-.641.857-.159.317-.18.662-.11 1.027.06.367.199.742.187 1.18-.012.404-.168.916-.643 1.114l.06-.246a7084.888 7084.888 0 015.128 5.867l-.143-.05 1.788-.304.023-.005.019.003c.783.096 1.434.458 2.112.341.675-.082 1.287-.435 1.824-.837 1.07-.833 2-1.782 2.865-2.672 1.718-1.803 3.126-3.519 4.284-4.957 1.155-1.441 2.057-2.612 2.682-3.413l.72-.916c.166-.207.256-.313.264-.308.007.006-.069.122-.22.34l-.679.949c-.599.821-1.477 2.01-2.613 3.47-1.138 1.457-2.531 3.191-4.246 5.018-.868.905-1.783 1.854-2.883 2.72-.555.418-1.203.805-1.962.902-.777.127-1.497-.263-2.179-.334h.041l-1.787.307-.086.015-.057-.065-2.543-2.907-2.585-2.96-.146-.167.206-.079c.296-.114.44-.485.45-.838.014-.351-.113-.725-.18-1.116-.079-.388-.051-.844.138-1.208.177-.369.44-.662.7-.933a203.373 203.373 0 018.264-7.837c1.5-1.343 2.723-2.397 3.573-3.114l.983-.816c.227-.182.348-.275.355-.267m-.304-7.204c0 .086-8.18.038-18.265-.106-10.088-.145-18.263-.333-18.262-.42.001-.085 8.178-.038 18.267.107 10.085.145 18.262.333 18.26.419m-9.387 4.949c.01.002.005.081-.014.232-.024.15-.045.373-.11.653a13.08 13.08 0 01-.72 2.334c-.757 1.907-2.35 4.42-4.935 6.283-2.587 1.861-5.477 2.573-7.526 2.686-1.032.064-1.87.016-2.44-.058-.288-.028-.507-.079-.656-.103-.149-.03-.226-.05-.224-.06.006-.07 1.269.183 3.302.001 2.016-.168 4.832-.9 7.361-2.72 2.527-1.82 4.116-4.257 4.915-6.116.818-1.871.98-3.149 1.047-3.132m-17.508 25.074c-.053.066-.394-.126-.703-.486-.31-.358-.448-.724-.376-.767.075-.046.322.227.613.564.289.337.522.622.466.69m2.291-1.787c-.07.051-.328-.18-.577-.516-.249-.336-.395-.65-.325-.701.069-.051.328.18.577.515.249.336.394.65.325.702" fill="#132529"/><path d="M76.316 121.315c.04.078-.304.33-.732.617-.43.286-.793.508-.85.441-.056-.064.228-.402.676-.7.446-.3.868-.434.906-.358m1.701 1.674c.072.043-.135.5-.57.925-.433.429-.892.63-.935.557-.047-.075.311-.378.716-.779.407-.397.715-.752.79-.703m1.63 1.995c.063.058-.201.44-.645.792-.443.352-.875.523-.917.45-.044-.076.3-.357.723-.695.423-.335.776-.607.84-.547M56.371 61.127c.089-.034.805 1.77 2.029 3.81 1.214 2.048 2.46 3.535 2.386 3.597-.03.026-.382-.313-.886-.919a20.345 20.345 0 01-1.768-2.518 20.34 20.34 0 01-1.374-2.753c-.293-.732-.425-1.202-.387-1.217m36.201 80.6c0 .01-.175.02-.507.027l-1.454.016-5.345.05c-4.513.054-10.745.223-17.63.433-6.887.21-13.124.344-17.64.342a206.25 206.25 0 01-5.347-.05l-1.453-.042c-.333-.013-.507-.025-.507-.036 0-.01.175-.02.507-.027l1.454-.016 5.344-.05c4.514-.054 10.746-.223 17.633-.433 6.885-.21 13.121-.345 17.637-.343 2.258 0 4.085.016 5.347.05l1.454.043c.333.013.507.025.507.036" fill="#132529"/><path d="M80.14 62.111c-.071.062-.805-.777-1.955-1.483-1.144-.718-2.221-1.003-2.197-1.094.007-.079 1.164.078 2.361.829 1.204.74 1.858 1.707 1.791 1.748" fill="#E0565F"/><path d="M76.253 128.412c.225.434.773.601 1.262.583.489-.018.963-.176 1.452-.203.488-.027 1.037.117 1.285.54.196.334.15.772-.041 1.11-.191.337-.508.586-.842.783-1.6.938-3.792.728-5.183-.499" fill="#B67E6D"/><path d="M65.256 135.865a28.955 28.955 0 004.64 3.76c.369.24.788.482 1.223.41.435-.072.78-.637.49-.968a1.356 1.356 0 001.598.038c.439-.319.64-.928.486-1.446l.054-.05c.428.162.932.15 1.319-.094.412-.259.647-.8.492-1.261.445.603 1.512.364 1.855-.302.342-.666.103-1.504-.35-2.1-.453-.596-1.09-1.02-1.662-1.503-.573-.483-1.111-1.077-1.248-1.814" fill="#B67E6D"/><path d="M71.798 139.315c-.033.073-.84-.26-1.582-1.016-.75-.75-1.076-1.56-1.002-1.592.081-.044.513.661 1.224 1.372.703.717 1.404 1.155 1.36 1.236m2.242-1.39c-.044.07-.74-.306-1.423-.987-.688-.679-1.07-1.37-1-1.414.073-.051.556.538 1.22 1.192.66.658 1.253 1.135 1.203 1.209m1.958-1.383c-.043.07-.71-.274-1.365-.914-.659-.638-1.022-1.294-.953-1.34.074-.05.537.503 1.17 1.116.63.616 1.198 1.063 1.148 1.138" fill="#AC6150"/><path d="M61.32 122.306s-.18-.765 1.79-.517c1.97.247 2.851.438 5.064.323 2.213-.115 5.804-.745 5.804-.745l5.777 5.084s-5.909 5.19-7.676 6.116c-1.768.925-5.367 3.231-7.416 3.12-1.557-.083-1.697-.858-1.697-.858s-1.52-1.045-1.293-1.553c0 0-1.804-.1-1.466-1.484 0 0-1.286-.237-1.495-.972-.209-.733.762-1.597 1.136-1.967.6-.595 5.859-4.454 5.881-4.562 0 0-4.492-.446-4.41-1.985" fill="#B67E6D"/><path d="M65.047 127.918c.053.068-1.005.972-2.363 2.019-1.357 1.047-2.501 1.84-2.553 1.771-.053-.069 1.005-.972 2.363-2.02 1.357-1.046 2.501-1.839 2.553-1.77m2.783.538c.03.026-.217.398-.691.942a15.244 15.244 0 01-2.052 1.931 15.16 15.16 0 01-2.37 1.525c-.643.328-1.065.478-1.081.442-.044-.086 1.55-.87 3.258-2.213 1.716-1.332 2.862-2.69 2.935-2.627m2.486 1.781c.029.022-.236.453-.783 1.059a11.198 11.198 0 01-2.466 2.01 11.175 11.175 0 01-2.931 1.237c-.792.2-1.298.231-1.303.195-.027-.1 1.979-.423 4.073-1.7 2.108-1.251 3.335-2.872 3.41-2.801m7.052-1.653c.014.016-.141.176-.434.45-.296.274-.732.658-1.291 1.11a37.61 37.61 0 01-4.621 3.19 39.04 39.04 0 01-2.73 1.457c-.852.42-1.663.744-2.381.887-.717.152-1.326.107-1.72.002-.397-.107-.587-.236-.58-.248.006-.064.862.395 2.251.03.686-.164 1.464-.498 2.303-.93a48.378 48.378 0 007.342-4.562c1.147-.856 1.83-1.423 1.861-1.386" fill="#AC6150"/><path d="M66.785 27.708c-5.77-.533-10.862 3.766-11.293 9.545-.36 4.81-.698 10.014-.704 12.638-.011 5.631 5.608 6.588 5.608 6.588s-.161 1.666-.347 3.733a7.416 7.416 0 1014.79 1.105l1.344-22.669a10.37 10.37 0 00-9.398-10.94" fill="#B67E6D"/><path d="M60.388 56.398s3.554.34 7.37-1.981c0 0-1.886 4.07-7.497 3.481l.127-1.5" fill="#AC6150"/><path d="M75.637 40.575c.096-.04 3.885-1.088 3.706 2.76-.178 3.847-4.004 2.875-4.006 2.764-.002-.111.3-5.524.3-5.524" fill="#B67E6D"/><path d="M76.58 44.695c.018-.011.065.05.176.108.108.055.297.1.5.033.414-.13.786-.76.837-1.452a2.206 2.206 0 00-.143-.969c-.104-.287-.278-.492-.48-.537a.341.341 0 00-.405.165c-.056.105-.035.183-.056.189-.011.009-.08-.069-.041-.226a.425.425 0 01.163-.234.505.505 0 01.375-.081c.295.034.55.32.672.63.139.31.212.69.183 1.082-.061.774-.491 1.481-1.055 1.617a.722.722 0 01-.609-.131c-.114-.1-.13-.187-.117-.194" fill="#AC6150"/><path d="M57.68 40.322c-.022.425.32.792.763.822.442.03.818-.288.84-.712.02-.425-.322-.794-.763-.824-.444-.03-.82.29-.84.714m-.766-1.042c.098.106.714-.335 1.579-.32.864.002 1.493.456 1.589.351.046-.046-.053-.237-.326-.442a2.206 2.206 0 00-1.27-.411c-.54-.005-.995.187-1.259.386-.269.2-.362.389-.313.436m9.435 1.28c-.021.424.321.791.763.822.443.03.819-.289.84-.713.02-.425-.321-.793-.763-.823-.443-.03-.819.29-.84.713m-.933-.995c.099.106.715-.335 1.58-.321.864.002 1.493.457 1.588.352.047-.046-.05-.237-.326-.442a2.205 2.205 0 00-1.27-.412c-.539-.004-.995.188-1.258.387-.268.2-.362.389-.314.436m-3.232 6.371c.005-.049-.532-.149-1.402-.273-.22-.026-.43-.073-.464-.225-.05-.16.046-.396.157-.652.216-.531.44-1.089.678-1.673.942-2.382 1.627-4.342 1.53-4.38-.096-.037-.938 1.865-1.879 4.247l-.65 1.683c-.087.25-.236.532-.128.865a.554.554 0 00.36.329c.14.045.264.049.374.057.876.06 1.42.072 1.424.022m2.234-9.505c.101.23.956.062 1.977.118 1.022.035 1.859.277 1.979.058.053-.105-.104-.316-.45-.522-.341-.205-.878-.387-1.49-.414-.613-.026-1.164.106-1.522.28-.363.175-.538.372-.494.48m-7.828-.338c.15.199.748.003 1.465.005.717-.025 1.322.15 1.465-.053.062-.1-.03-.297-.293-.487-.258-.19-.693-.347-1.186-.34-.493.009-.922.181-1.174.38-.257.197-.343.398-.277.495" fill="#132529"/><path d="M76.079 40.405c.042.59.011 1.27-.122 1.846-.134.576-.47 1.134-1.003 1.391-.974.469-2.178-.288-2.596-1.284-.42-.997-.283-2.127-.168-3.201.157-1.466.258-2.956-.003-4.407-.26-1.45-.92-2.874-2.06-3.808-1.14-.934-2.806-1.289-4.138-.658-.822.39-1.446 1.099-2.215 1.585-.691.437-1.529.69-2.335.553-.807-.139-1.899-.705-1.762-1.512.32-1.879-.985-.303-.899-.623.143-.532 1.227-1.445 1.676-1.776.83-.61 1.708-.901 2.587-1.056 2.439-.427 5.063-.118 7.35.83 2.286.949 4.295 2.716 5.23 5.008 1.081 2.651.913 4.257.548 7.113m-12.154 8.089c.01.173-.71.352-1.605.4-.897.048-1.63-.053-1.64-.225-.01-.173.71-.351 1.606-.4.896-.047 1.63.053 1.64.225" fill="#132529"/><path d="M76.07 40.742c-.01.04-.466-.042-1.178-.258-.713-.212-1.676-.57-2.723-.996l-2.679-1.077c-.687-.267-1.118-.422-1.106-.466.01-.04.465.042 1.178.257.714.213 1.677.571 2.724.997.98.394 1.87.751 2.677 1.077.689.267 1.12.422 1.107.466m-16.01-3.324c.512.06.93.45 1.008.959a4.857 4.857 0 01-.494 2.97 4.85 4.85 0 01-3.01 2.395c-.73.193-1.556.198-2.195-.207-.896-.566-1.173-1.737-1.25-2.793-.058-.772-.037-1.598.387-2.245.542-.825 1.604-1.143 2.59-1.197.986-.054 2.965.118 2.965.118" fill="#132529"/><path d="M64.585 37.558a1.163 1.163 0 00-1.046.94 4.918 4.918 0 00.413 3.017 4.91 4.91 0 002.973 2.508c.733.217 1.567.246 2.226-.144.922-.546 1.235-1.722 1.345-2.789.08-.778.084-1.614-.327-2.28-.523-.85-1.588-1.203-2.584-1.286-.995-.083-3 .034-3 .034" fill="#132529"/><path d="M65.494 37.717c-.002.086-1.48.126-3.301.09-1.822-.036-3.297-.136-3.296-.222.002-.086 1.48-.127 3.302-.09 1.822.036 3.297.135 3.295.222" fill="#132529"/><path d="M75.85 63.25c-.005.001-.01-.03-.016-.092a1.228 1.228 0 01.01-.278c.029-.244.15-.592.372-.995.22-.405.508-.88.677-1.5.182-.612.26-1.345.254-2.154.002-.815-.102-1.691-.161-2.67-.002-.247.025-.531.186-.776.147-.232.442-.45.787-.363a.64.64 0 01.384.294.494.494 0 01-.012.518c-.245.313-.624.283-.907.176a1.363 1.363 0 01-.716-1.57c.081-.306.267-.586.534-.777.135-.094.292-.166.471-.187a.624.624 0 01.53.18.55.55 0 01.126.573c-.097.225-.331.296-.5.304a1.195 1.195 0 01-.927-.398 1.187 1.187 0 01-.32-.97c.053-.36.284-.668.584-.851a1.15 1.15 0 01.868-.155.84.84 0 01.405.237.524.524 0 01.138.5c-.049.188-.219.312-.364.358-.151.05-.3.056-.447.038a1.637 1.637 0 01-.755-.336c-.425-.33-.698-.93-.49-1.475.193-.507.732-.893 1.294-.767.27.065.528.258.576.582a.51.51 0 01-.164.425.658.658 0 01-.388.17c-.288.02-.522-.117-.704-.26a1.581 1.581 0 01-.445-.543c-.223-.422-.126-1.008.278-1.283.412-.293 1.041-.056 1.121.44l.013.084-.072.04c-.57.308-1.25-.011-1.456-.524a.894.894 0 01.065-.775c.127-.221.32-.389.541-.478a.88.88 0 01.68-.005c.21.077.39.315.334.55a.345.345 0 01-.218.262.42.42 0 01-.312-.017c-.192-.08-.284-.27-.32-.422a4.73 4.73 0 01-.016-1.426c.044-.322.095-.487.105-.485.049-.004-.159.696.046 1.874.039.137.113.267.245.316.132.057.283.008.303-.134.063-.31-.437-.5-.77-.33-.35.142-.646.592-.475.986.149.388.727.632 1.121.395l-.059.123c-.033-.28-.477-.462-.728-.259-.273.193-.36.619-.18.948.162.32.539.655.877.64.165-.015.313-.148.29-.282-.013-.138-.18-.293-.355-.325-.37-.092-.803.199-.944.586-.15.383.047.857.4 1.128.174.137.39.237.604.27.205.031.447-.042.47-.174.05-.121-.124-.304-.322-.35a.846.846 0 00-.627.12.917.917 0 00-.438.63c-.04.251.06.52.24.713a.888.888 0 00.678.301c.26-.007.312-.188.17-.36-.12-.142-.409-.1-.603.045a1.107 1.107 0 00-.42.608c-.146.476.129 1.033.539 1.227.199.088.478.065.562-.067.102-.13-.025-.34-.212-.391-.168-.052-.38.068-.49.245-.119.174-.15.4-.15.628.046.94.139 1.849.124 2.671-.01.824-.105 1.576-.31 2.205-.19.636-.506 1.121-.737 1.508-.235.39-.368.715-.415.947-.05.231-.042.36-.057.36" fill="#D4D5CF"/><path d="M78.062 44.838c-.039-.289-.103-.58-.255-.829-.153-.248-.406-.448-.696-.475a.76.76 0 00-.763.486c-.107.296.03.663.283.851l.017.013.006.005-.003-.002.067.043c.1.064.242.072.342.134.207.128.273.4.264.642-.01.243-.076.483-.058.724.014.177.114.381.29.385.154.004.261-.147.325-.286.237-.523.257-1.122.18-1.691" fill="#D4D5CF"/><path d="M60.31 57.385s-1.208 1.769-1.306 2.919c-.065.76.442 3.72.792 5.635.201 1.1.63 2.142 1.26 3.065l.782 1.144a26.947 26.947 0 012.807 5.29c1.521 3.848 4.078 10.327 4.167 10.637.128.443 1.137 2.263 1.137 2.263L71.3 72.166l4.08-8.086a5.458 5.458 0 00.583-2.263l.095-2.596a3.642 3.642 0 00-.943-2.582l-.205 2.337-6.767 6.146-7.848-5.28.014-2.457" fill="#FFFFFE"/><path d="M67.8 65.174c.037.056-.757.285-1.414 1.335-.682 1.012-1.197 2.648-1.642 4.474l-.133.526-.06.242-.19-.159c-1.366-1.145-2.415-2.33-3.174-3.17-.751-.85-1.2-1.375-1.17-1.404.03-.029.533.448 1.326 1.258.797.803 1.87 1.957 3.216 3.075l-.25.083.132-.527c.447-1.833 1.005-3.5 1.764-4.524.37-.511.766-.86 1.084-1.02.311-.17.51-.201.512-.19m4.829 4.359c.051.034-.57 1.038-1.523 2.476l-.249.376-.007-.457c-.01-.657-.193-1.406-.418-2.2-.358-1.386-.69-2.637-1.203-3.405-.493-.777-1.004-1.094-.965-1.142.01-.016.143.05.361.204.216.158.506.423.787.815.59.78.966 2.07 1.322 3.448.222.79.407 1.572.396 2.284l-.255-.081c.994-1.41 1.704-2.353 1.754-2.318m-3.095 17.701c-.087.006-.473-4.897-.862-10.95-.39-6.054-.636-10.965-.55-10.971.087-.006.472 4.897.862 10.951.39 6.053.635 10.965.55 10.97" fill="#132529"/><path d="M54.415 40.749c-.075.037-.337-.623-.072-1.408.257-.788.86-1.16.899-1.087.06.07-.382.496-.602 1.185-.236.685-.137 1.29-.225 1.31m9.895.339c-.063.053-.459-.457-.455-1.216-.004-.758.392-1.267.456-1.215.08.044-.15.554-.143 1.215-.008.662.222 1.172.142 1.216" fill="#D4D5CF"/></g></svg>