<svg width="441" height="276" xmlns="http://www.w3.org/2000/svg" xmlns:xlink="http://www.w3.org/1999/xlink"><defs><path id="a" d="M.663.467h372.44v226.775H.662z"/><path d="M12.251 15.213l-.014-.004L.185 12.581.105.23H.17c.245.002.487.01.726.022.081.005.16.013.243.019.127.009.255.02.38.034 4.724.473 8.04 3.29 9.724 6.806a12.98 12.98 0 011.276 5.508v.062c0 .856-.088 1.707-.268 2.531z" id="c"/></defs><g fill="none" fill-rule="evenodd"><path fill="#D4D5CF" d="M379.995 153.586l8.718 15.171 8.781-15.136-6.048-.013.058-29.245-5.402-.011-.059 29.246-6.048-.012m15.527-20.079l5.2 9.048 5.236-9.027-3.606-.008.034-17.44-3.222-.006-.035 17.44-3.607-.007M96.375 15.171L87.655 0l-8.78 15.136 6.047.013-.057 29.245 5.402.011.059-29.246 6.049.012"/><g transform="translate(67.906 24.768)"><mask id="b" fill="#fff"><use xlink:href="#a"/></mask><path fill="#D4D5CF" mask="url(#b)" d="M11.243 9.638L5.97.467.663 9.617l3.656.008-.034 17.68 3.266.006.035-17.68 3.657.007"/><path d="M330.294 225.938c-10.806-7.073-13.55-20.615-13.43-32.848.02-2.043-.258-4.189.68-6.003.94-1.814 3.205-3.092 5.077-2.276 1.552.676 2.265 2.423 3.16 3.861a12.045 12.045 0 004.961 4.455c1.334.642 2.972 1.016 4.255.277 1.76-1.014 1.91-3.45 1.847-5.48l-.35-11.346c-.062-2.028-.12-4.1.473-6.042.592-1.94 1.961-3.764 3.904-4.351 1.943-.589 4.39.467 4.852 2.443.192.823.042 1.685.12 2.527.078.84.499 1.763 1.316 1.979.825.218 1.634-.378 2.234-.985 2.072-2.101 3.448-4.775 4.73-7.432 1.282-2.657 2.522-5.376 4.393-7.657 1.87-2.28 4.491-4.116 7.432-4.351 2.941-.235 6.123 1.484 6.938 4.32.816 2.842-.804 5.786-2.588 8.146a45.61 45.61 0 01-9.336 9.22c-.638.468-1.328.976-1.558 1.734-.413 1.363.919 2.677 2.283 3.09 1.546.466 3.204.27 4.813.417 1.608.15 3.362.804 4.005 2.286.893 2.055-.812 4.27-2.506 5.736a39.414 39.414 0 01-11.476 6.907c-1.499.583-3.078 1.1-4.273 2.178-1.193 1.079-1.885 2.92-1.114 4.332.773 1.414 2.676 1.825 4.253 1.498 1.578-.328 2.975-1.211 4.472-1.81 2.8-1.12 6.454-1.014 8.322 1.352 1.23 1.556 1.388 3.76.832 5.663-.554 1.904-1.735 3.56-2.994 5.09-4.4 5.353-10.095 9.714-16.595 12.113-6.501 2.4-12.56 3.153-19.132.957" fill="#EAEAE5" mask="url(#b)"/></g><path d="M437.752 179.084s-.064.07-.198.195l-.6.549c-.528.482-1.307 1.192-2.284 2.134a75.991 75.991 0 00-7.659 8.549c-1.486 1.918-3.025 4.086-4.635 6.44-1.605 2.36-3.305 4.893-4.99 7.622-1.685 2.728-3.367 5.648-4.864 8.797-.755 1.571-1.423 3.212-2.103 4.885l-2.06 5.085c-2.754 6.876-5.162 13.518-6.846 19.71-1.696 6.186-2.654 11.905-3.013 16.74-.372 4.839-.17 8.774.1 11.472.142 1.348.275 2.394.392 3.099l.118.804c.025.182.03.276.03.276s-.341-1.466-.66-4.167c-.305-2.699-.54-6.644-.196-11.499.333-4.852 1.271-10.594 2.956-16.8 1.673-6.21 4.078-12.868 6.836-19.75l2.06-5.086c.68-1.668 1.354-3.321 2.115-4.898 1.507-3.162 3.2-6.088 4.895-8.817 1.696-2.73 3.404-5.26 5.02-7.616 1.621-2.352 3.174-4.517 4.673-6.43a72.94 72.94 0 017.749-8.502 71.43 71.43 0 012.326-2.094l.62-.526a3.5 3.5 0 01.218-.172" fill="#D4D5CF"/><path d="M412.327 213.208c-.02.005-.094-.303-.209-.863a61.368 61.368 0 01-.428-2.38c-.334-2.014-.704-4.81-1.105-7.897-.399-3.086-.817-5.87-1.194-7.872a92.66 92.66 0 00-.464-2.368c-.116-.559-.17-.87-.15-.875.021-.005.114.297.266.847.155.55.348 1.355.56 2.354.434 1.997.887 4.786 1.287 7.875.393 3.059.747 5.826 1.015 7.904l.331 2.393c.079.565.112.878.091.882" fill="#D4D5CF"/><path d="M438.646 207.7c0 .012-.094.028-.272.052l-.78.085c-.679.071-1.66.172-2.867.337-2.415.308-5.738.857-9.376 1.623a134.758 134.758 0 00-9.238 2.295c-1.172.333-2.113.627-2.764.829l-.752.227c-.174.05-.266.07-.27.06-.003-.009.083-.05.25-.118l.733-.282a52.1 52.1 0 012.74-.923c2.33-.734 5.591-1.612 9.238-2.388 3.646-.768 6.984-1.284 9.414-1.538 1.214-.138 2.2-.206 2.882-.24l.786-.029c.18-.003.275 0 .276.01m-37.125 34.779c-.009.005-.072-.105-.18-.318-.124-.243-.279-.552-.471-.935a111.87 111.87 0 01-1.633-3.487c-1.343-2.96-3.072-7.106-4.921-11.706-1.851-4.6-3.546-8.755-4.836-11.734l-1.543-3.524c-.17-.393-.309-.71-.416-.96-.093-.22-.138-.338-.127-.344.01-.003.071.106.182.318l.47.936a111 111 0 011.632 3.486c1.343 2.961 3.072 7.107 4.921 11.708 1.851 4.599 3.546 8.753 4.837 11.733l1.542 3.523.417.96c.093.22.136.34.126.344" fill="#D4D5CF"/><path d="M436.38 230.465c.002.01-.118.06-.347.143l-1.015.356-3.737 1.283c-3.152 1.086-7.49 2.64-12.277 4.369-4.79 1.728-9.142 3.253-12.315 4.287-1.587.519-2.875.925-3.77 1.19l-1.031.301c-.237.065-.364.095-.367.085-.002-.01.118-.06.348-.144l1.014-.356 3.736-1.281c3.154-1.087 7.491-2.642 12.28-4.37 4.789-1.729 9.14-3.253 12.313-4.287a155.28 155.28 0 013.77-1.19l1.032-.301c.237-.066.363-.096.366-.085" fill="#D4D5CF"/><path d="M437.564 274.357c0 .104-97.96.188-218.771.188C97.939 274.545 0 274.461 0 274.357s97.939-.188 218.793-.188c120.812 0 218.771.084 218.771.188" fill="#132529"/><path d="M45.011 251.935c-2.553-1.318-5.559-1.489-8.393-1.02-1.522.251-3.11.707-4.145 1.85-1.037 1.144-1.233 3.157-.044 4.14.709.584 1.696.673 2.615.663 2.218-.026 4.68-.417 6.452.918 1.011.762 1.685 2.028 2.894 2.402 1.183.367 2.518-.331 3.145-1.398.627-1.068.648-2.402.356-3.606 0 0-.309-2.622-2.88-3.95" fill="#2472FF"/><path d="M50.86 240.644c-1.561 2.23-4.595 1.491-6.002.13-1.407-1.36-2-3.332-2.543-5.212-1.236-4.299-2.483-8.806-1.563-13.182.275-1.309.764-2.614 1.683-3.584.92-.97 2.334-1.549 3.626-1.206 1.53.403 2.48 1.902 3.168 3.326a31.427 31.427 0 013.105 13.485c.007 2.173-.249 4.45-1.475 6.243" fill="#E0565F"/><path d="M48.08 242.065c-1.223 0-2.46-.554-3.222-1.29-1.407-1.36-2-3.333-2.543-5.213-.937-3.258-1.88-6.635-1.88-9.985a15.34 15.34 0 01.317-3.197c.275-1.309.764-2.614 1.683-3.584.739-.78 1.795-1.305 2.852-1.305a3 3 0 01.774.099c1.53.403 2.48 1.902 3.168 3.326a31.427 31.427 0 013.105 13.485v.102c-.001 2.142-.268 4.377-1.475 6.141-.716 1.023-1.742 1.421-2.778 1.421" fill="#0053EA"/><path d="M55.146 243.844c-1.695-2.012-2.016-4.946-1.262-7.465.754-2.52 2.458-4.665 4.422-6.415a23.81 23.81 0 017.917-4.671c1.145-.403 2.353-.72 3.56-.605 1.21.115 2.426.733 2.989 1.808.833 1.589.034 3.517-.83 5.09a60.4 60.4 0 01-5.2 7.919c-1.558 2.01-3.344 3.991-5.72 4.9-2.375.908-4.843.8-6.102-.846" fill="#2472FF"/><path d="M50.965 274.275c-.03.002-.076-.359-.14-1.013-.073-.737-.163-1.663-.27-2.764-.129-1.163-.3-2.548-.622-4.055-.322-1.504-.826-3.134-1.474-4.787-.67-1.643-1.488-3.136-2.444-4.33-.949-1.2-2.053-2.069-3.09-2.57a8.629 8.629 0 00-2.602-.81c-.647-.066-1.009-.117-1.009-.145 0-.03.362-.034 1.027-.017a7.89 7.89 0 012.713.707c1.093.484 2.264 1.366 3.26 2.59 1.003 1.22 1.85 2.746 2.533 4.418.66 1.682 1.155 3.329 1.464 4.865.306 1.534.446 2.934.539 4.107a55.01 55.01 0 01.136 2.781c.015.658.007 1.022-.02 1.023" fill="#132529"/><path d="M50.775 272.148c-.015 0-.024-.162-.027-.47l.003-1.344c.003-1.167.003-2.855-.06-4.94-.103-4.17-.462-9.924-1.155-16.25-.699-6.328-1.624-12.02-2.468-16.105-.2-1.024-.4-1.945-.59-2.75-.18-.81-.334-1.506-.482-2.07l-.315-1.307c-.066-.3-.095-.46-.082-.464.014-.003.07.149.164.441l.39 1.288c.173.559.35 1.251.552 2.057.212.803.434 1.721.652 2.744.92 4.078 1.894 9.779 2.595 16.12.694 6.339 1.007 12.111 1.035 16.29.025 2.09-.02 3.783-.073 4.95l-.082 1.344c-.023.306-.043.467-.057.466" fill="#132529"/><path d="M50.747 261.015c-.029 0-.024-.5.01-1.403.052-.903.175-2.207.43-3.805a50.13 50.13 0 011.237-5.543 49.156 49.156 0 012.317-6.559c1.923-4.56 4.536-8.29 6.807-10.599.534-.612 1.127-1.055 1.601-1.488.247-.207.464-.415.685-.58.222-.152.43-.295.621-.428.748-.511 1.167-.78 1.182-.756.067.091-1.675 1.116-3.875 3.457-2.19 2.335-4.73 6.038-6.636 10.561a52.353 52.353 0 00-2.332 6.498c-.607 2.037-1.01 3.91-1.316 5.487a55.041 55.041 0 00-.559 3.767c-.084.896-.144 1.393-.172 1.391" fill="#132529"/><path fill="#FFFFFE" d="M107.894 198.815h222.041V26.04h-222.04z"/><path d="M329.935 198.816c0-1.293-.061-68.48-.155-172.776l.155.155-222.022.033h-.019l.188-.188-.02 172.776-.168-.169 222.041.169c-1.483 0-90.243.069-222.04.17h-.17v-.17l-.02-172.776v-.188h.208l222.022.032h.156v.156l-.156 172.776" fill="#132529"/><path d="M168.948 184.306c-.104 0-.188-18.782-.188-41.944 0-23.17.084-41.948.188-41.948s.188 18.778.188 41.948c0 23.162-.084 41.944-.188 41.944m96.362 0c-.105 0-.188-18.782-.188-41.944 0-23.17.083-41.948.188-41.948.103 0 .188 18.778.188 41.948 0 23.162-.085 41.944-.188 41.944m-63.465 0c-.103 0-.188-24.01-.188-53.62 0-29.622.085-53.628.188-53.628.104 0 .189 24.006.189 53.627 0 29.61-.085 53.62-.189 53.62m-66.683.001c-.104 0-.189-24.01-.189-53.62 0-29.622.085-53.628.189-53.628s.188 24.006.188 53.627c0 29.61-.084 53.62-.188 53.62m167.969.001c-.103 0-.187-24.01-.187-53.62 0-29.622.084-53.628.187-53.628.105 0 .189 24.006.189 53.627 0 29.61-.084 53.62-.189 53.62m-72.438.001c-.104 0-.188-27.723-.188-61.913 0-34.202.084-61.92.188-61.92s.188 27.718.188 61.92c0 34.19-.084 61.913-.188 61.913" fill="#132529"/><path d="M169.735 100.414a.787.787 0 11-1.573 0 .787.787 0 011.573 0m32.897-23.356a.787.787 0 11-1.573 0 .787.787 0 011.573 0" fill="#132529"/><path d="M201.845 74.479a2.583 2.583 0 00-2.58 2.58 2.582 2.582 0 002.58 2.578 2.582 2.582 0 002.58-2.579 2.583 2.583 0 00-2.58-2.58zm0 5.339a2.763 2.763 0 01-2.76-2.76 2.763 2.763 0 012.76-2.76 2.763 2.763 0 012.76 2.76 2.763 2.763 0 01-2.76 2.76zm29.635-19.344a.787.787 0 11-1.574-.002.787.787 0 011.574.002m34.617 40.727a.787.787 0 11-1.575 0 .787.787 0 011.575 0m37.841-24.143a.787.787 0 11-1.574 0 .787.787 0 011.574 0m-167.99.787a.787.787 0 11-1.574 0 .787.787 0 011.574 0" fill="#132529"/><path d="M310.584 115.015c.003.02-.208.087-.62.2-.418.093-1.017.308-1.787.612-1.523.651-3.612 2.006-5.733 4.353-2.147 2.324-4.297 5.562-6.995 9.201-1.368 1.803-2.873 3.726-4.753 5.516-.923.91-1.971 1.746-3.085 2.551-1.146.762-2.372 1.48-3.717 2.033-2.681 1.107-5.754 1.64-8.904 1.498-1.567-.077-3.18-.192-4.79-.6a12.495 12.495 0 01-4.634-2.04c-1.415-1.008-2.627-2.327-3.619-3.775-1-1.447-1.896-2.977-2.764-4.534-1.728-3.128-3.524-6.277-5.566-9.438-2.005-3.203-3.863-6.58-5.939-9.9-2.076-3.309-4.358-6.614-7.271-9.38-1.462-1.365-3.081-2.593-4.884-3.498a16.237 16.237 0 00-5.802-1.7 20.65 20.65 0 00-6.174.35 20.831 20.831 0 00-5.859 2.224c-3.69 2.095-6.675 5.2-9.16 8.541-2.504 3.35-4.548 6.965-6.546 10.528-1.969 3.585-4.057 7.067-6.343 10.3-2.306 3.218-4.8 6.24-7.678 8.753-.73.616-1.447 1.236-2.228 1.772-.747.58-1.564 1.053-2.36 1.542-1.635.899-3.331 1.685-5.116 2.105-.876.272-1.782.37-2.675.498-.444.088-.896.057-1.343.078-.446.005-.893.034-1.335.017-1.776-.08-3.495-.441-5.124-.95-3.256-1.061-6.08-2.777-8.66-4.524-2.57-1.77-4.923-3.604-7.222-5.26-2.295-1.664-4.542-3.127-6.859-4.155-2.303-1.041-4.62-1.699-6.827-1.94-2.204-.23-4.297-.105-6.135.397-.47.08-.892.294-1.326.428-.423.166-.864.265-1.24.49-.762.414-1.545.714-2.168 1.2-1.34.828-2.351 1.806-3.26 2.61l-1.135 1.242c-.344.382-.677.712-.91 1.058l-1.148 1.513c-.264.338-.408.506-.426.495-.015-.01.097-.2.33-.56l1.064-1.586c.22-.36.542-.706.876-1.103l1.11-1.295c.896-.842 1.902-1.863 3.257-2.74.63-.51 1.426-.837 2.203-1.278.383-.237.835-.35 1.27-.529.444-.146.878-.373 1.363-.464 1.893-.55 4.06-.713 6.342-.504 2.284.218 4.678.868 7.052 1.91 2.385 1.026 4.714 2.512 7.031 4.163 2.33 1.646 4.693 3.457 7.248 5.188 2.559 1.707 5.33 3.357 8.456 4.353 1.561.476 3.196.809 4.877.877.42.013.841-.018 1.264-.024.422-.023.85.006 1.27-.08.844-.127 1.7-.22 2.528-.485 3.373-.852 6.493-2.812 9.27-5.241 2.782-2.446 5.22-5.417 7.484-8.594 2.25-3.204 4.295-6.627 6.257-10.217 1.996-3.57 4.055-7.23 6.612-10.659 2.537-3.417 5.62-6.646 9.504-8.853a21.935 21.935 0 016.184-2.345 21.717 21.717 0 016.518-.362c2.173.206 4.283.849 6.194 1.82 1.917.967 3.617 2.265 5.137 3.69 3.027 2.886 5.339 6.266 7.428 9.614 2.086 3.36 3.934 6.744 5.906 9.92 2.027 3.16 3.85 6.39 5.551 9.504 1.731 3.071 3.42 6.161 6.06 8.031a11.59 11.59 0 004.307 1.923c1.518.399 3.081.524 4.607.608 3.049.161 5.987-.329 8.566-1.366 1.294-.517 2.479-1.196 3.591-1.92 1.084-.767 2.11-1.566 3.022-2.446 1.852-1.725 3.362-3.604 4.744-5.377 2.729-3.577 4.948-6.806 7.176-9.119 2.202-2.338 4.39-3.67 5.968-4.263.8-.277 1.416-.457 1.847-.513.425-.078.642-.108.646-.09" fill="#2472FF"/><path fill="#132529" d="M134.374 47.588h38.716v-2.154h-38.716zm0 5.041h19.132v-2.153h-19.132zM326.68 11.944H110.884a3.255 3.255 0 00-3.255 3.255v10.84h222.306V15.2a3.255 3.255 0 00-3.255-3.255"/><path d="M119.15 19.264a1.515 1.515 0 11-3.03 0 1.515 1.515 0 013.03 0m6.62 0a1.516 1.516 0 11-3.031 0 1.516 1.516 0 013.032 0m6.619 0a1.516 1.516 0 11-3.032 0 1.516 1.516 0 013.032 0" fill="#FFFFFE"/><path d="M111.109 153.273H24.6a2.333 2.333 0 01-2.333-2.333v-20.896a2.334 2.334 0 012.333-2.334h86.508a2.334 2.334 0 012.333 2.334v20.896a2.333 2.333 0 01-2.333 2.333" fill="#DDDED8"/><path d="M41.486 144.755a5.556 5.556 0 11-8.669-6.95 5.556 5.556 0 018.669 6.95" fill="#FFFFFE"/><path d="M40.275 139.394c.072.074-1.274 1.504-3.006 3.193l-.734.71-.132.126-.126-.128c-1.351-1.38-2.31-2.445-2.248-2.508.063-.063 1.128.897 2.507 2.25l-.257-.003.727-.715c1.733-1.69 3.196-3 3.269-2.925m64.269-.776c0 .104-11.59.189-25.884.189-14.298 0-25.886-.085-25.886-.189 0-.103 11.588-.187 25.886-.187 14.293 0 25.884.084 25.884.187m-21.234 5.056c0 .105-6.7.188-14.964.188-8.266 0-14.965-.083-14.965-.188 0-.103 6.699-.187 14.965-.187 8.263 0 14.964.084 14.964.187" fill="#132529"/><path d="M137.177 103.447H51.07a1.89 1.89 0 01-1.89-1.89V68.008a1.89 1.89 0 011.89-1.89h86.107a1.89 1.89 0 011.89 1.89v33.55a1.89 1.89 0 01-1.89 1.889" fill="#D4D5CF"/><path d="M67.855 77.917a4.19 4.19 0 11-8.38-.001 4.19 4.19 0 018.38 0m4.19-1.273h29.197v-1.621H72.045z" fill="#2472FF"/><path fill="#FFFFFE" d="M72.045 80.327h56.797v-1.622H72.045z"/><path d="M67.855 90.8a4.19 4.19 0 11-8.38-.002 4.19 4.19 0 018.38.001m4.19-1.273h14.91v-1.621h-14.91z" fill="#2472FF"/><path fill="#FFFFFE" d="M72.045 93.21h56.797v-1.622H72.045z"/><path d="M178.133 213.58H67.88a2.86 2.86 0 01-2.859-2.859v-43.575a2.86 2.86 0 012.859-2.86h110.253c1.58 0 2.859 1.28 2.859 2.86v43.575a2.86 2.86 0 01-2.859 2.86" fill="#D4D5CF"/><path d="M86.237 188.108l-.065-9.999c-2.944.018-5.947 1.181-8.249 3.216-2.712 2.397-4.448 6-3.975 10.355.052.477.128.96.234 1.453l.006.035h.002l12.047-2.71v-2.35" fill="#2472FF"/><path d="M98.654 185.029c-1.684-3.516-5-6.333-9.724-6.806a13.116 13.116 0 00-.381-.034l-.243-.02a15.93 15.93 0 00-.726-.02h-.035l-.03-.002v.002l.08 12.349 12.052 2.628.015.004a11.9 11.9 0 00.268-2.593 12.98 12.98 0 00-1.276-5.508" fill="#0053EA"/><g transform="translate(87.41 177.917)"><mask id="d" fill="#fff"><use xlink:href="#c"/></mask><path fill="#0053EA" mask="url(#d)" d="M-29.895 15.213h12.414V.23h-12.414z"/></g><path d="M86.883 191.705l-12.048 2.712c1.236 5.515 6.159 9.638 12.048 9.638 5.918 0 10.86-4.163 12.066-9.72l-12.05-2.629h-.016" fill="#2472FF"/><path d="M86.883 204.055c-5.889 0-10.812-4.123-12.048-9.638l12.048-2.712.015.001 12.051 2.629c-1.205 5.557-6.148 9.72-12.066 9.72" fill="#2472FF"/><path fill="#FFFFFE" d="M108.001 183.872h61.212V181.1H108zm0 7.311h61.212v-2.773H108zm0 8.084h33.083v-2.773h-33.083z"/><path d="M315.054 245.76H206.28a6.076 6.076 0 01-6.077-6.075V135.41a6.076 6.076 0 016.077-6.076h108.773a6.075 6.075 0 016.075 6.076v104.276a6.076 6.076 0 01-6.075 6.075" fill="#DDDED8"/><path fill="#132529" d="M208.655 210.236h3.97v-1.144h-3.97zm8.979 6.114h5.075v-1.143h-5.075zm17.668 0h5.075v-1.143h-5.075zm17.668 0h5.075v-1.143h-5.075zm17.669 0h5.074v-1.143h-5.074zm17.667 0h5.075v-1.143h-5.075zm17.668 0h5.075v-1.143h-5.075zm-97.319-21.389h3.97v-1.143h-3.97zm0-28.747h3.97v-1.143h-3.97zm0-14.447h3.97v-1.144h-3.97zm.202 28.821h3.969v-1.144h-3.97zm102.05 29.648s-.144.013-.425.02l-1.25.018-4.802.035-17.66.06-58.268.055c-4.73 0-9.366-.002-13.808-.003h-.185v-.185l.063-48.92.056-14.447.032-3.889.017-1.006c.006-.227.017-.342.017-.342s.012.115.018.342l.016 1.006.032 3.889.056 14.447.064 48.92-.186-.186 13.808-.002 58.268.055 17.66.06 4.803.035 1.249.019c.28.006.425.019.425.019"/><path d="M312.025 180.016c0 .104-20.931.188-46.744.188-25.821 0-46.748-.084-46.748-.188s20.927-.188 46.748-.188c25.813 0 46.744.084 46.744.188m0-14.374c0 .104-20.931.188-46.744.188-25.821 0-46.748-.084-46.748-.188s20.927-.188 46.748-.188c25.813 0 46.744.084 46.744.188m0-14.447c0 .104-20.931.188-46.744.188-25.821 0-46.748-.084-46.748-.188s20.927-.188 46.748-.188c25.813 0 46.744.084 46.744.188m0 43.195c0 .104-20.931.188-46.744.188-25.821 0-46.748-.084-46.748-.189 0-.103 20.927-.187 46.748-.187 25.813 0 46.744.084 46.744.187" fill="#132529"/><path d="M219.497 207.143V194.39l7.948-12.34 5.395 4.14 11.071-17.198 6.53 4.599 9.083-15.866 7.381 6.014 11.072-21.047 11.923 23.523 9.652-11.77 11.355-3.249v55.948h-91.41" fill="#2472FF"/><path d="M312.025 146.667c0 .005-.067.01-.2.014l-.592.015-2.304.026-8.714.05.082-.041c-2.537 3.319-5.699 7.45-9.335 12.204l-.045.058h-.074l-23.377.033.155-.088-9.828 16.363-9.65 16.038-.142.235-.16-.222-12.663-17.412.253-.008c-4.81 7.492-8.777 13.675-11.553 17.997l-3.22 4.976-.856 1.298c-.195.292-.305.436-.305.436s.084-.16.266-.46l.817-1.323 3.15-5.021c2.75-4.34 6.679-10.546 11.442-18.067l.12-.191.135.182c3.786 5.18 8.072 11.042 12.707 17.38l-.302.014 9.638-16.046 9.84-16.356.054-.087h.102l23.377.032-.117.058 9.407-12.15.031-.042h.051l8.714.05 2.304.027.592.013c.133.005.2.01.2.015" fill="#132529"/><path d="M239.134 177.937c0 .476-.402.863-.897.863s-.897-.387-.897-.863c0-.477.402-.864.897-.864s.897.387.897.864m26.965-15.327c0 .477-.402.865-.897.865s-.898-.388-.898-.865.403-.863.898-.863.897.386.897.863m20.963-3.766c0 .478-.403.865-.898.865s-.896-.387-.896-.865c0-.477.4-.863.896-.863.495 0 .898.386.898.863" fill="#132529"/><path d="M229.234 230.488c0 3.085-2.596 5.585-5.8 5.585-3.204 0-5.8-2.5-5.8-5.585 0-3.084 2.596-5.584 5.8-5.584 3.204 0 5.8 2.5 5.8 5.584m8.606-1.65h68.134v-2.09h-68.135zm0 5.22h28.29v-2.09h-28.29z" fill="#FFFFFE"/><path d="M358.927 105.49H285.77a3.566 3.566 0 01-3.566-3.565v-59.46a3.566 3.566 0 013.566-3.566h73.157a3.567 3.567 0 013.566 3.567v59.459a3.566 3.566 0 01-3.566 3.566" fill="#DDDED8"/><path fill="#2472FF" d="M296.215 98.236h4.329V65.561h-4.329zm19.672 0h4.328V62.91h-4.328zm20.376 0h4.328V58.424h-4.328z"/><path fill="#E0565F" d="M326.692 98.236h4.328v-15.91h-4.328z"/><path fill="#0053EA" d="M326.692 98.236h4.328v-15.91h-4.328z"/><path fill="#E0565F" d="M301.26 98.236h4.329V62.061h-4.33z"/><path fill="#2472FF" d="M301.26 98.236h4.329V62.061h-4.33z"/><path fill="#E0565F" d="M321.284 98.236h4.328V54.482h-4.328z"/><path fill="#2472FF" d="M321.284 98.236h4.328V54.482h-4.328z"/><path fill="#E0565F" d="M347.426 98.236h4.328V54.482h-4.328z"/><path d="M351.754 97.758a8.112 8.112 0 00-4.328-1.641V54.482h4.328v43.276" fill="#0053EA"/><path fill="#E0565F" d="M341.777 98.236h4.328V45.841h-4.328z"/><path d="M341.777 96.34V45.842h4.328v50.274a6.597 6.597 0 00-1.213.19c-1.2.004-2.227.009-3.115.036" fill="#2472FF"/><path fill="#E0565F" d="M306.555 98.236h4.328V75.277h-4.328z"/><path fill="#0053EA" d="M306.555 98.236h4.328V75.277h-4.328z"/><path d="M357.946 100.219c0 .104-15.445.188-34.49.188-19.055 0-34.495-.084-34.495-.188s15.44-.188 34.494-.188c19.046 0 34.49.084 34.49.188m-70.989-6.924h2.641v-.87h-2.64zm0-11.628h2.641v-.87h-2.64zm0-21.884h2.641v-.87h-2.64zm0-10.997h2.641v-.87h-2.64zm.134 21.939h2.64v-.87h-2.64z" fill="#132529"/><path d="M269.768 56.576h-77.685a2.333 2.333 0 01-2.334-2.334V35.82a2.333 2.333 0 012.334-2.333h77.685a2.333 2.333 0 012.333 2.333v18.422a2.333 2.333 0 01-2.333 2.334" fill="#2472FF"/><path d="M207.108 48.882a5.018 5.018 0 11-7.83-6.279 5.018 5.018 0 017.83 6.279" fill="#FFFFFE"/><path d="M203.202 40.742c-.184 0-.37.01-.556.031a4.965 4.965 0 00-3.354 1.842 4.965 4.965 0 00-1.069 3.674 4.966 4.966 0 001.842 3.354 4.959 4.959 0 003.674 1.07 4.963 4.963 0 003.354-1.842 4.964 4.964 0 001.07-3.675 4.964 4.964 0 00-1.842-3.354 4.962 4.962 0 00-3.119-1.1zm-.019 10.038a4.996 4.996 0 01-3.14-1.108 5.003 5.003 0 01-1.856-3.378 5.003 5.003 0 011.077-3.701 5.005 5.005 0 013.379-1.856 4.996 4.996 0 013.7 1.077 5.004 5.004 0 011.856 3.379 5.001 5.001 0 01-1.078 3.7 5.005 5.005 0 01-3.938 1.887z" fill="#132529"/><path d="M206.013 44.039c.073.074-1.137 1.373-2.702 2.899l-.663.64-.132.126-.126-.128c-1.219-1.248-2.08-2.214-2.018-2.277.063-.063 1.03.799 2.278 2.018l-.257-.002.656-.647c1.564-1.526 2.892-2.703 2.964-2.629" fill="#E0565F"/><path d="M264.064 43.34c0 .104-10.468.187-23.38.187-12.914 0-23.38-.083-23.38-.187s10.466-.188 23.38-.188c12.912 0 23.38.084 23.38.188m-19.179 4.566c0 .104-6.052.188-13.516.188-7.467 0-13.518-.084-13.518-.188s6.051-.188 13.518-.188c7.464 0 13.516.084 13.516.188" fill="#FFFFFE"/><path d="M398.407 77.417s-.096.123-.3.347c-.208.22-.5.564-.92.975-.865.791-2.197 1.934-4.19 2.92-.505.23-1.022.506-1.61.692l-.886.319c-.312.08-.63.165-.955.25-.643.197-1.343.265-2.059.395-.36.04-.73.058-1.106.088-.375.04-.759.044-1.149.028-3.112.018-6.682-.95-9.875-3.172l.118.025-8.587 1.66-.483.092.323-.372 4.727-5.445-.008.224c-.819-1.15-1.553-2.403-2.115-3.765a19.013 19.013 0 01-1.146-4.33c-.367-3.014-.003-6.241 1.301-9.165 1.655-3.799 4.647-6.856 8.135-8.602 3.501-1.716 7.425-2.242 10.943-1.54 1.754.338 3.44.88 4.924 1.705 1.494.799 2.852 1.763 3.976 2.89 2.32 2.196 3.776 4.892 4.547 7.473.788 2.592.871 5.092.586 7.213-.269 2.134-.944 3.882-1.588 5.236l-.485.949c-.162.291-.346.545-.499.79-.31.491-.58.899-.845 1.196l-.57.696c-.13.155-.2.232-.204.228-.006-.004.054-.09.174-.252l.54-.718c.253-.303.514-.715.81-1.209.148-.247.326-.502.48-.795l.468-.949c.617-1.352 1.264-3.088 1.51-5.199a16.95 16.95 0 00-.631-7.11c-.777-2.536-2.222-5.177-4.51-7.324-1.108-1.103-2.445-2.043-3.913-2.822-1.459-.805-3.113-1.33-4.833-1.658-3.448-.679-7.29-.153-10.715 1.53-3.41 1.712-6.336 4.707-7.955 8.423-1.276 2.859-1.633 6.015-1.277 8.966a18.7 18.7 0 001.116 4.24c.548 1.334 1.265 2.56 2.064 3.69l.084.118-.094.106c-1.64 1.882-3.234 3.708-4.74 5.434l-.16-.28 8.593-1.626.064-.012.054.038c3.127 2.196 6.63 3.17 9.699 3.175.384.017.762.017 1.133-.02.37-.027.735-.04 1.093-.078.705-.123 1.397-.184 2.035-.373l.945-.238.88-.307c.582-.177 1.097-.445 1.599-.667 1.984-.951 3.324-2.063 4.204-2.828.427-.399.73-.73.949-.94.214-.213.334-.315.334-.315" fill="#132529"/><path fill="#132529" d="M385.645 62.522l-2.9-.96-2.901-.961 1.236 5.985 1.577-1.405 6.792 7.63 1.41-1.254-6.792-7.63 1.578-1.405"/><path d="M371.578 263.755l-4.677-4.697 8.743-8.817 6.915 6.8-.507.581c-2.277 2.567-11.76 12.892-13.866 14.03-2.35 1.268 3.392-7.897 3.392-7.897" fill="#2472FF"/><path d="M379.32 260.169a4.31 4.31 0 01-.764-2.99c.126-1.044.604-2.01 1.403-2.696l2.466 2.442-3.105 3.244" fill="#132529"/><path d="M368.903 268.363s-1.846 3.376-1.089 3.478c.757.101 10.734-9.972 14.745-14.8l-.21-.182-11.537 11.85s-1.379-.839-1.909-.346" fill="#132529"/><path d="M382.48 256.716a1.12 1.12 0 01-.133.167l-.406.463-1.52 1.671a218.472 218.472 0 01-5.149 5.386 217.159 217.159 0 01-5.33 5.211l-1.654 1.538-.457.41c-.106.093-.163.14-.167.136a1.178 1.178 0 01.146-.158l.438-.43 1.62-1.572a363.933 363.933 0 005.297-5.24 360.902 360.902 0 005.18-5.353l1.552-1.64c.159-.163.3-.308.427-.442.099-.1.152-.15.156-.147" fill="#334F55"/><path d="M370.951 268.842c-.027.037-.435-.317-1.062-.459-.623-.152-1.146-.016-1.154-.061-.021-.033.52-.247 1.189-.085.67.153 1.06.585 1.027.605m1.258-3.912c-.009.041-.284.015-.614-.056-.33-.072-.591-.164-.582-.204.009-.041.284-.016.614.056.33.073.59.164.582.205m.329-1.089c.003.042-.227.089-.515.106-.287.016-.522-.003-.524-.045-.003-.042.228-.089.515-.106.287-.016.522.003.524.045m-.385-1.276c.03.03-.148.261-.397.518-.249.258-.476.443-.505.414-.03-.03.147-.261.397-.518.25-.258.475-.443.505-.414m-.433-.736c.036.015-.086.34-.36.66-.272.323-.574.495-.596.461-.025-.035.223-.252.481-.558.262-.304.436-.583.475-.563" fill="#334F55"/><path d="M371.143 264.467c.012.012-.176.256-.565.564-.194.153-.44.32-.73.472-.15.071-.294.158-.486.204a.43.43 0 01-.315-.034c-.108-.061-.158-.2-.141-.31.256-.82 1.099-1.06 1.578-.985.252.031.442.118.56.19.12.074.174.13.168.137-.012.027-.261-.183-.74-.22a1.436 1.436 0 00-.793.172c-.258.14-.556.41-.624.721-.022.156.119.226.278.185.152-.034.308-.118.451-.184a5.45 5.45 0 00.73-.434c.397-.28.611-.495.63-.478" fill="#334F55"/><path d="M371.026 264.642c-.002.014-.23-.046-.459-.324a1.308 1.308 0 01-.26-.565c-.028-.224-.073-.526.178-.758.147-.115.36-.031.434.084.09.109.13.238.158.348.059.224.078.433.078.607-.002.35-.075.556-.092.552-.023-.004.01-.214-.014-.548a2.811 2.811 0 00-.105-.574c-.043-.197-.205-.463-.372-.347-.154.128-.156.413-.129.612.034.21.117.391.21.525.187.272.387.365.373.388m8.862-10.137c.018.023-.275.23-.622.674a4.01 4.01 0 00-.823 2.003 4 4 0 00.376 2.132c.245.51.487.775.463.791-.006.007-.073-.053-.177-.175a3.274 3.274 0 01-.381-.567 3.843 3.843 0 01-.43-2.197 3.837 3.837 0 01.89-2.054c.188-.22.364-.376.492-.472.129-.098.206-.142.212-.135m-4.578-2.721c.03-.03.875.739 1.889 1.718s1.812 1.796 1.783 1.827c-.029.03-.874-.74-1.888-1.719-1.013-.979-1.812-1.797-1.783-1.826m2.049 8.644c.032.023-.443.691-1.148 1.415-.701.723-1.356 1.218-1.38 1.186-.028-.033.577-.574 1.273-1.292.697-.715 1.221-1.337 1.255-1.309" fill="#334F55"/><path d="M379.07 258.696c.043 0 .076.167.15.357.071.192.158.338.127.367-.028.029-.185-.093-.268-.313-.084-.22-.049-.413-.009-.411m-.165-1.456c.04 0 .076.148.078.331.003.183-.03.332-.07.332-.042 0-.078-.147-.08-.33-.002-.183.03-.331.072-.332m.552-1.299c.025.035-.092.152-.175.327-.087.172-.107.336-.15.339-.039.008-.092-.19.015-.405.104-.216.292-.297.31-.261m.483-.837c.038.016.033.112-.01.213-.045.102-.112.17-.15.154-.037-.017-.032-.112.011-.214.045-.101.111-.17.149-.153" fill="#334F55"/><path d="M335.793 271.52l.16-6.627 12.416.22-.132 9.698-.77.035c-3.43.13-17.446.417-19.723-.318-2.541-.82 8.05-3.008 8.05-3.008" fill="#2472FF"/><path d="M343.737 274.634a4.302 4.302 0 011.632-2.619c.842-.631 1.87-.954 2.917-.851l-.059 3.47h-4.49" fill="#132529"/><path d="M330.616 272.772s-3.716 1.001-3.265 1.619c.45.617 14.625.86 20.886.42l-.015-.277-16.536-.143s-.349-1.575-1.07-1.619" fill="#132529"/><path d="M348.417 274.53c0 .004-.074.01-.214.018l-.614.027c-.613.016-1.367.035-2.258.06a221.682 221.682 0 01-14.902-.246l-2.254-.133-.612-.046a1.197 1.197 0 01-.213-.027c0-.005.073-.006.214-.003.184.005.386.01.614.018l2.256.084c1.905.072 4.538.156 7.448.204 2.908.048 5.542.05 7.448.041l2.259-.01h.614c.14.003.214.007.214.012" fill="#334F55"/><path d="M331.686 274.584c-.047.005-.073-.535-.403-1.085-.321-.555-.781-.84-.755-.878.01-.036.538.207.885.802.352.59.31 1.17.273 1.16m3.694-1.795c-.035.021-.206-.195-.382-.483-.177-.288-.291-.54-.255-.561.035-.023.206.193.383.482.176.289.29.54.255.562m1.014-.515c-.028.03-.223-.104-.433-.299-.21-.196-.358-.379-.33-.41.029-.03.223.104.433.3.21.195.358.379.33.41m.655-1.161c0 .041-.29.073-.649.07-.358-.001-.648-.037-.648-.078 0-.042.292-.074.65-.071.357.002.648.037.647.08m.234-.824c.013.038-.306.174-.727.198-.421.026-.754-.073-.746-.112.008-.044.336-.014.737-.039.4-.021.723-.089.736-.047" fill="#334F55"/><path d="M334.978 271.698c0 .017-.306.048-.797-.02a4.64 4.64 0 01-.847-.202c-.154-.057-.316-.101-.482-.208a.428.428 0 01-.194-.251c-.031-.12.035-.254.126-.317.77-.382 1.526.06 1.803.46.152.203.22.401.251.536.03.137.025.215.017.216-.028.01-.049-.316-.352-.687a1.44 1.44 0 00-.674-.454c-.28-.088-.68-.118-.952.048-.128.091-.081.241.058.327.13.088.299.143.445.2.3.109.58.182.818.228.476.092.78.099.78.124" fill="#334F55"/><path d="M334.771 271.734c-.012.008-.126-.198-.082-.556a1.3 1.3 0 01.227-.58c.144-.174.329-.415.671-.394.185.026.271.239.24.372a.864.864 0 01-.141.354 2.43 2.43 0 01-.386.476c-.254.241-.453.33-.462.315-.014-.02.161-.14.386-.389a2.82 2.82 0 00.342-.472c.112-.167.193-.469-.007-.508-.2-.023-.407.172-.53.33a1.32 1.32 0 00-.236.514c-.066.324.004.532-.022.538m13.451-.606c-.004.028-.355-.04-.917.016a4.014 4.014 0 00-2.015.79 4.011 4.011 0 00-1.282 1.747c-.198.529-.222.886-.25.882-.01-.001-.013-.09.003-.251a3.25 3.25 0 01.148-.667 3.835 3.835 0 011.29-1.83 3.833 3.833 0 012.097-.777c.289-.014.524.004.683.03.16.025.245.05.243.06m-1.198-5.188c.042 0 .07 1.142.064 2.552-.007 1.409-.046 2.551-.087 2.55-.042 0-.07-1.142-.063-2.551.005-1.41.044-2.552.086-2.552m-4.828 7.458c.004.038-.807.157-1.816.148-1.009-.006-1.818-.138-1.813-.176.005-.044.815.02 1.815.026.998.009 1.81-.042 1.814.002" fill="#334F55"/><path d="M344.63 273.434c.03.031-.07.171-.156.356-.089.183-.134.349-.177.345-.04 0-.06-.197.04-.41.101-.212.266-.321.293-.29m.935-1.125c.03.029-.053.157-.183.284-.131.129-.26.208-.29.178-.029-.03.053-.156.184-.285.132-.128.26-.207.29-.178m1.321-.499c-.01.042-.175.038-.358.1-.184.056-.317.155-.348.126-.034-.023.074-.198.302-.27.228-.074.417.006.404.044m.938-.23c.014.04-.058.102-.161.14-.104.038-.2.037-.214-.002-.015-.039.058-.1.16-.14.105-.038.201-.037.215.002" fill="#334F55"/><path d="M342.45 129.479c-4.604 13.59-12.896 38.2-12.896 38.2-.585.355-2.77 1.511-3.44 1.649-.814.167-1.903.344-2.529.257-.775-.11-1.28.78-.771 1.275.508.495 2.637.846 5.05.12 2.416-.725.62 2.94-.171 4.147-.792 1.21-3.035 5.178-2.856 5.716.263.786 1.231.458 1.993-.767.771-1.242 3.055-4.788 3.388-4.602.657.366-3.302 6.683-3.302 6.683s-.91 1.108-.211 1.648c1.258.976 5.132-5.816 5.486-6.472.247-.457.575-.099.284.378-.3.49-3.672 6.04-2.652 6.674 1.057.656 3.414-4.906 4.388-5.936 1.103-1.168-2.218 4.633-1.255 5.331.359.26.662.405 2.328-2.955 1.059-2.134 2.655-6.82 3.714-10.07 3.537-7.097 13.674-29.012 17.024-43.929l-13.571 2.653" fill="#ECAF9C"/><path d="M344.892 96.305s9.853-2.852 11.794 12.225c1.217 9.447 3.988 32.258 5.049 43.989.1 1.102-.594.669-.513 1.583.095 1.06 1.038 1.922 1.039 2.68.004 2.42-2.766 2.374-2.766 2.374l-25.753 1.23s-2.387.05-2.396-2.035c-.007-1.585 1.033-2.287 1.109-3.276 1.095-14.102 1.076-49.226 2.664-54.052 1.514-4.604 2.487-4.698 9.773-4.718" fill="#2472FF"/><path d="M346.84 97.035c.018-.014.243.236.606.64.36.405.865.96 1.404 1.591.54.631.997 1.23 1.309 1.676.311.448.482.738.466.749-.019.013-.22-.257-.551-.686a44.75 44.75 0 00-1.339-1.641c-.537-.63-1.03-1.196-1.37-1.62-.344-.422-.54-.697-.524-.71" fill="#132529"/><path d="M347.976 96.776c.003.01-.143.078-.41.194-.352.145-.73.3-1.138.47-.967.385-2.311.895-3.812 1.415-1.5.52-2.872.953-3.87 1.247l-1.186.336c-.28.075-.438.111-.44.101-.004-.01.148-.065.424-.156l1.17-.383c.989-.32 2.354-.768 3.852-1.287 1.499-.52 2.847-1.013 3.823-1.373l1.156-.425c.274-.098.427-.149.43-.139" fill="#132529"/><path d="M337.221 97.78c.042 0 .075.614.075 1.373s-.033 1.373-.075 1.373c-.042 0-.075-.614-.075-1.373s.033-1.373.075-1.373" fill="#132529"/><path d="M354.848 101.69c0 .042-4.376.076-9.772.076-5.398 0-9.773-.034-9.773-.075 0-.041 4.375-.075 9.773-.075 5.396 0 9.772.034 9.772.075m1.264 3.219c0 .004-.076.006-.22.003a99.758 99.758 0 00-.632-.017l-2.32-.084-7.655-.24-7.66-.14c-.918-.013-1.694-.024-2.322-.031l-.631-.015a1.234 1.234 0 01-.22-.015c0-.005.076-.01.22-.015l.631-.014 2.322-.017a308.392 308.392 0 0115.32.38l2.318.133.63.045c.144.012.22.02.22.026m.3 2.838c0 .042-4.943.075-11.04.075-6.1 0-11.041-.033-11.041-.075 0-.041 4.942-.075 11.041-.075 6.097 0 11.04.034 11.04.075m.566 3.077c0 .041-5.124.075-11.444.075-6.322 0-11.444-.034-11.444-.075 0-.041 5.122-.075 11.444-.075 6.32 0 11.444.034 11.444.075m.521 3.379c0 .042-5.241.075-11.704.075-6.466 0-11.705-.033-11.705-.075 0-.042 5.24-.075 11.705-.075 6.463 0 11.704.033 11.704.075m.32 3.378c0 .042-5.313.076-11.864.076-6.554 0-11.865-.034-11.865-.076 0-.04 5.31-.075 11.865-.075 6.551 0 11.864.034 11.864.075m.412 3.62c0 .042-5.405.076-12.07.076-6.669 0-12.071-.034-12.071-.076 0-.042 5.402-.075 12.07-.075 6.666 0 12.071.033 12.071.075m.406 3.138c0 .04-5.495.075-12.273.075-6.78 0-12.274-.034-12.274-.075 0-.041 5.493-.075 12.274-.075 6.778 0 12.273.034 12.273.075m.522 3.444c0 .041-5.614.075-12.535.075-6.924 0-12.534-.034-12.534-.075 0-.042 5.61-.075 12.534-.075 6.921 0 12.534.033 12.534.075m.292 3.445c0 .041-5.677.075-12.68.075-7.005 0-12.68-.034-12.68-.075 0-.042 5.675-.076 12.68-.076 7.003 0 12.68.034 12.68.076m.397 3.443c0 .042-5.767.076-12.878.076-7.115 0-12.88-.034-12.88-.076 0-.04 5.765-.074 12.88-.074 7.111 0 12.878.033 12.878.074m.39 3.445c0 .042-5.854.075-13.073.075-7.222 0-13.074-.033-13.074-.075 0-.042 5.852-.075 13.074-.075 7.22 0 13.073.033 13.073.075m.38 3.444c0 .042-6.074.076-13.567.076-7.495 0-13.569-.034-13.569-.075 0-.042 6.074-.076 13.57-.076 7.492 0 13.566.034 13.566.076m.372 3.443c0 .042-6.271.076-14.005.076-7.735 0-14.003-.034-14.003-.076 0-.04 6.268-.075 14.003-.075 7.734 0 14.004.034 14.004.075m.355 3.445c0 .041-6.374.075-14.235.075-7.864 0-14.236-.034-14.236-.075 0-.041 6.372-.075 14.236-.075 7.861 0 14.235.034 14.235.075m.334 3.444c0 .042-6.45.075-14.402.075-7.956 0-14.403-.033-14.403-.075 0-.04 6.447-.075 14.403-.075 7.953 0 14.402.034 14.402.075m-.192 3.445c0 .04-6.5.016-14.516-.056-8.018-.072-14.516-.165-14.515-.206 0-.042 6.498-.017 14.517.056 8.015.071 14.514.164 14.514.206m.001 3.177c0 .042-6.737.141-15.045.222-8.311.08-15.046.112-15.047.072 0-.042 6.734-.142 15.046-.223 8.308-.08 15.046-.112 15.046-.071" fill="#D4D5CF"/><path d="M342.064 142.373c1.662.217 3.354-.24 4.712-1.223 1.357-.983 2.415-2.32 3.353-3.71a34.637 34.637 0 005.838-17.064c.089-1.366.242-7.046-.06-9.334-.85 6.54-2.853 13.648-4.535 17.633-2.162 5.127-4.224 8.832-7.856 13.047l-1.452.651" fill="#E0565F"/><path d="M342.882 142.426c-.272 0-.545-.017-.818-.053l1.452-.651c3.632-4.215 5.694-7.92 7.856-13.047 1.682-3.985 3.685-11.094 4.535-17.633.134 1.019.178 2.71.178 4.394 0 2.098-.069 4.183-.118 4.94a34.637 34.637 0 01-5.838 17.065c-.938 1.388-1.996 2.726-3.353 3.709a6.39 6.39 0 01-.777.486 6.625 6.625 0 01-3.117.79" fill="#0F4EC0"/><path d="M358.31 145.501s-.898 1.02-2.57 2.431a33.198 33.198 0 01-3.08 2.296 36.807 36.807 0 01-4.102 2.307 36.709 36.709 0 01-4.383 1.715c-1.383.424-2.65.737-3.728.932-2.152.401-3.508.45-3.508.45 0-.005.083-.02.243-.042.203-.026.432-.057.697-.09.606-.07 1.48-.21 2.548-.422a35.36 35.36 0 003.706-.96 38.147 38.147 0 004.36-1.719 38.1 38.1 0 004.09-2.287 35.289 35.289 0 003.09-2.261 32.22 32.22 0 001.938-1.707c.194-.182.363-.34.512-.482.119-.11.182-.165.187-.16m-7.071-16.292a.53.53 0 01-.145-.037l-.406-.13-1.482-.516-4.849-1.803a75.3 75.3 0 00-4.907-1.624l-1.508-.425-.41-.118a.548.548 0 01-.14-.05.573.573 0 01.147.021l.416.09c.363.08.883.21 1.524.38 1.28.342 3.031.886 4.93 1.585 1.897.699 3.596 1.373 4.834 1.844l1.465.56.396.158c.09.037.136.06.135.064" fill="#132529"/><path d="M351.239 129.21s.064-.196.2-.562l.585-1.605c.494-1.399 1.217-3.423 1.913-5.982.686-2.56 1.177-5.687 1.682-9.156.256-1.72.378-3.606-.23-5.412a7.35 7.35 0 00-1.456-2.467 11.069 11.069 0 00-1.047-1.044 4.405 4.405 0 00-1.226-.825c-.908-.411-1.942-.471-2.894-.296-.962.162-1.862.56-2.645 1.085-1.624 1.046-2.374 2.847-2.935 4.477l-2.945 8.844-1.995 5.96-.55 1.618c-.126.37-.2.561-.2.561s.054-.198.172-.57l.522-1.627 1.95-5.975 2.915-8.856c.287-.83.608-1.68 1.073-2.483a6.151 6.151 0 011.91-2.07c.8-.537 1.717-.945 2.702-1.113.976-.178 2.04-.119 2.981.307.47.205.9.51 1.265.85.374.335.736.681 1.06 1.06a7.494 7.494 0 011.481 2.516c.62 1.843.49 3.755.229 5.48-.513 3.47-1.015 6.597-1.716 9.164-.71 2.56-1.449 4.581-1.961 5.974a53.07 53.07 0 01-.84 2.146m6.103 41.345l.574 42a47.3 47.3 0 00.903 8.631c.776 3.875 2.147 8.929 4.39 12.061 3.407 4.757 15.4 18.205 15.4 18.205l-10.092 11.796s-21.405-17.048-22.787-32.791c-.702-7.997 0-55.816 0-55.816l11.612-4.086" fill="#132529"/><path d="M333.742 160.385l-.26 108.662h16.729l2.952-94.541s4.843-3.188 5.695-7.266c1.151-5.511.637-8.084.637-8.084l-25.753 1.23" fill="#132529"/><path fill="#334F55" d="M332.726 269.047h18.178v-2.622h-18.178zm47.451-18.209l-12.51 13.19-1.901-1.804 12.509-13.19 1.902 1.804"/><path d="M377.565 249.981a.621.621 0 01-.102.125l-.314.341-1.158 1.247c-.977 1.051-2.298 2.534-3.822 4.113l-3.961 3.982-1.213 1.192-.335.32a.618.618 0 01-.124.103.677.677 0 01.102-.125c.1-.106.203-.219.315-.34l1.18-1.226 3.928-4.01 3.852-4.082c.498-.52.907-.932 1.194-1.215l.334-.32a.696.696 0 01.124-.105" fill="#132529"/><path d="M346.49 159.817s-.015.093-.053.275c-.041.18-.115.447-.257.78a4.649 4.649 0 01-.71 1.13c-.335.412-.783.828-1.278 1.3-.482.482-1.048 1.007-1.525 1.68-.49.692-.448 1.65-.5 2.608l-.22 6.61c-.083 2.45-.173 5.133-.268 8.011-.082 2.88-.167 5.958-.258 9.196-.168 6.476-.416 13.596-.567 21.072l-.641 38.294-.305 15.86s-.01-.378-.002-1.1c.008-.742.02-1.801.037-3.155l.164-11.606.597-38.297c.15-7.476.403-14.595.579-21.072l.27-9.196.287-8.011.244-6.61c.055-.953.015-1.928.523-2.643.49-.684 1.057-1.202 1.544-1.682.499-.472.948-.882 1.286-1.287.338-.4.57-.786.715-1.114a4.85 4.85 0 00.27-.772c.042-.18.069-.27.069-.27m-9.998 1.305c-.034.023-.14-.104-.237-.282-.097-.18-.144-.337-.107-.353.04-.017.146.11.239.28.092.173.14.332.105.355m.955 1.077c-.026.032-.165-.057-.311-.198-.146-.142-.238-.278-.207-.306.032-.026.171.062.312.198.14.137.232.273.206.306m1.225.765c-.016.037-.176-.008-.355-.104-.18-.096-.307-.201-.284-.236.022-.035.181.011.355.103.173.092.3.198.284.237m1.387.387c-.005.041-.17.042-.368.003-.2-.04-.351-.106-.339-.146.011-.04.176-.04.369-.002.191.038.343.104.338.145m1.44-.052c.008.04-.148.095-.35.121-.201.032-.367.006-.368-.037 0-.04.157-.081.351-.112.193-.025.358-.013.367.027m1.352-.492c.02.036-.114.133-.298.217-.185.084-.347.12-.36.08-.014-.04.119-.137.298-.217.178-.08.339-.117.36-.08m1.159-.86c.03.03-.071.161-.225.293-.155.132-.3.212-.325.179-.023-.034.078-.166.227-.294.15-.127.294-.207.323-.178m.871-1.149c.037.02-.023.174-.133.344-.111.17-.228.288-.26.262-.033-.025.026-.18.133-.343.107-.165.223-.282.26-.263m.375-.903c.04.011.055.077.032.146-.023.069-.073.114-.112.1-.038-.015-.053-.08-.032-.147.023-.066.072-.11.112-.1m-4.442 6.236c-.04-.001-.069-.164-.063-.363.007-.2.047-.36.088-.358.041.001.07.164.063.363-.007.2-.046.36-.088.358m-.048 1.444c-.042-.002-.07-.164-.063-.364.007-.2.045-.36.087-.358.042.001.07.164.063.363-.007.2-.046.36-.087.359m-.047 1.444c-.042-.002-.07-.164-.064-.364.007-.199.046-.36.088-.359.04.002.07.165.063.364-.007.2-.046.36-.088.359m-.045 1.444c-.042-.002-.07-.164-.064-.364.007-.199.046-.36.087-.359.041.002.07.165.063.365-.006.199-.044.36-.086.358m-.046 1.445c-.04-.002-.07-.164-.063-.364.005-.2.044-.36.086-.359.042.002.07.164.065.364-.007.2-.046.36-.088.359m-.043 1.444c-.042-.001-.07-.164-.064-.363.005-.2.044-.36.086-.359.041 0 .07.164.064.363-.007.2-.044.36-.086.36m-.043 1.444c-.042-.001-.07-.163-.065-.363.006-.2.044-.36.086-.36.041.002.07.165.065.364-.006.2-.045.36-.086.36m-.042 1.445c-.042-.002-.071-.163-.065-.364.006-.199.044-.36.086-.359.041.001.07.164.065.364-.006.2-.045.36-.086.359m-.042 1.445c-.041 0-.07-.163-.065-.363.006-.2.045-.36.086-.36.042.002.07.165.065.364-.006.2-.044.36-.086.36m-.04 1.446c-.041-.002-.07-.164-.064-.364.004-.2.042-.361.084-.36.041.002.071.164.066.364-.006.2-.044.36-.086.36m-.039 1.446c-.042-.002-.07-.164-.065-.364.005-.2.043-.36.085-.36.041.001.07.165.065.364-.006.2-.044.36-.085.36m-.039 1.446c-.041-.001-.07-.163-.065-.363.005-.2.043-.362.084-.36.042 0 .071.164.066.363-.006.2-.042.361-.084.36m-.039 1.447c-.04-.001-.07-.164-.065-.364.005-.2.043-.36.085-.36.041.002.07.165.065.364-.004.2-.043.36-.085.36m-.036 1.447c-.042-.001-.071-.164-.066-.364.006-.2.042-.36.084-.36.042.002.072.164.067.363-.006.2-.044.362-.085.361m-.036 1.447c-.042-.002-.071-.165-.066-.364.005-.2.042-.36.084-.36.041.002.071.164.066.364-.005.2-.043.36-.084.36m-.035 1.447c-.042 0-.072-.164-.067-.363.005-.2.043-.362.084-.361.042.001.072.165.067.364-.005.2-.043.361-.084.36m-.035 1.448c-.042-.001-.072-.164-.067-.365.005-.199.043-.36.084-.36.042.001.071.164.066.364-.004.2-.041.361-.083.36m-.035 1.449c-.04-.001-.07-.165-.066-.365.004-.2.042-.361.084-.36.041.001.071.164.066.364-.004.2-.042.361-.084.36m-.033 1.448c-.041 0-.07-.164-.066-.363.004-.201.042-.362.084-.36.04 0 .07.162.066.363-.004.2-.042.36-.084.36m-.032 1.448c-.041-.001-.072-.164-.067-.364.004-.2.041-.36.083-.36.041.001.071.163.067.364-.004.2-.041.361-.083.36m-.033 1.447c-.041 0-.07-.163-.066-.362.004-.201.04-.362.083-.36.042 0 .071.162.067.362-.004.2-.042.362-.084.36m-.032 1.448c-.04 0-.07-.163-.066-.363.004-.2.041-.362.083-.36.041 0 .072.164.067.363-.004.201-.042.362-.084.36m-.03 1.45c-.042-.002-.071-.164-.067-.364.004-.2.04-.362.082-.36.042 0 .072.163.068.363-.004.2-.042.362-.083.36m-.03 1.449c-.042-.001-.073-.164-.068-.364.004-.2.041-.361.083-.36.041 0 .071.164.067.364-.004.2-.041.361-.082.36m-.031 1.449c-.042-.001-.072-.164-.068-.364.005-.2.042-.362.084-.36.04 0 .071.163.067.363-.004.2-.041.361-.083.36m-.029 1.45c-.042-.002-.072-.164-.068-.364.004-.2.04-.361.082-.36.042 0 .072.163.068.363-.003.2-.041.362-.082.36m-.03 1.449c-.041 0-.071-.164-.067-.363.004-.2.04-.362.082-.361.041.001.072.163.068.364-.004.2-.041.361-.083.36m-.029 1.449c-.04 0-.071-.164-.068-.363.005-.2.04-.362.083-.361.042 0 .072.163.068.364-.004.2-.04.361-.083.36m-.028 1.449c-.041 0-.072-.163-.068-.363.005-.2.04-.362.083-.361.041 0 .072.163.067.363-.003.2-.04.362-.082.36m-.028 1.449c-.041 0-.072-.162-.068-.362.003-.2.04-.362.082-.362.04.001.072.164.068.364-.003.2-.04.362-.082.36m-.028 1.45c-.041 0-.072-.163-.068-.363.003-.2.04-.362.082-.361.041 0 .072.163.069.364-.005.2-.041.36-.083.36m-.028 1.45c-.04-.002-.071-.164-.068-.364.003-.2.04-.362.082-.361.041.001.072.164.068.364-.003.2-.04.362-.082.36m-.027 1.451c-.042-.002-.072-.165-.069-.365.005-.2.041-.361.083-.36.04 0 .072.163.067.363-.003.2-.04.362-.081.361m-.027 1.449c-.042 0-.073-.164-.069-.363.004-.201.04-.362.083-.361.041 0 .071.163.068.364-.004.2-.04.36-.082.36m-.027 1.45c-.042-.001-.073-.164-.069-.364.004-.2.041-.362.082-.361.042 0 .073.163.069.364-.004.2-.04.362-.082.361m-.027 1.448c-.041 0-.072-.163-.069-.363.005-.2.04-.361.082-.361s.073.164.07.363c-.005.201-.042.362-.083.361m-.026 1.45c-.042-.001-.073-.164-.07-.364.005-.2.042-.362.082-.361.042 0 .073.164.07.364-.005.2-.042.361-.082.36m-.027 1.45c-.042 0-.073-.163-.068-.364.003-.2.04-.36.081-.36.042 0 .072.163.069.363-.004.2-.04.362-.082.361m-.027 1.45c-.041-.001-.072-.164-.068-.364.003-.2.04-.362.081-.361.042 0 .073.164.07.364-.005.2-.041.361-.083.36m-.026 1.45c-.041-.001-.073-.164-.069-.364.004-.2.04-.362.082-.36.04 0 .072.162.07.363-.005.2-.041.362-.083.361m-.027 1.45c-.041-.001-.072-.164-.069-.365.004-.2.04-.36.083-.36.04 0 .071.163.068.363-.003.2-.04.362-.082.362m-.027 1.449c-.04-.001-.072-.164-.068-.364.003-.2.04-.362.082-.36.041 0 .072.162.069.363-.005.2-.04.36-.083.36m-.026 1.449c-.042 0-.073-.163-.068-.363.003-.2.04-.362.081-.361.042 0 .073.164.069.364-.004.2-.04.36-.082.36m-.026 1.449c-.042 0-.073-.163-.07-.363.005-.2.041-.362.083-.361.041 0 .072.164.068.364-.003.2-.04.362-.081.36m-.027 1.45c-.042-.001-.072-.163-.069-.364.004-.2.04-.362.082-.361.042 0 .072.164.068.364-.003.2-.04.361-.081.36m-.027 1.45c-.042-.001-.072-.164-.069-.364.004-.2.04-.362.082-.361.042.001.072.164.069.364-.004.2-.04.361-.082.36m-.027 1.45c-.042-.001-.073-.164-.069-.364.004-.2.04-.362.082-.36.042 0 .073.162.069.363-.004.2-.041.361-.082.36m-.028 1.45c-.041 0-.071-.164-.068-.364.004-.2.04-.361.082-.36.042 0 .072.162.069.363-.004.2-.04.362-.083.36m-.027 1.449c-.041 0-.072-.164-.068-.363.003-.201.04-.362.081-.36.042 0 .073.162.07.363-.005.2-.041.36-.083.36m-.028 1.449c-.04-.002-.072-.164-.068-.364.003-.2.04-.36.082-.36.041 0 .072.163.069.362-.004.201-.042.362-.083.362m-.028 1.448c-.041 0-.071-.163-.069-.363.005-.2.042-.362.084-.362.04.001.071.164.067.365-.003.2-.04.36-.082.36m-.028 1.448c-.041 0-.072-.163-.069-.364.005-.199.041-.36.083-.36.042.001.072.164.068.364-.003.2-.04.361-.082.36m-.029 1.449c-.042-.002-.072-.163-.069-.364.005-.2.042-.361.083-.36.042 0 .072.163.068.363-.004.2-.04.362-.082.36m-.029 1.449c-.042-.001-.072-.164-.068-.364.004-.2.04-.361.083-.36.04 0 .071.164.067.363-.004.2-.04.361-.082.36m-.029 1.448c-.042 0-.073-.163-.068-.363.004-.2.04-.361.083-.36.04 0 .071.163.067.363-.004.2-.04.362-.082.36m-.031 1.449c-.041-.002-.071-.164-.068-.364.005-.2.042-.362.084-.36.041 0 .072.162.067.363-.004.2-.04.361-.083.36m-.03 1.448c-.042-.001-.072-.164-.067-.364.004-.2.04-.36.083-.36.04.001.071.163.067.364-.004.2-.041.361-.083.36m-.031 1.447c-.041 0-.072-.164-.067-.363.004-.2.041-.361.083-.36.04 0 .071.163.067.363-.004.2-.041.361-.083.36m-.031 1.447c-.042 0-.073-.164-.067-.363.004-.2.041-.36.083-.36.04 0 .071.163.067.363-.005.2-.041.361-.083.36m-.032 1.446c-.041 0-.072-.163-.067-.362.004-.2.042-.36.084-.36.04 0 .07.163.066.363-.004.2-.041.361-.083.36m-.032 1.446c-.042 0-.072-.163-.068-.363.005-.2.042-.361.084-.36.041.001.07.164.066.364-.003.2-.04.36-.083.36m-.033 1.446c-.041-.001-.071-.164-.066-.363.003-.2.04-.361.083-.36.041.001.071.164.067.363-.004.2-.042.361-.084.36m-.034 1.446c-.04 0-.07-.163-.066-.363.005-.2.042-.36.084-.36.041.001.071.164.066.364-.004.2-.042.36-.084.36m-.034 1.445c-.042 0-.071-.163-.066-.363.004-.2.042-.36.084-.36.04.002.071.164.066.363-.005.2-.043.362-.084.36m-.035 1.446c-.042-.001-.072-.163-.067-.363.005-.2.043-.361.084-.36.042.001.072.164.067.364-.005.2-.043.36-.084.36m-.036 1.445c-.042-.001-.072-.163-.067-.363.005-.2.044-.36.085-.36.042.001.071.164.066.363-.005.2-.042.36-.084.36m-.037 1.445c-.041 0-.07-.163-.066-.364.005-.199.043-.36.085-.359.04.001.07.164.065.364-.004.2-.042.36-.084.359m-.038 1.445c-.04-.001-.07-.164-.065-.364.005-.198.043-.36.085-.359.041.002.07.164.066.364-.005.199-.044.36-.086.359m-.037 1.444c-.042 0-.072-.163-.066-.363.005-.199.043-.36.085-.359.041.001.071.164.065.363-.005.2-.043.36-.084.36m-.038 1.377c-.042-.002-.071-.15-.066-.33.005-.18.043-.327.084-.325.041 0 .071.148.066.33-.005.18-.042.325-.084.324" fill="#334F55"/><path d="M337.39 100.122c-.075-1.452-.473-7.845-.473-7.845s-4.524-.277-4.994-4.73c-.472-4.454-.653-14.764-.653-14.764a15.707 15.707 0 0115.791.443l1.126.698.12 5.236-.255 4.708-.195 12.817-10.438 3.454-.03-.017" fill="#ECAF9C"/><path d="M331.958 79.936a.572.572 0 101.143-.05.572.572 0 00-1.143.05" fill="#132529"/><path d="M331.917 79.736c.076.07.483-.307 1.096-.367.614-.069 1.09.216 1.15.13.03-.038-.052-.17-.261-.3a1.502 1.502 0 00-.928-.2c-.382.04-.692.22-.865.388-.177.17-.23.318-.192.35m7.055-.552a.573.573 0 10.688.916.573.573 0 00-.688-.916" fill="#132529"/><path d="M338.738 79.434c.077.071.483-.307 1.097-.367.613-.069 1.09.216 1.15.13.03-.038-.053-.17-.262-.3a1.497 1.497 0 00-.928-.2c-.381.04-.692.22-.864.39-.177.17-.23.316-.193.347m-1.991 5.296c0 .045-.386.088-1.01.122-.129.007-.428.04-.57-.237-.105-.252-.015-.477.028-.669l.344-1.3c.505-1.84.985-3.312 1.071-3.287.087.023-.252 1.534-.757 3.374l-.368 1.293c-.063.199-.11.378-.07.478.024.093.159.115.32.116.625.027 1.012.065 1.012.11" fill="#132529"/><path d="M338.806 85.222c.604-.44-1.674 1.1-2.93 1.156 0 0 .824 1.08 2.066.49 1.288-.613.864-1.646.864-1.646" fill="#FFFFFE"/><path d="M336.917 92.362s3.01-.1 5.828-2.26c0 0-1.196 3.338-5.683 3.351l-.145-1.09" fill="#E6816F"/><path d="M345.841 70.164c-1.29-.987-2.603-1.985-4.112-2.587-1.51-.601-3.269-.766-4.738-.072-.675.319-1.268.805-1.964 1.077-1.464.569-3.266.146-4.545 1.057-1.172.834-1.417 2.61-.739 3.879.678 1.268 2.086 2.03 3.512 2.213 1.427.182 2.873-.146 4.23-.62.798-.278 1.67-.608 2.458-.305.752.29 1.272 1.118 2.075 1.188.7.062 1.526-.456 2.036.027.21.198.27.501.321.784.277 1.535 1.183 4.64 1.46 6.176 1.007.439 1.481-.916 2.58-.94.18-3.398 1.64-6.81.786-10.102-.211-.812-.596-1.63-1.297-2.092-.701-.462-1.773-.424-2.266.255" fill="#132529"/><path d="M346.528 78.48c.083-.053 2.988-1.123 3.509 2.476.52 3.6-3.288 2.935-3.309 2.832-.02-.102-.2-5.307-.2-5.307" fill="#ECAF9C"/><path d="M347.648 82.366c.014-.014.07.035.183.068.11.032.291.04.47-.058.36-.194.592-.844.516-1.495a2.094 2.094 0 00-.304-.873c-.15-.248-.346-.407-.542-.413a.323.323 0 00-.346.225c-.033.108 0 .176-.018.185-.01.01-.086-.049-.08-.202a.405.405 0 01.11-.246.477.477 0 01.334-.141c.28-.021.568.198.736.463.184.264.32.602.362.972.081.728-.192 1.46-.69 1.686a.678.678 0 01-.587-.012c-.125-.073-.155-.151-.144-.16" fill="#E6816F"/><path d="M345.07 67.757c.1-.023.318.547.486 1.274.168.727.221 1.335.121 1.359-.102.023-.32-.548-.488-1.274-.167-.727-.221-1.335-.12-1.36" fill="#132529"/><path d="M346.653 67.932c.096.04-.066.624-.36 1.303-.293.678-.609 1.195-.704 1.154-.095-.042.065-.625.36-1.304.294-.678.609-1.195.704-1.153" fill="#132529"/><path d="M337.93 124.683c-.45 1.43-.829 2.352-1.277 2.842-2.05 2.24-19.79-17.038-19.79-17.038-.088-.668-.275-3.098-.135-3.758.17-.8.438-1.855.765-2.386.403-.658-.203-1.465-.851-1.2-.65.266-1.806 2.051-2.102 4.52-.295 2.467-2.904-.598-3.687-1.789-.784-1.191-3.493-4.78-4.05-4.829-.817-.072-.901.931-.09 2.102.82 1.186 3.13 4.646 2.83 4.873-.59.45-4.75-5.613-4.75-5.613s-.645-1.259-1.409-.84c-1.379.753 3.243 6.926 3.698 7.505.317.403-.137.558-.454.108-.326-.463-4.023-5.696-5-5.023-1.01.697 3.098 5.016 3.647 6.3.622 1.458-3.322-3.826-4.334-3.231-.376.222-.627.44 1.758 3.267 1.516 1.797 5.13 5.082 7.655 7.319 5.034 5.99 22.459 25.918 30.607 24.8 1.785-.246 3.448-1.108 4.477-2.8 2.344-3.857 4.128-6.968 5.538-10.696l-13.046-4.433" fill="#ECAF9C"/><path d="M146.182 270.167l-.16-6.626-12.415.221.132 9.697.77.036c3.43.13 17.446.416 19.723-.32 2.541-.82-8.05-3.008-8.05-3.008" fill="#2472FF"/><path d="M138.185 273.3a4.306 4.306 0 00-1.631-2.62c-.842-.631-1.87-.952-2.918-.85l.06 3.47h4.489" fill="#132529"/><path d="M151.36 271.42s3.716 1.001 3.265 1.619c-.45.616-14.625.86-20.886.42l.015-.278 16.536-.142s.348-1.576 1.07-1.619" fill="#132529"/><path d="M133.559 273.177c0-.005.073-.009.214-.01.185-.002.386-.002.614-.003l2.259.01c1.906.01 4.54.007 7.448-.04 2.91-.048 5.542-.133 7.447-.203l2.257-.085c.228-.007.43-.014.614-.018.14-.003.214-.001.214.003 0 .005-.073.014-.212.027-.184.013-.386.03-.613.046l-2.255.133c-1.904.098-4.538.2-7.45.247-2.91.048-5.545.033-7.452-.003l-2.258-.058-.613-.026a1.031 1.031 0 01-.214-.02" fill="#334F55"/><path d="M150.29 273.231c-.037.01-.08-.57.273-1.16.346-.595.875-.838.885-.801.026.037-.434.321-.755.877-.33.55-.357 1.09-.403 1.084m-3.695-1.795c-.036-.022.079-.273.254-.562.177-.288.349-.505.384-.483.035.022-.079.273-.255.562-.176.288-.347.504-.383.483m-1.015-.514c-.028-.03.12-.214.33-.41.211-.196.405-.33.433-.3.028.03-.12.214-.33.41-.21.196-.404.33-.433.3m-.655-1.162c0-.041.29-.077.648-.079.358-.002.65.03.65.072 0 .041-.29.077-.649.08-.358.001-.649-.031-.649-.073m-.233-.822c.013-.042.336.026.736.048.4.024.728-.005.736.037.009.04-.324.138-.745.113-.421-.023-.74-.16-.727-.198" fill="#334F55"/><path d="M146.998 270.345c-.001-.024.303-.03.779-.123.238-.047.518-.119.819-.228.145-.058.314-.113.445-.2.139-.086.186-.235.057-.327-.27-.166-.672-.137-.951-.049a1.44 1.44 0 00-.674.455c-.303.372-.324.697-.352.687-.009-.001-.013-.079.017-.216.03-.135.099-.333.251-.537.276-.399 1.032-.84 1.802-.459.09.064.157.197.126.317a.431.431 0 01-.193.251c-.166.107-.328.15-.483.209-.31.105-.6.168-.846.202-.491.067-.798.035-.797.018" fill="#334F55"/><path d="M147.205 270.381c-.027-.005.044-.214-.022-.537a1.301 1.301 0 00-.235-.514c-.125-.158-.332-.354-.531-.33-.2.04-.12.34-.007.507.109.19.23.35.342.473.225.25.4.37.386.39-.009.015-.208-.075-.463-.315a2.428 2.428 0 01-.385-.476.878.878 0 01-.141-.355c-.032-.134.055-.345.24-.372.341-.02.527.22.67.395.138.195.206.403.228.579.044.358-.07.564-.082.555m-13.451-.605c-.002-.01.084-.035.243-.06.16-.027.393-.046.682-.03a3.833 3.833 0 012.099.778 3.842 3.842 0 011.29 1.829c.089.276.13.506.147.667.016.16.013.25.003.251-.027.004-.052-.353-.251-.883a4.004 4.004 0 00-1.281-1.745 4.018 4.018 0 00-2.015-.791c-.562-.056-.914.011-.917-.016m1.198-5.189c.041 0 .08 1.142.086 2.551.007 1.41-.022 2.553-.063 2.553-.042 0-.08-1.142-.087-2.552-.007-1.41.022-2.552.064-2.552m4.828 7.458c.004-.044.815.007 1.814-.002 1-.007 1.81-.07 1.815-.026.005.038-.804.17-1.814.176-1.009.009-1.82-.11-1.815-.148" fill="#334F55"/><path d="M137.347 272.083c.026-.031.19.078.29.29.102.213.082.409.042.41-.043.003-.089-.162-.177-.345-.086-.185-.185-.325-.155-.355m-.937-1.126c.029-.03.158.05.289.179.13.127.213.255.184.284-.03.03-.159-.05-.289-.178-.131-.127-.213-.255-.184-.285m-1.321-.499c-.013-.038.176-.119.404-.044.228.071.335.247.302.27-.031.029-.163-.07-.349-.127-.183-.062-.348-.056-.357-.1m-.939-.229c.015-.039.11-.04.214-.001.104.038.177.1.162.14-.014.038-.11.039-.214 0-.103-.037-.176-.1-.162-.139" fill="#334F55"/><path d="M189.667 84.243s10.597-10.945 11.559-10.457c.962.488-3.887 4.94-3.244 5.516.643.578 5.749 4.461-2.472 10.614l-5.843-5.673" fill="#ECAF9C"/><path d="M198.788 81.071c.01.006-.052.12-.17.323l-.513.847c-.248.4-.507.814-.777 1.247-.152.23-.334.487-.623.642-.286.145-.697.152-.949-.137-.246-.317-.082-.708.063-.955.16-.264.32-.5.469-.734l.804-1.23.552-.822c.133-.192.211-.295.22-.29.01.006-.052.12-.17.322l-.513.847-.776 1.247-.458.733c-.142.244-.255.566-.074.787.176.213.53.223.764.1.25-.13.424-.361.575-.586l.804-1.228.552-.822c.133-.193.211-.296.22-.29" fill="#E6816F"/><path d="M199.328 82.271c.008.002 0 .114-.042.312a4.134 4.134 0 01-.271.814c-.15.332-.37.711-.683 1.079-.153.183-.339.376-.584.5-.226.134-.604.178-.828-.077-.211-.243-.207-.58-.107-.833.099-.258.264-.459.397-.65.272-.386.49-.755.68-1.06.19-.307.35-.55.47-.713.12-.163.194-.247.202-.242.01.007-.05.102-.153.274l-.427.736c-.178.311-.388.687-.658 1.083-.135.199-.288.394-.373.624-.088.22-.077.5.081.68.162.184.438.163.65.047.22-.11.391-.282.545-.46a4.81 4.81 0 00.692-1.033c.313-.64.38-1.088.409-1.08" fill="#E6816F"/><path d="M192.943 81.987l3.88-.262a.55.55 0 01.213.015c.206.073.238.354.19.567-.15.661-.72 1.163-1.349 1.417-.629.253-1.32.297-1.996.338l-1.86.114" fill="#ECAF9C"/><path d="M192.02 84.176c0-.01.149-.03.418-.055l1.141-.094c.481-.04 1.06-.057 1.676-.188.607-.129 1.28-.434 1.676-1.036.18-.286.33-.676.174-.923-.073-.117-.24-.083-.412-.074l-.49.031-1.695.098c-.406.02-.783.036-1.144.053-.27.01-.42.01-.421 0 0-.01.148-.031.417-.058l1.14-.1 1.694-.132.49-.035c.084-.004.163-.016.262-.014a.358.358 0 01.276.143c.123.18.113.39.065.573a1.756 1.756 0 01-.23.52c-.428.651-1.146.964-1.773 1.089-.637.129-1.217.131-1.698.16l-1.144.045c-.27.008-.42.007-.422-.003m7.963-.836c.01.007-.032.085-.09.232a5.9 5.9 0 00-.196.64c-.075.273-.157.614-.363.95a1.364 1.364 0 01-.431.445.522.522 0 01-.347.084.462.462 0 01-.31-.21c-.145-.212-.112-.48-.042-.676.072-.203.16-.375.235-.55l.417-.911c.24-.518.399-.834.418-.825.019.009-.105.339-.321.868l-.387.924c-.123.337-.409.75-.194 1.087.103.167.295.188.456.082a1.25 1.25 0 00.39-.393c.196-.307.29-.634.377-.904.16-.553.368-.858.388-.843" fill="#E6816F"/><path d="M195.069 87.277c-.044-.013.16-.734.215-1.65.062-.914-.05-1.656-.005-1.663.036-.01.218.737.155 1.674-.056.936-.33 1.654-.365 1.64" fill="#E6816F"/><path d="M144.696 80.596c-.027 2.806 1.524 5.575 3.93 7.018.647.389 1.353.689 1.946 1.157.593.469 1.076 1.161 1.045 1.916-.048 1.18-1.244 1.93-2.295 2.468 1.155 1.082 1.167 3.147.026 4.243-1.141 1.096-3.204 1.002-4.239-.196-.058 2.213-1.827 4.174-3.956 4.78-2.13.608-4.488-.002-6.29-1.289-1.803-1.285-3.096-3.182-4.005-5.201" fill="#132529"/><path d="M139.332 101.253c-.192-1.118.262-5.813.262-5.813s4.286-.454 4.546-4.704c.26-4.25 0-14.052 0-14.052l-7.806-3.816-8.588 6.506 1.301 21.25 10.285.629" fill="#ECAF9C"/><path d="M143.287 83.829a.544.544 0 11-1.087 0 .544.544 0 011.087 0m.527-.593c-.07.07-.472-.271-1.058-.303-.585-.04-1.025.25-1.086.172-.03-.035.042-.164.235-.296.189-.132.508-.252.873-.23.365.023.667.18.839.334.175.154.23.292.197.323m-6.83.593a.544.544 0 11-1.09-.001.544.544 0 011.09 0m.337-.592c-.07.07-.472-.271-1.057-.303-.586-.04-1.026.25-1.086.172-.03-.035.042-.164.234-.296.19-.132.508-.252.873-.23.365.023.668.18.839.334.175.154.231.292.197.323m2.113 4.909c0-.031.363-.073.954-.115.147-.008.3-.027.334-.137.044-.113-.013-.286-.079-.47l-.401-1.207a67.64 67.64 0 01-.683-2.207c-.163-.569-.25-.926-.22-.935.03-.01.17.33.372.885.202.557.466 1.33.745 2.188l.385 1.212c.052.18.141.385.053.608-.117.24-.375.22-.5.222-.592.002-.959-.013-.96-.044" fill="#132529"/><path d="M137.5 88.737c-.593-.393 1.636.975 2.831.975 0 0-.737 1.06-1.942.551-1.25-.528-.89-1.526-.89-1.526" fill="#FFFFFE"/><path d="M139.594 95.44s-2.862.032-5.631-1.901c0 0 1.276 3.12 5.538 2.944l.093-1.043" fill="#E6816F"/><path d="M142.35 73.562c-4.214-4.38-7.106-3.47-8.759-3.47-1.172 0-5.961.96-9.207 5.323v-.004c-1.177 1.224-2.854 5.206-3.046 6.612-.193 1.406.048 2.833.039 4.253-.01 1.419-.335 2.947-1.397 3.889-.673.596-1.618.939-2.022 1.742-.473.938.059 2.144.934 2.725.875.58 1.985.667 3.035.624-.246 2.095 1.38 4.235 3.464 4.56 1.072.168 2.173-.16 3.047-.799.707.69 1.458 1.344 2.262 1.949.176-6.186.04-12.38-.39-18.553 2.837-.504 7.923-2.033 8.808-6.577 1.133 2.588 2.852 3.998 5.137 5.957 0 0 2.31-3.851-1.905-8.231" fill="#132529"/><path d="M130.622 80.77c.002-.056.671-.054 1.738.005 1.054.038 2.568.153 4.033-.472.725-.307 1.309-.8 1.682-1.364.377-.564.57-1.165.674-1.675.198-1.03.101-1.7.169-1.705.033-.009.231.656.093 1.75a4.576 4.576 0 01-.645 1.82c-.391.628-1.04 1.19-1.823 1.52-1.585.67-3.155.493-4.204.391-1.066-.128-1.718-.221-1.717-.27m-11.068 10.407c.004-.038.27.05.695-.1.407-.146.99-.594 1.152-1.378.183-.785-.076-1.753-.517-2.752-.211-.508-.455-1.047-.604-1.654a5.626 5.626 0 01-.118-1.913c.136-1.314.657-2.481 1.267-3.423.616-.944 1.315-1.68 1.92-2.264a23.704 23.704 0 011.493-1.31c.366-.295.577-.446.594-.426.043.046-.735.737-1.9 1.925-.573.6-1.236 1.34-1.814 2.261-.573.918-1.059 2.04-1.186 3.275a5.391 5.391 0 00.103 1.79c.133.565.36 1.093.565 1.608.429 1.016.695 2.077.456 2.945-.224.883-.907 1.34-1.367 1.456a1.27 1.27 0 01-.557.026c-.125-.025-.185-.055-.182-.066m30.875-6.075c.014-.01.138.156.133.511-.004.342-.188.879-.725 1.244-.539.368-1.387.395-2.13.028-.76-.367-1.344-1.096-1.799-1.88a11.533 11.533 0 01-1.49-4.392c-.145-1.184-.069-1.921-.027-1.92.062-.002.08.73.29 1.878.206 1.145.648 2.717 1.55 4.243.441.762.977 1.426 1.63 1.76.648.34 1.374.337 1.835.058.47-.28.676-.733.72-1.033.048-.31-.02-.488.013-.497m-6.577 66.843s14.483 47.01 13.571 62.192c-.912 15.183-11.518 52.879-11.518 52.879l-2.053-115.07" fill="#132529"/><path d="M123.4 143.939c-.323-.088-6.675 9.244-6.886 17.268-.02.764.017 1.569.089 2.36.253 2.809.96 5.557 2 8.18 5.37 13.56 10.907 29.647 10.998 33.307.282 11.288 2.484 63.177 2.484 63.177l15.61-1.101-.514-62.072-3.803-61.633-19.978.514" fill="#132529"/><path d="M131.926 143.67c.095-.024.135 1.735.135 4.88.031 3.149-.148 7.708.06 13.333.062 1.407.11 2.88.235 4.412.092 1.534.238 3.125.406 4.77a193.38 193.38 0 001.401 10.473c.583 3.677 1.249 7.529 1.811 11.542a146.96 146.96 0 011.24 12.482c.258 4.294.2 8.494.278 12.544.062 4.05.155 7.958.262 11.68.22 7.442.484 14.142.7 19.77l.49 13.328.112 3.625c.023.828.026 1.264.026 1.264l-.734-18.213c-.23-5.626-.504-12.327-.732-19.771-.112-3.722-.208-7.63-.271-11.681-.08-4.052-.024-8.25-.282-12.538a147.15 147.15 0 00-1.235-12.47c-.56-4.01-1.222-7.861-1.802-11.54a191.24 191.24 0 01-1.388-10.481 115.53 115.53 0 01-.398-4.776c-.122-1.533-.166-3.008-.225-4.415-.195-5.633 0-10.19-.012-13.339.01-1.574.008-2.797-.004-3.625-.012-.826-.035-1.272-.073-1.254" fill="#334F55"/><path fill="#334F55" d="M132.002 268.36h15.693v-2.364h-15.693zm.985-124.212c-.04.001-.08-.16-.085-.36-.006-.199.023-.361.064-.363.042 0 .08.16.086.36.006.199-.023.361-.065.363m.043 1.444c-.042.001-.08-.16-.086-.36-.006-.199.023-.361.065-.362.041-.001.08.158.085.358.007.2-.022.362-.064.364m.043 1.444c-.042.001-.08-.16-.086-.36-.006-.199.023-.361.064-.362.042-.001.08.16.086.358.006.2-.023.362-.064.364m.041 1.444c-.04.001-.08-.16-.085-.358-.006-.2.023-.363.064-.364.042-.001.08.16.086.359.006.199-.023.362-.065.363m.042 1.444c-.04.001-.08-.16-.085-.358-.006-.2.023-.362.064-.364.042-.001.08.16.086.36.006.198-.023.361-.065.362m.043 1.445c-.042 0-.08-.16-.086-.36-.006-.2.023-.361.065-.363.041-.001.08.16.085.36.006.198-.023.361-.064.363m.041 1.444c-.04 0-.079-.16-.085-.36-.006-.2.024-.361.065-.363.041-.001.08.16.086.36.006.198-.023.361-.065.363m.043 1.444c-.042.001-.08-.16-.086-.36-.006-.2.023-.361.064-.362.042-.001.08.158.086.359.006.199-.023.362-.064.363m.041 1.444c-.04.001-.08-.16-.086-.359-.005-.2.024-.362.065-.363.042-.001.08.16.086.359.006.2-.023.362-.065.363m.043 1.444c-.042.002-.08-.16-.086-.359-.006-.2.023-.362.064-.363.042-.001.08.16.086.359.006.2-.023.362-.064.363m.042 1.445c-.042 0-.08-.16-.086-.36-.006-.2.023-.362.065-.362.041-.002.08.16.085.358.006.2-.023.362-.064.363m.008 1.448c-.042 0-.077-.162-.078-.361-.002-.2.032-.362.073-.363.041 0 .076.161.077.362.002.2-.03.362-.072.362m.019 1.448c-.042 0-.078-.162-.081-.36-.003-.201.028-.364.07-.364.041 0 .077.16.08.36.004.2-.027.363-.07.364m.034 1.447c-.042.001-.08-.16-.085-.36-.005-.2.025-.362.066-.364.042 0 .08.16.085.36.005.2-.025.363-.067.364m.048 1.446c-.042.001-.081-.16-.088-.36-.007-.2.02-.362.063-.363.04-.002.08.159.087.359.007.2-.021.362-.062.364m.062 1.445c-.042.002-.083-.158-.092-.358-.01-.2.018-.363.059-.364.04-.002.083.158.092.358.008.199-.018.362-.059.364m.077 1.445c-.04.002-.084-.157-.095-.357-.012-.2.013-.364.054-.365.042-.002.085.156.096.357.011.198-.014.362-.055.365m.094 1.442c-.042.004-.086-.155-.1-.355-.013-.2.01-.364.051-.365.041-.003.086.156.099.355.014.199-.01.363-.05.366m.109 1.442c-.042.003-.088-.156-.104-.356-.016-.198.005-.362.047-.365.041-.003.088.155.104.354.015.2-.006.363-.047.367m.125 1.439c-.04.005-.09-.154-.107-.352-.018-.2.001-.363.042-.367.042-.004.09.154.107.352.018.2 0 .364-.042.367m.142 1.438c-.042.005-.091-.152-.111-.351-.02-.2-.004-.363.038-.367.041-.004.09.153.111.352.02.198.003.362-.038.367m.157 1.436c-.04.005-.093-.153-.115-.35-.023-.198-.007-.363.034-.368.042-.005.093.152.116.35.022.199.007.363-.035.368m.173 1.433c-.041.006-.094-.15-.118-.35-.025-.198-.011-.362.03-.367.041-.005.094.152.119.35.024.197.01.362-.031.367m.188 1.431c-.041.005-.096-.15-.122-.347-.027-.198-.015-.362.026-.368.042-.006.097.15.123.347.026.198.014.362-.027.368m.201 1.426c-.04.007-.098-.149-.125-.346-.03-.196-.018-.36.023-.367.041-.005.097.15.125.346.028.197.018.361-.023.367m.213 1.425c-.041.006-.099-.148-.129-.346-.03-.196-.02-.361.021-.368.04-.006.098.149.128.346.03.197.02.362-.02.368m.224 1.426c-.041.007-.1-.148-.131-.344-.031-.197-.023-.361.018-.369.041-.006.1.149.13.345.032.197.024.361-.017.368m.232 1.424c-.04.008-.1-.146-.133-.344-.032-.196-.025-.36.016-.368.04-.006.1.148.133.345.032.195.025.36-.016.367m.239 1.423c-.042.006-.102-.147-.135-.343-.033-.197-.026-.362.015-.368.04-.007.1.147.134.343.033.196.026.361-.014.368m.24 1.421c-.04.007-.1-.147-.134-.343-.033-.196-.028-.36.014-.367.04-.008.1.146.134.343.033.195.027.36-.014.367m.242 1.42c-.04.007-.1-.146-.135-.342-.033-.196-.027-.361.014-.367.041-.008.102.145.135.341.033.197.027.361-.014.368m.239 1.421c-.04.006-.1-.147-.133-.343-.034-.196-.027-.36.014-.367.041-.007.101.146.134.342.033.197.027.36-.015.368m.236 1.421c-.042.006-.101-.148-.134-.344-.032-.196-.025-.36.016-.368.041-.005.1.148.133.344.032.196.025.36-.016.368m.227 1.422c-.041.005-.1-.149-.13-.344-.032-.198-.024-.362.017-.368.041-.007.1.147.131.344.031.196.023.361-.018.368m.217 1.423c-.04.006-.099-.148-.128-.345-.03-.197-.02-.361.02-.367.042-.006.099.148.129.344.03.197.02.361-.021.368m.207 1.426c-.043.005-.098-.15-.126-.347-.028-.197-.018-.361.023-.366.042-.006.098.148.125.345.029.197.018.361-.023.368m.192 1.427c-.04.005-.096-.15-.122-.347-.026-.198-.013-.362.028-.367.041-.005.096.15.122.347.026.197.014.362-.028.367m.179 1.431c-.041.005-.095-.151-.119-.35-.023-.197-.01-.36.031-.366.042-.005.095.151.119.35.024.196.01.361-.031.366m.162 1.433c-.04.004-.092-.153-.114-.35-.022-.199-.006-.363.035-.367.041-.005.092.152.115.35.022.198.006.362-.036.367m.148 1.435c-.042.003-.091-.154-.111-.352-.02-.198-.003-.362.039-.367.041-.003.09.154.11.353.02.198.003.362-.038.366m.13 1.437c-.041.004-.09-.155-.107-.353-.017-.198.002-.362.043-.366.041-.003.09.155.107.353.018.198-.002.362-.043.366m.113 1.439c-.04.003-.087-.155-.102-.354-.015-.2.006-.363.047-.365.042-.004.088.155.103.353.015.2-.006.363-.048.366m.097 1.44c-.04.003-.084-.156-.097-.354-.013-.199.01-.363.052-.366.04-.003.085.157.098.356.013.2-.01.362-.052.364m.081 1.437c-.041.002-.084-.156-.094-.355-.011-.198.014-.361.055-.363.042-.003.084.156.095.355.01.199-.014.361-.056.363m.065 1.439c-.041.003-.082-.158-.09-.357-.009-.198.018-.36.06-.362.041-.002.082.157.09.357.01.198-.018.36-.06.362m.05 1.443c-.04 0-.08-.16-.086-.359-.007-.2.022-.361.063-.363.042-.001.08.159.088.359.005.198-.023.36-.065.362m.036 1.444c-.042 0-.078-.16-.083-.36-.005-.2.026-.361.067-.362.042-.001.079.159.084.359.004.2-.026.362-.068.363m.021 1.444c-.042 0-.077-.16-.08-.36-.002-.2.03-.362.072-.362.04 0 .076.16.08.36.001.2-.03.362-.072.362m.01 1.447c-.04 0-.075-.161-.077-.36-.001-.2.031-.362.073-.363.041 0 .076.161.077.361.002.2-.03.362-.073.362m.013 1.444c-.041.001-.076-.16-.078-.36-.002-.2.03-.361.072-.362.041 0 .077.16.079.36.001.2-.03.362-.073.362m.016 1.445c-.04.001-.076-.16-.078-.36-.003-.2.029-.361.07-.362.042 0 .078.16.08.36.002.2-.03.362-.072.362m.02 1.445c-.041 0-.077-.161-.08-.36-.002-.2.029-.362.07-.362.042-.001.078.16.08.36.003.199-.028.361-.07.362m.023 1.445c-.042 0-.078-.161-.082-.36-.003-.2.029-.362.07-.363.042 0 .078.16.081.36.003.2-.028.362-.069.363m.025 1.444c-.04 0-.078-.16-.081-.36-.004-.2.027-.362.068-.362.042-.001.078.16.082.36.004.199-.027.361-.069.362m.029 1.445c-.041 0-.079-.16-.083-.36-.004-.2.027-.362.069-.363.04 0 .078.16.082.36.004.199-.027.362-.068.363m.031 1.444c-.041.001-.079-.16-.083-.36-.004-.2.026-.361.067-.362.042-.001.08.16.083.36.005.199-.025.361-.067.362m.035 1.444c-.042.001-.08-.16-.085-.36-.004-.199.026-.361.067-.362.042 0 .08.16.084.36.005.199-.025.361-.066.363m.036 1.444c-.042.001-.08-.16-.085-.36-.005-.2.024-.361.066-.363.042 0 .08.16.085.36.005.199-.025.362-.066.363m.039 1.444c-.042.001-.08-.16-.085-.36-.006-.199.024-.361.065-.362.042-.001.08.16.085.36.005.198-.024.361-.065.362m.04 1.445c-.04 0-.08-.16-.085-.36-.006-.2.023-.361.065-.363.041-.001.08.16.085.36.006.198-.023.361-.065.363m.044 1.444c-.042 0-.081-.16-.087-.36-.006-.2.023-.361.065-.363.041-.001.08.16.086.36.006.198-.023.361-.064.363m.045 1.444c-.042.001-.081-.16-.087-.36-.007-.199.022-.361.064-.363.041-.001.08.16.086.36.007.198-.022.361-.063.363m.046 1.444c-.041.001-.08-.16-.087-.36-.006-.199.022-.361.064-.363.04-.001.08.16.086.359.007.2-.021.362-.063.364m.048 1.444c-.04 0-.08-.16-.087-.36-.007-.199.022-.361.063-.363.042 0 .08.16.088.359.006.2-.022.362-.064.363m.05 1.444c-.041.002-.08-.159-.087-.358-.008-.2.02-.362.063-.363.04-.002.08.159.087.358.007.199-.021.362-.063.363m.051 1.444c-.04.002-.08-.159-.088-.358-.007-.2.021-.362.063-.363.041-.003.08.159.088.358.007.199-.02.362-.063.363m.053 1.444c-.042.002-.08-.16-.089-.358-.007-.2.021-.363.062-.364.042-.001.082.159.089.358.007.2-.02.362-.062.364m.054 1.444c-.042.001-.082-.16-.09-.358-.007-.2.022-.362.063-.364.041-.001.08.159.089.358.006.2-.021.362-.062.364m.054 1.444c-.041.001-.081-.16-.09-.358-.006-.2.021-.362.062-.364.042-.002.082.158.09.358.007.2-.02.362-.062.364m.055 1.443c-.042.002-.081-.159-.088-.357-.008-.2.019-.363.06-.364.042-.002.082.158.09.358.008.2-.02.362-.062.363m.057 1.444c-.042.002-.082-.159-.09-.358-.008-.199.02-.362.062-.363.04-.003.08.158.088.357.008.2-.02.362-.06.364m.056 1.444c-.041.002-.082-.16-.09-.358-.007-.2.02-.363.062-.364.041-.001.082.159.089.358.008.2-.02.362-.06.364m.056 1.444c-.042.001-.081-.159-.09-.359-.007-.198.02-.362.061-.364.042-.001.083.16.09.359.008.199-.019.362-.06.364m.057 1.443c-.042.002-.082-.158-.09-.358-.008-.199.02-.362.061-.364.041-.002.082.16.09.358.008.2-.02.363-.061.364m.057 1.443c-.041.003-.082-.157-.09-.357-.008-.2.02-.362.061-.364.042-.002.082.159.09.358.008.2-.02.362-.061.363m.057 1.444c-.041.002-.082-.158-.089-.357-.008-.2.019-.363.06-.364.042-.002.082.158.09.357.008.2-.019.362-.06.364m.056 1.444c-.041.002-.08-.158-.089-.358-.008-.2.02-.362.061-.364.041-.001.082.16.09.358.007.2-.02.362-.061.364m.056 1.444c-.041.001-.08-.158-.089-.358-.008-.199.02-.362.061-.364.042-.002.082.158.09.359.008.198-.02.36-.062.363m.057 1.443c-.042.002-.081-.158-.09-.357-.007-.2.02-.363.062-.364.041-.002.081.159.089.358.008.2-.02.363-.06.363m.055 1.445c-.041 0-.082-.159-.089-.359-.008-.2.02-.362.06-.364.043 0 .082.159.09.359.008.199-.02.362-.061.363m.055 1.444c-.041.001-.081-.158-.089-.358-.007-.2.02-.363.061-.363.042-.002.082.158.09.357.007.2-.02.363-.062.364m.054 1.445c-.042.001-.08-.16-.089-.36-.007-.199.02-.361.062-.363.041-.001.081.159.09.358.006.2-.021.363-.063.365m.053 1.442c-.041.003-.081-.158-.088-.357-.008-.2.02-.362.062-.364.04-.001.08.158.088.359.007.198-.02.361-.062.363m.052 1.444c-.042.001-.081-.159-.088-.358-.008-.2.02-.362.062-.364.042-.001.08.158.088.359.007.198-.021.362-.062.363m.05 1.449c-.042.002-.08-.159-.088-.359-.006-.2.022-.364.063-.365.041-.001.08.16.087.36.008.2-.02.363-.062.364"/><path d="M140.333 266.542c-.041.001-.08-.16-.088-.36-.006-.199.022-.362.064-.363.041-.002.08.159.087.359.007.2-.022.362-.063.364m.034 1.047c-.042.001-.078-.07-.08-.16-.003-.09.028-.164.07-.165.04-.001.077.07.08.16.003.09-.028.163-.07.165m4.123-107.645c.012-.009-.227.177-.665.035a1.299 1.299 0 01-.634-.485c-.183-.261-.29-.613-.339-1-.125-1.55-.23-3.68-.364-6.04l-.306-6.04-.076-1.831-.013-.498a.75.75 0 01.006-.174.72.72 0 01.025.172l.04.497.124 1.829.35 6.037.32 6.035c.04.38.137.716.303.966.164.249.39.401.584.477.407.152.647-.005.645.02m-25.986 11.099c-.004-.018.222-.007.571-.17.343-.161.798-.54 1.062-1.175.27-.636.305-1.473.258-2.388a25.463 25.463 0 00-.296-2.97 25.642 25.642 0 00-1.39-5.13l.059.033-1.702.28-.464.07c-.106.013-.163.018-.164.013 0-.006.053-.02.158-.044l.46-.097 1.693-.328.042-.009.018.042a23.686 23.686 0 011.724 8.135c.04.917-.004 1.78-.298 2.433-.288.658-.774 1.038-1.136 1.188-.369.153-.595.117-.595.117" fill="#334F55"/><path d="M119.31 161.378c.01.04-.607.213-1.377.385-.77.174-1.402.28-1.41.24-.01-.04.607-.213 1.377-.386.77-.172 1.401-.28 1.41-.24m-9.806-28.552c.233-.778 5.324-6.345 9.917-11.261 1.595 9.718 3.749 20.916 3.96 22.017-5.525-3.741-14.17-9.781-13.877-10.756zm88.05-42.61l-8.094-6.63c-21.99 19.842-50.342 17.586-50.342 17.586l.004.047c-1.266-.206-7.948-1.277-10.156-1.318-1.729-.033-5.72-.35-8.548 2.319-.069.066-.138.133-.207.202-2.556 2.497-28.158 27.727-25.44 33.98 2.861 6.579 27.191 20.874 27.191 20.874l5.893-10.705s-1.834-1.204-4.345-2.901l19.868-.511.877-14.874s3.391-3.792 3.391-6.513c0-1.892-1.042-5.015-2.388-8.26 31.323-2.617 52.296-23.296 52.296-23.296z" fill="#334F55"/><path d="M146.47 125.04s-.25.028-.73.028c-.48-.007-1.2-.011-2.088-.253-.866-.233-1.976-.816-2.551-2.034-.282-.592-.345-1.378.006-2.06.328-.66 1.034-1.289 1.917-1.233.881.048 1.606.818 1.822 1.701.231.913-.115 1.901-.707 2.666-1.19 1.562-3.341 2.456-5.52 2.27a6.53 6.53 0 01-3.147-1.072c-.945-.64-1.77-1.577-2.083-2.756-.149-.585-.151-1.23.098-1.813.256-.577.757-1.026 1.345-1.26.579-.24 1.329-.212 1.837.231.523.42.714 1.135.648 1.768a3.956 3.956 0 01-.63 1.783c-.35.528-.8.964-1.281 1.347a7.002 7.002 0 01-3.325 1.363c-2.351.353-4.804-.514-6.163-2.27-.332-.438-.586-.94-.682-1.478a2.634 2.634 0 01.199-1.579 1.93 1.93 0 011.142-1.037c.504-.168 1.042-.066 1.49.133.89.426 1.545 1.31 1.543 2.252.02.929-.426 1.76-.99 2.356-1.15 1.231-2.75 1.61-4.035 1.548a6.264 6.264 0 01-3.15-1.015 5.376 5.376 0 01-1.52-1.446c-.277-.394-.377-.628-.377-.628.014-.01.127.22.414.601.281.382.761.918 1.53 1.399.76.48 1.822.92 3.108.963 1.26.049 2.81-.335 3.913-1.53.541-.58.957-1.375.932-2.245.001-.864-.616-1.692-1.446-2.085-.417-.182-.908-.271-1.354-.119a1.73 1.73 0 00-1.02.939c-.206.442-.271.96-.179 1.456.09.498.33.972.647 1.39 1.308 1.68 3.683 2.523 5.967 2.176a6.787 6.787 0 003.219-1.321c.462-.368.9-.795 1.228-1.292.325-.5.54-1.083.595-1.679.06-.592-.115-1.213-.568-1.576-.436-.382-1.08-.412-1.61-.195-.533.21-.995.625-1.223 1.141-.223.519-.228 1.121-.088 1.666.29 1.11 1.08 2.017 1.99 2.634.916.62 1.989.96 3.044 1.042 2.115.187 4.202-.677 5.353-2.175.574-.733.897-1.67.687-2.511-.198-.828-.872-1.54-1.663-1.583-.794-.06-1.465.515-1.779 1.137-.334.64-.282 1.371-.02 1.945.54 1.173 1.611 1.76 2.461 2.001.871.25 1.588.27 2.064.291l.545.011c.122.001.186.004.186.008m-2.833 13.715s-.12.091-.358.247c-.238.154-.588.385-1.049.667-.461.28-1.037.62-1.772.871-.733.255-1.636.347-2.603.232-.948-.113-2.072-.344-2.933-1.168-.41-.41-.74-.961-.81-1.596a1.889 1.889 0 01.732-1.731c.266-.204.596-.348.95-.362a1.44 1.44 0 01.986.347c.545.471.773 1.252.619 1.968-.158.718-.632 1.326-1.186 1.795a6.687 6.687 0 01-1.911 1.106 7.311 7.311 0 01-4.293.268c-1.351-.344-2.65-1.029-3.34-2.18-.328-.562-.469-1.282-.18-1.877.283-.572.833-.983 1.44-1.05.301-.032.618.054.847.244.234.184.38.451.45.719.141.545-.02 1.102-.305 1.507-.593.813-1.427 1.222-2.144 1.488a5.418 5.418 0 01-1.952.3 4.807 4.807 0 01-1.234-.189 2.777 2.777 0 01-.41-.146c.007-.037.569.233 1.645.246a5.463 5.463 0 001.909-.33c.694-.267 1.507-.69 2.053-1.459.263-.383.4-.886.27-1.374-.11-.484-.575-.895-1.112-.82-.524.057-1.032.439-1.277.95-.25.514-.128 1.166.18 1.688.643 1.07 1.901 1.74 3.212 2.067a7.116 7.116 0 004.16-.263 6.5 6.5 0 001.846-1.067c.534-.449.973-1.02 1.115-1.67.142-.636-.069-1.35-.542-1.757-.474-.429-1.203-.367-1.67.016a1.68 1.68 0 00-.66 1.546c.058.576.36 1.096.745 1.484.799.778 1.885 1.022 2.818 1.141.949.123 1.825.046 2.545-.192.723-.235 1.3-.561 1.767-.827.437-.258.79-.467 1.071-.631.246-.143.38-.208.38-.208m10.879-38.533s.331.13.802.555a3.818 3.818 0 011.19 2.355c.077.566.003 1.206-.224 1.84a4.125 4.125 0 01-1.256 1.717 4.46 4.46 0 01-2.15.948 3.813 3.813 0 01-1.257-.014c-.421-.077-.868-.247-1.153-.642a.844.844 0 01-.124-.698 1.07 1.07 0 01.405-.559c.364-.273.81-.356 1.226-.36.844.006 1.62.397 2.14.954.535.56.78 1.289.83 1.956a3.828 3.828 0 01-.32 1.827c-.479 1.05-1.25 1.637-1.777 1.963a4.7 4.7 0 01-.646.329c-.153.061-.236.087-.24.08-.009-.02.32-.14.84-.483.503-.342 1.238-.937 1.677-1.954a3.71 3.71 0 00.28-1.746c-.057-.634-.295-1.315-.795-1.83a2.798 2.798 0 00-1.99-.874c-.383.003-.783.084-1.09.318-.32.215-.458.639-.23.952.22.308.623.48 1.007.546.396.076.799.07 1.186.016a4.26 4.26 0 002.05-.891c1.16-.9 1.578-2.299 1.453-3.378a3.813 3.813 0 00-1.093-2.308c-.442-.436-.755-.597-.74-.62m10.553-2.567s.173.114.353.438c.081.164.153.395.12.662-.027.267-.139.55-.293.835a8.043 8.043 0 01-1.319 1.841c-.578.624-1.267 1.252-1.777 2.07-1.05 1.631-1.28 3.454-1.187 4.704.093 1.27.422 2.009.374 2.022-.012.005-.097-.175-.22-.515a7.018 7.018 0 01-.313-1.493c-.136-1.273.072-3.155 1.156-4.84.53-.848 1.24-1.484 1.816-2.09a8.402 8.402 0 001.331-1.776c.158-.273.27-.534.308-.773.04-.24-.012-.45-.076-.61-.145-.316-.293-.46-.274-.475m7.971 8.531s-.355.21-1.08.223a3.137 3.137 0 01-2.595-1.38c-.725-1.09-.833-2.798-.145-4.358.338-.777.847-1.549 1.599-2.116.737-.57 1.783-.855 2.76-.567.482.141.928.432 1.212.844.284.407.425.898.4 1.38-.02.478-.237.954-.602 1.25-.353.311-.818.439-1.248.456a3.11 3.11 0 01-2.23-.861c-.563-.521-.894-1.178-1.081-1.79-.364-1.25-.116-2.335.181-2.973.307-.65.616-.914.616-.914.025.018-.26.303-.536.948a4.298 4.298 0 00-.109 2.893c.191.587.516 1.21 1.056 1.698.52.496 1.288.822 2.094.792.397-.02.81-.139 1.116-.413.32-.262.504-.67.523-1.098.055-.869-.546-1.762-1.457-1.995-.897-.265-1.867-.008-2.564.527-.71.532-1.208 1.274-1.54 2.022-.674 1.502-.583 3.144.089 4.188a3.078 3.078 0 002.463 1.38c.703.015 1.072-.166 1.078-.136m5.714-14.599c.005-.013.165.044.44.18.275.137.662.364 1.087.718.425.35.874.85 1.242 1.485.368.634.651 1.396.817 2.223a7.067 7.067 0 01-.483 4.226c-.227.502-.465.88-.648 1.127-.184.246-.3.37-.311.36-.038-.024.403-.549.812-1.55.41-.988.734-2.503.41-4.12a7.508 7.508 0 00-.779-2.164 5.692 5.692 0 00-1.165-1.468c-.808-.715-1.448-.975-1.422-1.017m11.836 4.361s-.307.155-.92.214a3.15 3.15 0 01-1.111-.1c-.426-.115-.877-.387-1.25-.793-.755-.798-1.308-2.13-1.105-3.599.105-.72.476-1.49 1.167-1.943.337-.227.742-.38 1.17-.392.428-.019.869.136 1.206.413.34.275.588.67.642 1.105.057.439-.107.87-.366 1.188-.528.665-1.401.849-2.12.775a4.286 4.286 0 01-3.185-1.992c-.296-.462-.464-.97-.425-1.417.029-.446.18-.798.3-1.076.124-.278.23-.487.302-.63.072-.142.113-.215.12-.212.007.003-.02.082-.078.231l-.263.645c-.106.28-.24.63-.255 1.048-.024.419.139.882.434 1.326.561.885 1.664 1.743 3.069 1.87.68.063 1.465-.116 1.928-.706.229-.283.365-.655.315-1.022-.044-.367-.26-.715-.56-.957-.607-.523-1.506-.439-2.11-.013-.633.41-.979 1.11-1.085 1.792-.206 1.388.308 2.684 1.016 3.457.706.829 1.66.942 2.24.915.598-.031.919-.151.925-.127m-46.857 35.749s-.2.26-.676.6a6.36 6.36 0 01-2.244 1.01c-1.015.258-2.274.338-3.647.212-1.377-.121-2.849-.498-4.381-.872-1.532-.377-3.005-.693-4.365-.748-1.356-.06-2.583.15-3.544.5a6.325 6.325 0 00-2.084 1.218c-.423.39-.611.653-.63.637 0 0 .158-.285.57-.701a6.07 6.07 0 012.088-1.303c.976-.378 2.225-.61 3.609-.56 1.383.045 2.875.36 4.41.737 1.535.376 2.991.755 4.347.885 1.353.136 2.59.073 3.59-.16 2.032-.46 2.927-1.522 2.957-1.455m-30.593-22.086c-.011.03.418-.4 1.346-.264.451.07.964.314 1.483.687.526.372 1.05.859 1.685 1.349.618.513 1.217 1.158 1.95 1.727a6.273 6.273 0 002.668 1.188c2.056.4 4.404-.065 6.642-.958 2.25-.898 4.324-1.989 6.383-2.543 1.022-.28 2.032-.448 2.982-.427a8.526 8.526 0 012.585.463c1.53.531 2.552 1.457 3.023 2.22.13.185.22.362.292.52.081.154.135.29.166.404.073.225.108.344.1.346-.033.014-.133-.487-.631-1.22-.484-.734-1.498-1.617-3.002-2.12a8.467 8.467 0 00-2.536-.425c-.927-.013-1.915.157-2.924.439-2.027.557-4.087 1.646-6.355 2.553-2.26.902-4.65 1.374-6.765.953a6.43 6.43 0 01-2.743-1.245c-.745-.59-1.335-1.24-1.938-1.754-.623-.492-1.152-.998-1.655-1.368-.504-.375-.994-.622-1.425-.703-.884-.158-1.325.23-1.33.178m32.823-8.451s.06.196.106.582c.049.385.055.97-.106 1.695a5.865 5.865 0 01-1.197 2.4c-.674.804-1.721 1.548-3.05 1.771a5.745 5.745 0 01-4.164-.921c-.639-.453-1.254-1.025-1.601-1.82-.165-.394-.164-.92.134-1.287.283-.37.737-.56 1.19-.605.452-.045.952.082 1.296.43.337.335.524.806.558 1.28.083.954-.407 1.922-1.179 2.513-.765.61-1.706.945-2.648 1.211-.946.265-1.95.444-2.973.376-1.02-.065-2.023-.413-2.808-1.046-.79-.619-1.306-1.587-1.305-2.573-.026-.97.438-1.986 1.313-2.428.852-.427 1.932-.33 2.625.29.715.637.749 1.7.415 2.465-.326.803-1.018 1.355-1.723 1.687-1.44.657-2.955.717-4.262.552-2.655-.39-4.478-1.775-5.448-2.86a8.068 8.068 0 01-1.002-1.37 11.116 11.116 0 01-.269-.527c.038-.026.337.76 1.335 1.837.98 1.056 2.795 2.4 5.405 2.76 1.282.155 2.773.082 4.16-.56.679-.325 1.322-.849 1.62-1.595.31-.718.262-1.679-.37-2.234-.614-.553-1.619-.646-2.388-.253-.782.394-1.216 1.326-1.19 2.232.002.922.477 1.815 1.226 2.403.743.598 1.7.932 2.682.994.985.066 1.965-.106 2.896-.366.93-.261 1.846-.59 2.571-1.167.73-.56 1.174-1.445 1.102-2.325-.03-.433-.198-.85-.493-1.146-.29-.296-.721-.411-1.129-.374-.404.038-.81.213-1.045.523-.249.304-.256.73-.11 1.091.31.727.91 1.305 1.52 1.737a5.588 5.588 0 004.032.918c1.29-.205 2.311-.916 2.98-1.694a5.846 5.846 0 001.208-2.34c.336-1.436.032-2.26.086-2.256m-36.863 12.624c-.002-.007.097-.048.287-.118.191-.066.474-.165.847-.264.729-.198 1.919-.396 3.234.131a4.77 4.77 0 011.862 1.297c.545.613.957 1.458.983 2.403a3.611 3.611 0 01-1.09 2.642 3.605 3.605 0 01-2.905.96c-.54-.066-1.064-.28-1.458-.653-.403-.363-.606-.953-.47-1.476.129-.523.49-.925.878-1.218a3.536 3.536 0 011.3-.591c1.826-.451 3.58.197 4.58 1.155a5.02 5.02 0 011.52 2.861c.112.77.015 1.196.015 1.196-.027 0 .035-.429-.103-1.18a5.026 5.026 0 00-1.539-2.759c-.979-.91-2.678-1.515-4.422-1.072a3.321 3.321 0 00-1.222.562c-.362.275-.684.648-.79 1.097-.114.447.053.939.408 1.263.349.331.834.531 1.331.592a3.393 3.393 0 002.724-.897 3.411 3.411 0 001.036-2.479c-.02-.885-.4-1.69-.918-2.284a4.637 4.637 0 00-1.778-1.27c-1.269-.531-2.422-.365-3.155-.194-.373.084-.66.169-.855.221-.194.057-.297.082-.3.075m3.096 15.672c-.02-.01.13-.21.069-.624-.058-.402-.268-.98-.692-1.581-.383-.65-1.275-.97-2.241-.897-.967.039-2.017.467-3.204.377-1.172-.095-2.23-.673-2.861-1.476-.636-.814-.815-1.758-.824-2.51-.009-.766.215-1.374.455-1.723.243-.354.46-.468.46-.468.017.018-.175.16-.385.514-.209.35-.399.937-.37 1.674.026.724.221 1.63.826 2.383.601.748 1.607 1.291 2.718 1.381 1.113.09 2.162-.325 3.174-.36.503-.021.995.035 1.42.21.436.157.757.489.962.803.424.636.615 1.237.65 1.664.036.442-.155.647-.157.633m-7.976 16.136c-.007-.033.392.03.99-.26a1.81 1.81 0 00.812-.837c.191-.417.224-.971.154-1.554-.07-.588-.26-1.216-.471-1.887-.216-.664-.466-1.386-.965-1.976-.473-.582-1.316-.979-2.108-.778-.39.104-.72.396-.871.784-.158.384-.154.84-.014 1.248.265.852 1.183 1.282 2 1.283.84.025 1.614-.342 2.22-.823 1.203-.997 1.986-2.238 2.528-3.286.527-1.07.744-2.024.81-2.687.07-.664.032-1.036.055-1.037 0 0 .075.37.033 1.045-.04.673-.237 1.651-.755 2.748-.536 1.079-1.301 2.334-2.543 3.381-.622.504-1.447.903-2.353.88a2.652 2.652 0 01-1.313-.348 1.945 1.945 0 01-.896-1.082 2.021 2.021 0 01.02-1.407c.173-.446.57-.797 1.02-.912.914-.225 1.814.226 2.325.857.53.635.775 1.384.985 2.054.205.676.39 1.317.452 1.925.061.604.02 1.177-.2 1.627a1.89 1.89 0 01-.886.861 2.11 2.11 0 01-.757.19c-.18.011-.272-.01-.272-.01m9.494 5.565c-.002-.026.217.004.56-.138.337-.139.776-.507 1.019-1.124.27-.609.206-1.434-.104-2.258-.294-.833-.834-1.673-1.158-2.68-.16-.501-.248-1.026-.194-1.533a2.76 2.76 0 01.524-1.348c.55-.757 1.343-1.15 2.008-1.308a4.687 4.687 0 011.617-.096c.38.043.583.105.581.116.003.062-.854-.19-2.158.134-.636.172-1.374.561-1.879 1.275-.25.354-.431.782-.473 1.25-.047.466.035.96.189 1.442.31.968.844 1.814 1.139 2.678.31.85.365 1.747.055 2.39-.278.648-.766 1.023-1.134 1.144-.375.124-.592.056-.592.056" fill="#FFFFFE"/><path d="M118.175 122.9c-.019-.015.221-.341.682-.908a93.406 93.406 0 012.003-2.358c.855-.986 1.886-2.149 2.985-3.474a73.09 73.09 0 001.685-2.109c.582-.738 1.121-1.52 1.565-2.403.869-1.754 1.439-3.599 1.422-5.288 0-1.692-.608-3.188-1.499-4.098-.882-.929-1.894-1.334-2.593-1.454-.708-.13-1.116-.044-1.118-.086-.002-.012.097-.035.29-.065.192-.023.481-.04.85.007.732.079 1.809.46 2.763 1.413.965.935 1.635 2.513 1.653 4.278.035 1.774-.542 3.664-1.433 5.465-.452.9-1.024 1.724-1.608 2.456a63.272 63.272 0 01-1.712 2.108c-1.119 1.318-2.172 2.464-3.052 3.427l-2.09 2.277c-.494.537-.773.83-.793.812m-8.063 9.933c.03.099-1.09.523-2.5.947-1.41.423-2.578.685-2.608.586-.03-.1 1.09-.523 2.5-.947 1.41-.424 2.578-.686 2.608-.586" fill="#132529"/><path d="M109.787 132.74c.054.096-.805.627-1.629 1.528-.834.894-1.293 1.792-1.395 1.746-.092-.03.235-1.05 1.119-2 .876-.957 1.868-1.364 1.905-1.274m36.394-17.138c-.045.021-.378-.542-.838-1.492a37.564 37.564 0 01-1.575-3.813 37.696 37.696 0 01-1.158-3.959c-.235-1.03-.328-1.677-.28-1.688.054-.013.238.613.538 1.62a85.18 85.18 0 001.254 3.903 83.899 83.899 0 001.464 3.829c.396.973.644 1.576.595 1.6m-7.635 6.926c.033.016-.243.639-.95 1.472-.699.832-1.883 1.825-3.419 2.494-1.54.662-3.074.845-4.16.784-1.09-.056-1.733-.282-1.723-.315.013-.067.668.062 1.727.049 1.057-.008 2.524-.226 4.007-.864a10.655 10.655 0 003.372-2.327c.735-.763 1.09-1.33 1.146-1.293" fill="#132529"/><path d="M133.508 158.226s-4.992 1.083-5.653.536c-.66-.548.955-1.14.955-1.14s-1.432.17-1.478-.347c-.045-.519.523-.89.523-.89l5.653 1.84" fill="#ECAF9C"/><path d="M126.77 148.542s7.018 3.16 7.104 3.403c.086.244.302 5.246-.366 6.28-.669 1.035-9.864-4.005-9.864-4.005l3.126-5.678" fill="#ECAF9C"/><path d="M131.958 157.058c-.002.01-.127.002-.353-.023l-.955-.122c-.803-.12-1.918-.3-3.109-.667-1.198-.355-2.205-.896-2.858-1.382l-.796-.543c-.187-.132-.287-.208-.28-.216.006-.01.117.05.312.166l.819.502c.666.462 1.662.978 2.848 1.329 1.179.363 2.284.56 3.081.705l.946.17c.224.042.347.07.345.081m-.032.124c.011.038-.7.27-1.61.405-.91.14-1.658.127-1.659.088-.001-.044.736-.099 1.637-.237.899-.133 1.62-.299 1.632-.256" fill="#E6816F"/></g></svg>