<svg xmlns="http://www.w3.org/2000/svg" viewBox="0 0 32 40" x="0px" y="0px"><title>mails, communications, mail, message, email, envelopes, envelope, business and finance_1</title><g data-name="Layer 2"><path d="M27,6H5A3,3,0,0,0,2,9V23a3,3,0,0,0,3,3H27a3,3,0,0,0,3-3V9A3,3,0,0,0,27,6ZM4,11.91l6.87,4.75L4,22.67Zm8.56,5.93.59.41a5.06,5.06,0,0,0,5.7,0l.59-.41,7,6.16h-21ZM28,22.67l-6.87-6L28,11.91ZM5,8H27a1,1,0,0,1,1,1v.48L17.71,16.6a3,3,0,0,1-3.42,0L4,9.48V9A1,1,0,0,1,5,8Z"/></g><text x="0" y="47" fill="#000000" font-size="5px" font-weight="bold" font-family="'Helvetica Neue', Helvetica, Arial-Unicode, Arial, Sans-serif">Created by Saepul Nahwan</text><text x="0" y="52" fill="#000000" font-size="5px" font-weight="bold" font-family="'Helvetica Neue', Helvetica, Arial-Unicode, Arial, Sans-serif">from the Noun Project</text></svg>